%TF.GenerationSoftware,Altium Limited,Altium Designer,22.10.1 (41)*%
G04 Layer_Physical_Order=1*
G04 Layer_Color=255*
%FSLAX45Y45*%
%MOMM*%
%TF.SameCoordinates,19E9B31E-7746-43A9-897C-89C24B045B63*%
%TF.FilePolarity,Positive*%
%TF.FileFunction,Copper,L1,Top,Signal*%
%TF.Part,Single*%
G01*
G75*
%TA.AperFunction,SMDPad,CuDef*%
%ADD10R,3.55000X3.55000*%
%ADD11R,0.30000X0.80480*%
%ADD12R,0.80480X0.30000*%
%ADD13R,1.20840X1.01213*%
%ADD14R,0.70000X0.65000*%
%ADD15R,0.40000X0.50000*%
%ADD16R,0.95000X1.35000*%
%TA.AperFunction,Conductor*%
%ADD17C,0.12700*%
%ADD18C,0.25000*%
%TA.AperFunction,ComponentPad*%
%ADD19C,1.55000*%
%ADD20R,1.55000X1.55000*%
%TA.AperFunction,ViaPad*%
%ADD21C,1.27000*%
D10*
X1845595Y1162050D02*
D03*
D11*
X1670594Y1407292D02*
D03*
X1720596D02*
D03*
X1770594D02*
D03*
X1820596D02*
D03*
X1870593D02*
D03*
X1920596D02*
D03*
X1970593D02*
D03*
X2020596D02*
D03*
Y916808D02*
D03*
X1970593D02*
D03*
X1920596D02*
D03*
X1870593D02*
D03*
X1820596D02*
D03*
X1770594D02*
D03*
X1720596D02*
D03*
X1670594D02*
D03*
D12*
X2090837Y1337051D02*
D03*
Y1287048D02*
D03*
Y1237051D02*
D03*
Y1187049D02*
D03*
Y1137051D02*
D03*
Y1087049D02*
D03*
Y1037052D02*
D03*
Y987049D02*
D03*
X1600353D02*
D03*
Y1037052D02*
D03*
Y1087049D02*
D03*
Y1137051D02*
D03*
Y1187049D02*
D03*
Y1237051D02*
D03*
Y1287048D02*
D03*
Y1337051D02*
D03*
D13*
X2712995Y768350D02*
D03*
X2552619D02*
D03*
D14*
X1923214Y1556382D02*
D03*
Y1691383D02*
D03*
D15*
X2149424Y1776730D02*
D03*
X2069425D02*
D03*
X2128607Y717550D02*
D03*
X2048607D02*
D03*
D16*
X1944609Y463550D02*
D03*
X1794607D02*
D03*
D17*
X2024814Y1727119D02*
X2069425Y1771730D01*
X2149424Y1776730D02*
X2243404Y1682750D01*
X2069425Y1771730D02*
Y1776730D01*
X1804644Y1423245D02*
Y1564045D01*
X2090837Y1237051D02*
X2504608D01*
X1979243Y1415942D02*
Y1464014D01*
X1870593Y1407292D02*
Y1503761D01*
X1979243Y1464014D02*
X2024814Y1509585D01*
X1870593Y1503761D02*
X1923214Y1556382D01*
X2504608Y1237051D02*
X3039207Y1771650D01*
X2020596Y1407292D02*
X2296054Y1682750D01*
X2243404D02*
X2296054D01*
X2328007D01*
X1694614Y1674075D02*
X1804644Y1564045D01*
X1694614Y1674075D02*
Y1725485D01*
X2024814Y1509585D02*
Y1727119D01*
X1923214Y1691383D02*
X1989077D01*
X2024814Y1727119D01*
X2020596Y1337051D02*
X2090837D01*
X1920596Y1237051D02*
Y1279611D01*
X1970593Y1333200D02*
Y1407292D01*
X1920596Y1279611D02*
X1928033Y1287048D01*
X2090837D01*
X1920596Y1279611D02*
Y1322172D01*
X2005716D02*
X2020596Y1337051D01*
X1770594Y1237051D02*
Y1407292D01*
X1959565Y1322172D02*
X2005716D01*
X1920596D02*
X1959565D01*
X1970593Y1333200D01*
X1920596Y1322172D02*
Y1407292D01*
X1870593D02*
X1872414Y1409112D01*
X1970593Y1407292D02*
X1979243Y1415942D01*
X1804644Y1423245D02*
X1820596Y1407292D01*
X2725695Y755650D02*
X3039207D01*
X2712995Y768350D02*
X2725695Y755650D01*
X2598507Y247650D02*
X3039207D01*
X1944609Y463550D02*
Y483550D01*
X2128607Y667548D01*
X1959707Y717550D02*
X2048607D01*
X1986546Y836636D02*
X2054832Y768350D01*
X2128607Y667548D02*
Y712550D01*
Y717550D01*
Y722550D01*
X2174407Y768350D01*
X2142257Y698900D02*
X2147257D01*
X2128607Y712550D02*
X2142257Y698900D01*
X2174407Y768350D02*
X2552619D01*
X2054832D02*
X2174407D01*
X2147257Y698900D02*
X2598507Y247650D01*
X2090837Y1137051D02*
X2912608D01*
X2090837Y1087049D02*
X2961808D01*
X3039207Y1009650D01*
X2020596Y913100D02*
X3141999D01*
X2090837Y1187049D02*
X2708605D01*
X2912608Y1137051D02*
X3039207Y1263650D01*
X3141999Y913100D02*
X3142414Y912685D01*
X2708605Y1187049D02*
X3039207Y1517650D01*
X1970593Y916808D02*
X1986546Y900855D01*
X2020596Y913100D02*
Y916808D01*
X1770594Y1087049D02*
X1845595Y1162050D01*
X1770594Y916808D02*
Y1087049D01*
Y1237051D02*
X1845595Y1162050D01*
X1970593Y916808D02*
Y1037052D01*
X2020596Y987049D02*
X2090837D01*
X1920596Y916808D02*
Y1087049D01*
X1970593Y1037052D02*
X2020596Y987049D01*
X1970593Y1037052D02*
X2090837D01*
X1920596Y1087049D02*
X1970593Y1037052D01*
X1845595Y1162050D02*
X1920596Y1087049D01*
X1845595Y1162050D02*
X1920596Y1237051D01*
X1600353Y1087049D02*
Y1137051D01*
Y1187049D02*
Y1237051D01*
X1870593Y806663D02*
Y916808D01*
X1794607Y463550D02*
Y551505D01*
X1842867Y599765D01*
Y665754D01*
X1820596Y688025D02*
X1842867Y665754D01*
X1870593Y806663D02*
X1959707Y717550D01*
X1820596Y688025D02*
Y916808D01*
X1986546Y836636D02*
Y900855D01*
X3039207Y2025650D02*
X3142414Y1922443D01*
Y912685D02*
Y1922443D01*
D18*
X664307Y1771650D02*
X766308Y1873651D01*
X664307Y2025650D02*
X766308Y1923649D01*
X664307Y1263650D02*
X766308Y1365651D01*
X664307Y1517650D02*
X766308Y1415649D01*
Y1873651D02*
X1269675D01*
X1670594Y1472733D01*
X1290386Y1923649D02*
X1720596Y1493444D01*
X766308Y1923649D02*
X1290386D01*
X1670594Y1407292D02*
Y1472733D01*
X1720596Y1407292D02*
Y1493444D01*
X1718097Y850758D02*
Y914309D01*
X1668094Y871464D02*
Y914309D01*
X1718097D02*
X1720596Y916808D01*
X1668094Y914309D02*
X1670594Y916808D01*
X766308Y907649D02*
X1079775D01*
X766308Y857651D02*
X1100486D01*
X1229883Y987049D01*
X1079775Y907649D02*
X1209177Y1037052D01*
X1229883Y987049D02*
X1532809D01*
X1209177Y1037052D02*
X1532809D01*
X766308Y1415649D02*
X1125886D01*
X1183777Y1287048D02*
X1532809D01*
X1105175Y1365651D02*
X1183777Y1287048D01*
X1538961Y1330899D02*
X1568963D01*
X1532809Y1337051D02*
X1538961Y1330899D01*
X1204489Y1337051D02*
X1532809D01*
X766308Y1365651D02*
X1105175D01*
X1125886Y1415649D02*
X1204489Y1337051D01*
X664307Y247650D02*
X727665Y311008D01*
X664307Y755650D02*
X766308Y857651D01*
X689184Y414701D02*
Y476778D01*
X664307Y1009650D02*
X766308Y907649D01*
X664307Y501650D02*
X689184Y476778D01*
X727665Y311008D02*
Y335006D01*
X742305Y349651D01*
X689184Y414701D02*
X704230Y399649D01*
X1575115Y1337051D02*
X1600353D01*
X1532809Y1287048D02*
X1538961Y1293200D01*
X1568963D01*
X1575115Y1287048D02*
X1600353D01*
X1568963Y1293200D02*
X1575115Y1287048D01*
X1538961Y1030900D02*
X1568963D01*
X1532809Y1037052D02*
X1538961Y1030900D01*
X1568963Y1330899D02*
X1575115Y1337051D01*
X1196279Y399649D02*
X1668094Y871464D01*
X1216990Y349651D02*
X1718097Y850758D01*
X1575115Y987049D02*
X1600353D01*
X1532809D02*
X1538961Y993201D01*
X1568963D01*
X1575115Y987049D01*
X1568963Y1030900D02*
X1575115Y1037052D01*
X1600353D01*
X742305Y349651D02*
X1216990D01*
X704230Y399649D02*
X1196279D01*
D19*
X3039207Y2025650D02*
D03*
Y1771650D02*
D03*
Y1517650D02*
D03*
Y1263650D02*
D03*
Y1009650D02*
D03*
Y755650D02*
D03*
Y501650D02*
D03*
X664307Y2019275D02*
D03*
Y1765275D02*
D03*
Y1511275D02*
D03*
Y1257275D02*
D03*
Y1003275D02*
D03*
Y749275D02*
D03*
Y495275D02*
D03*
D20*
X3039207Y247650D02*
D03*
X664307Y241275D02*
D03*
D21*
X1694614Y1725485D02*
D03*
X2328007Y1682750D02*
D03*
%TF.MD5,b686b04e92261bb42fa9952b0a6a33f6*%
M02*
