%TF.GenerationSoftware,Altium Limited,Altium Designer,22.9.1 (49)*%
G04 Layer_Color=8388736*
%FSLAX25Y25*%
%MOIN*%
%TF.SameCoordinates,E4663CD6-9850-4590-99AB-2D6E941D03D6*%
%TF.FilePolarity,Positive*%
%TF.FileFunction,Other,Top_3D_Body*%
%TF.Part,Single*%
G01*
G75*
%TA.AperFunction,NonConductor*%
%ADD36C,0.00787*%
D36*
X144067Y152917D02*
Y155083D01*
X139933D02*
X144067D01*
X139933Y152917D02*
Y155083D01*
Y152917D02*
X144067D01*
X246287Y232988D02*
Y244012D01*
X122272Y233650D02*
Y243350D01*
Y232988D02*
X246287D01*
X137701Y123850D02*
Y130150D01*
Y123850D02*
X150299D01*
Y130150D01*
X137701D02*
X150299D01*
X144067Y146917D02*
Y149083D01*
X139933D02*
X144067D01*
X139933Y146917D02*
Y149083D01*
Y146917D02*
X144067D01*
X131461Y218063D02*
Y225937D01*
X126539Y218063D02*
X131461D01*
X126539D02*
Y225937D01*
X131461D01*
X138701Y172850D02*
Y179150D01*
Y172850D02*
X151299D01*
Y179150D01*
X138701D02*
X151299D01*
X118425Y28138D02*
X221575D01*
Y7862D02*
Y28138D01*
X118425Y7862D02*
X221575D01*
X118425D02*
Y28138D01*
X158961Y218063D02*
Y225937D01*
X154039Y218063D02*
X158961D01*
X154039D02*
Y225937D01*
X158961D01*
X307988Y92154D02*
X319012D01*
X308650Y216169D02*
X318350D01*
X307988Y92154D02*
Y216169D01*
X118425Y47862D02*
Y68138D01*
Y47862D02*
X221575D01*
Y68138D01*
X118425D02*
X221575D01*
X51988Y89213D02*
X63012D01*
X52650Y213228D02*
X62350D01*
X51988Y89213D02*
Y213228D01*
X260728Y185653D02*
X264272D01*
Y192347D01*
X260728D02*
X264272D01*
X260728Y185653D02*
Y192347D01*
Y135153D02*
Y141847D01*
X264272D01*
Y135153D02*
Y141847D01*
X260728Y135153D02*
X264272D01*
X260728Y173894D02*
X264272D01*
X260728Y167201D02*
Y173894D01*
Y167201D02*
X264272D01*
Y173894D01*
Y116154D02*
Y122846D01*
X260728Y116154D02*
X264272D01*
X260728D02*
Y122846D01*
X264272D01*
X260728Y203606D02*
X264272D01*
Y210299D01*
X260728D02*
X264272D01*
X260728Y203606D02*
Y210299D01*
X142532Y135016D02*
X146468D01*
X142532D02*
Y136984D01*
X146468D01*
Y135016D02*
Y136984D01*
X142532Y165516D02*
X146468D01*
X142532D02*
Y167484D01*
X146468D01*
Y165516D02*
Y167484D01*
X145461Y218063D02*
Y225937D01*
X140539Y218063D02*
X145461D01*
X140539D02*
Y225937D01*
X145461D01*
X264272Y97154D02*
Y103847D01*
X260728Y97154D02*
X264272D01*
X260728D02*
Y103847D01*
X264272D01*
X231417Y173067D02*
X233583D01*
X231417Y168933D02*
Y173067D01*
Y168933D02*
X233583D01*
Y173067D01*
X232583Y99358D02*
Y103492D01*
X230417Y99358D02*
X232583D01*
X230417D02*
Y103492D01*
X232583D01*
%TF.MD5,a95792580f2dcd01143e465040dd8b48*%
M02*
