%TF.GenerationSoftware,Altium Limited,Altium Designer,22.9.1 (49)*%
G04 Layer_Color=65535*
%FSLAX25Y25*%
%MOIN*%
%TF.SameCoordinates,E4663CD6-9850-4590-99AB-2D6E941D03D6*%
%TF.FilePolarity,Positive*%
%TF.FileFunction,Legend,Top*%
%TF.Part,Single*%
G01*
G75*
%TA.AperFunction,NonConductor*%
%ADD35C,0.00984*%
%ADD36C,0.00787*%
%ADD37C,0.01575*%
%ADD38C,0.01000*%
%ADD39C,0.00394*%
%ADD40C,0.00591*%
D35*
X154976Y171051D02*
G03*
X154976Y171051I-492J0D01*
G01*
X119272Y238500D02*
G03*
X119272Y238500I-492J0D01*
G01*
X125512Y1287D02*
G03*
X125512Y1287I-492J0D01*
G01*
X229382Y181000D02*
G03*
X229382Y181000I-492J0D01*
G01*
X313992Y219661D02*
G03*
X313992Y219661I-492J0D01*
G01*
X125512Y41287D02*
G03*
X125512Y41287I-492J0D01*
G01*
X57992Y216721D02*
G03*
X57992Y216721I-492J0D01*
G01*
X228882Y111500D02*
G03*
X228882Y111500I-492J0D01*
G01*
D36*
X228697Y104500D02*
G03*
X228697Y104500I-197J0D01*
G01*
X145197Y151000D02*
G03*
X145197Y151000I-197J0D01*
G01*
X122697Y229000D02*
G03*
X122697Y229000I-197J0D01*
G01*
X136697D02*
G03*
X136697Y229000I-197J0D01*
G01*
X147697Y139500D02*
G03*
X147697Y139500I-197J0D01*
G01*
X138197Y122000D02*
G03*
X138197Y122000I-197J0D01*
G01*
X247697Y109500D02*
G03*
X247697Y109500I-197J0D01*
G01*
X247197Y126000D02*
G03*
X247197Y126000I-197J0D01*
G01*
X246697Y195000D02*
G03*
X246697Y195000I-197J0D01*
G01*
X247197Y179000D02*
G03*
X247197Y179000I-197J0D01*
G01*
X258197Y174500D02*
G03*
X258197Y174500I-197J0D01*
G01*
Y104000D02*
G03*
X258197Y104000I-197J0D01*
G01*
X229197Y87000D02*
G03*
X229197Y87000I-197J0D01*
G01*
X215697Y107500D02*
G03*
X215697Y107500I-197J0D01*
G01*
X258197Y123500D02*
G03*
X258197Y123500I-197J0D01*
G01*
X265697Y134000D02*
G03*
X265697Y134000I-197J0D01*
G01*
X216197Y124000D02*
G03*
X216197Y124000I-197J0D01*
G01*
X230197Y139000D02*
G03*
X230197Y139000I-197J0D01*
G01*
X229697Y156500D02*
G03*
X229697Y156500I-197J0D01*
G01*
X215697Y177500D02*
G03*
X215697Y177500I-197J0D01*
G01*
X265197Y184500D02*
G03*
X265197Y184500I-197J0D01*
G01*
Y202500D02*
G03*
X265197Y202500I-197J0D01*
G01*
X215197Y194000D02*
G03*
X215197Y194000I-197J0D01*
G01*
X230197Y208500D02*
G03*
X230197Y208500I-197J0D01*
G01*
X150197Y229000D02*
G03*
X150197Y229000I-197J0D01*
G01*
X144697Y157500D02*
G03*
X144697Y157500I-197J0D01*
G01*
X148697Y170500D02*
G03*
X148697Y170500I-197J0D01*
G01*
X138197Y171000D02*
G03*
X138197Y171000I-197J0D01*
G01*
X159209Y132075D02*
Y170658D01*
X173776Y132075D02*
Y170658D01*
X159209D02*
X173776D01*
X159209Y132075D02*
X173776D01*
X139933Y156461D02*
X144067D01*
X139933Y151539D02*
X144067D01*
X122468Y233185D02*
Y243815D01*
Y233185D02*
X246091D01*
Y243815D01*
X122468D02*
X246091D01*
X142333Y130658D02*
X145667D01*
X142333Y123342D02*
X145667D01*
X139933Y150461D02*
X144067D01*
X139933Y145539D02*
X144067D01*
X124362Y215492D02*
Y228508D01*
X133638Y215492D02*
Y228508D01*
X143333Y179658D02*
X146667D01*
X143333Y172342D02*
X146667D01*
X118425Y28138D02*
X121555D01*
X218445D02*
X221575D01*
Y7862D02*
Y28138D01*
X118425Y7862D02*
X121555D01*
X218445D02*
X221575D01*
X118425D02*
Y28138D01*
X234606Y88539D02*
X235394D01*
X234606Y93461D02*
X235394D01*
X229677Y185134D02*
X241882D01*
X229677Y193402D02*
X241882D01*
X229677Y185134D02*
Y193402D01*
X241882Y185134D02*
Y193402D01*
X235106Y158039D02*
X235894D01*
X235106Y162961D02*
X235894D01*
X151862Y215492D02*
Y228508D01*
X161138Y215492D02*
Y228508D01*
X308185Y215972D02*
X318815D01*
X308185Y92350D02*
Y215972D01*
Y92350D02*
X318815D01*
Y215972D01*
X118425Y47862D02*
Y68138D01*
X218445Y47862D02*
X221575D01*
X118425D02*
X121555D01*
X221575D02*
Y68138D01*
X218445D02*
X221575D01*
X118425D02*
X121555D01*
X52185Y213032D02*
X62815D01*
X52185Y89410D02*
Y213032D01*
Y89410D02*
X62815D01*
Y213032D01*
X265846Y185653D02*
Y192347D01*
X259154Y185653D02*
Y192347D01*
Y135153D02*
Y141847D01*
X265846Y135153D02*
Y141847D01*
X259154Y167201D02*
Y173894D01*
X265846Y167201D02*
Y173894D01*
Y116154D02*
Y122846D01*
X259154Y116154D02*
Y122846D01*
X265846Y203606D02*
Y210299D01*
X259154Y203606D02*
Y210299D01*
X141995Y138657D02*
X147005D01*
X141995Y133343D02*
X147005D01*
X141995Y169158D02*
X147005D01*
X141995Y163842D02*
X147005D01*
X138362Y215492D02*
Y228508D01*
X147638Y215492D02*
Y228508D01*
X235106Y145461D02*
X235894D01*
X235106Y140539D02*
X235894D01*
X265846Y97154D02*
Y103847D01*
X259154Y97154D02*
Y103847D01*
X241382Y115634D02*
Y123902D01*
X229177Y115634D02*
Y123902D01*
X241382D01*
X229177Y115634D02*
X241382D01*
X229833Y168938D02*
Y173072D01*
X235157Y168933D02*
Y173067D01*
X235606Y214961D02*
X236394D01*
X235606Y210039D02*
X236394D01*
X234157Y99358D02*
Y103492D01*
X228833Y99363D02*
Y103497D01*
X143729Y119918D02*
X143270Y120378D01*
X142351D01*
X141892Y119918D01*
Y118082D01*
X142351Y117622D01*
X143270D01*
X143729Y118082D01*
X146484Y117622D02*
X144647D01*
X146484Y119459D01*
Y119918D01*
X146025Y120378D01*
X145106D01*
X144647Y119918D01*
X135704Y134623D02*
Y137378D01*
X137082D01*
X137541Y136918D01*
Y136000D01*
X137082Y135541D01*
X135704D01*
X136623D02*
X137541Y134623D01*
X140296D02*
X138459D01*
X140296Y136459D01*
Y136918D01*
X139837Y137378D01*
X138918D01*
X138459Y136918D01*
X136663Y165122D02*
Y167877D01*
X138041D01*
X138500Y167418D01*
Y166500D01*
X138041Y166041D01*
X136663D01*
X137582D02*
X138500Y165122D01*
X139418D02*
X140337D01*
X139877D01*
Y167877D01*
X139418Y167418D01*
X144812Y183918D02*
X144353Y184378D01*
X143435D01*
X142975Y183918D01*
Y182082D01*
X143435Y181623D01*
X144353D01*
X144812Y182082D01*
X145730Y181623D02*
X146649D01*
X146189D01*
Y184378D01*
X145730Y183918D01*
X242949Y120582D02*
Y122418D01*
X243867Y123337D01*
X244786Y122418D01*
Y120582D01*
Y121959D01*
X242949D01*
X245704Y120582D02*
Y122418D01*
X246163D01*
X246622Y121959D01*
Y120582D01*
Y121959D01*
X247082Y122418D01*
X247541Y121959D01*
Y120582D01*
X248459Y119663D02*
Y122418D01*
X249837D01*
X250296Y121959D01*
Y121041D01*
X249837Y120582D01*
X248459D01*
X251214Y123337D02*
Y120582D01*
X252592D01*
X253051Y121041D01*
Y121500D01*
X252592Y121959D01*
X251214D01*
X252592D01*
X253051Y122418D01*
Y122878D01*
X252592Y123337D01*
X251214D01*
X216327Y133082D02*
Y135837D01*
X217704D01*
X218163Y135378D01*
Y134459D01*
X217704Y134000D01*
X216327D01*
X217245D02*
X218163Y133082D01*
X220000Y132163D02*
X220459D01*
X220918Y132623D01*
Y134918D01*
X219541D01*
X219082Y134459D01*
Y133541D01*
X219541Y133082D01*
X220918D01*
X221837Y135837D02*
Y133082D01*
X223214D01*
X223673Y133541D01*
Y134000D01*
X223214Y134459D01*
X221837D01*
X223214D01*
X223673Y134918D01*
Y135378D01*
X223214Y135837D01*
X221837D01*
X216556Y116122D02*
Y118877D01*
X217934D01*
X218393Y118418D01*
Y117500D01*
X217934Y117041D01*
X216556D01*
X217475D02*
X218393Y116122D01*
X219311D02*
X220230D01*
X219770D01*
Y118877D01*
X219311Y118418D01*
X221607Y118877D02*
Y116122D01*
X222985D01*
X223444Y116582D01*
Y117041D01*
X222985Y117500D01*
X221607D01*
X222985D01*
X223444Y117959D01*
Y118418D01*
X222985Y118877D01*
X221607D01*
X224582Y99893D02*
X224123Y99434D01*
Y98515D01*
X224582Y98056D01*
X226418D01*
X226877Y98515D01*
Y99434D01*
X226418Y99893D01*
X226877Y100811D02*
Y101730D01*
Y101270D01*
X224123D01*
X224582Y100811D01*
X224123Y103107D02*
X226877D01*
Y104485D01*
X226418Y104944D01*
X225959D01*
X225500Y104485D01*
Y103107D01*
Y104485D01*
X225041Y104944D01*
X224582D01*
X224123Y104485D01*
Y103107D01*
X243327Y89622D02*
Y92378D01*
X244704D01*
X245163Y91918D01*
Y91000D01*
X244704Y90541D01*
X243327D01*
X244245D02*
X245163Y89622D01*
X247918D02*
X246082D01*
X247918Y91459D01*
Y91918D01*
X247459Y92378D01*
X246541D01*
X246082Y91918D01*
X248837Y92378D02*
Y89622D01*
X250214D01*
X250673Y90082D01*
Y90541D01*
X250214Y91000D01*
X248837D01*
X250214D01*
X250673Y91459D01*
Y91918D01*
X250214Y92378D01*
X248837D01*
X244056Y141622D02*
Y144378D01*
X245434D01*
X245893Y143918D01*
Y143000D01*
X245434Y142541D01*
X244056D01*
X244975D02*
X245893Y141622D01*
X247270D02*
Y143918D01*
Y143000D01*
X246811D01*
X247730D01*
X247270D01*
Y143918D01*
X247730Y144378D01*
X249107D02*
Y141622D01*
X250485D01*
X250944Y142082D01*
Y142541D01*
X250485Y143000D01*
X249107D01*
X250485D01*
X250944Y143459D01*
Y143918D01*
X250485Y144378D01*
X249107D01*
X245449Y133123D02*
Y135878D01*
X246827D01*
X247286Y135418D01*
Y134500D01*
X246827Y134041D01*
X245449D01*
X246368D02*
X247286Y133123D01*
X248663D02*
X249582D01*
X250041Y133582D01*
Y134500D01*
X249582Y134959D01*
X248663D01*
X248204Y134500D01*
Y133582D01*
X248663Y133123D01*
X250959Y135878D02*
Y133123D01*
X252337D01*
X252796Y133582D01*
Y134041D01*
X252337Y134500D01*
X250959D01*
X252337D01*
X252796Y134959D01*
Y135418D01*
X252337Y135878D01*
X250959D01*
X253714Y134500D02*
X255551D01*
X254632Y135418D02*
Y133582D01*
X245449Y106123D02*
Y108878D01*
X246827D01*
X247286Y108418D01*
Y107500D01*
X246827Y107041D01*
X245449D01*
X246368D02*
X247286Y106123D01*
X248663D02*
X249582D01*
X250041Y106582D01*
Y107500D01*
X249582Y107959D01*
X248663D01*
X248204Y107500D01*
Y106582D01*
X248663Y106123D01*
X250959Y108878D02*
Y106123D01*
X252337D01*
X252796Y106582D01*
Y107041D01*
X252337Y107500D01*
X250959D01*
X252337D01*
X252796Y107959D01*
Y108418D01*
X252337Y108878D01*
X250959D01*
X253714Y107500D02*
X255551D01*
X269918Y139884D02*
X270377Y140343D01*
Y141261D01*
X269918Y141721D01*
X268082D01*
X267622Y141261D01*
Y140343D01*
X268082Y139884D01*
X267622Y137129D02*
Y138966D01*
X269459Y137129D01*
X269918D01*
X270377Y137588D01*
Y138506D01*
X269918Y138966D01*
X270377Y136211D02*
X267622D01*
Y134833D01*
X268082Y134374D01*
X268541D01*
X269000Y134833D01*
Y136211D01*
Y134833D01*
X269459Y134374D01*
X269918D01*
X270377Y134833D01*
Y136211D01*
X269918Y121104D02*
X270377Y121564D01*
Y122482D01*
X269918Y122941D01*
X268082D01*
X267622Y122482D01*
Y121564D01*
X268082Y121104D01*
X269918Y120186D02*
X270377Y119727D01*
Y118808D01*
X269918Y118349D01*
X269459D01*
X269000Y118808D01*
Y119268D01*
Y118808D01*
X268541Y118349D01*
X268082D01*
X267622Y118808D01*
Y119727D01*
X268082Y120186D01*
X270377Y117431D02*
X267622D01*
Y116053D01*
X268082Y115594D01*
X268541D01*
X269000Y116053D01*
Y117431D01*
Y116053D01*
X269459Y115594D01*
X269918D01*
X270377Y116053D01*
Y117431D01*
X269918Y102337D02*
X270377Y102796D01*
Y103714D01*
X269918Y104173D01*
X268082D01*
X267622Y103714D01*
Y102796D01*
X268082Y102337D01*
X267622Y100041D02*
X270377D01*
X269000Y101418D01*
Y99582D01*
X270377Y98663D02*
X267622D01*
Y97286D01*
X268082Y96827D01*
X268541D01*
X269000Y97286D01*
Y98663D01*
Y97286D01*
X269459Y96827D01*
X269918D01*
X270377Y97286D01*
Y98663D01*
X269418Y172431D02*
X269878Y172890D01*
Y173809D01*
X269418Y174268D01*
X267582D01*
X267123Y173809D01*
Y172890D01*
X267582Y172431D01*
X267123Y170135D02*
X269878D01*
X268500Y171513D01*
Y169676D01*
X267123Y168758D02*
X268959D01*
X269878Y167840D01*
X268959Y166921D01*
X267123D01*
X268500D01*
Y168758D01*
X269418Y190837D02*
X269878Y191296D01*
Y192214D01*
X269418Y192673D01*
X267582D01*
X267123Y192214D01*
Y191296D01*
X267582Y190837D01*
X269418Y189918D02*
X269878Y189459D01*
Y188541D01*
X269418Y188082D01*
X268959D01*
X268500Y188541D01*
Y189000D01*
Y188541D01*
X268041Y188082D01*
X267582D01*
X267123Y188541D01*
Y189459D01*
X267582Y189918D01*
X267123Y187163D02*
X268959D01*
X269878Y186245D01*
X268959Y185327D01*
X267123D01*
X268500D01*
Y187163D01*
X269418Y208837D02*
X269878Y209296D01*
Y210214D01*
X269418Y210673D01*
X267582D01*
X267123Y210214D01*
Y209296D01*
X267582Y208837D01*
X267123Y206082D02*
Y207918D01*
X268959Y206082D01*
X269418D01*
X269878Y206541D01*
Y207459D01*
X269418Y207918D01*
X267123Y205163D02*
X268959D01*
X269878Y204245D01*
X268959Y203327D01*
X267123D01*
X268500D01*
Y205163D01*
X246449Y175122D02*
Y177877D01*
X247827D01*
X248286Y177418D01*
Y176500D01*
X247827Y176041D01*
X246449D01*
X247368D02*
X248286Y175122D01*
X249663D02*
X250582D01*
X251041Y175582D01*
Y176500D01*
X250582Y176959D01*
X249663D01*
X249204Y176500D01*
Y175582D01*
X249663Y175122D01*
X251959D02*
Y176959D01*
X252877Y177877D01*
X253796Y176959D01*
Y175122D01*
Y176500D01*
X251959D01*
X254714D02*
X256551D01*
X244949Y200623D02*
Y203378D01*
X246327D01*
X246786Y202918D01*
Y202000D01*
X246327Y201541D01*
X244949D01*
X245867D02*
X246786Y200623D01*
X248163D02*
X249082D01*
X249541Y201082D01*
Y202000D01*
X249082Y202459D01*
X248163D01*
X247704Y202000D01*
Y201082D01*
X248163Y200623D01*
X250459D02*
Y202459D01*
X251378Y203378D01*
X252296Y202459D01*
Y200623D01*
Y202000D01*
X250459D01*
X253214D02*
X255051D01*
X254133Y202918D02*
Y201082D01*
X232556Y217622D02*
Y220377D01*
X233934D01*
X234393Y219918D01*
Y219000D01*
X233934Y218541D01*
X232556D01*
X233475D02*
X234393Y217622D01*
X235771D02*
Y219918D01*
Y219000D01*
X235311D01*
X236230D01*
X235771D01*
Y219918D01*
X236230Y220377D01*
X237607Y217622D02*
Y219459D01*
X238526Y220377D01*
X239444Y219459D01*
Y217622D01*
Y219000D01*
X237607D01*
X244327Y159123D02*
Y161878D01*
X245704D01*
X246163Y161418D01*
Y160500D01*
X245704Y160041D01*
X244327D01*
X245245D02*
X246163Y159123D01*
X248918D02*
X247082D01*
X248918Y160959D01*
Y161418D01*
X248459Y161878D01*
X247541D01*
X247082Y161418D01*
X249837Y159123D02*
Y160959D01*
X250755Y161878D01*
X251673Y160959D01*
Y159123D01*
Y160500D01*
X249837D01*
X225582Y169393D02*
X225122Y168934D01*
Y168015D01*
X225582Y167556D01*
X227418D01*
X227877Y168015D01*
Y168934D01*
X227418Y169393D01*
X227877Y170311D02*
Y171230D01*
Y170770D01*
X225122D01*
X225582Y170311D01*
X227877Y172607D02*
X226041D01*
X225122Y173525D01*
X226041Y174444D01*
X227877D01*
X226500D01*
Y172607D01*
X216556Y185123D02*
Y187878D01*
X217934D01*
X218393Y187418D01*
Y186500D01*
X217934Y186041D01*
X216556D01*
X217475D02*
X218393Y185123D01*
X219311D02*
X220230D01*
X219770D01*
Y187878D01*
X219311Y187418D01*
X221607Y185123D02*
Y186959D01*
X222525Y187878D01*
X223444Y186959D01*
Y185123D01*
Y186500D01*
X221607D01*
X214327Y202582D02*
Y205337D01*
X215704D01*
X216163Y204877D01*
Y203959D01*
X215704Y203500D01*
X214327D01*
X215245D02*
X216163Y202582D01*
X218000Y201663D02*
X218459D01*
X218918Y202122D01*
Y204418D01*
X217541D01*
X217082Y203959D01*
Y203041D01*
X217541Y202582D01*
X218918D01*
X219837D02*
Y204418D01*
X220755Y205337D01*
X221673Y204418D01*
Y202582D01*
Y203959D01*
X219837D01*
X243449Y190082D02*
Y191918D01*
X244368Y192837D01*
X245286Y191918D01*
Y190082D01*
Y191459D01*
X243449D01*
X246204Y190082D02*
Y191918D01*
X246663D01*
X247123Y191459D01*
Y190082D01*
Y191459D01*
X247582Y191918D01*
X248041Y191459D01*
Y190082D01*
X248959Y189163D02*
Y191918D01*
X250337D01*
X250796Y191459D01*
Y190541D01*
X250337Y190082D01*
X248959D01*
X251714D02*
Y191918D01*
X252632Y192837D01*
X253551Y191918D01*
Y190082D01*
Y191459D01*
X251714D01*
D37*
X233614Y188284D02*
G03*
X233614Y188284I-787J0D01*
G01*
X233114Y118783D02*
G03*
X233114Y118783I-787J0D01*
G01*
D38*
X217000Y178000D02*
X223000D01*
X217000Y184000D02*
X223000D01*
X216791Y200500D02*
X222791D01*
X216791Y194500D02*
X222791D01*
X217500Y114500D02*
X222500D01*
X217500Y131000D02*
X222500D01*
X217500Y108500D02*
X222500D01*
X217500Y125000D02*
X222500D01*
X174284Y176767D02*
Y182764D01*
X177283D01*
X178283Y181765D01*
Y179765D01*
X177283Y178766D01*
X174284D01*
X184281Y181765D02*
X183281Y182764D01*
X181282D01*
X180282Y181765D01*
Y177766D01*
X181282Y176767D01*
X183281D01*
X184281Y177766D01*
Y179765D01*
X182282D01*
X186281Y176767D02*
Y180765D01*
X188280Y182764D01*
X190279Y180765D01*
Y176767D01*
Y179765D01*
X186281D01*
X192279Y176767D02*
X194278D01*
X193278D01*
Y182764D01*
X192279Y181765D01*
X250781Y241499D02*
Y235501D01*
X253780D01*
X254780Y236501D01*
Y237500D01*
X253780Y238500D01*
X250781D01*
X253780D01*
X254780Y239500D01*
Y240499D01*
X253780Y241499D01*
X250781D01*
X256779Y240499D02*
X257779Y241499D01*
X259778D01*
X260778Y240499D01*
Y239500D01*
X259778Y238500D01*
X258779D01*
X259778D01*
X260778Y237500D01*
Y236501D01*
X259778Y235501D01*
X257779D01*
X256779Y236501D01*
X228500Y20499D02*
X226501D01*
X227501D01*
Y15501D01*
X226501Y14501D01*
X225501D01*
X224502Y15501D01*
X234498Y14501D02*
X230500D01*
X234498Y18500D01*
Y19499D01*
X233499Y20499D01*
X231499D01*
X230500Y19499D01*
X308502Y88999D02*
Y83001D01*
X311501D01*
X312500Y84001D01*
Y85000D01*
X311501Y86000D01*
X308502D01*
X311501D01*
X312500Y87000D01*
Y87999D01*
X311501Y88999D01*
X308502D01*
X318498Y83001D02*
X314500D01*
X318498Y87000D01*
Y87999D01*
X317499Y88999D01*
X315499D01*
X314500Y87999D01*
X54001Y86279D02*
Y80281D01*
X57000D01*
X58000Y81280D01*
Y82280D01*
X57000Y83280D01*
X54001D01*
X57000D01*
X58000Y84279D01*
Y85279D01*
X57000Y86279D01*
X54001D01*
X59999Y80281D02*
X61999D01*
X60999D01*
Y86279D01*
X59999Y85279D01*
X229500Y60499D02*
X227501D01*
X228500D01*
Y55501D01*
X227501Y54501D01*
X226501D01*
X225501Y55501D01*
X231499Y54501D02*
X233499D01*
X232499D01*
Y60499D01*
X231499Y59499D01*
D39*
X134294Y157287D02*
X134032Y157550D01*
X133507D01*
X133245Y157287D01*
Y156238D01*
X133507Y155975D01*
X134032D01*
X134294Y156238D01*
X134819Y155450D02*
Y157025D01*
X135606D01*
X135869Y156762D01*
Y156238D01*
X135606Y155975D01*
X134819D01*
X136394D02*
X136918D01*
X136656D01*
Y157550D01*
X136394Y157287D01*
X137706Y156762D02*
X138755D01*
X134794Y146787D02*
X134532Y147049D01*
X134007D01*
X133745Y146787D01*
Y145738D01*
X134007Y145475D01*
X134532D01*
X134794Y145738D01*
X135319Y144950D02*
Y146525D01*
X136106D01*
X136369Y146262D01*
Y145738D01*
X136106Y145475D01*
X135319D01*
X136894D02*
X137418D01*
X137156D01*
Y147049D01*
X136894Y146787D01*
X138206Y146262D02*
X139255D01*
X138730Y146787D02*
Y145738D01*
D40*
X141204Y213484D02*
X140876Y213812D01*
X140220D01*
X139892Y213484D01*
Y212172D01*
X140220Y211844D01*
X140876D01*
X141204Y212172D01*
X141860Y211188D02*
Y213156D01*
X142844D01*
X143172Y212828D01*
Y212172D01*
X142844Y211844D01*
X141860D01*
X145140D02*
X143828D01*
X145140Y213156D01*
Y213484D01*
X144812Y213812D01*
X144156D01*
X143828Y213484D01*
X145796Y212828D02*
X147108D01*
X126704Y213484D02*
X126376Y213812D01*
X125720D01*
X125392Y213484D01*
Y212172D01*
X125720Y211844D01*
X126376D01*
X126704Y212172D01*
X127360Y211188D02*
Y213156D01*
X128344D01*
X128672Y212828D01*
Y212172D01*
X128344Y211844D01*
X127360D01*
X130640D02*
X129328D01*
X130640Y213156D01*
Y213484D01*
X130312Y213812D01*
X129656D01*
X129328Y213484D01*
X131296Y212828D02*
X132608D01*
X131952Y213484D02*
Y212172D01*
X155188Y213533D02*
X154860Y213861D01*
X154204D01*
X153876Y213533D01*
Y212221D01*
X154204Y211893D01*
X154860D01*
X155188Y212221D01*
X155844Y211237D02*
Y213205D01*
X156828D01*
X157156Y212877D01*
Y212221D01*
X156828Y211893D01*
X155844D01*
X157812Y213533D02*
X158140Y213861D01*
X158796D01*
X159124Y213533D01*
Y213205D01*
X158796Y212877D01*
X158468D01*
X158796D01*
X159124Y212549D01*
Y212221D01*
X158796Y211893D01*
X158140D01*
X157812Y212221D01*
%TF.MD5,613f4419d5c719219e718ca135178233*%
M02*
