%TF.GenerationSoftware,Altium Limited,Altium Designer,22.9.1 (49)*%
G04 Layer_Color=0*
%FSLAX25Y25*%
%MOIN*%
%TF.SameCoordinates,E4663CD6-9850-4590-99AB-2D6E941D03D6*%
%TF.FilePolarity,Positive*%
%TF.FileFunction,Other,Top_Component_Center*%
%TF.Part,Single*%
G01*
G75*
%TA.AperFunction,NonConductor*%
%ADD39C,0.00394*%
D39*
X142000Y152032D02*
Y155968D01*
X140032Y154000D02*
X143968D01*
X184280Y236531D02*
Y240469D01*
X182311Y238500D02*
X186248D01*
X144000Y125031D02*
Y128969D01*
X142032Y127000D02*
X145968D01*
X142000Y146031D02*
Y149969D01*
X140032Y148000D02*
X143968D01*
X129000Y220031D02*
Y223969D01*
X127032Y222000D02*
X130968D01*
X145000Y174031D02*
Y177969D01*
X143032Y176000D02*
X146968D01*
X168032Y18000D02*
X171968D01*
X170000Y16032D02*
Y19969D01*
X156500Y220031D02*
Y223969D01*
X154532Y222000D02*
X158468D01*
X311531Y154161D02*
X315469D01*
X313500Y152193D02*
Y156130D01*
X170000Y56032D02*
Y59969D01*
X168032Y58000D02*
X171968D01*
X55532Y151221D02*
X59469D01*
X57500Y149252D02*
Y153189D01*
X260531Y189000D02*
X264469D01*
X262500Y187031D02*
Y190969D01*
Y136531D02*
Y140469D01*
X260531Y138500D02*
X264469D01*
X260531Y170547D02*
X264469D01*
X262500Y168579D02*
Y172516D01*
Y117532D02*
Y121468D01*
X260531Y119500D02*
X264469D01*
X260531Y206953D02*
X264469D01*
X262500Y204984D02*
Y208921D01*
X142532Y136000D02*
X146468D01*
X144500Y134031D02*
Y137969D01*
X142532Y166500D02*
X146468D01*
X144500Y164532D02*
Y168468D01*
X143000Y220031D02*
Y223969D01*
X141032Y222000D02*
X144968D01*
X262500Y98532D02*
Y102469D01*
X260531Y100500D02*
X264469D01*
X230532Y171000D02*
X234469D01*
X232500Y169032D02*
Y172968D01*
X231500Y99457D02*
Y103394D01*
X229532Y101425D02*
X233469D01*
%TF.MD5,0ef2b64ef301232566da7da1423324a1*%
M02*
