%TF.GenerationSoftware,Altium Limited,Altium Designer,22.9.1 (49)*%
G04 Layer_Color=2752767*
%FSLAX25Y25*%
%MOIN*%
%TF.SameCoordinates,E4663CD6-9850-4590-99AB-2D6E941D03D6*%
%TF.FilePolarity,Positive*%
%TF.FileFunction,Drawing*%
%TF.Part,Single*%
G01*
G75*
%TA.AperFunction,NonConductor*%
%ADD57C,0.00500*%
%ADD58C,0.00667*%
D57*
X160992Y159366D02*
Y163366D01*
X164992D01*
Y159366D01*
X160992D01*
X164492D02*
Y163366D01*
X168492D01*
Y159366D01*
X164492D01*
X167992D02*
Y163366D01*
X171992D01*
Y159366D01*
X167992D01*
Y155366D02*
Y159366D01*
X171992D01*
Y155366D01*
X167992D01*
X164492D02*
Y159366D01*
X168492D01*
Y155366D01*
X164492D01*
X160992D02*
Y159366D01*
X164992D01*
Y155366D01*
X160992D01*
X164492Y151866D02*
Y155866D01*
X168492D01*
Y151866D01*
X164492D01*
X160992D02*
Y155866D01*
X164992D01*
Y151866D01*
X160992D01*
X167992D02*
Y155866D01*
X171992D01*
Y151866D01*
X167992D01*
X160992Y146866D02*
Y150866D01*
X164992D01*
Y146866D01*
X160992D01*
X164492D02*
Y150866D01*
X168492D01*
Y146866D01*
X164492D01*
Y142866D02*
Y146866D01*
X168492D01*
Y142866D01*
X164492D01*
X160992D02*
Y146866D01*
X164992D01*
Y142866D01*
X160992D01*
X164492Y138866D02*
Y142866D01*
X168492D01*
Y138866D01*
X164492D01*
X160992D02*
Y142866D01*
X164992D01*
Y138866D01*
X160992D01*
X167917Y146889D02*
Y150889D01*
X171917D01*
Y146889D01*
X167917D01*
Y142889D02*
Y146889D01*
X171917D01*
Y142889D01*
X167917D01*
Y138889D02*
Y142889D01*
X171917D01*
Y138889D01*
X167917D01*
X198059Y236500D02*
X196059Y240500D01*
X200059D01*
X198059Y236500D01*
X184280D02*
X182280Y240500D01*
X186279D01*
X184280Y236500D01*
X170500D02*
X168500Y240500D01*
X172500D01*
X170500Y236500D01*
X156720D02*
X154720Y240500D01*
X158721D01*
X156720Y236500D01*
X142941D02*
X140941Y240500D01*
X144941D01*
X142941Y236500D01*
X129161D02*
X127161Y240500D01*
X131161D01*
X129161Y236500D01*
X239398D02*
X237398Y240500D01*
X241398D01*
X239398Y236500D01*
X225618D02*
X223618Y240500D01*
X227618D01*
X225618Y236500D01*
X211839D02*
X209839Y240500D01*
X213839D01*
X211839Y236500D01*
X125000Y61000D02*
X126000Y62000D01*
X127000D01*
X126000Y63000D01*
X127000Y64000D01*
X126000D01*
X125000Y65000D01*
X124000Y64000D01*
X123000D01*
X124000Y63000D01*
X123000Y62000D01*
X124000D01*
X125000Y61000D01*
X135000D02*
X136000Y62000D01*
X137000D01*
X136000Y63000D01*
X137000Y64000D01*
X136000D01*
X135000Y65000D01*
X134000Y64000D01*
X133000D01*
X134000Y63000D01*
X133000Y62000D01*
X134000D01*
X135000Y61000D01*
X145000D02*
X146000Y62000D01*
X147000D01*
X146000Y63000D01*
X147000Y64000D01*
X146000D01*
X145000Y65000D01*
X144000Y64000D01*
X143000D01*
X144000Y63000D01*
X143000Y62000D01*
X144000D01*
X145000Y61000D01*
X155000D02*
X156000Y62000D01*
X157000D01*
X156000Y63000D01*
X157000Y64000D01*
X156000D01*
X155000Y65000D01*
X154000Y64000D01*
X153000D01*
X154000Y63000D01*
X153000Y62000D01*
X154000D01*
X155000Y61000D01*
X185000D02*
X186000Y62000D01*
X187000D01*
X186000Y63000D01*
X187000Y64000D01*
X186000D01*
X185000Y65000D01*
X184000Y64000D01*
X183000D01*
X184000Y63000D01*
X183000Y62000D01*
X184000D01*
X185000Y61000D01*
X195000D02*
X196000Y62000D01*
X197000D01*
X196000Y63000D01*
X197000Y64000D01*
X196000D01*
X195000Y65000D01*
X194000Y64000D01*
X193000D01*
X194000Y63000D01*
X193000Y62000D01*
X194000D01*
X195000Y61000D01*
X205000D02*
X206000Y62000D01*
X207000D01*
X206000Y63000D01*
X207000Y64000D01*
X206000D01*
X205000Y65000D01*
X204000Y64000D01*
X203000D01*
X204000Y63000D01*
X203000Y62000D01*
X204000D01*
X205000Y61000D01*
X215000D02*
X216000Y62000D01*
X217000D01*
X216000Y63000D01*
X217000Y64000D01*
X216000D01*
X215000Y65000D01*
X214000Y64000D01*
X213000D01*
X214000Y63000D01*
X213000Y62000D01*
X214000D01*
X215000Y61000D01*
X125000Y21000D02*
X126000Y22000D01*
X127000D01*
X126000Y23000D01*
X127000Y24000D01*
X126000D01*
X125000Y25000D01*
X124000Y24000D01*
X123000D01*
X124000Y23000D01*
X123000Y22000D01*
X124000D01*
X125000Y21000D01*
X135000D02*
X136000Y22000D01*
X137000D01*
X136000Y23000D01*
X137000Y24000D01*
X136000D01*
X135000Y25000D01*
X134000Y24000D01*
X133000D01*
X134000Y23000D01*
X133000Y22000D01*
X134000D01*
X135000Y21000D01*
X145000D02*
X146000Y22000D01*
X147000D01*
X146000Y23000D01*
X147000Y24000D01*
X146000D01*
X145000Y25000D01*
X144000Y24000D01*
X143000D01*
X144000Y23000D01*
X143000Y22000D01*
X144000D01*
X145000Y21000D01*
X155000D02*
X156000Y22000D01*
X157000D01*
X156000Y23000D01*
X157000Y24000D01*
X156000D01*
X155000Y25000D01*
X154000Y24000D01*
X153000D01*
X154000Y23000D01*
X153000Y22000D01*
X154000D01*
X155000Y21000D01*
X165000D02*
X166000Y22000D01*
X167000D01*
X166000Y23000D01*
X167000Y24000D01*
X166000D01*
X165000Y25000D01*
X164000Y24000D01*
X163000D01*
X164000Y23000D01*
X163000Y22000D01*
X164000D01*
X165000Y21000D01*
X175000D02*
X176000Y22000D01*
X177000D01*
X176000Y23000D01*
X177000Y24000D01*
X176000D01*
X175000Y25000D01*
X174000Y24000D01*
X173000D01*
X174000Y23000D01*
X173000Y22000D01*
X174000D01*
X175000Y21000D01*
X185000D02*
X186000Y22000D01*
X187000D01*
X186000Y23000D01*
X187000Y24000D01*
X186000D01*
X185000Y25000D01*
X184000Y24000D01*
X183000D01*
X184000Y23000D01*
X183000Y22000D01*
X184000D01*
X185000Y21000D01*
X195000D02*
X196000Y22000D01*
X197000D01*
X196000Y23000D01*
X197000Y24000D01*
X196000D01*
X195000Y25000D01*
X194000Y24000D01*
X193000D01*
X194000Y23000D01*
X193000Y22000D01*
X194000D01*
X195000Y21000D01*
X205000D02*
X206000Y22000D01*
X207000D01*
X206000Y23000D01*
X207000Y24000D01*
X206000D01*
X205000Y25000D01*
X204000Y24000D01*
X203000D01*
X204000Y23000D01*
X203000Y22000D01*
X204000D01*
X205000Y21000D01*
X215000D02*
X216000Y22000D01*
X217000D01*
X216000Y23000D01*
X217000Y24000D01*
X216000D01*
X215000Y25000D01*
X214000Y24000D01*
X213000D01*
X214000Y23000D01*
X213000Y22000D01*
X214000D01*
X215000Y21000D01*
X125000Y11000D02*
X126000Y12000D01*
X127000D01*
X126000Y13000D01*
X127000Y14000D01*
X126000D01*
X125000Y15000D01*
X124000Y14000D01*
X123000D01*
X124000Y13000D01*
X123000Y12000D01*
X124000D01*
X125000Y11000D01*
X135000D02*
X136000Y12000D01*
X137000D01*
X136000Y13000D01*
X137000Y14000D01*
X136000D01*
X135000Y15000D01*
X134000Y14000D01*
X133000D01*
X134000Y13000D01*
X133000Y12000D01*
X134000D01*
X135000Y11000D01*
X145000D02*
X146000Y12000D01*
X147000D01*
X146000Y13000D01*
X147000Y14000D01*
X146000D01*
X145000Y15000D01*
X144000Y14000D01*
X143000D01*
X144000Y13000D01*
X143000Y12000D01*
X144000D01*
X145000Y11000D01*
X155000D02*
X156000Y12000D01*
X157000D01*
X156000Y13000D01*
X157000Y14000D01*
X156000D01*
X155000Y15000D01*
X154000Y14000D01*
X153000D01*
X154000Y13000D01*
X153000Y12000D01*
X154000D01*
X155000Y11000D01*
X165000D02*
X166000Y12000D01*
X167000D01*
X166000Y13000D01*
X167000Y14000D01*
X166000D01*
X165000Y15000D01*
X164000Y14000D01*
X163000D01*
X164000Y13000D01*
X163000Y12000D01*
X164000D01*
X165000Y11000D01*
X175000D02*
X176000Y12000D01*
X177000D01*
X176000Y13000D01*
X177000Y14000D01*
X176000D01*
X175000Y15000D01*
X174000Y14000D01*
X173000D01*
X174000Y13000D01*
X173000Y12000D01*
X174000D01*
X175000Y11000D01*
X185000D02*
X186000Y12000D01*
X187000D01*
X186000Y13000D01*
X187000Y14000D01*
X186000D01*
X185000Y15000D01*
X184000Y14000D01*
X183000D01*
X184000Y13000D01*
X183000Y12000D01*
X184000D01*
X185000Y11000D01*
X195000D02*
X196000Y12000D01*
X197000D01*
X196000Y13000D01*
X197000Y14000D01*
X196000D01*
X195000Y15000D01*
X194000Y14000D01*
X193000D01*
X194000Y13000D01*
X193000Y12000D01*
X194000D01*
X195000Y11000D01*
X205000D02*
X206000Y12000D01*
X207000D01*
X206000Y13000D01*
X207000Y14000D01*
X206000D01*
X205000Y15000D01*
X204000Y14000D01*
X203000D01*
X204000Y13000D01*
X203000Y12000D01*
X204000D01*
X205000Y11000D01*
X215000D02*
X216000Y12000D01*
X217000D01*
X216000Y13000D01*
X217000Y14000D01*
X216000D01*
X215000Y15000D01*
X214000Y14000D01*
X213000D01*
X214000Y13000D01*
X213000Y12000D01*
X214000D01*
X215000Y11000D01*
X57500Y94102D02*
X55500Y98102D01*
X59500D01*
X57500Y94102D01*
X313500Y138382D02*
X311500Y142382D01*
X315500D01*
X313500Y138382D01*
Y152161D02*
X311500Y156161D01*
X315500D01*
X313500Y152161D01*
Y165941D02*
X311500Y169941D01*
X315500D01*
X313500Y165941D01*
Y179720D02*
X311500Y183721D01*
X315500D01*
X313500Y179720D01*
Y193500D02*
X311500Y197500D01*
X315500D01*
X313500Y193500D01*
Y207279D02*
X311500Y211280D01*
X315500D01*
X313500Y207279D01*
Y97043D02*
X311500Y101043D01*
X315500D01*
X313500Y97043D01*
Y110823D02*
X311500Y114823D01*
X315500D01*
X313500Y110823D01*
Y124602D02*
X311500Y128602D01*
X315500D01*
X313500Y124602D01*
X215000Y51000D02*
X216000Y52000D01*
X217000D01*
X216000Y53000D01*
X217000Y54000D01*
X216000D01*
X215000Y55000D01*
X214000Y54000D01*
X213000D01*
X214000Y53000D01*
X213000Y52000D01*
X214000D01*
X215000Y51000D01*
X205000D02*
X206000Y52000D01*
X207000D01*
X206000Y53000D01*
X207000Y54000D01*
X206000D01*
X205000Y55000D01*
X204000Y54000D01*
X203000D01*
X204000Y53000D01*
X203000Y52000D01*
X204000D01*
X205000Y51000D01*
X195000D02*
X196000Y52000D01*
X197000D01*
X196000Y53000D01*
X197000Y54000D01*
X196000D01*
X195000Y55000D01*
X194000Y54000D01*
X193000D01*
X194000Y53000D01*
X193000Y52000D01*
X194000D01*
X195000Y51000D01*
X185000D02*
X186000Y52000D01*
X187000D01*
X186000Y53000D01*
X187000Y54000D01*
X186000D01*
X185000Y55000D01*
X184000Y54000D01*
X183000D01*
X184000Y53000D01*
X183000Y52000D01*
X184000D01*
X185000Y51000D01*
X175000D02*
X176000Y52000D01*
X177000D01*
X176000Y53000D01*
X177000Y54000D01*
X176000D01*
X175000Y55000D01*
X174000Y54000D01*
X173000D01*
X174000Y53000D01*
X173000Y52000D01*
X174000D01*
X175000Y51000D01*
X165000D02*
X166000Y52000D01*
X167000D01*
X166000Y53000D01*
X167000Y54000D01*
X166000D01*
X165000Y55000D01*
X164000Y54000D01*
X163000D01*
X164000Y53000D01*
X163000Y52000D01*
X164000D01*
X165000Y51000D01*
X155000D02*
X156000Y52000D01*
X157000D01*
X156000Y53000D01*
X157000Y54000D01*
X156000D01*
X155000Y55000D01*
X154000Y54000D01*
X153000D01*
X154000Y53000D01*
X153000Y52000D01*
X154000D01*
X155000Y51000D01*
X145000D02*
X146000Y52000D01*
X147000D01*
X146000Y53000D01*
X147000Y54000D01*
X146000D01*
X145000Y55000D01*
X144000Y54000D01*
X143000D01*
X144000Y53000D01*
X143000Y52000D01*
X144000D01*
X145000Y51000D01*
X135000D02*
X136000Y52000D01*
X137000D01*
X136000Y53000D01*
X137000Y54000D01*
X136000D01*
X135000Y55000D01*
X134000Y54000D01*
X133000D01*
X134000Y53000D01*
X133000Y52000D01*
X134000D01*
X135000Y51000D01*
X125000D02*
X126000Y52000D01*
X127000D01*
X126000Y53000D01*
X127000Y54000D01*
X126000D01*
X125000Y55000D01*
X124000Y54000D01*
X123000D01*
X124000Y53000D01*
X123000Y52000D01*
X124000D01*
X125000Y51000D01*
X175000Y61000D02*
X176000Y62000D01*
X177000D01*
X176000Y63000D01*
X177000Y64000D01*
X176000D01*
X175000Y65000D01*
X174000Y64000D01*
X173000D01*
X174000Y63000D01*
X173000Y62000D01*
X174000D01*
X175000Y61000D01*
X165000D02*
X166000Y62000D01*
X167000D01*
X166000Y63000D01*
X167000Y64000D01*
X166000D01*
X165000Y65000D01*
X164000Y64000D01*
X163000D01*
X164000Y63000D01*
X163000Y62000D01*
X164000D01*
X165000Y61000D01*
X57500Y135441D02*
X55500Y139441D01*
X59500D01*
X57500Y135441D01*
Y149221D02*
X55500Y153220D01*
X59500D01*
X57500Y149221D01*
Y163000D02*
X55500Y167000D01*
X59500D01*
X57500Y163000D01*
Y176779D02*
X55500Y180780D01*
X59500D01*
X57500Y176779D01*
Y190559D02*
X55500Y194559D01*
X59500D01*
X57500Y190559D01*
Y204339D02*
X55500Y208339D01*
X59500D01*
X57500Y204339D01*
Y107882D02*
X55500Y111882D01*
X59500D01*
X57500Y107882D01*
Y121661D02*
X55500Y125661D01*
X59500D01*
X57500Y121661D01*
D58*
X234500Y134459D02*
G03*
X234500Y134459I-2000J0D01*
G01*
X185500Y118500D02*
G03*
X185500Y118500I-2000J0D01*
G01*
X192500D02*
G03*
X192500Y118500I-2000J0D01*
G01*
X138000Y206500D02*
G03*
X138000Y206500I-2000J0D01*
G01*
X158500D02*
G03*
X158500Y206500I-2000J0D01*
G01*
X182500Y189000D02*
G03*
X182500Y189000I-2000J0D01*
G01*
X123000Y173500D02*
G03*
X123000Y173500I-2000J0D01*
G01*
X129500D02*
G03*
X129500Y173500I-2000J0D01*
G01*
Y156500D02*
G03*
X129500Y156500I-2000J0D01*
G01*
Y146000D02*
G03*
X129500Y146000I-2000J0D01*
G01*
X192000Y144500D02*
G03*
X192000Y144500I-2000J0D01*
G01*
X178000Y118500D02*
G03*
X178000Y118500I-2000J0D01*
G01*
X170700Y118400D02*
G03*
X170700Y118400I-2000J0D01*
G01*
X136500Y151000D02*
G03*
X136500Y151000I-2000J0D01*
G01*
X168500Y175000D02*
G03*
X168500Y175000I-2000J0D01*
G01*
X168000Y128000D02*
G03*
X168000Y128000I-2000J0D01*
G01*
X194000Y101500D02*
G03*
X194000Y101500I-2000J0D01*
G01*
X202500Y175500D02*
G03*
X202500Y175500I-2000J0D01*
G01*
X215000Y189500D02*
G03*
X215000Y189500I-2000J0D01*
G01*
X264500Y217500D02*
G03*
X264500Y217500I-2000J0D01*
G01*
Y90500D02*
G03*
X264500Y90500I-2000J0D01*
G01*
Y155000D02*
G03*
X264500Y155000I-2000J0D01*
G01*
X193500Y151500D02*
G03*
X193500Y151500I-2000J0D01*
G01*
X240000Y134500D02*
G03*
X240000Y134500I-2000J0D01*
G01*
X227500Y204000D02*
G03*
X227500Y204000I-2000J0D01*
G01*
X241000Y174750D02*
G03*
X241000Y174750I-2000J0D01*
G01*
X240975Y168000D02*
G03*
X240975Y168000I-2000J0D01*
G01*
X187500Y151500D02*
G03*
X187500Y151500I-2000J0D01*
G01*
X195500Y175500D02*
G03*
X195500Y175500I-2000J0D01*
G01*
X240500Y104500D02*
G03*
X240500Y104500I-2000J0D01*
G01*
X240475Y98500D02*
G03*
X240475Y98500I-2000J0D01*
G01*
X240500Y204000D02*
G03*
X240500Y204000I-2000J0D01*
G01*
X235000D02*
G03*
X235000Y204000I-2000J0D01*
G01*
X209500Y175500D02*
G03*
X209500Y175500I-2000J0D01*
G01*
X188500D02*
G03*
X188500Y175500I-2000J0D01*
G01*
%TF.MD5,e7f37cf6206e5adbdd0be65b4c4fe880*%
M02*
