%TF.GenerationSoftware,Altium Limited,Altium Designer,22.9.1 (49)*%
G04 Layer_Physical_Order=2*
G04 Layer_Color=16711680*
%FSLAX25Y25*%
%MOIN*%
%TF.SameCoordinates,E4663CD6-9850-4590-99AB-2D6E941D03D6*%
%TF.FilePolarity,Positive*%
%TF.FileFunction,Copper,L2,Bot,Signal*%
%TF.Part,Single*%
G01*
G75*
%TA.AperFunction,Conductor*%
%ADD25C,0.01200*%
%ADD26C,0.01000*%
%TA.AperFunction,ComponentPad*%
%ADD27C,0.02000*%
%ADD28C,0.06165*%
%ADD29R,0.06165X0.06165*%
%ADD30C,0.04016*%
%ADD31R,0.06165X0.06165*%
%TA.AperFunction,ViaPad*%
%ADD32C,0.05000*%
G36*
X327500Y74500D02*
X327000Y74000D01*
X43000D01*
X42002Y255146D01*
X42355Y255500D01*
X327500D01*
Y74500D01*
D02*
G37*
%LPC*%
G36*
X171037Y242583D02*
X171000D01*
Y239000D01*
X174583D01*
Y239037D01*
X174304Y240076D01*
X173767Y241007D01*
X173007Y241767D01*
X172076Y242304D01*
X171037Y242583D01*
D02*
G37*
G36*
X170000D02*
X169963D01*
X168924Y242304D01*
X167993Y241767D01*
X167233Y241007D01*
X166696Y240076D01*
X166417Y239037D01*
Y239000D01*
X170000D01*
Y242583D01*
D02*
G37*
G36*
X239869Y242083D02*
X238926D01*
X238015Y241839D01*
X237198Y241367D01*
X236531Y240700D01*
X236059Y239883D01*
X235815Y238972D01*
Y238028D01*
X236059Y237117D01*
X236531Y236300D01*
X237198Y235633D01*
X238015Y235161D01*
X238926Y234917D01*
X239869D01*
X240780Y235161D01*
X241597Y235633D01*
X242265Y236300D01*
X242736Y237117D01*
X242980Y238028D01*
Y238972D01*
X242736Y239883D01*
X242265Y240700D01*
X241597Y241367D01*
X240780Y241839D01*
X239869Y242083D01*
D02*
G37*
G36*
X226090D02*
X225146D01*
X224235Y241839D01*
X223418Y241367D01*
X222751Y240700D01*
X222280Y239883D01*
X222035Y238972D01*
Y238028D01*
X222280Y237117D01*
X222751Y236300D01*
X223418Y235633D01*
X224235Y235161D01*
X225146Y234917D01*
X226090D01*
X227001Y235161D01*
X227818Y235633D01*
X228485Y236300D01*
X228957Y237117D01*
X229201Y238028D01*
Y238972D01*
X228957Y239883D01*
X228485Y240700D01*
X227818Y241367D01*
X227001Y241839D01*
X226090Y242083D01*
D02*
G37*
G36*
X212310D02*
X211367D01*
X210456Y241839D01*
X209639Y241367D01*
X208972Y240700D01*
X208500Y239883D01*
X208256Y238972D01*
Y238028D01*
X208500Y237117D01*
X208972Y236300D01*
X209639Y235633D01*
X210456Y235161D01*
X211367Y234917D01*
X212310D01*
X213222Y235161D01*
X214038Y235633D01*
X214705Y236300D01*
X215177Y237117D01*
X215421Y238028D01*
Y238972D01*
X215177Y239883D01*
X214705Y240700D01*
X214038Y241367D01*
X213222Y241839D01*
X212310Y242083D01*
D02*
G37*
G36*
X198531D02*
X197587D01*
X196676Y241839D01*
X195859Y241367D01*
X195192Y240700D01*
X194721Y239883D01*
X194476Y238972D01*
Y238028D01*
X194721Y237117D01*
X195192Y236300D01*
X195859Y235633D01*
X196676Y235161D01*
X197587Y234917D01*
X198531D01*
X199442Y235161D01*
X200259Y235633D01*
X200926Y236300D01*
X201398Y237117D01*
X201642Y238028D01*
Y238972D01*
X201398Y239883D01*
X200926Y240700D01*
X200259Y241367D01*
X199442Y241839D01*
X198531Y242083D01*
D02*
G37*
G36*
X184751D02*
X183808D01*
X182897Y241839D01*
X182080Y241367D01*
X181413Y240700D01*
X180941Y239883D01*
X180697Y238972D01*
Y238028D01*
X180941Y237117D01*
X181413Y236300D01*
X182080Y235633D01*
X182897Y235161D01*
X183808Y234917D01*
X184751D01*
X185662Y235161D01*
X186479Y235633D01*
X187146Y236300D01*
X187618Y237117D01*
X187862Y238028D01*
Y238972D01*
X187618Y239883D01*
X187146Y240700D01*
X186479Y241367D01*
X185662Y241839D01*
X184751Y242083D01*
D02*
G37*
G36*
X157192D02*
X156249D01*
X155338Y241839D01*
X154521Y241367D01*
X153854Y240700D01*
X153382Y239883D01*
X153138Y238972D01*
Y238028D01*
X153382Y237117D01*
X153854Y236300D01*
X154521Y235633D01*
X155338Y235161D01*
X156249Y234917D01*
X157192D01*
X158103Y235161D01*
X158920Y235633D01*
X159587Y236300D01*
X160059Y237117D01*
X160303Y238028D01*
Y238972D01*
X160059Y239883D01*
X159587Y240700D01*
X158920Y241367D01*
X158103Y241839D01*
X157192Y242083D01*
D02*
G37*
G36*
X143413D02*
X142469D01*
X141558Y241839D01*
X140741Y241367D01*
X140074Y240700D01*
X139602Y239883D01*
X139358Y238972D01*
Y238028D01*
X139602Y237117D01*
X140074Y236300D01*
X140741Y235633D01*
X141558Y235161D01*
X142469Y234917D01*
X143413D01*
X144324Y235161D01*
X145141Y235633D01*
X145808Y236300D01*
X146280Y237117D01*
X146524Y238028D01*
Y238972D01*
X146280Y239883D01*
X145808Y240700D01*
X145141Y241367D01*
X144324Y241839D01*
X143413Y242083D01*
D02*
G37*
G36*
X132744D02*
X125579D01*
Y234917D01*
X132744D01*
Y242083D01*
D02*
G37*
G36*
X174583Y238000D02*
X171000D01*
Y234417D01*
X171037D01*
X172076Y234696D01*
X173007Y235233D01*
X173767Y235993D01*
X174304Y236924D01*
X174583Y237963D01*
Y238000D01*
D02*
G37*
G36*
X170000D02*
X166417D01*
Y237963D01*
X166696Y236924D01*
X167233Y235993D01*
X167993Y235233D01*
X168924Y234696D01*
X169963Y234417D01*
X170000D01*
Y238000D01*
D02*
G37*
G36*
X263000Y220989D02*
Y218000D01*
X265989D01*
X265761Y218851D01*
X265301Y219649D01*
X264649Y220301D01*
X263851Y220761D01*
X263000Y220989D01*
D02*
G37*
G36*
X262000D02*
X261149Y220761D01*
X260351Y220301D01*
X259699Y219649D01*
X259239Y218851D01*
X259011Y218000D01*
X262000D01*
Y220989D01*
D02*
G37*
G36*
X265989Y217000D02*
X263000D01*
Y214011D01*
X263851Y214239D01*
X264649Y214699D01*
X265301Y215351D01*
X265761Y216149D01*
X265989Y217000D01*
D02*
G37*
G36*
X262000D02*
X259011D01*
X259239Y216149D01*
X259699Y215351D01*
X260351Y214699D01*
X261149Y214239D01*
X262000Y214011D01*
Y217000D01*
D02*
G37*
G36*
X157000Y209990D02*
Y207000D01*
X159990D01*
X159762Y207851D01*
X159301Y208649D01*
X158649Y209301D01*
X157851Y209762D01*
X157000Y209990D01*
D02*
G37*
G36*
X156000D02*
X155149Y209762D01*
X154351Y209301D01*
X153699Y208649D01*
X153238Y207851D01*
X153010Y207000D01*
X156000D01*
Y209990D01*
D02*
G37*
G36*
X136500D02*
Y207000D01*
X139489D01*
X139261Y207851D01*
X138801Y208649D01*
X138149Y209301D01*
X137351Y209762D01*
X136500Y209990D01*
D02*
G37*
G36*
X135500D02*
X134649Y209762D01*
X133851Y209301D01*
X133199Y208649D01*
X132738Y207851D01*
X132510Y207000D01*
X135500D01*
Y209990D01*
D02*
G37*
G36*
X238000Y207489D02*
X237149Y207261D01*
X236351Y206801D01*
X235699Y206149D01*
X235112Y206131D01*
X234842Y206401D01*
X234158Y206796D01*
X233395Y207000D01*
X232605D01*
X231842Y206796D01*
X231158Y206401D01*
X230599Y205842D01*
X230204Y205158D01*
X230167Y205020D01*
X228333D01*
X228296Y205158D01*
X227901Y205842D01*
X227342Y206401D01*
X226658Y206796D01*
X225895Y207000D01*
X225105D01*
X224342Y206796D01*
X223658Y206401D01*
X223099Y205842D01*
X222704Y205158D01*
X222500Y204395D01*
Y203605D01*
X222704Y202842D01*
X223099Y202158D01*
X223658Y201599D01*
X224342Y201204D01*
X225105Y201000D01*
X225895D01*
X226658Y201204D01*
X227342Y201599D01*
X227901Y202158D01*
X228296Y202842D01*
X228333Y202980D01*
X230167D01*
X230204Y202842D01*
X230599Y202158D01*
X231158Y201599D01*
X231842Y201204D01*
X232605Y201000D01*
X233395D01*
X234158Y201204D01*
X234842Y201599D01*
X235112Y201869D01*
X235699Y201851D01*
X236351Y201199D01*
X237149Y200739D01*
X238000Y200511D01*
Y204000D01*
Y207489D01*
D02*
G37*
G36*
X317083Y212862D02*
X309917D01*
Y205697D01*
X317083D01*
Y212862D01*
D02*
G37*
G36*
X239000Y207489D02*
Y204500D01*
X241989D01*
X241761Y205351D01*
X241301Y206149D01*
X240649Y206801D01*
X239851Y207261D01*
X239000Y207489D01*
D02*
G37*
G36*
X159990Y206000D02*
X157000D01*
Y203011D01*
X157851Y203239D01*
X158649Y203699D01*
X159301Y204351D01*
X159762Y205149D01*
X159990Y206000D01*
D02*
G37*
G36*
X156000D02*
X153010D01*
X153238Y205149D01*
X153699Y204351D01*
X154351Y203699D01*
X155149Y203239D01*
X156000Y203011D01*
Y206000D01*
D02*
G37*
G36*
X139489D02*
X136500D01*
Y203011D01*
X137351Y203239D01*
X138149Y203699D01*
X138801Y204351D01*
X139261Y205149D01*
X139489Y206000D01*
D02*
G37*
G36*
X135500D02*
X132510D01*
X132738Y205149D01*
X133199Y204351D01*
X133851Y203699D01*
X134649Y203239D01*
X135500Y203011D01*
Y206000D01*
D02*
G37*
G36*
X61083Y209921D02*
X53917D01*
Y202756D01*
X61083D01*
Y209921D01*
D02*
G37*
G36*
X241989Y203500D02*
X239000D01*
Y200511D01*
X239851Y200739D01*
X240649Y201199D01*
X241301Y201851D01*
X241761Y202649D01*
X241989Y203500D01*
D02*
G37*
G36*
X313972Y199083D02*
X313028D01*
X312117Y198838D01*
X311300Y198367D01*
X310633Y197700D01*
X310161Y196883D01*
X309917Y195972D01*
Y195028D01*
X310161Y194117D01*
X310633Y193300D01*
X311300Y192633D01*
X312117Y192162D01*
X313028Y191917D01*
X313972D01*
X314883Y192162D01*
X315700Y192633D01*
X316367Y193300D01*
X316839Y194117D01*
X317083Y195028D01*
Y195972D01*
X316839Y196883D01*
X316367Y197700D01*
X315700Y198367D01*
X314883Y198838D01*
X313972Y199083D01*
D02*
G37*
G36*
X213500Y192990D02*
Y190000D01*
X216490D01*
X216262Y190851D01*
X215801Y191649D01*
X215149Y192301D01*
X214351Y192762D01*
X213500Y192990D01*
D02*
G37*
G36*
X212500D02*
X211649Y192762D01*
X210851Y192301D01*
X210199Y191649D01*
X209738Y190851D01*
X209510Y190000D01*
X212500D01*
Y192990D01*
D02*
G37*
G36*
X57972Y196142D02*
X57028D01*
X56117Y195898D01*
X55300Y195426D01*
X54633Y194759D01*
X54162Y193942D01*
X53917Y193031D01*
Y192087D01*
X54162Y191176D01*
X54633Y190359D01*
X55300Y189692D01*
X56117Y189220D01*
X57028Y188976D01*
X57972D01*
X58883Y189220D01*
X59700Y189692D01*
X60367Y190359D01*
X60839Y191176D01*
X61083Y192087D01*
Y193031D01*
X60839Y193942D01*
X60367Y194759D01*
X59700Y195426D01*
X58883Y195898D01*
X57972Y196142D01*
D02*
G37*
G36*
X216490Y189000D02*
X213500D01*
Y186011D01*
X214351Y186239D01*
X215149Y186699D01*
X215801Y187351D01*
X216262Y188149D01*
X216490Y189000D01*
D02*
G37*
G36*
X212500D02*
X209510D01*
X209738Y188149D01*
X210199Y187351D01*
X210851Y186699D01*
X211649Y186239D01*
X212500Y186011D01*
Y189000D01*
D02*
G37*
G36*
X58038Y182862D02*
X58000D01*
Y179279D01*
X61583D01*
Y179317D01*
X61304Y180355D01*
X60767Y181286D01*
X60007Y182046D01*
X59076Y182584D01*
X58038Y182862D01*
D02*
G37*
G36*
X57000D02*
X56963D01*
X55924Y182584D01*
X54993Y182046D01*
X54233Y181286D01*
X53696Y180355D01*
X53417Y179317D01*
Y179279D01*
X57000D01*
Y182862D01*
D02*
G37*
G36*
X313972Y185303D02*
X313028D01*
X312117Y185059D01*
X311300Y184587D01*
X310633Y183920D01*
X310161Y183103D01*
X309917Y182192D01*
Y181249D01*
X310161Y180338D01*
X310633Y179521D01*
X311300Y178854D01*
X312117Y178382D01*
X313028Y178138D01*
X313972D01*
X314883Y178382D01*
X315700Y178854D01*
X316367Y179521D01*
X316839Y180338D01*
X317083Y181249D01*
Y182192D01*
X316839Y183103D01*
X316367Y183920D01*
X315700Y184587D01*
X314883Y185059D01*
X313972Y185303D01*
D02*
G37*
G36*
X167000Y178489D02*
Y175500D01*
X169990D01*
X169762Y176351D01*
X169301Y177149D01*
X168649Y177801D01*
X167851Y178261D01*
X167000Y178489D01*
D02*
G37*
G36*
X166000D02*
X165149Y178261D01*
X164351Y177801D01*
X163699Y177149D01*
X163239Y176351D01*
X163011Y175500D01*
X166000D01*
Y178489D01*
D02*
G37*
G36*
X61583Y178279D02*
X58000D01*
Y174697D01*
X58038D01*
X59076Y174975D01*
X60007Y175513D01*
X60767Y176273D01*
X61304Y177204D01*
X61583Y178242D01*
Y178279D01*
D02*
G37*
G36*
X57000D02*
X53417D01*
Y178242D01*
X53696Y177204D01*
X54233Y176273D01*
X54993Y175513D01*
X55924Y174975D01*
X56963Y174697D01*
X57000D01*
Y178279D01*
D02*
G37*
G36*
X169990Y174500D02*
X167000D01*
Y171511D01*
X167851Y171739D01*
X168649Y172199D01*
X169301Y172851D01*
X169762Y173649D01*
X169990Y174500D01*
D02*
G37*
G36*
X166000D02*
X163011D01*
X163239Y173649D01*
X163699Y172851D01*
X164351Y172199D01*
X165149Y171739D01*
X166000Y171511D01*
Y174500D01*
D02*
G37*
G36*
X313972Y171524D02*
X313028D01*
X312117Y171280D01*
X311300Y170808D01*
X310633Y170141D01*
X310161Y169324D01*
X309917Y168413D01*
Y167469D01*
X310161Y166558D01*
X310633Y165741D01*
X311300Y165074D01*
X312117Y164602D01*
X313028Y164358D01*
X313972D01*
X314883Y164602D01*
X315700Y165074D01*
X316367Y165741D01*
X316839Y166558D01*
X317083Y167469D01*
Y168413D01*
X316839Y169324D01*
X316367Y170141D01*
X315700Y170808D01*
X314883Y171280D01*
X313972Y171524D01*
D02*
G37*
G36*
X57972Y168583D02*
X57028D01*
X56117Y168339D01*
X55300Y167867D01*
X54633Y167200D01*
X54162Y166383D01*
X53917Y165472D01*
Y164528D01*
X54162Y163617D01*
X54633Y162800D01*
X55300Y162133D01*
X56117Y161662D01*
X57028Y161417D01*
X57972D01*
X58883Y161662D01*
X59700Y162133D01*
X60367Y162800D01*
X60839Y163617D01*
X61083Y164528D01*
Y165472D01*
X60839Y166383D01*
X60367Y167200D01*
X59700Y167867D01*
X58883Y168339D01*
X57972Y168583D01*
D02*
G37*
G36*
X263000Y158490D02*
Y155500D01*
X265989D01*
X265761Y156351D01*
X265301Y157149D01*
X264649Y157801D01*
X263851Y158262D01*
X263000Y158490D01*
D02*
G37*
G36*
X262000D02*
X261149Y158262D01*
X260351Y157801D01*
X259699Y157149D01*
X259239Y156351D01*
X259011Y155500D01*
X262000D01*
Y158490D01*
D02*
G37*
G36*
X171950Y153366D02*
X170492D01*
Y151909D01*
X171125Y152171D01*
X171688Y152733D01*
X171950Y153366D01*
D02*
G37*
G36*
X162492D02*
X161034D01*
X161297Y152733D01*
X161859Y152171D01*
X162492Y151909D01*
Y153366D01*
D02*
G37*
G36*
X265989Y154500D02*
X263000D01*
Y151511D01*
X263851Y151739D01*
X264649Y152199D01*
X265301Y152851D01*
X265761Y153649D01*
X265989Y154500D01*
D02*
G37*
G36*
X262000D02*
X259011D01*
X259239Y153649D01*
X259699Y152851D01*
X260351Y152199D01*
X261149Y151739D01*
X262000Y151511D01*
Y154500D01*
D02*
G37*
G36*
X135000Y154490D02*
Y151500D01*
X137989D01*
X137761Y152351D01*
X137301Y153149D01*
X136649Y153801D01*
X135851Y154262D01*
X135000Y154490D01*
D02*
G37*
G36*
X134000D02*
X133149Y154262D01*
X132351Y153801D01*
X131699Y153149D01*
X131238Y152351D01*
X131010Y151500D01*
X134000D01*
Y154490D01*
D02*
G37*
G36*
X313972Y157744D02*
X313028D01*
X312117Y157500D01*
X311300Y157028D01*
X310633Y156361D01*
X310161Y155544D01*
X309917Y154633D01*
Y153690D01*
X310161Y152779D01*
X310633Y151962D01*
X311300Y151295D01*
X312117Y150823D01*
X313028Y150579D01*
X313972D01*
X314883Y150823D01*
X315700Y151295D01*
X316367Y151962D01*
X316839Y152779D01*
X317083Y153690D01*
Y154633D01*
X316839Y155544D01*
X316367Y156361D01*
X315700Y157028D01*
X314883Y157500D01*
X313972Y157744D01*
D02*
G37*
G36*
X170417Y150846D02*
Y149389D01*
X171874D01*
X171612Y150022D01*
X171049Y150584D01*
X170417Y150846D01*
D02*
G37*
G36*
X162492Y150824D02*
X161859Y150562D01*
X161297Y149999D01*
X161034Y149366D01*
X162492D01*
Y150824D01*
D02*
G37*
G36*
X57972Y154803D02*
X57028D01*
X56117Y154559D01*
X55300Y154087D01*
X54633Y153420D01*
X54162Y152603D01*
X53917Y151692D01*
Y150749D01*
X54162Y149838D01*
X54633Y149021D01*
X55300Y148354D01*
X56117Y147882D01*
X57028Y147638D01*
X57972D01*
X58883Y147882D01*
X59700Y148354D01*
X60367Y149021D01*
X60839Y149838D01*
X61083Y150749D01*
Y151692D01*
X60839Y152603D01*
X60367Y153420D01*
X59700Y154087D01*
X58883Y154559D01*
X57972Y154803D01*
D02*
G37*
G36*
X313972Y143965D02*
X313028D01*
X312117Y143720D01*
X311300Y143249D01*
X310633Y142582D01*
X310161Y141765D01*
X309917Y140854D01*
Y139910D01*
X310161Y138999D01*
X310633Y138182D01*
X311300Y137515D01*
X312117Y137043D01*
X313028Y136799D01*
X313972D01*
X314883Y137043D01*
X315700Y137515D01*
X316367Y138182D01*
X316839Y138999D01*
X317083Y139910D01*
Y140854D01*
X316839Y141765D01*
X316367Y142582D01*
X315700Y143249D01*
X314883Y143720D01*
X313972Y143965D01*
D02*
G37*
G36*
X180895Y192000D02*
X180105D01*
X179342Y191796D01*
X178658Y191401D01*
X178099Y190842D01*
X177704Y190158D01*
X177500Y189395D01*
Y188605D01*
X177704Y187842D01*
X178099Y187158D01*
X178658Y186599D01*
X179342Y186204D01*
X179378Y186195D01*
Y176550D01*
X179378Y176550D01*
X179464Y176121D01*
X179707Y175757D01*
X179829Y175635D01*
X180193Y175392D01*
X180222Y175386D01*
X197480Y158128D01*
Y153422D01*
X194964Y150906D01*
X194607Y151059D01*
X194500Y151149D01*
Y151895D01*
X194296Y152658D01*
X193901Y153342D01*
X193342Y153901D01*
X192658Y154296D01*
X191895Y154500D01*
X191105D01*
X190342Y154296D01*
X189658Y153901D01*
X189099Y153342D01*
X188779Y152787D01*
X188598Y152738D01*
X188402D01*
X188221Y152787D01*
X187901Y153342D01*
X187342Y153901D01*
X186658Y154296D01*
X185895Y154500D01*
X185105D01*
X184342Y154296D01*
X184309Y154277D01*
X173293Y165293D01*
X172929Y165536D01*
X172500Y165622D01*
X172500Y165622D01*
X155400D01*
X155400Y165622D01*
X154971Y165536D01*
X154607Y165293D01*
X154607Y165293D01*
X146935Y157622D01*
X130305D01*
X130296Y157658D01*
X129901Y158342D01*
X129342Y158901D01*
X128658Y159296D01*
X128622Y159305D01*
Y170695D01*
X128658Y170704D01*
X129342Y171099D01*
X129901Y171658D01*
X130296Y172342D01*
X130500Y173105D01*
Y173895D01*
X130296Y174658D01*
X129901Y175342D01*
X129342Y175901D01*
X128658Y176296D01*
X127895Y176500D01*
X127105D01*
X126342Y176296D01*
X125658Y175901D01*
X125099Y175342D01*
X124704Y174658D01*
X124500Y173895D01*
Y173105D01*
X124704Y172342D01*
X125099Y171658D01*
X125658Y171099D01*
X126342Y170704D01*
X126378Y170695D01*
Y159305D01*
X126342Y159296D01*
X125658Y158901D01*
X125099Y158342D01*
X124704Y157658D01*
X124500Y156895D01*
Y156105D01*
X124704Y155342D01*
X125099Y154658D01*
X125658Y154099D01*
X126342Y153704D01*
X127105Y153500D01*
X127895D01*
X128658Y153704D01*
X129342Y154099D01*
X129901Y154658D01*
X130296Y155342D01*
X130305Y155378D01*
X147400D01*
X147400Y155378D01*
X147829Y155464D01*
X148193Y155707D01*
X155865Y163378D01*
X161469D01*
X161676Y162878D01*
X161297Y162499D01*
X161034Y161866D01*
X162992D01*
Y160866D01*
X161034D01*
X161297Y160233D01*
X161859Y159671D01*
X161991Y159616D01*
Y159116D01*
X161859Y159062D01*
X161297Y158499D01*
X161034Y157866D01*
X162992D01*
Y156866D01*
X161034D01*
X161297Y156233D01*
X161587Y155943D01*
X161820Y155616D01*
X161587Y155289D01*
X161297Y154999D01*
X161034Y154366D01*
X162992D01*
Y153866D01*
X163492D01*
Y151909D01*
X164125Y152171D01*
X164416Y152461D01*
X164742Y152694D01*
X165069Y152461D01*
X165359Y152171D01*
X165992Y151909D01*
Y153866D01*
X166992D01*
Y151909D01*
X167625Y152171D01*
X167915Y152461D01*
X168242Y152694D01*
X168569Y152461D01*
X168859Y152171D01*
X169492Y151909D01*
Y153866D01*
X169992D01*
Y154366D01*
X171950D01*
X171688Y154999D01*
X171397Y155289D01*
X171164Y155616D01*
X171397Y155943D01*
X171688Y156233D01*
X171950Y156866D01*
X169992D01*
Y157866D01*
X171950D01*
X171688Y158499D01*
X171125Y159062D01*
X170993Y159116D01*
Y159616D01*
X171125Y159671D01*
X171688Y160233D01*
X171950Y160866D01*
X169992D01*
Y161866D01*
X171950D01*
X171688Y162499D01*
X171308Y162878D01*
X171515Y163378D01*
X172035D01*
X182723Y152691D01*
X182704Y152658D01*
X182500Y151895D01*
Y151105D01*
X182704Y150342D01*
X183099Y149658D01*
X183658Y149099D01*
X184342Y148704D01*
X185105Y148500D01*
X185895D01*
X186321Y148614D01*
X186580Y148166D01*
X177035Y138622D01*
X170976D01*
X170877Y139122D01*
X171049Y139193D01*
X171612Y139756D01*
X171874Y140389D01*
X169917D01*
Y141389D01*
X171874D01*
X171612Y142022D01*
X171049Y142584D01*
X170918Y142639D01*
Y143139D01*
X171049Y143193D01*
X171612Y143756D01*
X171874Y144389D01*
X169917D01*
Y145389D01*
X171874D01*
X171612Y146022D01*
X171049Y146584D01*
X170918Y146639D01*
Y147139D01*
X171049Y147193D01*
X171612Y147756D01*
X171874Y148389D01*
X169917D01*
Y148889D01*
X169417D01*
Y150846D01*
X168784Y150584D01*
X168520Y150320D01*
X168216Y150026D01*
X167866Y150320D01*
X167625Y150562D01*
X166992Y150824D01*
Y148866D01*
X165992D01*
Y150824D01*
X165359Y150562D01*
X165069Y150271D01*
X164742Y150038D01*
X164416Y150271D01*
X164125Y150562D01*
X163492Y150824D01*
Y148866D01*
X162992D01*
Y148366D01*
X161034D01*
X161297Y147733D01*
X161859Y147171D01*
X161991Y147116D01*
Y146616D01*
X161859Y146562D01*
X161297Y145999D01*
X161034Y145366D01*
X162992D01*
Y144366D01*
X161034D01*
X161297Y143733D01*
X161859Y143171D01*
X161991Y143116D01*
Y142616D01*
X161859Y142562D01*
X161297Y141999D01*
X161034Y141366D01*
X162992D01*
Y140366D01*
X161034D01*
X161297Y139733D01*
X161859Y139171D01*
X161978Y139122D01*
X161878Y138622D01*
X156465D01*
X148293Y146793D01*
X147929Y147036D01*
X147500Y147122D01*
X147500Y147122D01*
X135480D01*
X135414Y147622D01*
X135851Y147739D01*
X136649Y148199D01*
X137301Y148851D01*
X137761Y149649D01*
X137989Y150500D01*
X131010D01*
X131238Y149649D01*
X131699Y148851D01*
X132351Y148199D01*
X133149Y147739D01*
X133586Y147622D01*
X133520Y147122D01*
X130305D01*
X130296Y147158D01*
X129901Y147842D01*
X129342Y148401D01*
X128658Y148796D01*
X127895Y149000D01*
X127105D01*
X126342Y148796D01*
X126309Y148777D01*
X122122Y152965D01*
Y170695D01*
X122158Y170704D01*
X122842Y171099D01*
X123401Y171658D01*
X123796Y172342D01*
X124000Y173105D01*
Y173895D01*
X123796Y174658D01*
X123401Y175342D01*
X122842Y175901D01*
X122158Y176296D01*
X121395Y176500D01*
X120605D01*
X119842Y176296D01*
X119158Y175901D01*
X118599Y175342D01*
X118204Y174658D01*
X118000Y173895D01*
Y173105D01*
X118204Y172342D01*
X118599Y171658D01*
X119158Y171099D01*
X119842Y170704D01*
X119878Y170695D01*
Y152500D01*
X119878Y152500D01*
X119964Y152071D01*
X120207Y151707D01*
X124723Y147191D01*
X124704Y147158D01*
X124500Y146395D01*
Y145605D01*
X124704Y144842D01*
X125099Y144158D01*
X125658Y143599D01*
X126342Y143204D01*
X127105Y143000D01*
X127895D01*
X128658Y143204D01*
X129342Y143599D01*
X129901Y144158D01*
X130296Y144842D01*
X130305Y144878D01*
X147035D01*
X155207Y136707D01*
X155207Y136707D01*
X155571Y136464D01*
X156000Y136378D01*
X156000Y136378D01*
X177500D01*
X177500Y136378D01*
X177929Y136464D01*
X178293Y136707D01*
X186513Y144927D01*
X187000Y144707D01*
Y144105D01*
X187204Y143342D01*
X187599Y142658D01*
X188158Y142099D01*
X188842Y141704D01*
X189605Y141500D01*
X190351D01*
X190441Y141393D01*
X190594Y141036D01*
X170426Y120868D01*
X169858Y121196D01*
X169095Y121400D01*
X168305D01*
X167542Y121196D01*
X166858Y120801D01*
X166299Y120242D01*
X165904Y119558D01*
X165700Y118795D01*
Y118005D01*
X165904Y117242D01*
X166299Y116558D01*
X166858Y115999D01*
X167542Y115604D01*
X168305Y115400D01*
X169095D01*
X169858Y115604D01*
X170542Y115999D01*
X171101Y116558D01*
X171496Y117242D01*
X171700Y118005D01*
Y118795D01*
X171602Y119160D01*
X202221Y149779D01*
X202442Y150110D01*
X202520Y150500D01*
Y160500D01*
X202442Y160890D01*
X202221Y161221D01*
X189224Y174218D01*
X189296Y174342D01*
X189500Y175105D01*
Y175895D01*
X189296Y176658D01*
X188901Y177342D01*
X188342Y177901D01*
X187658Y178296D01*
X186895Y178500D01*
X186105D01*
X185342Y178296D01*
X184658Y177901D01*
X184099Y177342D01*
X183704Y176658D01*
X183500Y175895D01*
Y175699D01*
X183000Y175492D01*
X181664Y176828D01*
X181658Y176858D01*
X181622Y176912D01*
Y186195D01*
X181658Y186204D01*
X182342Y186599D01*
X182901Y187158D01*
X183296Y187842D01*
X183305Y187878D01*
X202160D01*
X216082Y173957D01*
X216082Y173957D01*
X216446Y173714D01*
X216875Y173628D01*
X236195D01*
X236204Y173592D01*
X236599Y172908D01*
X237158Y172349D01*
X237842Y171954D01*
X238060Y171896D01*
Y171378D01*
X237624Y171262D01*
X236826Y170801D01*
X236174Y170149D01*
X235713Y169351D01*
X235485Y168500D01*
X238975D01*
Y167500D01*
X235485D01*
X235713Y166649D01*
X236174Y165851D01*
X236826Y165199D01*
X237468Y164829D01*
Y137981D01*
X236649Y137761D01*
X235851Y137301D01*
X235199Y136649D01*
X234596Y136605D01*
X234342Y136859D01*
X233658Y137254D01*
X232895Y137459D01*
X232105D01*
X231342Y137254D01*
X230658Y136859D01*
X230099Y136301D01*
X229704Y135617D01*
X229500Y134854D01*
Y134064D01*
X229704Y133301D01*
X229723Y133268D01*
X199077Y102622D01*
X194805D01*
X194796Y102658D01*
X194401Y103342D01*
X193842Y103901D01*
X193158Y104296D01*
X192395Y104500D01*
X191605D01*
X190842Y104296D01*
X190158Y103901D01*
X189599Y103342D01*
X189204Y102658D01*
X189000Y101895D01*
Y101105D01*
X189204Y100342D01*
X189599Y99658D01*
X190158Y99099D01*
X190842Y98704D01*
X191605Y98500D01*
X192395D01*
X193158Y98704D01*
X193842Y99099D01*
X194401Y99658D01*
X194796Y100342D01*
X194805Y100378D01*
X199541D01*
X199541Y100378D01*
X199970Y100464D01*
X200334Y100707D01*
X231309Y131682D01*
X231342Y131663D01*
X232105Y131459D01*
X232895D01*
X233658Y131663D01*
X234342Y132058D01*
X234627Y132343D01*
X235194Y132351D01*
X235249Y132302D01*
X235851Y131699D01*
X236649Y131238D01*
X237500Y131010D01*
Y134500D01*
X238500D01*
Y131010D01*
X239351Y131238D01*
X240149Y131699D01*
X240801Y132351D01*
X240955Y132619D01*
X241455Y132485D01*
Y108897D01*
X239782Y107224D01*
X239658Y107296D01*
X238895Y107500D01*
X238105D01*
X237342Y107296D01*
X236658Y106901D01*
X236099Y106342D01*
X235704Y105658D01*
X235500Y104895D01*
Y104105D01*
X235704Y103342D01*
X236099Y102658D01*
X236658Y102099D01*
X236684Y102085D01*
Y101507D01*
X236326Y101301D01*
X235674Y100649D01*
X235213Y99851D01*
X234985Y99000D01*
X241964D01*
X241736Y99851D01*
X241276Y100649D01*
X240624Y101301D01*
X240291Y101493D01*
Y102070D01*
X240342Y102099D01*
X240901Y102658D01*
X241296Y103342D01*
X241500Y104105D01*
Y104895D01*
X241296Y105658D01*
X241224Y105782D01*
X243196Y107754D01*
X243417Y108085D01*
X243495Y108475D01*
Y171275D01*
X243417Y171665D01*
X243196Y171996D01*
X241724Y173468D01*
X241796Y173592D01*
X242000Y174355D01*
Y175145D01*
X241796Y175908D01*
X241401Y176592D01*
X240842Y177151D01*
X240158Y177546D01*
X239395Y177750D01*
X238605D01*
X237842Y177546D01*
X237158Y177151D01*
X236599Y176592D01*
X236204Y175908D01*
X236195Y175872D01*
X217340D01*
X203418Y189793D01*
X203054Y190036D01*
X202625Y190122D01*
X202625Y190122D01*
X183305D01*
X183296Y190158D01*
X182901Y190842D01*
X182342Y191401D01*
X181658Y191796D01*
X180895Y192000D01*
D02*
G37*
G36*
X57972Y141024D02*
X57028D01*
X56117Y140779D01*
X55300Y140308D01*
X54633Y139641D01*
X54162Y138824D01*
X53917Y137913D01*
Y136969D01*
X54162Y136058D01*
X54633Y135241D01*
X55300Y134574D01*
X56117Y134102D01*
X57028Y133858D01*
X57972D01*
X58883Y134102D01*
X59700Y134574D01*
X60367Y135241D01*
X60839Y136058D01*
X61083Y136969D01*
Y137913D01*
X60839Y138824D01*
X60367Y139641D01*
X59700Y140308D01*
X58883Y140779D01*
X57972Y141024D01*
D02*
G37*
G36*
X166500Y131490D02*
Y128500D01*
X169490D01*
X169262Y129351D01*
X168801Y130149D01*
X168149Y130801D01*
X167351Y131262D01*
X166500Y131490D01*
D02*
G37*
G36*
X165500D02*
X164649Y131262D01*
X163851Y130801D01*
X163199Y130149D01*
X162739Y129351D01*
X162511Y128500D01*
X165500D01*
Y131490D01*
D02*
G37*
G36*
X169490Y127500D02*
X166500D01*
Y124511D01*
X167351Y124739D01*
X168149Y125199D01*
X168801Y125851D01*
X169262Y126649D01*
X169490Y127500D01*
D02*
G37*
G36*
X165500D02*
X162511D01*
X162739Y126649D01*
X163199Y125851D01*
X163851Y125199D01*
X164649Y124739D01*
X165500Y124511D01*
Y127500D01*
D02*
G37*
G36*
X58038Y127744D02*
X58000D01*
Y124161D01*
X61583D01*
Y124199D01*
X61304Y125237D01*
X60767Y126168D01*
X60007Y126928D01*
X59076Y127466D01*
X58038Y127744D01*
D02*
G37*
G36*
X57000D02*
X56963D01*
X55924Y127466D01*
X54993Y126928D01*
X54233Y126168D01*
X53696Y125237D01*
X53417Y124199D01*
Y124161D01*
X57000D01*
Y127744D01*
D02*
G37*
G36*
X313972Y130185D02*
X313028D01*
X312117Y129941D01*
X311300Y129469D01*
X310633Y128802D01*
X310161Y127985D01*
X309917Y127074D01*
Y126131D01*
X310161Y125220D01*
X310633Y124402D01*
X311300Y123735D01*
X312117Y123264D01*
X313028Y123020D01*
X313972D01*
X314883Y123264D01*
X315700Y123735D01*
X316367Y124402D01*
X316839Y125220D01*
X317083Y126131D01*
Y127074D01*
X316839Y127985D01*
X316367Y128802D01*
X315700Y129469D01*
X314883Y129941D01*
X313972Y130185D01*
D02*
G37*
G36*
X207895Y178500D02*
X207105D01*
X206342Y178296D01*
X205658Y177901D01*
X205099Y177342D01*
X204704Y176658D01*
X204500Y175895D01*
Y175105D01*
X204704Y174342D01*
X205099Y173658D01*
X205658Y173099D01*
X206342Y172704D01*
X207105Y172500D01*
X207895D01*
X208658Y172704D01*
X208782Y172776D01*
X210480Y171078D01*
Y140922D01*
X191024Y121466D01*
X190895Y121500D01*
X190105D01*
X189342Y121296D01*
X188658Y120901D01*
X188099Y120342D01*
X187704Y119658D01*
X187500Y118895D01*
Y118105D01*
X187704Y117342D01*
X188099Y116658D01*
X188658Y116099D01*
X189342Y115704D01*
X190105Y115500D01*
X190895D01*
X191658Y115704D01*
X192342Y116099D01*
X192901Y116658D01*
X193296Y117342D01*
X193500Y118105D01*
Y118895D01*
X193296Y119658D01*
X192901Y120342D01*
X192842Y120400D01*
X212221Y139779D01*
X212442Y140110D01*
X212520Y140500D01*
Y171500D01*
X212442Y171890D01*
X212221Y172221D01*
X210224Y174218D01*
X210296Y174342D01*
X210500Y175105D01*
Y175895D01*
X210296Y176658D01*
X209901Y177342D01*
X209342Y177901D01*
X208658Y178296D01*
X207895Y178500D01*
D02*
G37*
G36*
X200895D02*
X200105D01*
X199342Y178296D01*
X198658Y177901D01*
X198099Y177342D01*
X197704Y176658D01*
X197500Y175895D01*
Y175105D01*
X197704Y174342D01*
X198099Y173658D01*
X198658Y173099D01*
X199342Y172704D01*
X200105Y172500D01*
X200895D01*
X201658Y172704D01*
X201782Y172776D01*
X206980Y167578D01*
Y143422D01*
X184782Y121224D01*
X184658Y121296D01*
X183895Y121500D01*
X183105D01*
X182342Y121296D01*
X181658Y120901D01*
X181099Y120342D01*
X180704Y119658D01*
X180500Y118895D01*
Y118105D01*
X180704Y117342D01*
X181099Y116658D01*
X181658Y116099D01*
X182342Y115704D01*
X183105Y115500D01*
X183895D01*
X184658Y115704D01*
X185342Y116099D01*
X185901Y116658D01*
X186296Y117342D01*
X186500Y118105D01*
Y118895D01*
X186296Y119658D01*
X186224Y119782D01*
X208721Y142279D01*
X208942Y142610D01*
X209020Y143000D01*
Y168000D01*
X208942Y168390D01*
X208721Y168721D01*
X203224Y174218D01*
X203296Y174342D01*
X203500Y175105D01*
Y175895D01*
X203296Y176658D01*
X202901Y177342D01*
X202342Y177901D01*
X201658Y178296D01*
X200895Y178500D01*
D02*
G37*
G36*
X193895D02*
X193105D01*
X192342Y178296D01*
X191658Y177901D01*
X191099Y177342D01*
X190704Y176658D01*
X190500Y175895D01*
Y175105D01*
X190704Y174342D01*
X191099Y173658D01*
X191658Y173099D01*
X192342Y172704D01*
X193105Y172500D01*
X193895D01*
X194658Y172704D01*
X194782Y172776D01*
X203480Y164078D01*
Y146922D01*
X177599Y121041D01*
X177158Y121296D01*
X176395Y121500D01*
X175605D01*
X174842Y121296D01*
X174158Y120901D01*
X173599Y120342D01*
X173204Y119658D01*
X173000Y118895D01*
Y118105D01*
X173204Y117342D01*
X173599Y116658D01*
X174158Y116099D01*
X174842Y115704D01*
X175605Y115500D01*
X176395D01*
X177158Y115704D01*
X177842Y116099D01*
X178401Y116658D01*
X178796Y117342D01*
X179000Y118105D01*
Y118895D01*
X178860Y119418D01*
X205221Y145779D01*
X205442Y146110D01*
X205520Y146500D01*
Y164500D01*
X205442Y164890D01*
X205221Y165221D01*
X196224Y174218D01*
X196296Y174342D01*
X196500Y175105D01*
Y175895D01*
X196296Y176658D01*
X195901Y177342D01*
X195342Y177901D01*
X194658Y178296D01*
X193895Y178500D01*
D02*
G37*
G36*
X61583Y123161D02*
X58000D01*
Y119579D01*
X58038D01*
X59076Y119857D01*
X60007Y120395D01*
X60767Y121155D01*
X61304Y122086D01*
X61583Y123124D01*
Y123161D01*
D02*
G37*
G36*
X57000D02*
X53417D01*
Y123124D01*
X53696Y122086D01*
X54233Y121155D01*
X54993Y120395D01*
X55924Y119857D01*
X56963Y119579D01*
X57000D01*
Y123161D01*
D02*
G37*
G36*
X313972Y116405D02*
X313028D01*
X312117Y116161D01*
X311300Y115690D01*
X310633Y115023D01*
X310161Y114206D01*
X309917Y113294D01*
Y112351D01*
X310161Y111440D01*
X310633Y110623D01*
X311300Y109956D01*
X312117Y109484D01*
X313028Y109240D01*
X313972D01*
X314883Y109484D01*
X315700Y109956D01*
X316367Y110623D01*
X316839Y111440D01*
X317083Y112351D01*
Y113294D01*
X316839Y114206D01*
X316367Y115023D01*
X315700Y115690D01*
X314883Y116161D01*
X313972Y116405D01*
D02*
G37*
G36*
X57972Y113465D02*
X57028D01*
X56117Y113220D01*
X55300Y112749D01*
X54633Y112082D01*
X54162Y111265D01*
X53917Y110354D01*
Y109410D01*
X54162Y108499D01*
X54633Y107682D01*
X55300Y107015D01*
X56117Y106543D01*
X57028Y106299D01*
X57972D01*
X58883Y106543D01*
X59700Y107015D01*
X60367Y107682D01*
X60839Y108499D01*
X61083Y109410D01*
Y110354D01*
X60839Y111265D01*
X60367Y112082D01*
X59700Y112749D01*
X58883Y113220D01*
X57972Y113465D01*
D02*
G37*
G36*
X313972Y102626D02*
X313028D01*
X312117Y102382D01*
X311300Y101910D01*
X310633Y101243D01*
X310161Y100426D01*
X309917Y99515D01*
Y98572D01*
X310161Y97660D01*
X310633Y96843D01*
X311300Y96176D01*
X312117Y95705D01*
X313028Y95461D01*
X313972D01*
X314883Y95705D01*
X315700Y96176D01*
X316367Y96843D01*
X316839Y97660D01*
X317083Y98572D01*
Y99515D01*
X316839Y100426D01*
X316367Y101243D01*
X315700Y101910D01*
X314883Y102382D01*
X313972Y102626D01*
D02*
G37*
G36*
X241964Y98000D02*
X238975D01*
Y95011D01*
X239826Y95239D01*
X240624Y95699D01*
X241276Y96351D01*
X241736Y97149D01*
X241964Y98000D01*
D02*
G37*
G36*
X237975D02*
X234985D01*
X235213Y97149D01*
X235674Y96351D01*
X236326Y95699D01*
X237124Y95239D01*
X237975Y95011D01*
Y98000D01*
D02*
G37*
G36*
X57972Y99685D02*
X57028D01*
X56117Y99441D01*
X55300Y98969D01*
X54633Y98302D01*
X54162Y97485D01*
X53917Y96574D01*
Y95631D01*
X54162Y94719D01*
X54633Y93902D01*
X55300Y93235D01*
X56117Y92764D01*
X57028Y92520D01*
X57972D01*
X58883Y92764D01*
X59700Y93235D01*
X60367Y93902D01*
X60839Y94719D01*
X61083Y95631D01*
Y96574D01*
X60839Y97485D01*
X60367Y98302D01*
X59700Y98969D01*
X58883Y99441D01*
X57972Y99685D01*
D02*
G37*
G36*
X263000Y93989D02*
Y91000D01*
X265989D01*
X265761Y91851D01*
X265301Y92649D01*
X264649Y93301D01*
X263851Y93761D01*
X263000Y93989D01*
D02*
G37*
G36*
X262000D02*
X261149Y93761D01*
X260351Y93301D01*
X259699Y92649D01*
X259239Y91851D01*
X259011Y91000D01*
X262000D01*
Y93989D01*
D02*
G37*
G36*
X265989Y90000D02*
X263000D01*
Y87011D01*
X263851Y87239D01*
X264649Y87699D01*
X265301Y88351D01*
X265761Y89149D01*
X265989Y90000D01*
D02*
G37*
G36*
X262000D02*
X259011D01*
X259239Y89149D01*
X259699Y88351D01*
X260351Y87699D01*
X261149Y87239D01*
X262000Y87011D01*
Y90000D01*
D02*
G37*
%LPD*%
G36*
X200480Y160078D02*
Y150922D01*
X193464Y143906D01*
X193107Y144059D01*
X193000Y144149D01*
Y144895D01*
X192796Y145658D01*
X192724Y145782D01*
X199221Y152279D01*
X199442Y152610D01*
X199520Y153000D01*
Y158550D01*
X199442Y158940D01*
X199221Y159271D01*
X186492Y172000D01*
X186699Y172500D01*
X186895D01*
X187658Y172704D01*
X187782Y172776D01*
X200480Y160078D01*
D02*
G37*
G36*
X241455Y164872D02*
Y136515D01*
X240955Y136381D01*
X240801Y136649D01*
X240149Y137301D01*
X239507Y137671D01*
Y164519D01*
X240326Y164739D01*
X240955Y165102D01*
X241455Y164872D01*
D02*
G37*
D25*
X177500Y137500D02*
X191500Y151500D01*
X147500Y146000D02*
X156000Y137500D01*
X177500D01*
X172500Y164500D02*
X185500Y151500D01*
X147400Y156500D02*
X155400Y164500D01*
X172500D01*
X199541Y101500D02*
X232500Y134459D01*
X192000Y101500D02*
X199541D01*
X180500Y189000D02*
X202625D01*
X216875Y174750D01*
X239000D01*
X180500Y176550D02*
X180622Y176428D01*
X180500Y176550D02*
Y189000D01*
X121000Y152500D02*
Y173500D01*
Y152500D02*
X127500Y146000D01*
Y156500D02*
Y173500D01*
Y146000D02*
X147500D01*
X127500Y156500D02*
X147400D01*
D26*
X176500Y118500D02*
X204500Y146500D01*
X183500Y118500D02*
X208000Y143000D01*
X176000Y118500D02*
X176500D01*
X204500Y146500D02*
Y164500D01*
X208000Y143000D02*
Y168000D01*
X190500Y119500D02*
X211500Y140500D01*
X190500Y118500D02*
Y119500D01*
X180622Y176428D02*
X198500Y158550D01*
X207500Y175500D02*
X211500Y171500D01*
Y140500D02*
Y171500D01*
X200500Y175500D02*
X208000Y168000D01*
X193500Y175500D02*
X204500Y164500D01*
X169400Y118400D02*
X201500Y150500D01*
X186500Y175500D02*
X201500Y160500D01*
Y150500D02*
Y160500D01*
X198500Y153000D02*
Y158550D01*
X190000Y144500D02*
X198500Y153000D01*
X168700Y118400D02*
X169400D01*
X239000Y174750D02*
X242475Y171275D01*
X238000Y134500D02*
X238487Y134987D01*
Y167513D01*
X238975Y168000D01*
X238500Y104500D02*
X242475Y108475D01*
Y171275D01*
X225500Y204000D02*
X233000D01*
D27*
X162992Y161366D02*
D03*
X166492D02*
D03*
X169992D02*
D03*
Y157366D02*
D03*
X166492D02*
D03*
X162992D02*
D03*
X166492Y153866D02*
D03*
X162992D02*
D03*
X169992D02*
D03*
X162992Y148866D02*
D03*
X166492D02*
D03*
Y144866D02*
D03*
X162992D02*
D03*
X166492Y140866D02*
D03*
X162992D02*
D03*
X169917Y148889D02*
D03*
Y144889D02*
D03*
Y140889D02*
D03*
D28*
X198059Y238500D02*
D03*
X184280D02*
D03*
X170500D02*
D03*
X156720D02*
D03*
X142941D02*
D03*
X239398D02*
D03*
X225618D02*
D03*
X211839D02*
D03*
X57500Y96102D02*
D03*
X313500Y140382D02*
D03*
Y154161D02*
D03*
Y167941D02*
D03*
Y181720D02*
D03*
Y195500D02*
D03*
Y99043D02*
D03*
Y112823D02*
D03*
Y126602D02*
D03*
X57500Y137441D02*
D03*
Y151221D02*
D03*
Y165000D02*
D03*
Y178779D02*
D03*
Y192559D02*
D03*
Y109882D02*
D03*
Y123661D02*
D03*
D29*
X129161Y238500D02*
D03*
D30*
X125000Y63000D02*
D03*
X135000D02*
D03*
X145000D02*
D03*
X155000D02*
D03*
X185000D02*
D03*
X195000D02*
D03*
X205000D02*
D03*
X215000D02*
D03*
X125000Y23000D02*
D03*
X135000D02*
D03*
X145000D02*
D03*
X155000D02*
D03*
X165000D02*
D03*
X175000D02*
D03*
X185000D02*
D03*
X195000D02*
D03*
X205000D02*
D03*
X215000D02*
D03*
X125000Y13000D02*
D03*
X135000D02*
D03*
X145000D02*
D03*
X155000D02*
D03*
X165000D02*
D03*
X175000D02*
D03*
X185000D02*
D03*
X195000D02*
D03*
X205000D02*
D03*
X215000D02*
D03*
Y53000D02*
D03*
X205000D02*
D03*
X195000D02*
D03*
X185000D02*
D03*
X175000D02*
D03*
X165000D02*
D03*
X155000D02*
D03*
X145000D02*
D03*
X135000D02*
D03*
X125000D02*
D03*
X175000Y63000D02*
D03*
X165000D02*
D03*
D31*
X313500Y209279D02*
D03*
X57500Y206339D02*
D03*
D32*
X232500Y134459D02*
D03*
X183500Y118500D02*
D03*
X190500D02*
D03*
X136000Y206500D02*
D03*
X156500D02*
D03*
X180500Y189000D02*
D03*
X121000Y173500D02*
D03*
X127500D02*
D03*
Y156500D02*
D03*
Y146000D02*
D03*
X190000Y144500D02*
D03*
X176000Y118500D02*
D03*
X168700Y118400D02*
D03*
X134500Y151000D02*
D03*
X166500Y175000D02*
D03*
X166000Y128000D02*
D03*
X192000Y101500D02*
D03*
X200500Y175500D02*
D03*
X213000Y189500D02*
D03*
X262500Y217500D02*
D03*
Y90500D02*
D03*
Y155000D02*
D03*
X191500Y151500D02*
D03*
X238000Y134500D02*
D03*
X225500Y204000D02*
D03*
X239000Y174750D02*
D03*
X238975Y168000D02*
D03*
X185500Y151500D02*
D03*
X193500Y175500D02*
D03*
X238500Y104500D02*
D03*
X238475Y98500D02*
D03*
X238500Y204000D02*
D03*
X233000D02*
D03*
X207500Y175500D02*
D03*
X186500D02*
D03*
%TF.MD5,dd456b40a554133e8c2ab479d124391d*%
M02*
