%TF.GenerationSoftware,Altium Limited,Altium Designer,22.9.1 (49)*%
G04 Layer_Color=255*
%FSLAX25Y25*%
%MOIN*%
%TF.SameCoordinates,E4663CD6-9850-4590-99AB-2D6E941D03D6*%
%TF.FilePolarity,Positive*%
%TF.FileFunction,Pads,Top*%
%TF.Part,Single*%
G01*
G75*
%TA.AperFunction,SMDPad,CuDef*%
G04:AMPARAMS|DCode=10|XSize=94.49mil|YSize=242.91mil|CornerRadius=1.89mil|HoleSize=0mil|Usage=FLASHONLY|Rotation=0.000|XOffset=0mil|YOffset=0mil|HoleType=Round|Shape=RoundedRectangle|*
%AMROUNDEDRECTD10*
21,1,0.09449,0.23913,0,0,0.0*
21,1,0.09071,0.24291,0,0,0.0*
1,1,0.00378,0.04535,-0.11957*
1,1,0.00378,-0.04535,-0.11957*
1,1,0.00378,-0.04535,0.11957*
1,1,0.00378,0.04535,0.11957*
%
%ADD10ROUNDEDRECTD10*%
G04:AMPARAMS|DCode=11|XSize=17.72mil|YSize=62.99mil|CornerRadius=1.95mil|HoleSize=0mil|Usage=FLASHONLY|Rotation=90.000|XOffset=0mil|YOffset=0mil|HoleType=Round|Shape=RoundedRectangle|*
%AMROUNDEDRECTD11*
21,1,0.01772,0.05909,0,0,90.0*
21,1,0.01382,0.06299,0,0,90.0*
1,1,0.00390,0.02955,0.00691*
1,1,0.00390,0.02955,-0.00691*
1,1,0.00390,-0.02955,-0.00691*
1,1,0.00390,-0.02955,0.00691*
%
%ADD11ROUNDEDRECTD11*%
%ADD12R,0.01575X0.01968*%
%ADD13R,0.05928X0.07316*%
%ADD14R,0.06127X0.06213*%
%TA.AperFunction,ConnectorPad*%
%ADD15R,0.03937X0.06142*%
%TA.AperFunction,SMDPad,CuDef*%
%ADD16R,0.04724X0.05709*%
G04:AMPARAMS|DCode=17|XSize=17.72mil|YSize=51.18mil|CornerRadius=4.43mil|HoleSize=0mil|Usage=FLASHONLY|Rotation=180.000|XOffset=0mil|YOffset=0mil|HoleType=Round|Shape=RoundedRectangle|*
%AMROUNDEDRECTD17*
21,1,0.01772,0.04232,0,0,180.0*
21,1,0.00886,0.05118,0,0,180.0*
1,1,0.00886,-0.00443,0.02116*
1,1,0.00886,0.00443,0.02116*
1,1,0.00886,0.00443,-0.02116*
1,1,0.00886,-0.00443,-0.02116*
%
%ADD17ROUNDEDRECTD17*%
G04:AMPARAMS|DCode=18|XSize=17.72mil|YSize=51.18mil|CornerRadius=4.43mil|HoleSize=0mil|Usage=FLASHONLY|Rotation=180.000|XOffset=0mil|YOffset=0mil|HoleType=Round|Shape=RoundedRectangle|*
%AMROUNDEDRECTD18*
21,1,0.01772,0.04232,0,0,180.0*
21,1,0.00886,0.05118,0,0,180.0*
1,1,0.00886,-0.00443,0.02116*
1,1,0.00886,0.00443,0.02116*
1,1,0.00886,0.00443,-0.02116*
1,1,0.00886,-0.00443,-0.02116*
%
%ADD18ROUNDEDRECTD18*%
%ADD19R,0.03937X0.06142*%
%ADD20R,0.03740X0.05315*%
%ADD21R,0.03543X0.03150*%
%ADD22R,0.02756X0.02559*%
%ADD23R,0.02029X0.01860*%
%ADD24R,0.02047X0.02047*%
%TA.AperFunction,ComponentPad*%
%ADD27C,0.02000*%
%ADD28C,0.06165*%
%ADD29R,0.06165X0.06165*%
%ADD30C,0.04016*%
%ADD31R,0.06165X0.06165*%
D10*
X166492Y151366D02*
D03*
D11*
X154484Y168000D02*
D03*
Y165441D02*
D03*
Y162882D02*
D03*
Y160323D02*
D03*
Y157764D02*
D03*
Y155205D02*
D03*
Y152646D02*
D03*
Y150087D02*
D03*
Y147528D02*
D03*
Y144968D02*
D03*
Y142409D02*
D03*
Y139850D02*
D03*
Y137291D02*
D03*
Y134732D02*
D03*
X178500Y168000D02*
D03*
Y165441D02*
D03*
Y162882D02*
D03*
Y160323D02*
D03*
Y157764D02*
D03*
Y155205D02*
D03*
Y152646D02*
D03*
Y150087D02*
D03*
Y147528D02*
D03*
Y144968D02*
D03*
Y142409D02*
D03*
Y139850D02*
D03*
Y137291D02*
D03*
Y134732D02*
D03*
D12*
X140425Y154000D02*
D03*
X143575D02*
D03*
X140425Y148000D02*
D03*
X143575D02*
D03*
D13*
X149812Y127000D02*
D03*
X138188D02*
D03*
X150812Y176000D02*
D03*
X139188D02*
D03*
D14*
X129000Y225402D02*
D03*
Y218598D02*
D03*
X156500Y225402D02*
D03*
Y218598D02*
D03*
X143000Y225402D02*
D03*
Y218598D02*
D03*
D15*
X125000Y6563D02*
D03*
Y29437D02*
D03*
X135000Y6563D02*
D03*
Y29437D02*
D03*
X145000Y6563D02*
D03*
Y29437D02*
D03*
X155000Y6563D02*
D03*
Y29437D02*
D03*
X165000Y6563D02*
D03*
Y29437D02*
D03*
X175000Y6563D02*
D03*
Y29437D02*
D03*
X185000Y6563D02*
D03*
Y29437D02*
D03*
X195000Y6563D02*
D03*
Y29437D02*
D03*
X205000Y6563D02*
D03*
Y29437D02*
D03*
X215000Y6563D02*
D03*
Y29437D02*
D03*
D16*
X238937Y91000D02*
D03*
X231063D02*
D03*
X239437Y160500D02*
D03*
X231563D02*
D03*
Y143000D02*
D03*
X239437D02*
D03*
X232063Y212500D02*
D03*
X239937D02*
D03*
D17*
X237059Y181000D02*
D03*
X234500Y197535D02*
D03*
X237059D02*
D03*
X231941Y181000D02*
D03*
X234500D02*
D03*
X239618D02*
D03*
X231941Y197535D02*
D03*
X231441Y128035D02*
D03*
X239118Y111500D02*
D03*
X234000D02*
D03*
X231441D02*
D03*
X236559Y128035D02*
D03*
X234000D02*
D03*
X236559Y111500D02*
D03*
D18*
X239618Y197535D02*
D03*
X239118Y128035D02*
D03*
D19*
X125000Y46563D02*
D03*
X145000D02*
D03*
X155000D02*
D03*
X165000D02*
D03*
X175000D02*
D03*
X185000D02*
D03*
X195000D02*
D03*
X205000D02*
D03*
X215000D02*
D03*
Y69437D02*
D03*
X205000D02*
D03*
X195000D02*
D03*
X185000D02*
D03*
X175000D02*
D03*
X165000D02*
D03*
X155000D02*
D03*
X145000D02*
D03*
X135000D02*
D03*
Y46563D02*
D03*
X125000Y69437D02*
D03*
D20*
X223051Y181000D02*
D03*
X216949D02*
D03*
X223000Y197500D02*
D03*
X216898D02*
D03*
X223209Y128000D02*
D03*
X217106D02*
D03*
X223051Y111500D02*
D03*
X216949D02*
D03*
D21*
X262500Y186047D02*
D03*
Y191953D02*
D03*
Y141453D02*
D03*
Y135547D02*
D03*
Y167595D02*
D03*
Y173500D02*
D03*
Y116547D02*
D03*
Y122453D02*
D03*
Y209906D02*
D03*
Y204000D02*
D03*
Y97547D02*
D03*
Y103453D02*
D03*
D22*
X252370Y128000D02*
D03*
X248630D02*
D03*
X252370Y111500D02*
D03*
X248630D02*
D03*
X252000Y197500D02*
D03*
X248260D02*
D03*
X252240Y181000D02*
D03*
X248500D02*
D03*
D23*
X145990Y136000D02*
D03*
X143010D02*
D03*
X145990Y166500D02*
D03*
X143010D02*
D03*
D24*
X232500Y172575D02*
D03*
Y169425D02*
D03*
X231500Y103000D02*
D03*
Y99850D02*
D03*
D27*
X162992Y161366D02*
D03*
X166492D02*
D03*
X169992D02*
D03*
Y157366D02*
D03*
X166492D02*
D03*
X162992D02*
D03*
X166492Y153866D02*
D03*
X162992D02*
D03*
X169992D02*
D03*
X162992Y148866D02*
D03*
X166492D02*
D03*
Y144866D02*
D03*
X162992D02*
D03*
X166492Y140866D02*
D03*
X162992D02*
D03*
X169917Y148889D02*
D03*
Y144889D02*
D03*
Y140889D02*
D03*
D28*
X198059Y238500D02*
D03*
X184280D02*
D03*
X170500D02*
D03*
X156720D02*
D03*
X142941D02*
D03*
X239398D02*
D03*
X225618D02*
D03*
X211839D02*
D03*
X57500Y96102D02*
D03*
X313500Y140382D02*
D03*
Y154161D02*
D03*
Y167941D02*
D03*
Y181720D02*
D03*
Y195500D02*
D03*
Y99043D02*
D03*
Y112823D02*
D03*
Y126602D02*
D03*
X57500Y137441D02*
D03*
Y151221D02*
D03*
Y165000D02*
D03*
Y178779D02*
D03*
Y192559D02*
D03*
Y109882D02*
D03*
Y123661D02*
D03*
D29*
X129161Y238500D02*
D03*
D30*
X125000Y63000D02*
D03*
X135000D02*
D03*
X145000D02*
D03*
X155000D02*
D03*
X185000D02*
D03*
X195000D02*
D03*
X205000D02*
D03*
X215000D02*
D03*
X125000Y23000D02*
D03*
X135000D02*
D03*
X145000D02*
D03*
X155000D02*
D03*
X165000D02*
D03*
X175000D02*
D03*
X185000D02*
D03*
X195000D02*
D03*
X205000D02*
D03*
X215000D02*
D03*
X125000Y13000D02*
D03*
X135000D02*
D03*
X145000D02*
D03*
X155000D02*
D03*
X165000D02*
D03*
X175000D02*
D03*
X185000D02*
D03*
X195000D02*
D03*
X205000D02*
D03*
X215000D02*
D03*
Y53000D02*
D03*
X205000D02*
D03*
X195000D02*
D03*
X185000D02*
D03*
X175000D02*
D03*
X165000D02*
D03*
X155000D02*
D03*
X145000D02*
D03*
X135000D02*
D03*
X125000D02*
D03*
X175000Y63000D02*
D03*
X165000D02*
D03*
D31*
X313500Y209279D02*
D03*
X57500Y206339D02*
D03*
%TF.MD5,9831b45b737976ff27d8c7ff60bed3cb*%
M02*
