%TF.GenerationSoftware,Altium Limited,Altium Designer,22.9.1 (49)*%
G04 Layer_Color=16711935*
%FSLAX25Y25*%
%MOIN*%
%TF.SameCoordinates,E4663CD6-9850-4590-99AB-2D6E941D03D6*%
%TF.FilePolarity,Positive*%
%TF.FileFunction,Other,Top_Assembly*%
%TF.Part,Single*%
G01*
G75*
%TA.AperFunction,NonConductor*%
%ADD36C,0.00787*%
G36*
X139396Y151474D02*
X139114D01*
Y151714D01*
X139110Y151707D01*
X139097Y151691D01*
X139074Y151668D01*
X139048Y151635D01*
X139015Y151602D01*
X138979Y151570D01*
X138936Y151537D01*
X138891Y151507D01*
X138884Y151504D01*
X138868Y151497D01*
X138841Y151484D01*
X138805Y151471D01*
X138759Y151458D01*
X138707Y151445D01*
X138648Y151438D01*
X138585Y151435D01*
X138563D01*
X138546Y151438D01*
X138526D01*
X138500Y151442D01*
X138444Y151452D01*
X138382Y151465D01*
X138310Y151488D01*
X138241Y151517D01*
X138172Y151556D01*
X138169D01*
X138166Y151563D01*
X138156Y151570D01*
X138143Y151579D01*
X138110Y151606D01*
X138071Y151645D01*
X138028Y151694D01*
X137982Y151750D01*
X137939Y151819D01*
X137900Y151898D01*
Y151901D01*
X137897Y151907D01*
X137890Y151920D01*
X137887Y151937D01*
X137877Y151957D01*
X137871Y151979D01*
X137864Y152009D01*
X137854Y152039D01*
X137838Y152111D01*
X137821Y152190D01*
X137812Y152281D01*
X137808Y152376D01*
Y152380D01*
Y152390D01*
Y152403D01*
Y152422D01*
X137812Y152449D01*
X137815Y152478D01*
X137818Y152508D01*
X137821Y152544D01*
X137834Y152622D01*
X137851Y152708D01*
X137877Y152796D01*
X137910Y152882D01*
Y152885D01*
X137913Y152891D01*
X137920Y152901D01*
X137929Y152918D01*
X137939Y152937D01*
X137952Y152957D01*
X137985Y153006D01*
X138028Y153062D01*
X138077Y153121D01*
X138136Y153173D01*
X138205Y153223D01*
X138208D01*
X138215Y153229D01*
X138225Y153233D01*
X138238Y153242D01*
X138254Y153249D01*
X138277Y153259D01*
X138326Y153282D01*
X138385Y153305D01*
X138454Y153321D01*
X138530Y153334D01*
X138609Y153341D01*
X138635D01*
X138664Y153338D01*
X138700Y153331D01*
X138743Y153324D01*
X138792Y153314D01*
X138838Y153298D01*
X138887Y153275D01*
X138894Y153272D01*
X138907Y153262D01*
X138930Y153249D01*
X138956Y153229D01*
X138989Y153206D01*
X139022Y153177D01*
X139055Y153147D01*
X139087Y153111D01*
Y154000D01*
X139396D01*
Y151474D01*
D02*
G37*
G36*
X135601Y152232D02*
X134650D01*
Y152544D01*
X135601D01*
Y152232D01*
D02*
G37*
G36*
X140882Y153341D02*
X140914Y153338D01*
X140957Y153334D01*
X141000Y153331D01*
X141049Y153324D01*
X141154Y153305D01*
X141265Y153275D01*
X141321Y153255D01*
X141377Y153233D01*
X141429Y153209D01*
X141479Y153180D01*
X141482Y153177D01*
X141488Y153173D01*
X141501Y153164D01*
X141521Y153147D01*
X141541Y153131D01*
X141567Y153111D01*
X141593Y153085D01*
X141623Y153055D01*
X141656Y153026D01*
X141685Y152990D01*
X141718Y152950D01*
X141751Y152904D01*
X141783Y152859D01*
X141813Y152809D01*
X141843Y152754D01*
X141869Y152698D01*
Y152695D01*
X141875Y152685D01*
X141882Y152665D01*
X141888Y152642D01*
X141898Y152613D01*
X141911Y152580D01*
X141921Y152540D01*
X141934Y152495D01*
X141948Y152445D01*
X141957Y152393D01*
X141971Y152337D01*
X141980Y152281D01*
X141993Y152153D01*
X142000Y152022D01*
Y152019D01*
Y152006D01*
Y151983D01*
X141997Y151957D01*
Y151920D01*
X141993Y151881D01*
X141987Y151839D01*
X141980Y151789D01*
X141974Y151737D01*
X141964Y151681D01*
X141938Y151566D01*
X141902Y151452D01*
X141879Y151392D01*
X141852Y151337D01*
X141849Y151333D01*
X141846Y151324D01*
X141836Y151307D01*
X141823Y151287D01*
X141810Y151265D01*
X141790Y151235D01*
X141767Y151206D01*
X141741Y151169D01*
X141682Y151097D01*
X141606Y151025D01*
X141521Y150953D01*
X141472Y150920D01*
X141423Y150891D01*
X141419Y150887D01*
X141410Y150884D01*
X141393Y150877D01*
X141374Y150868D01*
X141347Y150855D01*
X141318Y150841D01*
X141282Y150828D01*
X141242Y150812D01*
X141196Y150799D01*
X141150Y150786D01*
X141046Y150759D01*
X140931Y150743D01*
X140872Y150736D01*
X140773D01*
X140747Y150740D01*
X140714Y150743D01*
X140675Y150746D01*
X140632Y150753D01*
X140586Y150759D01*
X140488Y150782D01*
X140436Y150799D01*
X140380Y150818D01*
X140327Y150841D01*
X140275Y150864D01*
X140222Y150897D01*
X140173Y150930D01*
X140170Y150933D01*
X140163Y150940D01*
X140147Y150950D01*
X140130Y150966D01*
X140111Y150986D01*
X140085Y151009D01*
X140058Y151038D01*
X140029Y151071D01*
X139999Y151107D01*
X139970Y151146D01*
X139940Y151192D01*
X139911Y151238D01*
X139881Y151291D01*
X139855Y151347D01*
X139829Y151409D01*
X139809Y151471D01*
X140137Y151550D01*
Y151547D01*
X140140Y151537D01*
X140147Y151524D01*
X140153Y151504D01*
X140163Y151481D01*
X140173Y151455D01*
X140203Y151396D01*
X140239Y151330D01*
X140281Y151265D01*
X140334Y151202D01*
X140363Y151176D01*
X140393Y151150D01*
X140396D01*
X140399Y151143D01*
X140409Y151137D01*
X140422Y151130D01*
X140439Y151120D01*
X140458Y151110D01*
X140508Y151084D01*
X140570Y151061D01*
X140642Y151041D01*
X140724Y151028D01*
X140816Y151022D01*
X140846D01*
X140865Y151025D01*
X140888D01*
X140918Y151028D01*
X140950Y151035D01*
X140987Y151038D01*
X141062Y151055D01*
X141144Y151081D01*
X141226Y151117D01*
X141265Y151137D01*
X141305Y151163D01*
X141308D01*
X141314Y151169D01*
X141324Y151176D01*
X141338Y151189D01*
X141370Y151219D01*
X141410Y151261D01*
X141455Y151314D01*
X141501Y151379D01*
X141544Y151452D01*
X141577Y151537D01*
Y151540D01*
X141580Y151547D01*
X141584Y151560D01*
X141590Y151576D01*
X141597Y151599D01*
X141603Y151625D01*
X141610Y151655D01*
X141616Y151684D01*
X141629Y151760D01*
X141642Y151842D01*
X141652Y151930D01*
X141656Y152022D01*
Y152025D01*
Y152035D01*
Y152052D01*
Y152075D01*
X141652Y152104D01*
X141649Y152137D01*
Y152173D01*
X141642Y152212D01*
X141633Y152301D01*
X141616Y152393D01*
X141593Y152491D01*
X141564Y152583D01*
Y152586D01*
X141560Y152593D01*
X141554Y152606D01*
X141544Y152622D01*
X141534Y152642D01*
X141524Y152665D01*
X141492Y152718D01*
X141449Y152777D01*
X141400Y152836D01*
X141341Y152891D01*
X141272Y152941D01*
X141269D01*
X141262Y152947D01*
X141252Y152950D01*
X141236Y152960D01*
X141219Y152967D01*
X141196Y152977D01*
X141144Y153000D01*
X141078Y153023D01*
X141006Y153039D01*
X140928Y153052D01*
X140842Y153059D01*
X140816D01*
X140796Y153055D01*
X140770Y153052D01*
X140744Y153049D01*
X140711Y153046D01*
X140678Y153039D01*
X140603Y153019D01*
X140524Y152990D01*
X140481Y152973D01*
X140442Y152950D01*
X140403Y152927D01*
X140367Y152898D01*
X140363Y152895D01*
X140357Y152891D01*
X140347Y152882D01*
X140334Y152868D01*
X140321Y152852D01*
X140301Y152829D01*
X140281Y152806D01*
X140262Y152777D01*
X140239Y152747D01*
X140216Y152711D01*
X140196Y152672D01*
X140173Y152629D01*
X140153Y152580D01*
X140134Y152531D01*
X140117Y152478D01*
X140101Y152419D01*
X139766Y152504D01*
Y152508D01*
X139773Y152521D01*
X139779Y152544D01*
X139786Y152573D01*
X139799Y152606D01*
X139816Y152645D01*
X139832Y152688D01*
X139855Y152737D01*
X139878Y152786D01*
X139907Y152839D01*
X139937Y152888D01*
X139973Y152941D01*
X140009Y152993D01*
X140052Y153042D01*
X140098Y153088D01*
X140147Y153131D01*
X140150Y153134D01*
X140160Y153141D01*
X140173Y153150D01*
X140196Y153164D01*
X140222Y153180D01*
X140255Y153200D01*
X140291Y153216D01*
X140331Y153236D01*
X140380Y153259D01*
X140429Y153275D01*
X140485Y153295D01*
X140544Y153311D01*
X140606Y153324D01*
X140672Y153334D01*
X140741Y153341D01*
X140813Y153344D01*
X140852D01*
X140882Y153341D01*
D02*
G37*
G36*
X136667Y151330D02*
X136673Y151333D01*
X136686Y151347D01*
X136713Y151370D01*
X136746Y151396D01*
X136788Y151428D01*
X136841Y151465D01*
X136896Y151504D01*
X136962Y151543D01*
X136965D01*
X136969Y151547D01*
X136978Y151553D01*
X136992Y151560D01*
X137028Y151579D01*
X137070Y151602D01*
X137119Y151629D01*
X137175Y151655D01*
X137231Y151681D01*
X137287Y151704D01*
Y151402D01*
X137283D01*
X137274Y151396D01*
X137260Y151389D01*
X137244Y151379D01*
X137221Y151370D01*
X137195Y151353D01*
X137133Y151320D01*
X137064Y151278D01*
X136985Y151225D01*
X136909Y151169D01*
X136834Y151107D01*
X136831Y151104D01*
X136824Y151101D01*
X136814Y151091D01*
X136801Y151077D01*
X136768Y151045D01*
X136726Y150999D01*
X136683Y150950D01*
X136637Y150891D01*
X136595Y150831D01*
X136558Y150769D01*
X136358D01*
Y153301D01*
X136667D01*
Y151330D01*
D02*
G37*
G36*
X145253Y129604D02*
X145286Y129601D01*
X145325Y129598D01*
X145368Y129591D01*
X145414Y129585D01*
X145512Y129562D01*
X145564Y129545D01*
X145620Y129525D01*
X145673Y129503D01*
X145725Y129480D01*
X145778Y129447D01*
X145827Y129414D01*
X145830Y129411D01*
X145837Y129404D01*
X145853Y129394D01*
X145870Y129378D01*
X145889Y129358D01*
X145915Y129335D01*
X145942Y129306D01*
X145971Y129273D01*
X146001Y129237D01*
X146030Y129198D01*
X146060Y129152D01*
X146089Y129106D01*
X146119Y129053D01*
X146145Y128998D01*
X146171Y128935D01*
X146191Y128873D01*
X145863Y128794D01*
Y128797D01*
X145860Y128807D01*
X145853Y128820D01*
X145847Y128840D01*
X145837Y128863D01*
X145827Y128889D01*
X145797Y128948D01*
X145761Y129014D01*
X145719Y129079D01*
X145666Y129142D01*
X145637Y129168D01*
X145607Y129194D01*
X145604D01*
X145601Y129201D01*
X145591Y129207D01*
X145578Y129214D01*
X145561Y129224D01*
X145542Y129234D01*
X145492Y129260D01*
X145430Y129283D01*
X145358Y129303D01*
X145276Y129316D01*
X145184Y129322D01*
X145155D01*
X145135Y129319D01*
X145112D01*
X145082Y129316D01*
X145050Y129309D01*
X145013Y129306D01*
X144938Y129289D01*
X144856Y129263D01*
X144774Y129227D01*
X144735Y129207D01*
X144695Y129181D01*
X144692D01*
X144685Y129175D01*
X144676Y129168D01*
X144662Y129155D01*
X144630Y129125D01*
X144590Y129083D01*
X144544Y129030D01*
X144499Y128965D01*
X144456Y128893D01*
X144423Y128807D01*
Y128804D01*
X144420Y128797D01*
X144416Y128784D01*
X144410Y128768D01*
X144403Y128745D01*
X144397Y128719D01*
X144390Y128689D01*
X144384Y128660D01*
X144371Y128584D01*
X144358Y128502D01*
X144348Y128414D01*
X144344Y128322D01*
Y128319D01*
Y128309D01*
Y128292D01*
Y128269D01*
X144348Y128240D01*
X144351Y128207D01*
Y128171D01*
X144358Y128131D01*
X144367Y128043D01*
X144384Y127951D01*
X144407Y127853D01*
X144436Y127761D01*
Y127758D01*
X144439Y127751D01*
X144446Y127738D01*
X144456Y127722D01*
X144466Y127702D01*
X144475Y127679D01*
X144508Y127626D01*
X144551Y127567D01*
X144600Y127508D01*
X144659Y127453D01*
X144728Y127403D01*
X144731D01*
X144738Y127397D01*
X144748Y127394D01*
X144764Y127384D01*
X144781Y127377D01*
X144804Y127367D01*
X144856Y127344D01*
X144922Y127321D01*
X144994Y127305D01*
X145072Y127292D01*
X145158Y127285D01*
X145184D01*
X145204Y127289D01*
X145230Y127292D01*
X145256Y127295D01*
X145289Y127298D01*
X145322Y127305D01*
X145397Y127325D01*
X145476Y127354D01*
X145519Y127371D01*
X145558Y127394D01*
X145597Y127417D01*
X145633Y127446D01*
X145637Y127449D01*
X145643Y127453D01*
X145653Y127462D01*
X145666Y127476D01*
X145679Y127492D01*
X145699Y127515D01*
X145719Y127538D01*
X145738Y127567D01*
X145761Y127597D01*
X145784Y127633D01*
X145804Y127672D01*
X145827Y127715D01*
X145847Y127764D01*
X145866Y127813D01*
X145883Y127866D01*
X145899Y127925D01*
X146234Y127840D01*
Y127836D01*
X146227Y127823D01*
X146221Y127800D01*
X146214Y127771D01*
X146201Y127738D01*
X146184Y127699D01*
X146168Y127656D01*
X146145Y127607D01*
X146122Y127558D01*
X146093Y127505D01*
X146063Y127456D01*
X146027Y127403D01*
X145991Y127351D01*
X145948Y127302D01*
X145902Y127256D01*
X145853Y127213D01*
X145850Y127210D01*
X145840Y127203D01*
X145827Y127193D01*
X145804Y127180D01*
X145778Y127164D01*
X145745Y127144D01*
X145709Y127128D01*
X145669Y127108D01*
X145620Y127085D01*
X145571Y127069D01*
X145515Y127049D01*
X145456Y127033D01*
X145394Y127020D01*
X145328Y127010D01*
X145259Y127003D01*
X145187Y127000D01*
X145148D01*
X145118Y127003D01*
X145086Y127006D01*
X145043Y127010D01*
X145000Y127013D01*
X144951Y127020D01*
X144846Y127039D01*
X144735Y127069D01*
X144679Y127088D01*
X144623Y127111D01*
X144571Y127134D01*
X144521Y127164D01*
X144518Y127167D01*
X144512Y127171D01*
X144499Y127180D01*
X144479Y127197D01*
X144459Y127213D01*
X144433Y127233D01*
X144407Y127259D01*
X144377Y127289D01*
X144344Y127318D01*
X144315Y127354D01*
X144282Y127394D01*
X144249Y127439D01*
X144216Y127485D01*
X144187Y127535D01*
X144157Y127590D01*
X144131Y127646D01*
Y127649D01*
X144125Y127659D01*
X144118Y127679D01*
X144112Y127702D01*
X144102Y127731D01*
X144088Y127764D01*
X144079Y127804D01*
X144066Y127849D01*
X144052Y127899D01*
X144043Y127951D01*
X144029Y128007D01*
X144020Y128063D01*
X144007Y128191D01*
X144000Y128322D01*
Y128325D01*
Y128338D01*
Y128361D01*
X144003Y128387D01*
Y128424D01*
X144007Y128463D01*
X144013Y128506D01*
X144020Y128555D01*
X144026Y128607D01*
X144036Y128663D01*
X144062Y128778D01*
X144098Y128893D01*
X144121Y128952D01*
X144148Y129007D01*
X144151Y129011D01*
X144154Y129020D01*
X144164Y129037D01*
X144177Y129057D01*
X144190Y129079D01*
X144210Y129109D01*
X144233Y129139D01*
X144259Y129175D01*
X144318Y129247D01*
X144394Y129319D01*
X144479Y129391D01*
X144528Y129424D01*
X144577Y129453D01*
X144580Y129457D01*
X144590Y129460D01*
X144607Y129466D01*
X144626Y129476D01*
X144653Y129490D01*
X144682Y129503D01*
X144718Y129516D01*
X144758Y129532D01*
X144804Y129545D01*
X144850Y129558D01*
X144954Y129585D01*
X145069Y129601D01*
X145128Y129607D01*
X145227D01*
X145253Y129604D01*
D02*
G37*
G36*
X147408Y129571D02*
X147441Y129568D01*
X147477Y129565D01*
X147516Y129558D01*
X147559Y129549D01*
X147651Y129525D01*
X147696Y129509D01*
X147746Y129490D01*
X147795Y129466D01*
X147841Y129437D01*
X147883Y129408D01*
X147926Y129371D01*
X147929Y129368D01*
X147936Y129362D01*
X147946Y129352D01*
X147959Y129335D01*
X147975Y129316D01*
X147995Y129293D01*
X148011Y129266D01*
X148034Y129234D01*
X148054Y129201D01*
X148070Y129162D01*
X148107Y129076D01*
X148120Y129030D01*
X148129Y128981D01*
X148136Y128929D01*
X148139Y128873D01*
Y128866D01*
Y128847D01*
X148136Y128817D01*
X148133Y128778D01*
X148123Y128735D01*
X148113Y128683D01*
X148097Y128630D01*
X148077Y128574D01*
X148074Y128568D01*
X148064Y128548D01*
X148051Y128519D01*
X148028Y128482D01*
X147998Y128437D01*
X147962Y128384D01*
X147920Y128325D01*
X147870Y128266D01*
Y128263D01*
X147864Y128260D01*
X147854Y128250D01*
X147844Y128236D01*
X147828Y128220D01*
X147808Y128200D01*
X147785Y128177D01*
X147756Y128151D01*
X147726Y128122D01*
X147690Y128089D01*
X147651Y128050D01*
X147608Y128010D01*
X147559Y127968D01*
X147510Y127925D01*
X147450Y127876D01*
X147391Y127823D01*
X147388Y127820D01*
X147378Y127813D01*
X147365Y127800D01*
X147346Y127787D01*
X147326Y127768D01*
X147300Y127744D01*
X147244Y127695D01*
X147181Y127643D01*
X147123Y127590D01*
X147096Y127567D01*
X147073Y127544D01*
X147050Y127522D01*
X147034Y127505D01*
X147031Y127502D01*
X147021Y127492D01*
X147008Y127476D01*
X146988Y127453D01*
X146968Y127430D01*
X146945Y127400D01*
X146903Y127341D01*
X148143D01*
Y127043D01*
X146473D01*
Y127049D01*
Y127062D01*
Y127082D01*
X146476Y127111D01*
X146480Y127144D01*
X146486Y127180D01*
X146496Y127216D01*
X146509Y127256D01*
Y127259D01*
X146512Y127262D01*
X146516Y127272D01*
X146522Y127285D01*
X146535Y127318D01*
X146558Y127361D01*
X146588Y127413D01*
X146621Y127469D01*
X146663Y127528D01*
X146713Y127590D01*
X146716Y127594D01*
X146719Y127597D01*
X146729Y127607D01*
X146739Y127620D01*
X146772Y127656D01*
X146818Y127702D01*
X146873Y127758D01*
X146942Y127823D01*
X147024Y127895D01*
X147119Y127974D01*
X147123Y127977D01*
X147136Y127990D01*
X147159Y128007D01*
X147185Y128030D01*
X147218Y128059D01*
X147257Y128092D01*
X147300Y128128D01*
X147342Y128168D01*
X147434Y128253D01*
X147526Y128341D01*
X147569Y128387D01*
X147608Y128430D01*
X147644Y128469D01*
X147674Y128509D01*
X147677Y128512D01*
X147680Y128519D01*
X147687Y128528D01*
X147696Y128542D01*
X147706Y128561D01*
X147720Y128581D01*
X147749Y128630D01*
X147775Y128686D01*
X147798Y128748D01*
X147815Y128817D01*
X147821Y128850D01*
Y128883D01*
Y128886D01*
Y128893D01*
Y128899D01*
X147818Y128912D01*
X147815Y128948D01*
X147805Y128991D01*
X147788Y129040D01*
X147765Y129089D01*
X147733Y129142D01*
X147687Y129191D01*
X147680Y129198D01*
X147664Y129211D01*
X147634Y129230D01*
X147595Y129257D01*
X147546Y129279D01*
X147487Y129299D01*
X147418Y129312D01*
X147342Y129319D01*
X147319D01*
X147306Y129316D01*
X147286D01*
X147264Y129312D01*
X147214Y129303D01*
X147159Y129286D01*
X147096Y129263D01*
X147037Y129230D01*
X146985Y129184D01*
X146978Y129178D01*
X146965Y129162D01*
X146942Y129129D01*
X146919Y129089D01*
X146893Y129034D01*
X146870Y128971D01*
X146857Y128899D01*
X146850Y128814D01*
X146532Y128847D01*
Y128850D01*
X146535Y128863D01*
Y128879D01*
X146539Y128906D01*
X146545Y128935D01*
X146552Y128968D01*
X146562Y129007D01*
X146575Y129047D01*
X146604Y129135D01*
X146624Y129181D01*
X146647Y129224D01*
X146673Y129270D01*
X146703Y129312D01*
X146736Y129352D01*
X146775Y129388D01*
X146778Y129391D01*
X146785Y129394D01*
X146798Y129404D01*
X146814Y129417D01*
X146837Y129430D01*
X146863Y129447D01*
X146893Y129463D01*
X146929Y129483D01*
X146968Y129499D01*
X147011Y129516D01*
X147057Y129532D01*
X147109Y129545D01*
X147162Y129558D01*
X147221Y129568D01*
X147283Y129571D01*
X147349Y129575D01*
X147385D01*
X147408Y129571D01*
D02*
G37*
G36*
X139396Y145474D02*
X139114D01*
Y145714D01*
X139110Y145707D01*
X139097Y145691D01*
X139074Y145668D01*
X139048Y145635D01*
X139015Y145602D01*
X138979Y145570D01*
X138936Y145537D01*
X138891Y145507D01*
X138884Y145504D01*
X138868Y145497D01*
X138841Y145484D01*
X138805Y145471D01*
X138759Y145458D01*
X138707Y145445D01*
X138648Y145438D01*
X138585Y145435D01*
X138563D01*
X138546Y145438D01*
X138526D01*
X138500Y145442D01*
X138444Y145451D01*
X138382Y145465D01*
X138310Y145488D01*
X138241Y145517D01*
X138172Y145556D01*
X138169D01*
X138166Y145563D01*
X138156Y145570D01*
X138143Y145579D01*
X138110Y145606D01*
X138071Y145645D01*
X138028Y145694D01*
X137982Y145750D01*
X137939Y145819D01*
X137900Y145898D01*
Y145901D01*
X137897Y145907D01*
X137890Y145921D01*
X137887Y145937D01*
X137877Y145957D01*
X137871Y145979D01*
X137864Y146009D01*
X137854Y146039D01*
X137838Y146111D01*
X137821Y146189D01*
X137812Y146281D01*
X137808Y146376D01*
Y146380D01*
Y146390D01*
Y146403D01*
Y146422D01*
X137812Y146449D01*
X137815Y146478D01*
X137818Y146508D01*
X137821Y146544D01*
X137834Y146622D01*
X137851Y146708D01*
X137877Y146796D01*
X137910Y146881D01*
Y146885D01*
X137913Y146891D01*
X137920Y146901D01*
X137929Y146918D01*
X137939Y146937D01*
X137952Y146957D01*
X137985Y147006D01*
X138028Y147062D01*
X138077Y147121D01*
X138136Y147174D01*
X138205Y147223D01*
X138208D01*
X138215Y147229D01*
X138225Y147232D01*
X138238Y147242D01*
X138254Y147249D01*
X138277Y147259D01*
X138326Y147282D01*
X138385Y147305D01*
X138454Y147321D01*
X138530Y147334D01*
X138609Y147341D01*
X138635D01*
X138664Y147337D01*
X138700Y147331D01*
X138743Y147324D01*
X138792Y147315D01*
X138838Y147298D01*
X138887Y147275D01*
X138894Y147272D01*
X138907Y147262D01*
X138930Y147249D01*
X138956Y147229D01*
X138989Y147206D01*
X139022Y147177D01*
X139055Y147147D01*
X139087Y147111D01*
Y148000D01*
X139396D01*
Y145474D01*
D02*
G37*
G36*
X134833Y146203D02*
X135519D01*
Y145914D01*
X134833D01*
Y145228D01*
X134541D01*
Y145914D01*
X133856D01*
Y146203D01*
X134541D01*
Y146895D01*
X134833D01*
Y146203D01*
D02*
G37*
G36*
X140882Y147341D02*
X140914Y147337D01*
X140957Y147334D01*
X141000Y147331D01*
X141049Y147324D01*
X141154Y147305D01*
X141265Y147275D01*
X141321Y147256D01*
X141377Y147232D01*
X141429Y147210D01*
X141479Y147180D01*
X141482Y147177D01*
X141488Y147174D01*
X141501Y147164D01*
X141521Y147147D01*
X141541Y147131D01*
X141567Y147111D01*
X141593Y147085D01*
X141623Y147055D01*
X141656Y147026D01*
X141685Y146990D01*
X141718Y146950D01*
X141751Y146905D01*
X141783Y146859D01*
X141813Y146809D01*
X141843Y146754D01*
X141869Y146698D01*
Y146695D01*
X141875Y146685D01*
X141882Y146665D01*
X141888Y146642D01*
X141898Y146613D01*
X141911Y146580D01*
X141921Y146540D01*
X141934Y146494D01*
X141948Y146445D01*
X141957Y146393D01*
X141971Y146337D01*
X141980Y146281D01*
X141993Y146153D01*
X142000Y146022D01*
Y146019D01*
Y146006D01*
Y145983D01*
X141997Y145957D01*
Y145921D01*
X141993Y145881D01*
X141987Y145838D01*
X141980Y145789D01*
X141974Y145737D01*
X141964Y145681D01*
X141938Y145566D01*
X141902Y145451D01*
X141879Y145392D01*
X141852Y145337D01*
X141849Y145333D01*
X141846Y145324D01*
X141836Y145307D01*
X141823Y145288D01*
X141810Y145264D01*
X141790Y145235D01*
X141767Y145205D01*
X141741Y145169D01*
X141682Y145097D01*
X141606Y145025D01*
X141521Y144953D01*
X141472Y144920D01*
X141423Y144891D01*
X141419Y144887D01*
X141410Y144884D01*
X141393Y144878D01*
X141374Y144868D01*
X141347Y144854D01*
X141318Y144841D01*
X141282Y144828D01*
X141242Y144812D01*
X141196Y144799D01*
X141150Y144786D01*
X141046Y144759D01*
X140931Y144743D01*
X140872Y144736D01*
X140773D01*
X140747Y144740D01*
X140714Y144743D01*
X140675Y144746D01*
X140632Y144753D01*
X140586Y144759D01*
X140488Y144782D01*
X140436Y144799D01*
X140380Y144818D01*
X140327Y144841D01*
X140275Y144864D01*
X140222Y144897D01*
X140173Y144930D01*
X140170Y144933D01*
X140163Y144940D01*
X140147Y144950D01*
X140130Y144966D01*
X140111Y144986D01*
X140085Y145009D01*
X140058Y145038D01*
X140029Y145071D01*
X139999Y145107D01*
X139970Y145146D01*
X139940Y145192D01*
X139911Y145238D01*
X139881Y145291D01*
X139855Y145346D01*
X139829Y145409D01*
X139809Y145471D01*
X140137Y145550D01*
Y145547D01*
X140140Y145537D01*
X140147Y145524D01*
X140153Y145504D01*
X140163Y145481D01*
X140173Y145455D01*
X140203Y145396D01*
X140239Y145330D01*
X140281Y145264D01*
X140334Y145202D01*
X140363Y145176D01*
X140393Y145150D01*
X140396D01*
X140399Y145143D01*
X140409Y145137D01*
X140422Y145130D01*
X140439Y145120D01*
X140458Y145110D01*
X140508Y145084D01*
X140570Y145061D01*
X140642Y145042D01*
X140724Y145028D01*
X140816Y145022D01*
X140846D01*
X140865Y145025D01*
X140888D01*
X140918Y145028D01*
X140950Y145035D01*
X140987Y145038D01*
X141062Y145055D01*
X141144Y145081D01*
X141226Y145117D01*
X141265Y145137D01*
X141305Y145163D01*
X141308D01*
X141314Y145169D01*
X141324Y145176D01*
X141338Y145189D01*
X141370Y145219D01*
X141410Y145261D01*
X141455Y145314D01*
X141501Y145379D01*
X141544Y145451D01*
X141577Y145537D01*
Y145540D01*
X141580Y145547D01*
X141584Y145560D01*
X141590Y145576D01*
X141597Y145599D01*
X141603Y145625D01*
X141610Y145655D01*
X141616Y145684D01*
X141629Y145760D01*
X141642Y145842D01*
X141652Y145930D01*
X141656Y146022D01*
Y146026D01*
Y146035D01*
Y146052D01*
Y146075D01*
X141652Y146104D01*
X141649Y146137D01*
Y146173D01*
X141642Y146212D01*
X141633Y146301D01*
X141616Y146393D01*
X141593Y146491D01*
X141564Y146583D01*
Y146586D01*
X141560Y146593D01*
X141554Y146606D01*
X141544Y146622D01*
X141534Y146642D01*
X141524Y146665D01*
X141492Y146718D01*
X141449Y146777D01*
X141400Y146836D01*
X141341Y146891D01*
X141272Y146941D01*
X141269D01*
X141262Y146947D01*
X141252Y146950D01*
X141236Y146960D01*
X141219Y146967D01*
X141196Y146977D01*
X141144Y147000D01*
X141078Y147023D01*
X141006Y147039D01*
X140928Y147052D01*
X140842Y147059D01*
X140816D01*
X140796Y147055D01*
X140770Y147052D01*
X140744Y147049D01*
X140711Y147046D01*
X140678Y147039D01*
X140603Y147019D01*
X140524Y146990D01*
X140481Y146973D01*
X140442Y146950D01*
X140403Y146927D01*
X140367Y146898D01*
X140363Y146895D01*
X140357Y146891D01*
X140347Y146881D01*
X140334Y146868D01*
X140321Y146852D01*
X140301Y146829D01*
X140281Y146806D01*
X140262Y146777D01*
X140239Y146747D01*
X140216Y146711D01*
X140196Y146672D01*
X140173Y146629D01*
X140153Y146580D01*
X140134Y146531D01*
X140117Y146478D01*
X140101Y146419D01*
X139766Y146504D01*
Y146508D01*
X139773Y146521D01*
X139779Y146544D01*
X139786Y146573D01*
X139799Y146606D01*
X139816Y146645D01*
X139832Y146688D01*
X139855Y146737D01*
X139878Y146786D01*
X139907Y146839D01*
X139937Y146888D01*
X139973Y146941D01*
X140009Y146993D01*
X140052Y147042D01*
X140098Y147088D01*
X140147Y147131D01*
X140150Y147134D01*
X140160Y147141D01*
X140173Y147151D01*
X140196Y147164D01*
X140222Y147180D01*
X140255Y147200D01*
X140291Y147216D01*
X140331Y147236D01*
X140380Y147259D01*
X140429Y147275D01*
X140485Y147295D01*
X140544Y147311D01*
X140606Y147324D01*
X140672Y147334D01*
X140741Y147341D01*
X140813Y147344D01*
X140852D01*
X140882Y147341D01*
D02*
G37*
G36*
X136667Y145330D02*
X136673Y145333D01*
X136686Y145346D01*
X136713Y145370D01*
X136746Y145396D01*
X136788Y145429D01*
X136841Y145465D01*
X136896Y145504D01*
X136962Y145543D01*
X136965D01*
X136969Y145547D01*
X136978Y145553D01*
X136992Y145560D01*
X137028Y145579D01*
X137070Y145602D01*
X137119Y145629D01*
X137175Y145655D01*
X137231Y145681D01*
X137287Y145704D01*
Y145402D01*
X137283D01*
X137274Y145396D01*
X137260Y145389D01*
X137244Y145379D01*
X137221Y145370D01*
X137195Y145353D01*
X137133Y145320D01*
X137064Y145278D01*
X136985Y145225D01*
X136909Y145169D01*
X136834Y145107D01*
X136831Y145104D01*
X136824Y145100D01*
X136814Y145091D01*
X136801Y145078D01*
X136768Y145045D01*
X136726Y144999D01*
X136683Y144950D01*
X136637Y144891D01*
X136595Y144832D01*
X136558Y144769D01*
X136358D01*
Y147301D01*
X136667D01*
Y145330D01*
D02*
G37*
G36*
X131043Y221997D02*
X131079D01*
X131119Y221993D01*
X131161Y221987D01*
X131211Y221980D01*
X131263Y221974D01*
X131319Y221964D01*
X131434Y221938D01*
X131549Y221902D01*
X131607Y221879D01*
X131663Y221852D01*
X131667Y221849D01*
X131676Y221846D01*
X131693Y221836D01*
X131712Y221823D01*
X131736Y221810D01*
X131765Y221790D01*
X131795Y221767D01*
X131831Y221741D01*
X131903Y221682D01*
X131975Y221606D01*
X132047Y221521D01*
X132080Y221472D01*
X132109Y221423D01*
X132113Y221420D01*
X132116Y221410D01*
X132123Y221393D01*
X132132Y221374D01*
X132146Y221347D01*
X132159Y221318D01*
X132172Y221282D01*
X132188Y221242D01*
X132201Y221196D01*
X132214Y221150D01*
X132241Y221046D01*
X132257Y220931D01*
X132264Y220872D01*
Y220773D01*
X132260Y220747D01*
X132257Y220714D01*
X132254Y220675D01*
X132247Y220632D01*
X132241Y220586D01*
X132218Y220488D01*
X132201Y220436D01*
X132182Y220380D01*
X132159Y220327D01*
X132136Y220275D01*
X132103Y220222D01*
X132070Y220173D01*
X132067Y220170D01*
X132060Y220163D01*
X132050Y220147D01*
X132034Y220130D01*
X132014Y220111D01*
X131991Y220085D01*
X131962Y220058D01*
X131929Y220029D01*
X131893Y219999D01*
X131853Y219970D01*
X131808Y219940D01*
X131762Y219911D01*
X131709Y219881D01*
X131653Y219855D01*
X131591Y219829D01*
X131529Y219809D01*
X131450Y220137D01*
X131453D01*
X131463Y220140D01*
X131476Y220147D01*
X131496Y220153D01*
X131519Y220163D01*
X131545Y220173D01*
X131604Y220203D01*
X131670Y220239D01*
X131736Y220281D01*
X131798Y220334D01*
X131824Y220363D01*
X131850Y220393D01*
Y220396D01*
X131857Y220399D01*
X131863Y220409D01*
X131870Y220422D01*
X131880Y220439D01*
X131890Y220458D01*
X131916Y220508D01*
X131939Y220570D01*
X131958Y220642D01*
X131972Y220724D01*
X131978Y220816D01*
Y220846D01*
X131975Y220865D01*
Y220888D01*
X131972Y220918D01*
X131965Y220950D01*
X131962Y220987D01*
X131945Y221062D01*
X131919Y221144D01*
X131883Y221226D01*
X131863Y221265D01*
X131837Y221305D01*
Y221308D01*
X131831Y221315D01*
X131824Y221324D01*
X131811Y221338D01*
X131781Y221370D01*
X131739Y221410D01*
X131686Y221456D01*
X131621Y221501D01*
X131549Y221544D01*
X131463Y221577D01*
X131460D01*
X131453Y221580D01*
X131440Y221584D01*
X131424Y221590D01*
X131401Y221597D01*
X131375Y221603D01*
X131345Y221610D01*
X131316Y221616D01*
X131240Y221629D01*
X131158Y221642D01*
X131070Y221652D01*
X130978Y221656D01*
X130974D01*
X130965D01*
X130948D01*
X130925D01*
X130896Y221652D01*
X130863Y221649D01*
X130827D01*
X130788Y221642D01*
X130699Y221633D01*
X130607Y221616D01*
X130509Y221593D01*
X130417Y221564D01*
X130414D01*
X130407Y221561D01*
X130394Y221554D01*
X130377Y221544D01*
X130358Y221534D01*
X130335Y221524D01*
X130282Y221492D01*
X130223Y221449D01*
X130164Y221400D01*
X130109Y221341D01*
X130059Y221272D01*
Y221269D01*
X130053Y221262D01*
X130050Y221252D01*
X130040Y221236D01*
X130033Y221219D01*
X130023Y221196D01*
X130000Y221144D01*
X129977Y221078D01*
X129961Y221006D01*
X129948Y220928D01*
X129941Y220842D01*
Y220816D01*
X129945Y220796D01*
X129948Y220770D01*
X129951Y220744D01*
X129954Y220711D01*
X129961Y220678D01*
X129981Y220603D01*
X130010Y220524D01*
X130027Y220481D01*
X130050Y220442D01*
X130072Y220403D01*
X130102Y220367D01*
X130105Y220363D01*
X130109Y220357D01*
X130118Y220347D01*
X130131Y220334D01*
X130148Y220321D01*
X130171Y220301D01*
X130194Y220281D01*
X130223Y220262D01*
X130253Y220239D01*
X130289Y220216D01*
X130328Y220196D01*
X130371Y220173D01*
X130420Y220153D01*
X130469Y220134D01*
X130522Y220117D01*
X130581Y220101D01*
X130496Y219766D01*
X130492D01*
X130479Y219773D01*
X130456Y219779D01*
X130427Y219786D01*
X130394Y219799D01*
X130355Y219815D01*
X130312Y219832D01*
X130263Y219855D01*
X130214Y219878D01*
X130161Y219907D01*
X130112Y219937D01*
X130059Y219973D01*
X130007Y220009D01*
X129958Y220052D01*
X129912Y220098D01*
X129869Y220147D01*
X129866Y220150D01*
X129859Y220160D01*
X129850Y220173D01*
X129836Y220196D01*
X129820Y220222D01*
X129800Y220255D01*
X129784Y220291D01*
X129764Y220331D01*
X129741Y220380D01*
X129725Y220429D01*
X129705Y220485D01*
X129689Y220544D01*
X129676Y220606D01*
X129666Y220672D01*
X129659Y220741D01*
X129656Y220813D01*
Y220852D01*
X129659Y220882D01*
X129663Y220914D01*
X129666Y220957D01*
X129669Y221000D01*
X129676Y221049D01*
X129695Y221154D01*
X129725Y221265D01*
X129745Y221321D01*
X129768Y221377D01*
X129790Y221429D01*
X129820Y221479D01*
X129823Y221482D01*
X129826Y221488D01*
X129836Y221501D01*
X129853Y221521D01*
X129869Y221541D01*
X129889Y221567D01*
X129915Y221593D01*
X129945Y221623D01*
X129974Y221656D01*
X130010Y221685D01*
X130050Y221718D01*
X130096Y221751D01*
X130141Y221784D01*
X130191Y221813D01*
X130246Y221843D01*
X130302Y221869D01*
X130305D01*
X130315Y221875D01*
X130335Y221882D01*
X130358Y221888D01*
X130387Y221898D01*
X130420Y221912D01*
X130459Y221921D01*
X130506Y221934D01*
X130555Y221948D01*
X130607Y221957D01*
X130663Y221971D01*
X130719Y221980D01*
X130847Y221993D01*
X130978Y222000D01*
X130981D01*
X130994D01*
X131017D01*
X131043Y221997D01*
D02*
G37*
G36*
X131526Y219114D02*
X131286D01*
X131293Y219110D01*
X131309Y219097D01*
X131332Y219074D01*
X131365Y219048D01*
X131398Y219015D01*
X131430Y218979D01*
X131463Y218936D01*
X131493Y218891D01*
X131496Y218884D01*
X131503Y218868D01*
X131516Y218841D01*
X131529Y218805D01*
X131542Y218759D01*
X131555Y218707D01*
X131562Y218648D01*
X131565Y218586D01*
Y218563D01*
X131562Y218546D01*
Y218527D01*
X131558Y218500D01*
X131549Y218444D01*
X131535Y218382D01*
X131512Y218310D01*
X131483Y218241D01*
X131444Y218172D01*
Y218169D01*
X131437Y218166D01*
X131430Y218156D01*
X131421Y218143D01*
X131394Y218110D01*
X131355Y218071D01*
X131306Y218028D01*
X131250Y217982D01*
X131181Y217939D01*
X131102Y217900D01*
X131099D01*
X131093Y217897D01*
X131079Y217890D01*
X131063Y217887D01*
X131043Y217877D01*
X131020Y217870D01*
X130991Y217864D01*
X130961Y217854D01*
X130889Y217838D01*
X130810Y217821D01*
X130719Y217811D01*
X130624Y217808D01*
X130620D01*
X130610D01*
X130597D01*
X130578D01*
X130551Y217811D01*
X130522Y217815D01*
X130492Y217818D01*
X130456Y217821D01*
X130377Y217834D01*
X130292Y217851D01*
X130204Y217877D01*
X130118Y217910D01*
X130115D01*
X130109Y217913D01*
X130099Y217920D01*
X130082Y217930D01*
X130063Y217939D01*
X130043Y217952D01*
X129994Y217985D01*
X129938Y218028D01*
X129879Y218077D01*
X129826Y218136D01*
X129777Y218205D01*
Y218208D01*
X129771Y218215D01*
X129768Y218225D01*
X129758Y218238D01*
X129751Y218254D01*
X129741Y218277D01*
X129718Y218326D01*
X129695Y218386D01*
X129679Y218454D01*
X129666Y218530D01*
X129659Y218608D01*
Y218635D01*
X129663Y218664D01*
X129669Y218700D01*
X129676Y218743D01*
X129685Y218792D01*
X129702Y218838D01*
X129725Y218887D01*
X129728Y218894D01*
X129738Y218907D01*
X129751Y218930D01*
X129771Y218956D01*
X129794Y218989D01*
X129823Y219022D01*
X129853Y219055D01*
X129889Y219087D01*
X129000D01*
Y219396D01*
X131526D01*
Y219114D01*
D02*
G37*
G36*
X129768Y217565D02*
X129800Y217562D01*
X129836Y217556D01*
X129872Y217546D01*
X129912Y217533D01*
X129915D01*
X129918Y217529D01*
X129928Y217526D01*
X129941Y217519D01*
X129974Y217506D01*
X130017Y217483D01*
X130069Y217454D01*
X130125Y217421D01*
X130184Y217378D01*
X130246Y217329D01*
X130250Y217326D01*
X130253Y217323D01*
X130263Y217313D01*
X130276Y217303D01*
X130312Y217270D01*
X130358Y217224D01*
X130414Y217169D01*
X130479Y217100D01*
X130551Y217018D01*
X130630Y216923D01*
X130633Y216919D01*
X130647Y216906D01*
X130663Y216883D01*
X130686Y216857D01*
X130715Y216824D01*
X130748Y216785D01*
X130784Y216742D01*
X130824Y216700D01*
X130909Y216608D01*
X130998Y216516D01*
X131043Y216473D01*
X131086Y216434D01*
X131125Y216398D01*
X131165Y216368D01*
X131168Y216365D01*
X131175Y216362D01*
X131184Y216355D01*
X131198Y216345D01*
X131217Y216336D01*
X131237Y216322D01*
X131286Y216293D01*
X131342Y216267D01*
X131404Y216244D01*
X131473Y216227D01*
X131506Y216221D01*
X131539D01*
X131542D01*
X131549D01*
X131555D01*
X131568Y216224D01*
X131604Y216227D01*
X131647Y216237D01*
X131696Y216253D01*
X131745Y216276D01*
X131798Y216309D01*
X131847Y216355D01*
X131853Y216362D01*
X131867Y216378D01*
X131886Y216408D01*
X131913Y216447D01*
X131936Y216496D01*
X131955Y216555D01*
X131968Y216624D01*
X131975Y216700D01*
Y216722D01*
X131972Y216736D01*
Y216755D01*
X131968Y216778D01*
X131958Y216828D01*
X131942Y216883D01*
X131919Y216946D01*
X131886Y217005D01*
X131840Y217057D01*
X131834Y217064D01*
X131817Y217077D01*
X131785Y217100D01*
X131745Y217123D01*
X131690Y217149D01*
X131627Y217172D01*
X131555Y217185D01*
X131470Y217192D01*
X131503Y217510D01*
X131506D01*
X131519Y217506D01*
X131535D01*
X131562Y217503D01*
X131591Y217497D01*
X131624Y217490D01*
X131663Y217480D01*
X131703Y217467D01*
X131791Y217438D01*
X131837Y217418D01*
X131880Y217395D01*
X131926Y217369D01*
X131968Y217339D01*
X132008Y217306D01*
X132044Y217267D01*
X132047Y217264D01*
X132050Y217257D01*
X132060Y217244D01*
X132073Y217228D01*
X132086Y217205D01*
X132103Y217178D01*
X132119Y217149D01*
X132139Y217113D01*
X132155Y217073D01*
X132172Y217031D01*
X132188Y216985D01*
X132201Y216932D01*
X132214Y216880D01*
X132224Y216821D01*
X132228Y216759D01*
X132231Y216693D01*
Y216657D01*
X132228Y216634D01*
X132224Y216601D01*
X132221Y216565D01*
X132214Y216526D01*
X132204Y216483D01*
X132182Y216391D01*
X132165Y216345D01*
X132146Y216296D01*
X132123Y216247D01*
X132093Y216201D01*
X132063Y216158D01*
X132027Y216116D01*
X132024Y216112D01*
X132018Y216106D01*
X132008Y216096D01*
X131991Y216083D01*
X131972Y216067D01*
X131949Y216047D01*
X131922Y216030D01*
X131890Y216007D01*
X131857Y215988D01*
X131817Y215971D01*
X131732Y215935D01*
X131686Y215922D01*
X131637Y215912D01*
X131585Y215906D01*
X131529Y215902D01*
X131522D01*
X131503D01*
X131473Y215906D01*
X131434Y215909D01*
X131391Y215919D01*
X131339Y215929D01*
X131286Y215945D01*
X131230Y215965D01*
X131224Y215968D01*
X131204Y215978D01*
X131175Y215991D01*
X131139Y216014D01*
X131093Y216044D01*
X131040Y216080D01*
X130981Y216122D01*
X130922Y216172D01*
X130919D01*
X130915Y216178D01*
X130906Y216188D01*
X130893Y216198D01*
X130876Y216214D01*
X130856Y216234D01*
X130833Y216257D01*
X130807Y216286D01*
X130778Y216316D01*
X130745Y216352D01*
X130705Y216391D01*
X130666Y216434D01*
X130624Y216483D01*
X130581Y216532D01*
X130532Y216591D01*
X130479Y216650D01*
X130476Y216654D01*
X130469Y216664D01*
X130456Y216677D01*
X130443Y216696D01*
X130423Y216716D01*
X130401Y216742D01*
X130351Y216798D01*
X130299Y216860D01*
X130246Y216919D01*
X130223Y216946D01*
X130200Y216968D01*
X130177Y216991D01*
X130161Y217008D01*
X130158Y217011D01*
X130148Y217021D01*
X130131Y217034D01*
X130109Y217054D01*
X130086Y217073D01*
X130056Y217096D01*
X129997Y217139D01*
Y215899D01*
X129699D01*
Y217569D01*
X129705D01*
X129718D01*
X129738D01*
X129768Y217565D01*
D02*
G37*
G36*
X131086Y214833D02*
X131772D01*
Y214541D01*
X131086D01*
Y213856D01*
X130797D01*
Y214541D01*
X130105D01*
Y214833D01*
X130797D01*
Y215519D01*
X131086D01*
Y214833D01*
D02*
G37*
G36*
X146253Y178604D02*
X146286Y178601D01*
X146325Y178598D01*
X146368Y178591D01*
X146414Y178585D01*
X146512Y178562D01*
X146564Y178545D01*
X146620Y178525D01*
X146673Y178503D01*
X146725Y178480D01*
X146778Y178447D01*
X146827Y178414D01*
X146830Y178411D01*
X146837Y178404D01*
X146853Y178394D01*
X146870Y178378D01*
X146889Y178358D01*
X146915Y178335D01*
X146942Y178306D01*
X146971Y178273D01*
X147001Y178237D01*
X147030Y178198D01*
X147060Y178152D01*
X147089Y178106D01*
X147119Y178053D01*
X147145Y177998D01*
X147171Y177935D01*
X147191Y177873D01*
X146863Y177794D01*
Y177797D01*
X146860Y177807D01*
X146853Y177820D01*
X146847Y177840D01*
X146837Y177863D01*
X146827Y177889D01*
X146797Y177948D01*
X146761Y178014D01*
X146719Y178079D01*
X146666Y178142D01*
X146637Y178168D01*
X146607Y178194D01*
X146604D01*
X146601Y178201D01*
X146591Y178207D01*
X146578Y178214D01*
X146561Y178224D01*
X146542Y178234D01*
X146492Y178260D01*
X146430Y178283D01*
X146358Y178303D01*
X146276Y178316D01*
X146184Y178322D01*
X146154D01*
X146135Y178319D01*
X146112D01*
X146082Y178316D01*
X146049Y178309D01*
X146013Y178306D01*
X145938Y178289D01*
X145856Y178263D01*
X145774Y178227D01*
X145735Y178207D01*
X145695Y178181D01*
X145692D01*
X145686Y178175D01*
X145676Y178168D01*
X145662Y178155D01*
X145630Y178125D01*
X145590Y178083D01*
X145544Y178030D01*
X145499Y177965D01*
X145456Y177892D01*
X145423Y177807D01*
Y177804D01*
X145420Y177797D01*
X145416Y177784D01*
X145410Y177768D01*
X145403Y177745D01*
X145397Y177719D01*
X145390Y177689D01*
X145384Y177660D01*
X145371Y177584D01*
X145358Y177502D01*
X145348Y177414D01*
X145344Y177322D01*
Y177319D01*
Y177309D01*
Y177292D01*
Y177269D01*
X145348Y177240D01*
X145351Y177207D01*
Y177171D01*
X145358Y177131D01*
X145367Y177043D01*
X145384Y176951D01*
X145407Y176853D01*
X145436Y176761D01*
Y176758D01*
X145440Y176751D01*
X145446Y176738D01*
X145456Y176722D01*
X145466Y176702D01*
X145475Y176679D01*
X145508Y176626D01*
X145551Y176567D01*
X145600Y176508D01*
X145659Y176453D01*
X145728Y176403D01*
X145731D01*
X145738Y176397D01*
X145748Y176394D01*
X145764Y176384D01*
X145781Y176377D01*
X145803Y176367D01*
X145856Y176344D01*
X145922Y176321D01*
X145994Y176305D01*
X146072Y176292D01*
X146158Y176285D01*
X146184D01*
X146204Y176289D01*
X146230Y176292D01*
X146256Y176295D01*
X146289Y176298D01*
X146322Y176305D01*
X146397Y176325D01*
X146476Y176354D01*
X146519Y176371D01*
X146558Y176394D01*
X146597Y176417D01*
X146633Y176446D01*
X146637Y176449D01*
X146643Y176453D01*
X146653Y176462D01*
X146666Y176476D01*
X146679Y176492D01*
X146699Y176515D01*
X146719Y176538D01*
X146738Y176567D01*
X146761Y176597D01*
X146784Y176633D01*
X146804Y176672D01*
X146827Y176715D01*
X146847Y176764D01*
X146866Y176813D01*
X146883Y176866D01*
X146899Y176925D01*
X147234Y176840D01*
Y176836D01*
X147227Y176823D01*
X147221Y176800D01*
X147214Y176771D01*
X147201Y176738D01*
X147184Y176699D01*
X147168Y176656D01*
X147145Y176607D01*
X147122Y176558D01*
X147093Y176505D01*
X147063Y176456D01*
X147027Y176403D01*
X146991Y176351D01*
X146948Y176302D01*
X146902Y176256D01*
X146853Y176213D01*
X146850Y176210D01*
X146840Y176203D01*
X146827Y176193D01*
X146804Y176180D01*
X146778Y176164D01*
X146745Y176144D01*
X146709Y176128D01*
X146669Y176108D01*
X146620Y176085D01*
X146571Y176069D01*
X146515Y176049D01*
X146456Y176033D01*
X146394Y176020D01*
X146328Y176010D01*
X146259Y176003D01*
X146187Y176000D01*
X146148D01*
X146118Y176003D01*
X146086Y176006D01*
X146043Y176010D01*
X146000Y176013D01*
X145951Y176020D01*
X145846Y176039D01*
X145735Y176069D01*
X145679Y176089D01*
X145623Y176111D01*
X145571Y176134D01*
X145521Y176164D01*
X145518Y176167D01*
X145512Y176171D01*
X145499Y176180D01*
X145479Y176197D01*
X145459Y176213D01*
X145433Y176233D01*
X145407Y176259D01*
X145377Y176289D01*
X145344Y176318D01*
X145315Y176354D01*
X145282Y176394D01*
X145249Y176439D01*
X145216Y176485D01*
X145187Y176535D01*
X145157Y176590D01*
X145131Y176646D01*
Y176649D01*
X145125Y176659D01*
X145118Y176679D01*
X145112Y176702D01*
X145102Y176731D01*
X145089Y176764D01*
X145079Y176804D01*
X145066Y176849D01*
X145052Y176899D01*
X145043Y176951D01*
X145029Y177007D01*
X145020Y177063D01*
X145007Y177191D01*
X145000Y177322D01*
Y177325D01*
Y177338D01*
Y177361D01*
X145003Y177387D01*
Y177424D01*
X145007Y177463D01*
X145013Y177506D01*
X145020Y177555D01*
X145026Y177607D01*
X145036Y177663D01*
X145062Y177778D01*
X145098Y177892D01*
X145121Y177952D01*
X145148Y178007D01*
X145151Y178011D01*
X145154Y178020D01*
X145164Y178037D01*
X145177Y178057D01*
X145190Y178079D01*
X145210Y178109D01*
X145233Y178138D01*
X145259Y178175D01*
X145318Y178247D01*
X145394Y178319D01*
X145479Y178391D01*
X145528Y178424D01*
X145577Y178453D01*
X145580Y178457D01*
X145590Y178460D01*
X145607Y178466D01*
X145626Y178476D01*
X145653Y178489D01*
X145682Y178503D01*
X145718Y178516D01*
X145758Y178532D01*
X145803Y178545D01*
X145850Y178558D01*
X145954Y178585D01*
X146069Y178601D01*
X146128Y178607D01*
X146227D01*
X146253Y178604D01*
D02*
G37*
G36*
X148683Y176043D02*
X148375D01*
Y178014D01*
X148369Y178011D01*
X148355Y177998D01*
X148329Y177974D01*
X148296Y177948D01*
X148254Y177916D01*
X148201Y177879D01*
X148145Y177840D01*
X148080Y177801D01*
X148077D01*
X148073Y177797D01*
X148064Y177791D01*
X148050Y177784D01*
X148014Y177765D01*
X147972Y177742D01*
X147922Y177715D01*
X147867Y177689D01*
X147811Y177663D01*
X147755Y177640D01*
Y177942D01*
X147758D01*
X147768Y177948D01*
X147781Y177955D01*
X147798Y177965D01*
X147821Y177974D01*
X147847Y177991D01*
X147909Y178024D01*
X147978Y178066D01*
X148057Y178119D01*
X148132Y178175D01*
X148208Y178237D01*
X148211Y178240D01*
X148218Y178244D01*
X148228Y178253D01*
X148241Y178266D01*
X148273Y178299D01*
X148316Y178345D01*
X148359Y178394D01*
X148405Y178453D01*
X148447Y178512D01*
X148483Y178575D01*
X148683D01*
Y176043D01*
D02*
G37*
G36*
X171387Y18105D02*
Y18102D01*
Y18092D01*
Y18076D01*
Y18053D01*
X171384Y18026D01*
Y17997D01*
X171381Y17961D01*
X171378Y17925D01*
X171368Y17846D01*
X171355Y17764D01*
X171335Y17685D01*
X171322Y17646D01*
X171309Y17613D01*
Y17610D01*
X171305Y17607D01*
X171302Y17597D01*
X171296Y17584D01*
X171276Y17554D01*
X171250Y17515D01*
X171217Y17472D01*
X171174Y17429D01*
X171125Y17387D01*
X171066Y17347D01*
X171063D01*
X171059Y17344D01*
X171050Y17341D01*
X171037Y17334D01*
X171004Y17318D01*
X170955Y17305D01*
X170899Y17288D01*
X170833Y17272D01*
X170758Y17262D01*
X170676Y17259D01*
X170643D01*
X170620Y17262D01*
X170594Y17265D01*
X170561Y17269D01*
X170525Y17275D01*
X170489Y17282D01*
X170407Y17305D01*
X170364Y17321D01*
X170321Y17341D01*
X170279Y17361D01*
X170239Y17387D01*
X170203Y17416D01*
X170167Y17449D01*
X170164Y17452D01*
X170161Y17459D01*
X170151Y17469D01*
X170141Y17485D01*
X170128Y17505D01*
X170112Y17528D01*
X170095Y17557D01*
X170079Y17590D01*
X170066Y17629D01*
X170049Y17672D01*
X170036Y17718D01*
X170023Y17767D01*
X170013Y17823D01*
X170003Y17882D01*
X170000Y17944D01*
Y18013D01*
X170302Y18056D01*
Y18053D01*
Y18043D01*
Y18030D01*
X170305Y18010D01*
X170308Y17987D01*
X170312Y17961D01*
X170318Y17898D01*
X170331Y17833D01*
X170351Y17767D01*
X170374Y17708D01*
X170390Y17685D01*
X170407Y17662D01*
X170410Y17659D01*
X170426Y17646D01*
X170446Y17629D01*
X170479Y17610D01*
X170515Y17590D01*
X170561Y17574D01*
X170617Y17561D01*
X170676Y17557D01*
X170695D01*
X170722Y17561D01*
X170751Y17564D01*
X170784Y17571D01*
X170820Y17580D01*
X170856Y17593D01*
X170892Y17613D01*
X170895Y17616D01*
X170909Y17623D01*
X170922Y17636D01*
X170941Y17656D01*
X170964Y17679D01*
X170984Y17705D01*
X171004Y17734D01*
X171017Y17771D01*
X171020Y17774D01*
X171023Y17790D01*
X171030Y17813D01*
X171037Y17846D01*
X171043Y17892D01*
X171046Y17944D01*
X171053Y18010D01*
Y18085D01*
Y19824D01*
X171387D01*
Y18105D01*
D02*
G37*
G36*
X172696Y19830D02*
X172729Y19827D01*
X172765Y19824D01*
X172804Y19817D01*
X172847Y19807D01*
X172939Y19784D01*
X172985Y19768D01*
X173034Y19748D01*
X173083Y19725D01*
X173129Y19696D01*
X173172Y19666D01*
X173214Y19630D01*
X173218Y19627D01*
X173224Y19621D01*
X173234Y19611D01*
X173247Y19594D01*
X173264Y19575D01*
X173283Y19552D01*
X173300Y19525D01*
X173323Y19493D01*
X173342Y19460D01*
X173359Y19420D01*
X173395Y19335D01*
X173408Y19289D01*
X173418Y19240D01*
X173424Y19187D01*
X173428Y19132D01*
Y19125D01*
Y19105D01*
X173424Y19076D01*
X173421Y19037D01*
X173411Y18994D01*
X173401Y18941D01*
X173385Y18889D01*
X173365Y18833D01*
X173362Y18827D01*
X173352Y18807D01*
X173339Y18778D01*
X173316Y18741D01*
X173287Y18696D01*
X173250Y18643D01*
X173208Y18584D01*
X173159Y18525D01*
Y18522D01*
X173152Y18518D01*
X173142Y18509D01*
X173132Y18495D01*
X173116Y18479D01*
X173096Y18459D01*
X173073Y18436D01*
X173044Y18410D01*
X173014Y18381D01*
X172978Y18348D01*
X172939Y18308D01*
X172896Y18269D01*
X172847Y18226D01*
X172798Y18184D01*
X172739Y18135D01*
X172680Y18082D01*
X172677Y18079D01*
X172667Y18072D01*
X172653Y18059D01*
X172634Y18046D01*
X172614Y18026D01*
X172588Y18003D01*
X172532Y17954D01*
X172470Y17902D01*
X172411Y17849D01*
X172385Y17826D01*
X172362Y17803D01*
X172339Y17780D01*
X172322Y17764D01*
X172319Y17761D01*
X172309Y17751D01*
X172296Y17734D01*
X172276Y17711D01*
X172257Y17689D01*
X172234Y17659D01*
X172191Y17600D01*
X173431D01*
Y17301D01*
X171761D01*
Y17308D01*
Y17321D01*
Y17341D01*
X171765Y17370D01*
X171768Y17403D01*
X171774Y17439D01*
X171784Y17475D01*
X171797Y17515D01*
Y17518D01*
X171801Y17521D01*
X171804Y17531D01*
X171811Y17544D01*
X171824Y17577D01*
X171847Y17620D01*
X171876Y17672D01*
X171909Y17728D01*
X171952Y17787D01*
X172001Y17849D01*
X172004Y17853D01*
X172007Y17856D01*
X172017Y17866D01*
X172027Y17879D01*
X172060Y17915D01*
X172106Y17961D01*
X172161Y18017D01*
X172230Y18082D01*
X172312Y18154D01*
X172407Y18233D01*
X172411Y18236D01*
X172424Y18249D01*
X172447Y18266D01*
X172473Y18289D01*
X172506Y18318D01*
X172545Y18351D01*
X172588Y18387D01*
X172631Y18427D01*
X172722Y18512D01*
X172814Y18600D01*
X172857Y18646D01*
X172896Y18689D01*
X172932Y18728D01*
X172962Y18768D01*
X172965Y18771D01*
X172968Y18778D01*
X172975Y18787D01*
X172985Y18801D01*
X172995Y18820D01*
X173008Y18840D01*
X173037Y18889D01*
X173064Y18945D01*
X173087Y19007D01*
X173103Y19076D01*
X173109Y19109D01*
Y19142D01*
Y19145D01*
Y19151D01*
Y19158D01*
X173106Y19171D01*
X173103Y19207D01*
X173093Y19250D01*
X173077Y19299D01*
X173054Y19348D01*
X173021Y19401D01*
X172975Y19450D01*
X172968Y19456D01*
X172952Y19470D01*
X172923Y19489D01*
X172883Y19515D01*
X172834Y19538D01*
X172775Y19558D01*
X172706Y19571D01*
X172631Y19578D01*
X172608D01*
X172594Y19575D01*
X172575D01*
X172552Y19571D01*
X172503Y19561D01*
X172447Y19545D01*
X172385Y19522D01*
X172326Y19489D01*
X172273Y19443D01*
X172266Y19437D01*
X172253Y19420D01*
X172230Y19388D01*
X172207Y19348D01*
X172181Y19293D01*
X172158Y19230D01*
X172145Y19158D01*
X172139Y19073D01*
X171820Y19105D01*
Y19109D01*
X171824Y19122D01*
Y19138D01*
X171827Y19165D01*
X171834Y19194D01*
X171840Y19227D01*
X171850Y19266D01*
X171863Y19306D01*
X171893Y19394D01*
X171912Y19440D01*
X171935Y19483D01*
X171961Y19529D01*
X171991Y19571D01*
X172024Y19611D01*
X172063Y19647D01*
X172066Y19650D01*
X172073Y19653D01*
X172086Y19663D01*
X172102Y19676D01*
X172125Y19689D01*
X172152Y19706D01*
X172181Y19722D01*
X172217Y19742D01*
X172257Y19758D01*
X172299Y19775D01*
X172345Y19791D01*
X172398Y19804D01*
X172450Y19817D01*
X172509Y19827D01*
X172572Y19830D01*
X172637Y19834D01*
X172673D01*
X172696Y19830D01*
D02*
G37*
G36*
X158543Y221997D02*
X158580D01*
X158619Y221993D01*
X158661Y221987D01*
X158711Y221980D01*
X158763Y221974D01*
X158819Y221964D01*
X158934Y221938D01*
X159048Y221902D01*
X159107Y221879D01*
X159163Y221852D01*
X159167Y221849D01*
X159176Y221846D01*
X159193Y221836D01*
X159213Y221823D01*
X159236Y221810D01*
X159265Y221790D01*
X159294Y221767D01*
X159331Y221741D01*
X159403Y221682D01*
X159475Y221606D01*
X159547Y221521D01*
X159580Y221472D01*
X159609Y221423D01*
X159613Y221420D01*
X159616Y221410D01*
X159623Y221393D01*
X159632Y221374D01*
X159645Y221347D01*
X159659Y221318D01*
X159672Y221282D01*
X159688Y221242D01*
X159701Y221196D01*
X159714Y221150D01*
X159741Y221046D01*
X159757Y220931D01*
X159764Y220872D01*
Y220773D01*
X159760Y220747D01*
X159757Y220714D01*
X159754Y220675D01*
X159747Y220632D01*
X159741Y220586D01*
X159718Y220488D01*
X159701Y220436D01*
X159681Y220380D01*
X159659Y220327D01*
X159636Y220275D01*
X159603Y220222D01*
X159570Y220173D01*
X159567Y220170D01*
X159560Y220163D01*
X159550Y220147D01*
X159534Y220130D01*
X159514Y220111D01*
X159491Y220085D01*
X159462Y220058D01*
X159429Y220029D01*
X159393Y219999D01*
X159353Y219970D01*
X159308Y219940D01*
X159262Y219911D01*
X159209Y219881D01*
X159153Y219855D01*
X159091Y219829D01*
X159029Y219809D01*
X158950Y220137D01*
X158953D01*
X158963Y220140D01*
X158976Y220147D01*
X158996Y220153D01*
X159019Y220163D01*
X159045Y220173D01*
X159104Y220203D01*
X159170Y220239D01*
X159236Y220281D01*
X159298Y220334D01*
X159324Y220363D01*
X159350Y220393D01*
Y220396D01*
X159357Y220399D01*
X159363Y220409D01*
X159370Y220422D01*
X159380Y220439D01*
X159390Y220458D01*
X159416Y220508D01*
X159439Y220570D01*
X159458Y220642D01*
X159472Y220724D01*
X159478Y220816D01*
Y220846D01*
X159475Y220865D01*
Y220888D01*
X159472Y220918D01*
X159465Y220950D01*
X159462Y220987D01*
X159445Y221062D01*
X159419Y221144D01*
X159383Y221226D01*
X159363Y221265D01*
X159337Y221305D01*
Y221308D01*
X159331Y221315D01*
X159324Y221324D01*
X159311Y221338D01*
X159281Y221370D01*
X159239Y221410D01*
X159186Y221456D01*
X159121Y221501D01*
X159048Y221544D01*
X158963Y221577D01*
X158960D01*
X158953Y221580D01*
X158940Y221584D01*
X158924Y221590D01*
X158901Y221597D01*
X158875Y221603D01*
X158845Y221610D01*
X158816Y221616D01*
X158740Y221629D01*
X158658Y221642D01*
X158570Y221652D01*
X158478Y221656D01*
X158475D01*
X158465D01*
X158448D01*
X158425D01*
X158396Y221652D01*
X158363Y221649D01*
X158327D01*
X158288Y221642D01*
X158199Y221633D01*
X158107Y221616D01*
X158009Y221593D01*
X157917Y221564D01*
X157914D01*
X157907Y221561D01*
X157894Y221554D01*
X157878Y221544D01*
X157858Y221534D01*
X157835Y221524D01*
X157782Y221492D01*
X157723Y221449D01*
X157664Y221400D01*
X157609Y221341D01*
X157559Y221272D01*
Y221269D01*
X157553Y221262D01*
X157550Y221252D01*
X157540Y221236D01*
X157533Y221219D01*
X157523Y221196D01*
X157500Y221144D01*
X157477Y221078D01*
X157461Y221006D01*
X157448Y220928D01*
X157441Y220842D01*
Y220816D01*
X157445Y220796D01*
X157448Y220770D01*
X157451Y220744D01*
X157454Y220711D01*
X157461Y220678D01*
X157481Y220603D01*
X157510Y220524D01*
X157527Y220481D01*
X157550Y220442D01*
X157572Y220403D01*
X157602Y220367D01*
X157605Y220363D01*
X157609Y220357D01*
X157618Y220347D01*
X157632Y220334D01*
X157648Y220321D01*
X157671Y220301D01*
X157694Y220281D01*
X157723Y220262D01*
X157753Y220239D01*
X157789Y220216D01*
X157828Y220196D01*
X157871Y220173D01*
X157920Y220153D01*
X157969Y220134D01*
X158022Y220117D01*
X158081Y220101D01*
X157996Y219766D01*
X157992D01*
X157979Y219773D01*
X157956Y219779D01*
X157927Y219786D01*
X157894Y219799D01*
X157855Y219815D01*
X157812Y219832D01*
X157763Y219855D01*
X157714Y219878D01*
X157661Y219907D01*
X157612Y219937D01*
X157559Y219973D01*
X157507Y220009D01*
X157458Y220052D01*
X157412Y220098D01*
X157369Y220147D01*
X157366Y220150D01*
X157359Y220160D01*
X157350Y220173D01*
X157336Y220196D01*
X157320Y220222D01*
X157300Y220255D01*
X157284Y220291D01*
X157264Y220331D01*
X157241Y220380D01*
X157225Y220429D01*
X157205Y220485D01*
X157189Y220544D01*
X157176Y220606D01*
X157166Y220672D01*
X157159Y220741D01*
X157156Y220813D01*
Y220852D01*
X157159Y220882D01*
X157162Y220914D01*
X157166Y220957D01*
X157169Y221000D01*
X157176Y221049D01*
X157195Y221154D01*
X157225Y221265D01*
X157245Y221321D01*
X157267Y221377D01*
X157290Y221429D01*
X157320Y221479D01*
X157323Y221482D01*
X157326Y221488D01*
X157336Y221501D01*
X157353Y221521D01*
X157369Y221541D01*
X157389Y221567D01*
X157415Y221593D01*
X157445Y221623D01*
X157474Y221656D01*
X157510Y221685D01*
X157550Y221718D01*
X157596Y221751D01*
X157641Y221784D01*
X157691Y221813D01*
X157746Y221843D01*
X157802Y221869D01*
X157805D01*
X157815Y221875D01*
X157835Y221882D01*
X157858Y221888D01*
X157887Y221898D01*
X157920Y221912D01*
X157959Y221921D01*
X158005Y221934D01*
X158055Y221948D01*
X158107Y221957D01*
X158163Y221971D01*
X158219Y221980D01*
X158347Y221993D01*
X158478Y222000D01*
X158481D01*
X158494D01*
X158517D01*
X158543Y221997D01*
D02*
G37*
G36*
X159026Y219114D02*
X158786D01*
X158793Y219110D01*
X158809Y219097D01*
X158832Y219074D01*
X158865Y219048D01*
X158898Y219015D01*
X158930Y218979D01*
X158963Y218936D01*
X158993Y218891D01*
X158996Y218884D01*
X159003Y218868D01*
X159016Y218841D01*
X159029Y218805D01*
X159042Y218759D01*
X159055Y218707D01*
X159062Y218648D01*
X159065Y218586D01*
Y218563D01*
X159062Y218546D01*
Y218527D01*
X159058Y218500D01*
X159048Y218444D01*
X159035Y218382D01*
X159012Y218310D01*
X158983Y218241D01*
X158944Y218172D01*
Y218169D01*
X158937Y218166D01*
X158930Y218156D01*
X158921Y218143D01*
X158894Y218110D01*
X158855Y218071D01*
X158806Y218028D01*
X158750Y217982D01*
X158681Y217939D01*
X158602Y217900D01*
X158599D01*
X158593Y217897D01*
X158580Y217890D01*
X158563Y217887D01*
X158543Y217877D01*
X158520Y217870D01*
X158491Y217864D01*
X158461Y217854D01*
X158389Y217838D01*
X158310Y217821D01*
X158219Y217811D01*
X158124Y217808D01*
X158120D01*
X158110D01*
X158097D01*
X158078D01*
X158051Y217811D01*
X158022Y217815D01*
X157992Y217818D01*
X157956Y217821D01*
X157878Y217834D01*
X157792Y217851D01*
X157704Y217877D01*
X157618Y217910D01*
X157615D01*
X157609Y217913D01*
X157599Y217920D01*
X157582Y217930D01*
X157563Y217939D01*
X157543Y217952D01*
X157494Y217985D01*
X157438Y218028D01*
X157379Y218077D01*
X157326Y218136D01*
X157277Y218205D01*
Y218208D01*
X157271Y218215D01*
X157267Y218225D01*
X157258Y218238D01*
X157251Y218254D01*
X157241Y218277D01*
X157218Y218326D01*
X157195Y218386D01*
X157179Y218454D01*
X157166Y218530D01*
X157159Y218608D01*
Y218635D01*
X157162Y218664D01*
X157169Y218700D01*
X157176Y218743D01*
X157185Y218792D01*
X157202Y218838D01*
X157225Y218887D01*
X157228Y218894D01*
X157238Y218907D01*
X157251Y218930D01*
X157271Y218956D01*
X157294Y218989D01*
X157323Y219022D01*
X157353Y219055D01*
X157389Y219087D01*
X156500D01*
Y219396D01*
X159026D01*
Y219114D01*
D02*
G37*
G36*
X157910Y217214D02*
X157907D01*
X157897Y217211D01*
X157884Y217208D01*
X157868Y217205D01*
X157845Y217198D01*
X157822Y217192D01*
X157763Y217172D01*
X157700Y217149D01*
X157638Y217116D01*
X157576Y217080D01*
X157550Y217060D01*
X157527Y217037D01*
X157523Y217031D01*
X157510Y217014D01*
X157491Y216988D01*
X157471Y216949D01*
X157448Y216903D01*
X157431Y216850D01*
X157418Y216788D01*
X157412Y216722D01*
Y216700D01*
X157415Y216686D01*
Y216667D01*
X157418Y216644D01*
X157431Y216595D01*
X157448Y216536D01*
X157474Y216473D01*
X157513Y216411D01*
X157536Y216381D01*
X157563Y216352D01*
X157566Y216349D01*
X157569Y216345D01*
X157579Y216339D01*
X157589Y216329D01*
X157622Y216303D01*
X157668Y216276D01*
X157720Y216250D01*
X157786Y216224D01*
X157858Y216208D01*
X157897Y216201D01*
X157937D01*
X157940D01*
X157946D01*
X157956D01*
X157973Y216204D01*
X157989D01*
X158012Y216208D01*
X158061Y216217D01*
X158117Y216234D01*
X158176Y216260D01*
X158232Y216296D01*
X158261Y216316D01*
X158288Y216342D01*
X158294Y216349D01*
X158310Y216368D01*
X158330Y216398D01*
X158356Y216437D01*
X158383Y216490D01*
X158402Y216549D01*
X158419Y216617D01*
X158425Y216696D01*
Y216732D01*
X158422Y216755D01*
X158419Y216788D01*
X158412Y216828D01*
X158402Y216870D01*
X158393Y216916D01*
X158665Y216880D01*
Y216873D01*
X158661Y216863D01*
X158658Y216847D01*
Y216811D01*
X158661Y216798D01*
X158665Y216759D01*
X158671Y216713D01*
X158684Y216657D01*
X158701Y216598D01*
X158727Y216536D01*
X158760Y216476D01*
Y216473D01*
X158766Y216470D01*
X158780Y216450D01*
X158806Y216424D01*
X158839Y216394D01*
X158885Y216365D01*
X158940Y216342D01*
X159006Y216322D01*
X159042Y216319D01*
X159081Y216316D01*
X159085D01*
X159088D01*
X159111Y216319D01*
X159140Y216322D01*
X159180Y216329D01*
X159222Y216345D01*
X159268Y216365D01*
X159318Y216394D01*
X159360Y216434D01*
X159367Y216440D01*
X159380Y216454D01*
X159396Y216480D01*
X159419Y216513D01*
X159439Y216555D01*
X159458Y216608D01*
X159472Y216664D01*
X159475Y216729D01*
Y216745D01*
X159472Y216759D01*
X159468Y216795D01*
X159462Y216837D01*
X159445Y216883D01*
X159426Y216936D01*
X159399Y216985D01*
X159360Y217034D01*
X159353Y217041D01*
X159340Y217054D01*
X159314Y217073D01*
X159275Y217096D01*
X159229Y217123D01*
X159170Y217149D01*
X159101Y217169D01*
X159022Y217185D01*
X159078Y217493D01*
X159081D01*
X159091Y217490D01*
X159107Y217487D01*
X159131Y217480D01*
X159153Y217474D01*
X159186Y217464D01*
X159219Y217454D01*
X159255Y217441D01*
X159331Y217405D01*
X159409Y217362D01*
X159488Y217306D01*
X159524Y217273D01*
X159557Y217237D01*
X159560Y217234D01*
X159564Y217228D01*
X159573Y217218D01*
X159583Y217201D01*
X159596Y217182D01*
X159613Y217159D01*
X159629Y217129D01*
X159645Y217100D01*
X159659Y217064D01*
X159675Y217028D01*
X159704Y216942D01*
X159724Y216844D01*
X159728Y216791D01*
X159731Y216736D01*
Y216700D01*
X159728Y216683D01*
Y216660D01*
X159721Y216611D01*
X159708Y216552D01*
X159695Y216490D01*
X159672Y216424D01*
X159642Y216358D01*
Y216355D01*
X159639Y216352D01*
X159632Y216342D01*
X159626Y216329D01*
X159606Y216299D01*
X159580Y216260D01*
X159544Y216217D01*
X159501Y216172D01*
X159455Y216129D01*
X159399Y216093D01*
X159396D01*
X159393Y216090D01*
X159373Y216076D01*
X159340Y216063D01*
X159301Y216044D01*
X159252Y216027D01*
X159196Y216011D01*
X159137Y216001D01*
X159075Y215998D01*
X159072D01*
X159068D01*
X159048D01*
X159016Y216001D01*
X158976Y216007D01*
X158930Y216021D01*
X158881Y216034D01*
X158829Y216057D01*
X158776Y216086D01*
X158770Y216090D01*
X158753Y216103D01*
X158730Y216122D01*
X158701Y216152D01*
X158665Y216188D01*
X158629Y216234D01*
X158596Y216286D01*
X158563Y216345D01*
Y216342D01*
X158560Y216336D01*
X158556Y216322D01*
X158553Y216309D01*
X158547Y216290D01*
X158537Y216267D01*
X158517Y216217D01*
X158488Y216162D01*
X158448Y216106D01*
X158402Y216047D01*
X158347Y215998D01*
X158343D01*
X158340Y215991D01*
X158330Y215985D01*
X158317Y215978D01*
X158301Y215968D01*
X158284Y215958D01*
X158235Y215935D01*
X158176Y215912D01*
X158107Y215893D01*
X158032Y215880D01*
X157943Y215873D01*
X157940D01*
X157930D01*
X157910D01*
X157887Y215876D01*
X157858Y215880D01*
X157825Y215886D01*
X157789Y215893D01*
X157750Y215902D01*
X157707Y215916D01*
X157661Y215932D01*
X157615Y215952D01*
X157566Y215975D01*
X157520Y216004D01*
X157471Y216037D01*
X157425Y216073D01*
X157382Y216116D01*
X157379Y216119D01*
X157372Y216126D01*
X157363Y216139D01*
X157346Y216158D01*
X157330Y216181D01*
X157310Y216211D01*
X157290Y216244D01*
X157271Y216280D01*
X157248Y216322D01*
X157228Y216368D01*
X157208Y216418D01*
X157192Y216473D01*
X157176Y216529D01*
X157166Y216591D01*
X157159Y216654D01*
X157156Y216722D01*
Y216755D01*
X157159Y216778D01*
X157162Y216805D01*
X157166Y216837D01*
X157172Y216877D01*
X157182Y216916D01*
X157205Y217001D01*
X157222Y217047D01*
X157238Y217093D01*
X157261Y217142D01*
X157287Y217188D01*
X157317Y217231D01*
X157353Y217273D01*
X157356Y217277D01*
X157363Y217283D01*
X157372Y217293D01*
X157389Y217310D01*
X157408Y217326D01*
X157431Y217346D01*
X157461Y217365D01*
X157491Y217388D01*
X157527Y217408D01*
X157566Y217431D01*
X157609Y217451D01*
X157655Y217470D01*
X157704Y217490D01*
X157753Y217503D01*
X157809Y217516D01*
X157868Y217523D01*
X157910Y217214D01*
D02*
G37*
G36*
X171387Y58105D02*
Y58102D01*
Y58092D01*
Y58076D01*
Y58053D01*
X171384Y58026D01*
Y57997D01*
X171381Y57961D01*
X171378Y57925D01*
X171368Y57846D01*
X171355Y57764D01*
X171335Y57685D01*
X171322Y57646D01*
X171309Y57613D01*
Y57610D01*
X171305Y57607D01*
X171302Y57597D01*
X171296Y57584D01*
X171276Y57554D01*
X171250Y57515D01*
X171217Y57472D01*
X171174Y57429D01*
X171125Y57387D01*
X171066Y57347D01*
X171063D01*
X171059Y57344D01*
X171050Y57341D01*
X171037Y57334D01*
X171004Y57318D01*
X170955Y57305D01*
X170899Y57288D01*
X170833Y57272D01*
X170758Y57262D01*
X170676Y57259D01*
X170643D01*
X170620Y57262D01*
X170594Y57265D01*
X170561Y57269D01*
X170525Y57275D01*
X170489Y57282D01*
X170407Y57305D01*
X170364Y57321D01*
X170321Y57341D01*
X170279Y57361D01*
X170239Y57387D01*
X170203Y57416D01*
X170167Y57449D01*
X170164Y57452D01*
X170161Y57459D01*
X170151Y57469D01*
X170141Y57485D01*
X170128Y57505D01*
X170112Y57528D01*
X170095Y57557D01*
X170079Y57590D01*
X170066Y57630D01*
X170049Y57672D01*
X170036Y57718D01*
X170023Y57767D01*
X170013Y57823D01*
X170003Y57882D01*
X170000Y57944D01*
Y58013D01*
X170302Y58056D01*
Y58053D01*
Y58043D01*
Y58030D01*
X170305Y58010D01*
X170308Y57987D01*
X170312Y57961D01*
X170318Y57898D01*
X170331Y57833D01*
X170351Y57767D01*
X170374Y57708D01*
X170390Y57685D01*
X170407Y57662D01*
X170410Y57659D01*
X170426Y57646D01*
X170446Y57630D01*
X170479Y57610D01*
X170515Y57590D01*
X170561Y57574D01*
X170617Y57561D01*
X170676Y57557D01*
X170695D01*
X170722Y57561D01*
X170751Y57564D01*
X170784Y57570D01*
X170820Y57580D01*
X170856Y57593D01*
X170892Y57613D01*
X170895Y57616D01*
X170909Y57623D01*
X170922Y57636D01*
X170941Y57656D01*
X170964Y57679D01*
X170984Y57705D01*
X171004Y57735D01*
X171017Y57771D01*
X171020Y57774D01*
X171023Y57790D01*
X171030Y57813D01*
X171037Y57846D01*
X171043Y57892D01*
X171046Y57944D01*
X171053Y58010D01*
Y58085D01*
Y59824D01*
X171387D01*
Y58105D01*
D02*
G37*
G36*
X172972Y57301D02*
X172663D01*
Y59273D01*
X172657Y59269D01*
X172644Y59256D01*
X172617Y59233D01*
X172585Y59207D01*
X172542Y59174D01*
X172490Y59138D01*
X172434Y59099D01*
X172368Y59060D01*
X172365D01*
X172362Y59056D01*
X172352Y59050D01*
X172339Y59043D01*
X172303Y59023D01*
X172260Y59001D01*
X172211Y58974D01*
X172155Y58948D01*
X172099Y58922D01*
X172043Y58899D01*
Y59201D01*
X172047D01*
X172057Y59207D01*
X172070Y59214D01*
X172086Y59224D01*
X172109Y59233D01*
X172135Y59250D01*
X172198Y59283D01*
X172266Y59325D01*
X172345Y59378D01*
X172421Y59434D01*
X172496Y59496D01*
X172499Y59499D01*
X172506Y59502D01*
X172516Y59512D01*
X172529Y59525D01*
X172562Y59558D01*
X172604Y59604D01*
X172647Y59653D01*
X172693Y59712D01*
X172736Y59771D01*
X172772Y59834D01*
X172972D01*
Y57301D01*
D02*
G37*
G36*
X262457Y195301D02*
X261693Y195009D01*
Y193953D01*
X262457Y193677D01*
Y193326D01*
X259935Y194287D01*
Y194651D01*
X262457Y195678D01*
Y195301D01*
D02*
G37*
G36*
X261769Y193166D02*
X261798Y193162D01*
X261831Y193156D01*
X261867Y193149D01*
X261906Y193139D01*
X261949Y193126D01*
X261995Y193110D01*
X262041Y193090D01*
X262090Y193067D01*
X262136Y193038D01*
X262185Y193005D01*
X262231Y192969D01*
X262274Y192926D01*
X262277Y192923D01*
X262284Y192916D01*
X262293Y192903D01*
X262310Y192884D01*
X262326Y192860D01*
X262346Y192831D01*
X262366Y192798D01*
X262385Y192762D01*
X262408Y192719D01*
X262428Y192674D01*
X262448Y192624D01*
X262464Y192569D01*
X262480Y192513D01*
X262490Y192450D01*
X262497Y192388D01*
X262500Y192319D01*
Y192287D01*
X262497Y192264D01*
X262493Y192237D01*
X262490Y192204D01*
X262484Y192165D01*
X262474Y192126D01*
X262451Y192041D01*
X262434Y191995D01*
X262418Y191949D01*
X262395Y191900D01*
X262369Y191853D01*
X262339Y191811D01*
X262303Y191768D01*
X262300Y191765D01*
X262293Y191758D01*
X262284Y191749D01*
X262267Y191732D01*
X262247Y191716D01*
X262225Y191696D01*
X262195Y191676D01*
X262165Y191654D01*
X262129Y191634D01*
X262090Y191611D01*
X262047Y191591D01*
X262001Y191571D01*
X261952Y191552D01*
X261903Y191539D01*
X261847Y191525D01*
X261788Y191519D01*
X261746Y191827D01*
X261749D01*
X261759Y191831D01*
X261772Y191834D01*
X261788Y191837D01*
X261811Y191844D01*
X261834Y191850D01*
X261893Y191870D01*
X261955Y191893D01*
X262018Y191926D01*
X262080Y191962D01*
X262106Y191981D01*
X262129Y192004D01*
X262133Y192011D01*
X262146Y192027D01*
X262165Y192054D01*
X262185Y192093D01*
X262208Y192139D01*
X262225Y192191D01*
X262238Y192254D01*
X262244Y192319D01*
Y192342D01*
X262241Y192355D01*
Y192375D01*
X262238Y192398D01*
X262225Y192447D01*
X262208Y192506D01*
X262182Y192569D01*
X262142Y192631D01*
X262120Y192660D01*
X262093Y192690D01*
X262090Y192693D01*
X262087Y192696D01*
X262077Y192703D01*
X262067Y192713D01*
X262034Y192739D01*
X261988Y192765D01*
X261936Y192792D01*
X261870Y192818D01*
X261798Y192834D01*
X261759Y192841D01*
X261719D01*
X261716D01*
X261709D01*
X261700D01*
X261683Y192838D01*
X261667D01*
X261644Y192834D01*
X261595Y192824D01*
X261539Y192808D01*
X261480Y192782D01*
X261424Y192746D01*
X261395Y192726D01*
X261368Y192700D01*
X261362Y192693D01*
X261346Y192674D01*
X261326Y192644D01*
X261299Y192605D01*
X261273Y192552D01*
X261254Y192493D01*
X261237Y192424D01*
X261231Y192346D01*
Y192309D01*
X261234Y192287D01*
X261237Y192254D01*
X261244Y192214D01*
X261254Y192172D01*
X261263Y192126D01*
X260991Y192162D01*
Y192168D01*
X260995Y192178D01*
X260998Y192195D01*
Y192231D01*
X260995Y192244D01*
X260991Y192283D01*
X260985Y192329D01*
X260971Y192385D01*
X260955Y192444D01*
X260929Y192506D01*
X260896Y192565D01*
Y192569D01*
X260890Y192572D01*
X260876Y192592D01*
X260850Y192618D01*
X260817Y192647D01*
X260771Y192677D01*
X260716Y192700D01*
X260650Y192719D01*
X260614Y192723D01*
X260575Y192726D01*
X260571D01*
X260568D01*
X260545Y192723D01*
X260516Y192719D01*
X260476Y192713D01*
X260434Y192696D01*
X260388Y192677D01*
X260338Y192647D01*
X260296Y192608D01*
X260289Y192601D01*
X260276Y192588D01*
X260260Y192562D01*
X260237Y192529D01*
X260217Y192487D01*
X260197Y192434D01*
X260184Y192378D01*
X260181Y192313D01*
Y192296D01*
X260184Y192283D01*
X260188Y192247D01*
X260194Y192204D01*
X260211Y192159D01*
X260230Y192106D01*
X260257Y192057D01*
X260296Y192008D01*
X260302Y192001D01*
X260315Y191988D01*
X260342Y191968D01*
X260381Y191945D01*
X260427Y191919D01*
X260486Y191893D01*
X260555Y191873D01*
X260634Y191857D01*
X260578Y191549D01*
X260575D01*
X260565Y191552D01*
X260548Y191555D01*
X260525Y191562D01*
X260503Y191568D01*
X260470Y191578D01*
X260437Y191588D01*
X260401Y191601D01*
X260325Y191637D01*
X260247Y191680D01*
X260168Y191735D01*
X260132Y191768D01*
X260099Y191804D01*
X260096Y191808D01*
X260092Y191814D01*
X260083Y191824D01*
X260073Y191840D01*
X260060Y191860D01*
X260043Y191883D01*
X260027Y191913D01*
X260011Y191942D01*
X259997Y191978D01*
X259981Y192014D01*
X259951Y192099D01*
X259932Y192198D01*
X259928Y192250D01*
X259925Y192306D01*
Y192342D01*
X259928Y192359D01*
Y192382D01*
X259935Y192431D01*
X259948Y192490D01*
X259961Y192552D01*
X259984Y192618D01*
X260014Y192683D01*
Y192687D01*
X260017Y192690D01*
X260024Y192700D01*
X260030Y192713D01*
X260050Y192742D01*
X260076Y192782D01*
X260112Y192824D01*
X260155Y192870D01*
X260201Y192913D01*
X260257Y192949D01*
X260260D01*
X260263Y192952D01*
X260283Y192965D01*
X260315Y192979D01*
X260355Y192998D01*
X260404Y193015D01*
X260460Y193031D01*
X260519Y193041D01*
X260581Y193044D01*
X260584D01*
X260588D01*
X260608D01*
X260640Y193041D01*
X260680Y193034D01*
X260726Y193021D01*
X260775Y193008D01*
X260827Y192985D01*
X260880Y192956D01*
X260886Y192952D01*
X260903Y192939D01*
X260926Y192920D01*
X260955Y192890D01*
X260991Y192854D01*
X261027Y192808D01*
X261060Y192755D01*
X261093Y192696D01*
Y192700D01*
X261096Y192706D01*
X261100Y192719D01*
X261103Y192733D01*
X261109Y192752D01*
X261119Y192775D01*
X261139Y192824D01*
X261168Y192880D01*
X261208Y192936D01*
X261254Y192995D01*
X261309Y193044D01*
X261313D01*
X261316Y193051D01*
X261326Y193057D01*
X261339Y193064D01*
X261355Y193074D01*
X261372Y193084D01*
X261421Y193106D01*
X261480Y193130D01*
X261549Y193149D01*
X261624Y193162D01*
X261713Y193169D01*
X261716D01*
X261726D01*
X261746D01*
X261769Y193166D01*
D02*
G37*
G36*
X261677Y191227D02*
X261700Y191220D01*
X261729Y191214D01*
X261762Y191201D01*
X261801Y191184D01*
X261844Y191168D01*
X261893Y191145D01*
X261942Y191122D01*
X261995Y191093D01*
X262044Y191063D01*
X262097Y191027D01*
X262149Y190991D01*
X262198Y190948D01*
X262244Y190902D01*
X262287Y190853D01*
X262290Y190850D01*
X262297Y190840D01*
X262306Y190827D01*
X262320Y190804D01*
X262336Y190778D01*
X262356Y190745D01*
X262372Y190709D01*
X262392Y190670D01*
X262415Y190620D01*
X262431Y190571D01*
X262451Y190515D01*
X262467Y190456D01*
X262480Y190394D01*
X262490Y190328D01*
X262497Y190260D01*
X262500Y190187D01*
Y190148D01*
X262497Y190118D01*
X262493Y190086D01*
X262490Y190043D01*
X262487Y190000D01*
X262480Y189951D01*
X262461Y189846D01*
X262431Y189735D01*
X262411Y189679D01*
X262388Y189623D01*
X262366Y189571D01*
X262336Y189522D01*
X262333Y189518D01*
X262330Y189512D01*
X262320Y189498D01*
X262303Y189479D01*
X262287Y189459D01*
X262267Y189433D01*
X262241Y189407D01*
X262211Y189377D01*
X262182Y189344D01*
X262146Y189315D01*
X262106Y189282D01*
X262060Y189249D01*
X262015Y189216D01*
X261965Y189187D01*
X261910Y189157D01*
X261854Y189131D01*
X261851D01*
X261841Y189125D01*
X261821Y189118D01*
X261798Y189111D01*
X261769Y189102D01*
X261736Y189088D01*
X261696Y189079D01*
X261650Y189066D01*
X261601Y189052D01*
X261549Y189043D01*
X261493Y189030D01*
X261437Y189020D01*
X261309Y189006D01*
X261178Y189000D01*
X261175D01*
X261162D01*
X261139D01*
X261113Y189003D01*
X261076D01*
X261037Y189006D01*
X260995Y189013D01*
X260945Y189020D01*
X260893Y189026D01*
X260837Y189036D01*
X260722Y189062D01*
X260608Y189098D01*
X260548Y189121D01*
X260493Y189148D01*
X260489Y189151D01*
X260480Y189154D01*
X260463Y189164D01*
X260443Y189177D01*
X260420Y189190D01*
X260391Y189210D01*
X260362Y189233D01*
X260325Y189259D01*
X260253Y189318D01*
X260181Y189394D01*
X260109Y189479D01*
X260076Y189528D01*
X260047Y189577D01*
X260043Y189581D01*
X260040Y189590D01*
X260033Y189607D01*
X260024Y189626D01*
X260011Y189653D01*
X259997Y189682D01*
X259984Y189718D01*
X259968Y189758D01*
X259955Y189804D01*
X259942Y189849D01*
X259915Y189954D01*
X259899Y190069D01*
X259892Y190128D01*
Y190227D01*
X259896Y190253D01*
X259899Y190286D01*
X259902Y190325D01*
X259909Y190368D01*
X259915Y190414D01*
X259938Y190512D01*
X259955Y190565D01*
X259974Y190620D01*
X259997Y190673D01*
X260020Y190725D01*
X260053Y190778D01*
X260086Y190827D01*
X260089Y190830D01*
X260096Y190837D01*
X260106Y190853D01*
X260122Y190870D01*
X260142Y190889D01*
X260165Y190916D01*
X260194Y190942D01*
X260227Y190971D01*
X260263Y191001D01*
X260302Y191030D01*
X260348Y191060D01*
X260394Y191089D01*
X260447Y191119D01*
X260503Y191145D01*
X260565Y191171D01*
X260627Y191191D01*
X260706Y190863D01*
X260703D01*
X260693Y190860D01*
X260680Y190853D01*
X260660Y190847D01*
X260637Y190837D01*
X260611Y190827D01*
X260552Y190797D01*
X260486Y190761D01*
X260420Y190719D01*
X260358Y190666D01*
X260332Y190637D01*
X260306Y190607D01*
Y190604D01*
X260299Y190601D01*
X260293Y190591D01*
X260286Y190578D01*
X260276Y190561D01*
X260266Y190542D01*
X260240Y190492D01*
X260217Y190430D01*
X260197Y190358D01*
X260184Y190276D01*
X260178Y190184D01*
Y190155D01*
X260181Y190135D01*
Y190112D01*
X260184Y190082D01*
X260191Y190050D01*
X260194Y190014D01*
X260211Y189938D01*
X260237Y189856D01*
X260273Y189774D01*
X260293Y189735D01*
X260319Y189695D01*
Y189692D01*
X260325Y189685D01*
X260332Y189676D01*
X260345Y189663D01*
X260375Y189630D01*
X260417Y189590D01*
X260470Y189544D01*
X260535Y189498D01*
X260608Y189456D01*
X260693Y189423D01*
X260696D01*
X260703Y189420D01*
X260716Y189417D01*
X260732Y189410D01*
X260755Y189403D01*
X260781Y189397D01*
X260811Y189390D01*
X260840Y189384D01*
X260916Y189371D01*
X260998Y189357D01*
X261086Y189348D01*
X261178Y189344D01*
X261181D01*
X261191D01*
X261208D01*
X261231D01*
X261260Y189348D01*
X261293Y189351D01*
X261329D01*
X261368Y189357D01*
X261457Y189367D01*
X261549Y189384D01*
X261647Y189407D01*
X261739Y189436D01*
X261742D01*
X261749Y189439D01*
X261762Y189446D01*
X261778Y189456D01*
X261798Y189466D01*
X261821Y189476D01*
X261874Y189508D01*
X261933Y189551D01*
X261992Y189600D01*
X262047Y189659D01*
X262097Y189728D01*
Y189731D01*
X262103Y189738D01*
X262106Y189748D01*
X262116Y189764D01*
X262123Y189781D01*
X262133Y189804D01*
X262156Y189856D01*
X262179Y189922D01*
X262195Y189994D01*
X262208Y190073D01*
X262215Y190158D01*
Y190184D01*
X262211Y190204D01*
X262208Y190230D01*
X262205Y190256D01*
X262201Y190289D01*
X262195Y190322D01*
X262175Y190397D01*
X262146Y190476D01*
X262129Y190519D01*
X262106Y190558D01*
X262084Y190597D01*
X262054Y190633D01*
X262051Y190637D01*
X262047Y190643D01*
X262038Y190653D01*
X262024Y190666D01*
X262008Y190679D01*
X261985Y190699D01*
X261962Y190719D01*
X261933Y190738D01*
X261903Y190761D01*
X261867Y190784D01*
X261828Y190804D01*
X261785Y190827D01*
X261736Y190847D01*
X261687Y190866D01*
X261634Y190883D01*
X261575Y190899D01*
X261660Y191234D01*
X261664D01*
X261677Y191227D01*
D02*
G37*
G36*
X261792Y144988D02*
X261838Y144981D01*
X261887Y144971D01*
X261942Y144958D01*
X261998Y144942D01*
X262057Y144916D01*
X262064Y144912D01*
X262084Y144903D01*
X262110Y144886D01*
X262142Y144863D01*
X262182Y144837D01*
X262221Y144804D01*
X262257Y144768D01*
X262293Y144729D01*
X262297Y144725D01*
X262306Y144709D01*
X262323Y144686D01*
X262339Y144653D01*
X262359Y144614D01*
X262382Y144568D01*
X262402Y144512D01*
X262418Y144453D01*
Y144447D01*
X262421Y144437D01*
X262425Y144424D01*
X262428Y144407D01*
X262431Y144388D01*
X262438Y144342D01*
X262444Y144283D01*
X262451Y144214D01*
X262454Y144135D01*
X262457Y144046D01*
Y143089D01*
X259935D01*
Y144082D01*
X259938Y144106D01*
Y144135D01*
X259945Y144201D01*
X259955Y144273D01*
X259968Y144351D01*
X259988Y144427D01*
X260014Y144496D01*
Y144499D01*
X260017Y144502D01*
X260020Y144512D01*
X260027Y144525D01*
X260047Y144555D01*
X260073Y144594D01*
X260106Y144640D01*
X260145Y144683D01*
X260194Y144729D01*
X260250Y144768D01*
X260253D01*
X260257Y144771D01*
X260276Y144784D01*
X260309Y144801D01*
X260352Y144820D01*
X260401Y144837D01*
X260457Y144853D01*
X260516Y144866D01*
X260581Y144870D01*
X260584D01*
X260588D01*
X260598D01*
X260608D01*
X260640Y144866D01*
X260680Y144860D01*
X260729Y144847D01*
X260781Y144834D01*
X260834Y144811D01*
X260890Y144781D01*
X260896Y144778D01*
X260912Y144765D01*
X260939Y144745D01*
X260971Y144716D01*
X261008Y144676D01*
X261044Y144630D01*
X261083Y144578D01*
X261116Y144516D01*
Y144519D01*
X261119Y144525D01*
X261122Y144538D01*
X261129Y144555D01*
X261136Y144571D01*
X261145Y144594D01*
X261172Y144647D01*
X261204Y144702D01*
X261244Y144762D01*
X261293Y144817D01*
X261349Y144866D01*
X261352D01*
X261355Y144873D01*
X261365Y144879D01*
X261378Y144886D01*
X261411Y144906D01*
X261457Y144929D01*
X261513Y144952D01*
X261578Y144971D01*
X261650Y144984D01*
X261729Y144991D01*
X261733D01*
X261736D01*
X261746D01*
X261759D01*
X261792Y144988D01*
D02*
G37*
G36*
X262457Y140973D02*
X262451D01*
X262438D01*
X262418D01*
X262388Y140976D01*
X262356Y140980D01*
X262320Y140986D01*
X262284Y140996D01*
X262244Y141009D01*
X262241D01*
X262238Y141012D01*
X262228Y141016D01*
X262215Y141022D01*
X262182Y141035D01*
X262139Y141058D01*
X262087Y141088D01*
X262031Y141121D01*
X261972Y141163D01*
X261910Y141212D01*
X261906Y141216D01*
X261903Y141219D01*
X261893Y141229D01*
X261880Y141239D01*
X261844Y141272D01*
X261798Y141317D01*
X261742Y141373D01*
X261677Y141442D01*
X261605Y141524D01*
X261526Y141619D01*
X261523Y141622D01*
X261509Y141636D01*
X261493Y141659D01*
X261470Y141685D01*
X261441Y141718D01*
X261408Y141757D01*
X261372Y141800D01*
X261332Y141842D01*
X261247Y141934D01*
X261158Y142026D01*
X261113Y142069D01*
X261070Y142108D01*
X261031Y142144D01*
X260991Y142174D01*
X260988Y142177D01*
X260981Y142180D01*
X260971Y142187D01*
X260958Y142197D01*
X260939Y142206D01*
X260919Y142219D01*
X260870Y142249D01*
X260814Y142275D01*
X260752Y142298D01*
X260683Y142315D01*
X260650Y142321D01*
X260617D01*
X260614D01*
X260608D01*
X260601D01*
X260588Y142318D01*
X260552Y142315D01*
X260509Y142305D01*
X260460Y142288D01*
X260411Y142265D01*
X260358Y142233D01*
X260309Y142187D01*
X260302Y142180D01*
X260289Y142164D01*
X260270Y142134D01*
X260243Y142095D01*
X260220Y142046D01*
X260201Y141987D01*
X260188Y141918D01*
X260181Y141842D01*
Y141819D01*
X260184Y141806D01*
Y141787D01*
X260188Y141764D01*
X260197Y141714D01*
X260214Y141659D01*
X260237Y141596D01*
X260270Y141537D01*
X260315Y141485D01*
X260322Y141478D01*
X260338Y141465D01*
X260371Y141442D01*
X260411Y141419D01*
X260466Y141393D01*
X260529Y141370D01*
X260601Y141357D01*
X260686Y141350D01*
X260653Y141032D01*
X260650D01*
X260637Y141035D01*
X260621D01*
X260594Y141039D01*
X260565Y141045D01*
X260532Y141052D01*
X260493Y141062D01*
X260453Y141075D01*
X260365Y141104D01*
X260319Y141124D01*
X260276Y141147D01*
X260230Y141173D01*
X260188Y141203D01*
X260148Y141235D01*
X260112Y141275D01*
X260109Y141278D01*
X260106Y141285D01*
X260096Y141298D01*
X260083Y141314D01*
X260069Y141337D01*
X260053Y141363D01*
X260037Y141393D01*
X260017Y141429D01*
X260001Y141468D01*
X259984Y141511D01*
X259968Y141557D01*
X259955Y141609D01*
X259942Y141662D01*
X259932Y141721D01*
X259928Y141783D01*
X259925Y141849D01*
Y141885D01*
X259928Y141908D01*
X259932Y141941D01*
X259935Y141977D01*
X259942Y142016D01*
X259951Y142059D01*
X259974Y142151D01*
X259991Y142197D01*
X260011Y142246D01*
X260033Y142295D01*
X260063Y142341D01*
X260092Y142384D01*
X260129Y142426D01*
X260132Y142429D01*
X260138Y142436D01*
X260148Y142446D01*
X260165Y142459D01*
X260184Y142475D01*
X260207Y142495D01*
X260234Y142511D01*
X260266Y142534D01*
X260299Y142554D01*
X260338Y142570D01*
X260424Y142606D01*
X260470Y142620D01*
X260519Y142630D01*
X260571Y142636D01*
X260627Y142639D01*
X260634D01*
X260653D01*
X260683Y142636D01*
X260722Y142633D01*
X260765Y142623D01*
X260817Y142613D01*
X260870Y142597D01*
X260926Y142577D01*
X260932Y142574D01*
X260952Y142564D01*
X260981Y142551D01*
X261017Y142528D01*
X261063Y142498D01*
X261116Y142462D01*
X261175Y142420D01*
X261234Y142370D01*
X261237D01*
X261241Y142364D01*
X261250Y142354D01*
X261263Y142344D01*
X261280Y142328D01*
X261299Y142308D01*
X261322Y142285D01*
X261349Y142255D01*
X261378Y142226D01*
X261411Y142190D01*
X261450Y142151D01*
X261490Y142108D01*
X261532Y142059D01*
X261575Y142009D01*
X261624Y141951D01*
X261677Y141892D01*
X261680Y141888D01*
X261687Y141878D01*
X261700Y141865D01*
X261713Y141846D01*
X261733Y141826D01*
X261755Y141800D01*
X261805Y141744D01*
X261857Y141682D01*
X261910Y141622D01*
X261933Y141596D01*
X261955Y141573D01*
X261979Y141550D01*
X261995Y141534D01*
X261998Y141531D01*
X262008Y141521D01*
X262024Y141508D01*
X262047Y141488D01*
X262070Y141468D01*
X262100Y141445D01*
X262159Y141403D01*
Y142643D01*
X262457D01*
Y140973D01*
D02*
G37*
G36*
X261677Y140727D02*
X261700Y140720D01*
X261729Y140714D01*
X261762Y140701D01*
X261801Y140684D01*
X261844Y140668D01*
X261893Y140645D01*
X261942Y140622D01*
X261995Y140593D01*
X262044Y140563D01*
X262097Y140527D01*
X262149Y140491D01*
X262198Y140448D01*
X262244Y140402D01*
X262287Y140353D01*
X262290Y140350D01*
X262297Y140340D01*
X262306Y140327D01*
X262320Y140304D01*
X262336Y140278D01*
X262356Y140245D01*
X262372Y140209D01*
X262392Y140170D01*
X262415Y140120D01*
X262431Y140071D01*
X262451Y140015D01*
X262467Y139956D01*
X262480Y139894D01*
X262490Y139828D01*
X262497Y139760D01*
X262500Y139687D01*
Y139648D01*
X262497Y139618D01*
X262493Y139586D01*
X262490Y139543D01*
X262487Y139500D01*
X262480Y139451D01*
X262461Y139346D01*
X262431Y139235D01*
X262411Y139179D01*
X262388Y139123D01*
X262366Y139071D01*
X262336Y139022D01*
X262333Y139018D01*
X262330Y139012D01*
X262320Y138998D01*
X262303Y138979D01*
X262287Y138959D01*
X262267Y138933D01*
X262241Y138907D01*
X262211Y138877D01*
X262182Y138844D01*
X262146Y138815D01*
X262106Y138782D01*
X262060Y138749D01*
X262015Y138716D01*
X261965Y138687D01*
X261910Y138657D01*
X261854Y138631D01*
X261851D01*
X261841Y138625D01*
X261821Y138618D01*
X261798Y138611D01*
X261769Y138602D01*
X261736Y138589D01*
X261696Y138579D01*
X261650Y138566D01*
X261601Y138552D01*
X261549Y138543D01*
X261493Y138530D01*
X261437Y138520D01*
X261309Y138506D01*
X261178Y138500D01*
X261175D01*
X261162D01*
X261139D01*
X261113Y138503D01*
X261076D01*
X261037Y138506D01*
X260995Y138513D01*
X260945Y138520D01*
X260893Y138526D01*
X260837Y138536D01*
X260722Y138562D01*
X260608Y138598D01*
X260548Y138621D01*
X260493Y138648D01*
X260489Y138651D01*
X260480Y138654D01*
X260463Y138664D01*
X260443Y138677D01*
X260420Y138690D01*
X260391Y138710D01*
X260362Y138733D01*
X260325Y138759D01*
X260253Y138818D01*
X260181Y138894D01*
X260109Y138979D01*
X260076Y139028D01*
X260047Y139077D01*
X260043Y139081D01*
X260040Y139090D01*
X260033Y139107D01*
X260024Y139126D01*
X260011Y139153D01*
X259997Y139182D01*
X259984Y139218D01*
X259968Y139258D01*
X259955Y139304D01*
X259942Y139349D01*
X259915Y139454D01*
X259899Y139569D01*
X259892Y139628D01*
Y139727D01*
X259896Y139753D01*
X259899Y139786D01*
X259902Y139825D01*
X259909Y139868D01*
X259915Y139914D01*
X259938Y140012D01*
X259955Y140065D01*
X259974Y140120D01*
X259997Y140173D01*
X260020Y140225D01*
X260053Y140278D01*
X260086Y140327D01*
X260089Y140330D01*
X260096Y140337D01*
X260106Y140353D01*
X260122Y140370D01*
X260142Y140389D01*
X260165Y140416D01*
X260194Y140442D01*
X260227Y140471D01*
X260263Y140501D01*
X260302Y140530D01*
X260348Y140560D01*
X260394Y140589D01*
X260447Y140619D01*
X260503Y140645D01*
X260565Y140671D01*
X260627Y140691D01*
X260706Y140363D01*
X260703D01*
X260693Y140360D01*
X260680Y140353D01*
X260660Y140347D01*
X260637Y140337D01*
X260611Y140327D01*
X260552Y140297D01*
X260486Y140261D01*
X260420Y140219D01*
X260358Y140166D01*
X260332Y140137D01*
X260306Y140107D01*
Y140104D01*
X260299Y140101D01*
X260293Y140091D01*
X260286Y140078D01*
X260276Y140061D01*
X260266Y140042D01*
X260240Y139992D01*
X260217Y139930D01*
X260197Y139858D01*
X260184Y139776D01*
X260178Y139684D01*
Y139655D01*
X260181Y139635D01*
Y139612D01*
X260184Y139582D01*
X260191Y139550D01*
X260194Y139514D01*
X260211Y139438D01*
X260237Y139356D01*
X260273Y139274D01*
X260293Y139235D01*
X260319Y139195D01*
Y139192D01*
X260325Y139186D01*
X260332Y139176D01*
X260345Y139163D01*
X260375Y139130D01*
X260417Y139090D01*
X260470Y139044D01*
X260535Y138998D01*
X260608Y138956D01*
X260693Y138923D01*
X260696D01*
X260703Y138920D01*
X260716Y138917D01*
X260732Y138910D01*
X260755Y138903D01*
X260781Y138897D01*
X260811Y138890D01*
X260840Y138884D01*
X260916Y138871D01*
X260998Y138857D01*
X261086Y138848D01*
X261178Y138844D01*
X261181D01*
X261191D01*
X261208D01*
X261231D01*
X261260Y138848D01*
X261293Y138851D01*
X261329D01*
X261368Y138857D01*
X261457Y138867D01*
X261549Y138884D01*
X261647Y138907D01*
X261739Y138936D01*
X261742D01*
X261749Y138939D01*
X261762Y138946D01*
X261778Y138956D01*
X261798Y138966D01*
X261821Y138976D01*
X261874Y139008D01*
X261933Y139051D01*
X261992Y139100D01*
X262047Y139159D01*
X262097Y139228D01*
Y139231D01*
X262103Y139238D01*
X262106Y139248D01*
X262116Y139264D01*
X262123Y139281D01*
X262133Y139304D01*
X262156Y139356D01*
X262179Y139422D01*
X262195Y139494D01*
X262208Y139573D01*
X262215Y139658D01*
Y139684D01*
X262211Y139704D01*
X262208Y139730D01*
X262205Y139756D01*
X262201Y139789D01*
X262195Y139822D01*
X262175Y139897D01*
X262146Y139976D01*
X262129Y140019D01*
X262106Y140058D01*
X262084Y140097D01*
X262054Y140133D01*
X262051Y140137D01*
X262047Y140143D01*
X262038Y140153D01*
X262024Y140166D01*
X262008Y140179D01*
X261985Y140199D01*
X261962Y140219D01*
X261933Y140238D01*
X261903Y140261D01*
X261867Y140284D01*
X261828Y140304D01*
X261785Y140327D01*
X261736Y140347D01*
X261687Y140366D01*
X261634Y140383D01*
X261575Y140399D01*
X261660Y140734D01*
X261664D01*
X261677Y140727D01*
D02*
G37*
G36*
X263887Y170544D02*
X263924D01*
X263963Y170541D01*
X264005Y170534D01*
X264055Y170528D01*
X264107Y170521D01*
X264163Y170511D01*
X264278Y170485D01*
X264392Y170449D01*
X264452Y170426D01*
X264507Y170400D01*
X264511Y170396D01*
X264520Y170393D01*
X264537Y170383D01*
X264557Y170370D01*
X264580Y170357D01*
X264609Y170337D01*
X264638Y170314D01*
X264675Y170288D01*
X264747Y170229D01*
X264819Y170154D01*
X264891Y170068D01*
X264924Y170019D01*
X264953Y169970D01*
X264957Y169967D01*
X264960Y169957D01*
X264967Y169940D01*
X264976Y169921D01*
X264989Y169895D01*
X265003Y169865D01*
X265016Y169829D01*
X265032Y169790D01*
X265045Y169744D01*
X265058Y169698D01*
X265085Y169593D01*
X265101Y169478D01*
X265107Y169419D01*
Y169321D01*
X265104Y169294D01*
X265101Y169262D01*
X265098Y169222D01*
X265091Y169179D01*
X265085Y169134D01*
X265062Y169035D01*
X265045Y168983D01*
X265026Y168927D01*
X265003Y168875D01*
X264980Y168822D01*
X264947Y168770D01*
X264914Y168720D01*
X264911Y168717D01*
X264904Y168710D01*
X264894Y168694D01*
X264878Y168678D01*
X264858Y168658D01*
X264835Y168632D01*
X264806Y168605D01*
X264773Y168576D01*
X264737Y168546D01*
X264698Y168517D01*
X264652Y168487D01*
X264606Y168458D01*
X264553Y168428D01*
X264497Y168402D01*
X264435Y168376D01*
X264373Y168356D01*
X264294Y168684D01*
X264297D01*
X264307Y168687D01*
X264320Y168694D01*
X264340Y168701D01*
X264363Y168710D01*
X264389Y168720D01*
X264448Y168750D01*
X264514Y168786D01*
X264580Y168828D01*
X264642Y168881D01*
X264668Y168911D01*
X264694Y168940D01*
Y168943D01*
X264701Y168947D01*
X264707Y168956D01*
X264714Y168970D01*
X264724Y168986D01*
X264734Y169006D01*
X264760Y169055D01*
X264783Y169117D01*
X264803Y169189D01*
X264816Y169271D01*
X264822Y169363D01*
Y169393D01*
X264819Y169412D01*
Y169435D01*
X264816Y169465D01*
X264809Y169498D01*
X264806Y169534D01*
X264789Y169609D01*
X264763Y169691D01*
X264727Y169773D01*
X264707Y169813D01*
X264681Y169852D01*
Y169855D01*
X264675Y169862D01*
X264668Y169872D01*
X264655Y169885D01*
X264625Y169918D01*
X264583Y169957D01*
X264530Y170003D01*
X264465Y170049D01*
X264392Y170091D01*
X264307Y170124D01*
X264304D01*
X264297Y170127D01*
X264284Y170131D01*
X264268Y170137D01*
X264245Y170144D01*
X264219Y170150D01*
X264189Y170157D01*
X264160Y170164D01*
X264084Y170177D01*
X264002Y170190D01*
X263914Y170200D01*
X263822Y170203D01*
X263819D01*
X263809D01*
X263792D01*
X263769D01*
X263740Y170200D01*
X263707Y170196D01*
X263671D01*
X263632Y170190D01*
X263543Y170180D01*
X263451Y170164D01*
X263353Y170141D01*
X263261Y170111D01*
X263258D01*
X263251Y170108D01*
X263238Y170101D01*
X263222Y170091D01*
X263202Y170081D01*
X263179Y170072D01*
X263126Y170039D01*
X263067Y169996D01*
X263008Y169947D01*
X262953Y169888D01*
X262903Y169819D01*
Y169816D01*
X262897Y169809D01*
X262894Y169799D01*
X262884Y169783D01*
X262877Y169767D01*
X262867Y169744D01*
X262844Y169691D01*
X262821Y169626D01*
X262805Y169553D01*
X262792Y169475D01*
X262785Y169389D01*
Y169363D01*
X262789Y169343D01*
X262792Y169317D01*
X262795Y169291D01*
X262798Y169258D01*
X262805Y169225D01*
X262825Y169150D01*
X262854Y169071D01*
X262871Y169029D01*
X262894Y168989D01*
X262916Y168950D01*
X262946Y168914D01*
X262949Y168911D01*
X262953Y168904D01*
X262962Y168894D01*
X262976Y168881D01*
X262992Y168868D01*
X263015Y168848D01*
X263038Y168828D01*
X263067Y168809D01*
X263097Y168786D01*
X263133Y168763D01*
X263172Y168743D01*
X263215Y168720D01*
X263264Y168701D01*
X263313Y168681D01*
X263366Y168665D01*
X263425Y168648D01*
X263340Y168314D01*
X263336D01*
X263323Y168320D01*
X263300Y168327D01*
X263271Y168333D01*
X263238Y168346D01*
X263199Y168363D01*
X263156Y168379D01*
X263107Y168402D01*
X263057Y168425D01*
X263005Y168455D01*
X262956Y168484D01*
X262903Y168520D01*
X262851Y168556D01*
X262802Y168599D01*
X262756Y168645D01*
X262713Y168694D01*
X262710Y168697D01*
X262703Y168707D01*
X262694Y168720D01*
X262680Y168743D01*
X262664Y168770D01*
X262644Y168802D01*
X262628Y168838D01*
X262608Y168878D01*
X262585Y168927D01*
X262569Y168976D01*
X262549Y169032D01*
X262533Y169091D01*
X262520Y169153D01*
X262510Y169219D01*
X262503Y169288D01*
X262500Y169360D01*
Y169399D01*
X262503Y169429D01*
X262507Y169462D01*
X262510Y169504D01*
X262513Y169547D01*
X262520Y169596D01*
X262539Y169701D01*
X262569Y169813D01*
X262589Y169868D01*
X262612Y169924D01*
X262634Y169976D01*
X262664Y170026D01*
X262667Y170029D01*
X262670Y170036D01*
X262680Y170049D01*
X262697Y170068D01*
X262713Y170088D01*
X262733Y170114D01*
X262759Y170141D01*
X262789Y170170D01*
X262818Y170203D01*
X262854Y170232D01*
X262894Y170265D01*
X262940Y170298D01*
X262985Y170331D01*
X263035Y170360D01*
X263090Y170390D01*
X263146Y170416D01*
X263149D01*
X263159Y170423D01*
X263179Y170429D01*
X263202Y170436D01*
X263231Y170446D01*
X263264Y170459D01*
X263303Y170469D01*
X263350Y170482D01*
X263399Y170495D01*
X263451Y170505D01*
X263507Y170518D01*
X263563Y170528D01*
X263691Y170541D01*
X263822Y170547D01*
X263825D01*
X263838D01*
X263861D01*
X263887Y170544D01*
D02*
G37*
G36*
X265065Y166982D02*
Y166729D01*
X263432D01*
Y166388D01*
X263146D01*
Y166729D01*
X262543D01*
Y167038D01*
X263146D01*
Y168133D01*
X263432D01*
X265065Y166982D01*
D02*
G37*
G36*
Y165260D02*
Y164896D01*
X262543Y163869D01*
Y164246D01*
X263307Y164538D01*
Y165594D01*
X262543Y165870D01*
Y166221D01*
X265065Y165260D01*
D02*
G37*
G36*
X263887Y119497D02*
X263924D01*
X263963Y119493D01*
X264005Y119487D01*
X264055Y119480D01*
X264107Y119474D01*
X264163Y119464D01*
X264278Y119438D01*
X264392Y119402D01*
X264452Y119379D01*
X264507Y119352D01*
X264511Y119349D01*
X264520Y119346D01*
X264537Y119336D01*
X264557Y119323D01*
X264580Y119310D01*
X264609Y119290D01*
X264638Y119267D01*
X264675Y119241D01*
X264747Y119182D01*
X264819Y119106D01*
X264891Y119021D01*
X264924Y118972D01*
X264953Y118923D01*
X264957Y118920D01*
X264960Y118910D01*
X264967Y118893D01*
X264976Y118874D01*
X264989Y118847D01*
X265003Y118818D01*
X265016Y118782D01*
X265032Y118742D01*
X265045Y118696D01*
X265058Y118650D01*
X265085Y118546D01*
X265101Y118431D01*
X265107Y118372D01*
Y118273D01*
X265104Y118247D01*
X265101Y118214D01*
X265098Y118175D01*
X265091Y118132D01*
X265085Y118086D01*
X265062Y117988D01*
X265045Y117936D01*
X265026Y117880D01*
X265003Y117827D01*
X264980Y117775D01*
X264947Y117722D01*
X264914Y117673D01*
X264911Y117670D01*
X264904Y117663D01*
X264894Y117647D01*
X264878Y117630D01*
X264858Y117611D01*
X264835Y117585D01*
X264806Y117558D01*
X264773Y117529D01*
X264737Y117499D01*
X264698Y117470D01*
X264652Y117440D01*
X264606Y117411D01*
X264553Y117381D01*
X264497Y117355D01*
X264435Y117329D01*
X264373Y117309D01*
X264294Y117637D01*
X264297D01*
X264307Y117640D01*
X264320Y117647D01*
X264340Y117653D01*
X264363Y117663D01*
X264389Y117673D01*
X264448Y117703D01*
X264514Y117739D01*
X264580Y117781D01*
X264642Y117834D01*
X264668Y117863D01*
X264694Y117893D01*
Y117896D01*
X264701Y117899D01*
X264707Y117909D01*
X264714Y117922D01*
X264724Y117939D01*
X264734Y117958D01*
X264760Y118008D01*
X264783Y118070D01*
X264803Y118142D01*
X264816Y118224D01*
X264822Y118316D01*
Y118345D01*
X264819Y118365D01*
Y118388D01*
X264816Y118418D01*
X264809Y118450D01*
X264806Y118486D01*
X264789Y118562D01*
X264763Y118644D01*
X264727Y118726D01*
X264707Y118765D01*
X264681Y118805D01*
Y118808D01*
X264675Y118815D01*
X264668Y118824D01*
X264655Y118837D01*
X264625Y118870D01*
X264583Y118910D01*
X264530Y118956D01*
X264465Y119001D01*
X264392Y119044D01*
X264307Y119077D01*
X264304D01*
X264297Y119080D01*
X264284Y119083D01*
X264268Y119090D01*
X264245Y119097D01*
X264219Y119103D01*
X264189Y119110D01*
X264160Y119116D01*
X264084Y119129D01*
X264002Y119142D01*
X263914Y119152D01*
X263822Y119156D01*
X263819D01*
X263809D01*
X263792D01*
X263769D01*
X263740Y119152D01*
X263707Y119149D01*
X263671D01*
X263632Y119142D01*
X263543Y119133D01*
X263451Y119116D01*
X263353Y119093D01*
X263261Y119064D01*
X263258D01*
X263251Y119061D01*
X263238Y119054D01*
X263222Y119044D01*
X263202Y119034D01*
X263179Y119024D01*
X263126Y118992D01*
X263067Y118949D01*
X263008Y118900D01*
X262953Y118841D01*
X262903Y118772D01*
Y118769D01*
X262897Y118762D01*
X262894Y118752D01*
X262884Y118736D01*
X262877Y118719D01*
X262867Y118696D01*
X262844Y118644D01*
X262821Y118578D01*
X262805Y118506D01*
X262792Y118428D01*
X262785Y118342D01*
Y118316D01*
X262789Y118296D01*
X262792Y118270D01*
X262795Y118244D01*
X262798Y118211D01*
X262805Y118178D01*
X262825Y118103D01*
X262854Y118024D01*
X262871Y117981D01*
X262894Y117942D01*
X262916Y117903D01*
X262946Y117867D01*
X262949Y117863D01*
X262953Y117857D01*
X262962Y117847D01*
X262976Y117834D01*
X262992Y117821D01*
X263015Y117801D01*
X263038Y117781D01*
X263067Y117762D01*
X263097Y117739D01*
X263133Y117716D01*
X263172Y117696D01*
X263215Y117673D01*
X263264Y117653D01*
X263313Y117634D01*
X263366Y117617D01*
X263425Y117601D01*
X263340Y117266D01*
X263336D01*
X263323Y117273D01*
X263300Y117280D01*
X263271Y117286D01*
X263238Y117299D01*
X263199Y117316D01*
X263156Y117332D01*
X263107Y117355D01*
X263057Y117378D01*
X263005Y117407D01*
X262956Y117437D01*
X262903Y117473D01*
X262851Y117509D01*
X262802Y117552D01*
X262756Y117598D01*
X262713Y117647D01*
X262710Y117650D01*
X262703Y117660D01*
X262694Y117673D01*
X262680Y117696D01*
X262664Y117722D01*
X262644Y117755D01*
X262628Y117791D01*
X262608Y117831D01*
X262585Y117880D01*
X262569Y117929D01*
X262549Y117985D01*
X262533Y118044D01*
X262520Y118106D01*
X262510Y118172D01*
X262503Y118240D01*
X262500Y118313D01*
Y118352D01*
X262503Y118382D01*
X262507Y118414D01*
X262510Y118457D01*
X262513Y118500D01*
X262520Y118549D01*
X262539Y118654D01*
X262569Y118765D01*
X262589Y118821D01*
X262612Y118877D01*
X262634Y118929D01*
X262664Y118979D01*
X262667Y118982D01*
X262670Y118988D01*
X262680Y119001D01*
X262697Y119021D01*
X262713Y119041D01*
X262733Y119067D01*
X262759Y119093D01*
X262789Y119123D01*
X262818Y119156D01*
X262854Y119185D01*
X262894Y119218D01*
X262940Y119251D01*
X262985Y119283D01*
X263035Y119313D01*
X263090Y119343D01*
X263146Y119369D01*
X263149D01*
X263159Y119375D01*
X263179Y119382D01*
X263202Y119388D01*
X263231Y119398D01*
X263264Y119412D01*
X263303Y119421D01*
X263350Y119434D01*
X263399Y119448D01*
X263451Y119457D01*
X263507Y119471D01*
X263563Y119480D01*
X263691Y119493D01*
X263822Y119500D01*
X263825D01*
X263838D01*
X263861D01*
X263887Y119497D01*
D02*
G37*
G36*
X263254Y116673D02*
X263251D01*
X263241Y116669D01*
X263228Y116666D01*
X263212Y116663D01*
X263189Y116656D01*
X263166Y116650D01*
X263107Y116630D01*
X263044Y116607D01*
X262982Y116574D01*
X262920Y116538D01*
X262894Y116518D01*
X262871Y116496D01*
X262867Y116489D01*
X262854Y116473D01*
X262835Y116446D01*
X262815Y116407D01*
X262792Y116361D01*
X262775Y116309D01*
X262762Y116246D01*
X262756Y116181D01*
Y116158D01*
X262759Y116145D01*
Y116125D01*
X262762Y116102D01*
X262775Y116053D01*
X262792Y115994D01*
X262818Y115931D01*
X262858Y115869D01*
X262880Y115840D01*
X262907Y115810D01*
X262910Y115807D01*
X262913Y115804D01*
X262923Y115797D01*
X262933Y115787D01*
X262966Y115761D01*
X263012Y115735D01*
X263064Y115708D01*
X263130Y115682D01*
X263202Y115666D01*
X263241Y115659D01*
X263281D01*
X263284D01*
X263290D01*
X263300D01*
X263317Y115662D01*
X263333D01*
X263356Y115666D01*
X263405Y115675D01*
X263461Y115692D01*
X263520Y115718D01*
X263576Y115754D01*
X263605Y115774D01*
X263632Y115800D01*
X263638Y115807D01*
X263654Y115826D01*
X263674Y115856D01*
X263700Y115895D01*
X263727Y115948D01*
X263746Y116007D01*
X263763Y116076D01*
X263769Y116154D01*
Y116191D01*
X263766Y116214D01*
X263763Y116246D01*
X263756Y116286D01*
X263746Y116328D01*
X263737Y116374D01*
X264009Y116338D01*
Y116332D01*
X264005Y116322D01*
X264002Y116305D01*
Y116269D01*
X264005Y116256D01*
X264009Y116217D01*
X264015Y116171D01*
X264028Y116115D01*
X264045Y116056D01*
X264071Y115994D01*
X264104Y115935D01*
Y115931D01*
X264110Y115928D01*
X264124Y115908D01*
X264150Y115882D01*
X264183Y115853D01*
X264229Y115823D01*
X264284Y115800D01*
X264350Y115780D01*
X264386Y115777D01*
X264425Y115774D01*
X264429D01*
X264432D01*
X264455Y115777D01*
X264484Y115780D01*
X264524Y115787D01*
X264566Y115804D01*
X264612Y115823D01*
X264662Y115853D01*
X264704Y115892D01*
X264711Y115899D01*
X264724Y115912D01*
X264740Y115938D01*
X264763Y115971D01*
X264783Y116013D01*
X264803Y116066D01*
X264816Y116122D01*
X264819Y116187D01*
Y116204D01*
X264816Y116217D01*
X264812Y116253D01*
X264806Y116296D01*
X264789Y116341D01*
X264770Y116394D01*
X264743Y116443D01*
X264704Y116492D01*
X264698Y116499D01*
X264684Y116512D01*
X264658Y116532D01*
X264619Y116555D01*
X264573Y116581D01*
X264514Y116607D01*
X264445Y116627D01*
X264366Y116643D01*
X264422Y116952D01*
X264425D01*
X264435Y116948D01*
X264452Y116945D01*
X264475Y116938D01*
X264497Y116932D01*
X264530Y116922D01*
X264563Y116912D01*
X264599Y116899D01*
X264675Y116863D01*
X264753Y116820D01*
X264832Y116764D01*
X264868Y116732D01*
X264901Y116696D01*
X264904Y116692D01*
X264908Y116686D01*
X264917Y116676D01*
X264927Y116659D01*
X264940Y116640D01*
X264957Y116617D01*
X264973Y116587D01*
X264989Y116558D01*
X265003Y116522D01*
X265019Y116486D01*
X265049Y116400D01*
X265068Y116302D01*
X265072Y116250D01*
X265075Y116194D01*
Y116158D01*
X265072Y116141D01*
Y116118D01*
X265065Y116069D01*
X265052Y116010D01*
X265039Y115948D01*
X265016Y115882D01*
X264986Y115817D01*
Y115813D01*
X264983Y115810D01*
X264976Y115800D01*
X264970Y115787D01*
X264950Y115758D01*
X264924Y115718D01*
X264888Y115675D01*
X264845Y115630D01*
X264799Y115587D01*
X264743Y115551D01*
X264740D01*
X264737Y115548D01*
X264717Y115534D01*
X264684Y115521D01*
X264645Y115502D01*
X264596Y115485D01*
X264540Y115469D01*
X264481Y115459D01*
X264419Y115456D01*
X264416D01*
X264412D01*
X264392D01*
X264360Y115459D01*
X264320Y115466D01*
X264274Y115479D01*
X264225Y115492D01*
X264173Y115515D01*
X264120Y115544D01*
X264114Y115548D01*
X264097Y115561D01*
X264074Y115580D01*
X264045Y115610D01*
X264009Y115646D01*
X263973Y115692D01*
X263940Y115744D01*
X263907Y115804D01*
Y115800D01*
X263904Y115794D01*
X263900Y115780D01*
X263897Y115767D01*
X263891Y115748D01*
X263881Y115725D01*
X263861Y115675D01*
X263832Y115620D01*
X263792Y115564D01*
X263746Y115505D01*
X263691Y115456D01*
X263687D01*
X263684Y115449D01*
X263674Y115443D01*
X263661Y115436D01*
X263645Y115426D01*
X263628Y115416D01*
X263579Y115393D01*
X263520Y115371D01*
X263451Y115351D01*
X263376Y115338D01*
X263287Y115331D01*
X263284D01*
X263274D01*
X263254D01*
X263231Y115334D01*
X263202Y115338D01*
X263169Y115344D01*
X263133Y115351D01*
X263094Y115361D01*
X263051Y115374D01*
X263005Y115390D01*
X262959Y115410D01*
X262910Y115433D01*
X262864Y115462D01*
X262815Y115495D01*
X262769Y115531D01*
X262726Y115574D01*
X262723Y115577D01*
X262716Y115584D01*
X262707Y115597D01*
X262690Y115617D01*
X262674Y115639D01*
X262654Y115669D01*
X262634Y115702D01*
X262615Y115738D01*
X262592Y115780D01*
X262572Y115826D01*
X262552Y115876D01*
X262536Y115931D01*
X262520Y115987D01*
X262510Y116050D01*
X262503Y116112D01*
X262500Y116181D01*
Y116214D01*
X262503Y116236D01*
X262507Y116263D01*
X262510Y116296D01*
X262516Y116335D01*
X262526Y116374D01*
X262549Y116460D01*
X262565Y116505D01*
X262582Y116551D01*
X262605Y116601D01*
X262631Y116646D01*
X262661Y116689D01*
X262697Y116732D01*
X262700Y116735D01*
X262707Y116742D01*
X262716Y116751D01*
X262733Y116768D01*
X262753Y116784D01*
X262775Y116804D01*
X262805Y116824D01*
X262835Y116847D01*
X262871Y116866D01*
X262910Y116889D01*
X262953Y116909D01*
X262999Y116929D01*
X263048Y116948D01*
X263097Y116961D01*
X263153Y116974D01*
X263212Y116981D01*
X263254Y116673D01*
D02*
G37*
G36*
X265065Y113918D02*
X265062Y113894D01*
Y113865D01*
X265055Y113799D01*
X265045Y113727D01*
X265032Y113648D01*
X265012Y113573D01*
X264986Y113504D01*
Y113501D01*
X264983Y113498D01*
X264980Y113488D01*
X264973Y113475D01*
X264953Y113445D01*
X264927Y113406D01*
X264894Y113360D01*
X264855Y113317D01*
X264806Y113271D01*
X264750Y113232D01*
X264747D01*
X264743Y113229D01*
X264724Y113216D01*
X264691Y113199D01*
X264648Y113180D01*
X264599Y113163D01*
X264543Y113147D01*
X264484Y113134D01*
X264419Y113130D01*
X264416D01*
X264412D01*
X264402D01*
X264392D01*
X264360Y113134D01*
X264320Y113140D01*
X264271Y113153D01*
X264219Y113166D01*
X264166Y113189D01*
X264110Y113219D01*
X264104Y113222D01*
X264088Y113235D01*
X264061Y113255D01*
X264028Y113284D01*
X263992Y113324D01*
X263956Y113370D01*
X263917Y113422D01*
X263884Y113485D01*
Y113481D01*
X263881Y113475D01*
X263878Y113462D01*
X263871Y113445D01*
X263864Y113429D01*
X263855Y113406D01*
X263828Y113353D01*
X263796Y113298D01*
X263756Y113239D01*
X263707Y113183D01*
X263651Y113134D01*
X263648D01*
X263645Y113127D01*
X263635Y113120D01*
X263622Y113114D01*
X263589Y113094D01*
X263543Y113071D01*
X263487Y113048D01*
X263422Y113029D01*
X263350Y113015D01*
X263271Y113009D01*
X263267D01*
X263264D01*
X263254D01*
X263241D01*
X263208Y113012D01*
X263162Y113019D01*
X263113Y113029D01*
X263057Y113042D01*
X263002Y113058D01*
X262943Y113084D01*
X262936Y113088D01*
X262916Y113098D01*
X262890Y113114D01*
X262858Y113137D01*
X262818Y113163D01*
X262779Y113196D01*
X262743Y113232D01*
X262707Y113271D01*
X262703Y113275D01*
X262694Y113291D01*
X262677Y113314D01*
X262661Y113347D01*
X262641Y113386D01*
X262618Y113432D01*
X262598Y113488D01*
X262582Y113547D01*
Y113553D01*
X262579Y113563D01*
X262575Y113576D01*
X262572Y113593D01*
X262569Y113612D01*
X262562Y113658D01*
X262556Y113717D01*
X262549Y113786D01*
X262546Y113865D01*
X262543Y113953D01*
Y114911D01*
X265065D01*
Y113918D01*
D02*
G37*
G36*
X262457Y213254D02*
X261693Y212962D01*
Y211906D01*
X262457Y211630D01*
Y211279D01*
X259935Y212240D01*
Y212604D01*
X262457Y213631D01*
Y213254D01*
D02*
G37*
G36*
Y209426D02*
X262451D01*
X262438D01*
X262418D01*
X262388Y209429D01*
X262356Y209432D01*
X262320Y209439D01*
X262284Y209449D01*
X262244Y209462D01*
X262241D01*
X262238Y209465D01*
X262228Y209469D01*
X262215Y209475D01*
X262182Y209488D01*
X262139Y209511D01*
X262087Y209541D01*
X262031Y209573D01*
X261972Y209616D01*
X261910Y209665D01*
X261906Y209669D01*
X261903Y209672D01*
X261893Y209682D01*
X261880Y209692D01*
X261844Y209724D01*
X261798Y209770D01*
X261742Y209826D01*
X261677Y209895D01*
X261605Y209977D01*
X261526Y210072D01*
X261523Y210075D01*
X261509Y210088D01*
X261493Y210111D01*
X261470Y210138D01*
X261441Y210170D01*
X261408Y210210D01*
X261372Y210252D01*
X261332Y210295D01*
X261247Y210387D01*
X261158Y210479D01*
X261113Y210521D01*
X261070Y210561D01*
X261031Y210597D01*
X260991Y210626D01*
X260988Y210630D01*
X260981Y210633D01*
X260971Y210639D01*
X260958Y210649D01*
X260939Y210659D01*
X260919Y210672D01*
X260870Y210702D01*
X260814Y210728D01*
X260752Y210751D01*
X260683Y210767D01*
X260650Y210774D01*
X260617D01*
X260614D01*
X260608D01*
X260601D01*
X260588Y210771D01*
X260552Y210767D01*
X260509Y210757D01*
X260460Y210741D01*
X260411Y210718D01*
X260358Y210685D01*
X260309Y210639D01*
X260302Y210633D01*
X260289Y210616D01*
X260270Y210587D01*
X260243Y210548D01*
X260220Y210498D01*
X260201Y210439D01*
X260188Y210370D01*
X260181Y210295D01*
Y210272D01*
X260184Y210259D01*
Y210239D01*
X260188Y210216D01*
X260197Y210167D01*
X260214Y210111D01*
X260237Y210049D01*
X260270Y209990D01*
X260315Y209938D01*
X260322Y209931D01*
X260338Y209918D01*
X260371Y209895D01*
X260411Y209872D01*
X260466Y209846D01*
X260529Y209823D01*
X260601Y209810D01*
X260686Y209803D01*
X260653Y209485D01*
X260650D01*
X260637Y209488D01*
X260621D01*
X260594Y209491D01*
X260565Y209498D01*
X260532Y209505D01*
X260493Y209514D01*
X260453Y209527D01*
X260365Y209557D01*
X260319Y209577D01*
X260276Y209600D01*
X260230Y209626D01*
X260188Y209655D01*
X260148Y209688D01*
X260112Y209728D01*
X260109Y209731D01*
X260106Y209737D01*
X260096Y209751D01*
X260083Y209767D01*
X260069Y209790D01*
X260053Y209816D01*
X260037Y209846D01*
X260017Y209882D01*
X260001Y209921D01*
X259984Y209964D01*
X259968Y210010D01*
X259955Y210062D01*
X259942Y210115D01*
X259932Y210174D01*
X259928Y210236D01*
X259925Y210302D01*
Y210338D01*
X259928Y210361D01*
X259932Y210393D01*
X259935Y210430D01*
X259942Y210469D01*
X259951Y210511D01*
X259974Y210603D01*
X259991Y210649D01*
X260011Y210699D01*
X260033Y210748D01*
X260063Y210794D01*
X260092Y210836D01*
X260129Y210879D01*
X260132Y210882D01*
X260138Y210889D01*
X260148Y210898D01*
X260165Y210912D01*
X260184Y210928D01*
X260207Y210948D01*
X260234Y210964D01*
X260266Y210987D01*
X260299Y211007D01*
X260338Y211023D01*
X260424Y211059D01*
X260470Y211072D01*
X260519Y211082D01*
X260571Y211089D01*
X260627Y211092D01*
X260634D01*
X260653D01*
X260683Y211089D01*
X260722Y211086D01*
X260765Y211076D01*
X260817Y211066D01*
X260870Y211049D01*
X260926Y211030D01*
X260932Y211027D01*
X260952Y211017D01*
X260981Y211003D01*
X261017Y210981D01*
X261063Y210951D01*
X261116Y210915D01*
X261175Y210872D01*
X261234Y210823D01*
X261237D01*
X261241Y210817D01*
X261250Y210807D01*
X261263Y210797D01*
X261280Y210781D01*
X261299Y210761D01*
X261322Y210738D01*
X261349Y210708D01*
X261378Y210679D01*
X261411Y210643D01*
X261450Y210603D01*
X261490Y210561D01*
X261532Y210511D01*
X261575Y210462D01*
X261624Y210403D01*
X261677Y210344D01*
X261680Y210341D01*
X261687Y210331D01*
X261700Y210318D01*
X261713Y210298D01*
X261733Y210279D01*
X261755Y210252D01*
X261805Y210197D01*
X261857Y210134D01*
X261910Y210075D01*
X261933Y210049D01*
X261955Y210026D01*
X261979Y210003D01*
X261995Y209987D01*
X261998Y209983D01*
X262008Y209974D01*
X262024Y209961D01*
X262047Y209941D01*
X262070Y209921D01*
X262100Y209898D01*
X262159Y209856D01*
Y211095D01*
X262457D01*
Y209426D01*
D02*
G37*
G36*
X261677Y209180D02*
X261700Y209173D01*
X261729Y209167D01*
X261762Y209154D01*
X261801Y209137D01*
X261844Y209121D01*
X261893Y209098D01*
X261942Y209075D01*
X261995Y209045D01*
X262044Y209016D01*
X262097Y208980D01*
X262149Y208944D01*
X262198Y208901D01*
X262244Y208855D01*
X262287Y208806D01*
X262290Y208803D01*
X262297Y208793D01*
X262306Y208780D01*
X262320Y208757D01*
X262336Y208731D01*
X262356Y208698D01*
X262372Y208662D01*
X262392Y208622D01*
X262415Y208573D01*
X262431Y208524D01*
X262451Y208468D01*
X262467Y208409D01*
X262480Y208347D01*
X262490Y208281D01*
X262497Y208212D01*
X262500Y208140D01*
Y208101D01*
X262497Y208071D01*
X262493Y208038D01*
X262490Y207996D01*
X262487Y207953D01*
X262480Y207904D01*
X262461Y207799D01*
X262431Y207687D01*
X262411Y207632D01*
X262388Y207576D01*
X262366Y207523D01*
X262336Y207474D01*
X262333Y207471D01*
X262330Y207464D01*
X262320Y207451D01*
X262303Y207432D01*
X262287Y207412D01*
X262267Y207386D01*
X262241Y207359D01*
X262211Y207330D01*
X262182Y207297D01*
X262146Y207268D01*
X262106Y207235D01*
X262060Y207202D01*
X262015Y207169D01*
X261965Y207140D01*
X261910Y207110D01*
X261854Y207084D01*
X261851D01*
X261841Y207077D01*
X261821Y207071D01*
X261798Y207064D01*
X261769Y207054D01*
X261736Y207041D01*
X261696Y207031D01*
X261650Y207018D01*
X261601Y207005D01*
X261549Y206995D01*
X261493Y206982D01*
X261437Y206972D01*
X261309Y206959D01*
X261178Y206953D01*
X261175D01*
X261162D01*
X261139D01*
X261113Y206956D01*
X261076D01*
X261037Y206959D01*
X260995Y206966D01*
X260945Y206972D01*
X260893Y206979D01*
X260837Y206989D01*
X260722Y207015D01*
X260608Y207051D01*
X260548Y207074D01*
X260493Y207100D01*
X260489Y207104D01*
X260480Y207107D01*
X260463Y207117D01*
X260443Y207130D01*
X260420Y207143D01*
X260391Y207163D01*
X260362Y207186D01*
X260325Y207212D01*
X260253Y207271D01*
X260181Y207346D01*
X260109Y207432D01*
X260076Y207481D01*
X260047Y207530D01*
X260043Y207533D01*
X260040Y207543D01*
X260033Y207559D01*
X260024Y207579D01*
X260011Y207605D01*
X259997Y207635D01*
X259984Y207671D01*
X259968Y207710D01*
X259955Y207756D01*
X259942Y207802D01*
X259915Y207907D01*
X259899Y208022D01*
X259892Y208081D01*
Y208179D01*
X259896Y208206D01*
X259899Y208239D01*
X259902Y208278D01*
X259909Y208320D01*
X259915Y208366D01*
X259938Y208465D01*
X259955Y208517D01*
X259974Y208573D01*
X259997Y208626D01*
X260020Y208678D01*
X260053Y208731D01*
X260086Y208780D01*
X260089Y208783D01*
X260096Y208789D01*
X260106Y208806D01*
X260122Y208822D01*
X260142Y208842D01*
X260165Y208868D01*
X260194Y208894D01*
X260227Y208924D01*
X260263Y208953D01*
X260302Y208983D01*
X260348Y209013D01*
X260394Y209042D01*
X260447Y209072D01*
X260503Y209098D01*
X260565Y209124D01*
X260627Y209144D01*
X260706Y208816D01*
X260703D01*
X260693Y208812D01*
X260680Y208806D01*
X260660Y208799D01*
X260637Y208789D01*
X260611Y208780D01*
X260552Y208750D01*
X260486Y208714D01*
X260420Y208671D01*
X260358Y208619D01*
X260332Y208589D01*
X260306Y208560D01*
Y208557D01*
X260299Y208553D01*
X260293Y208543D01*
X260286Y208530D01*
X260276Y208514D01*
X260266Y208494D01*
X260240Y208445D01*
X260217Y208383D01*
X260197Y208311D01*
X260184Y208229D01*
X260178Y208137D01*
Y208107D01*
X260181Y208088D01*
Y208065D01*
X260184Y208035D01*
X260191Y208002D01*
X260194Y207966D01*
X260211Y207891D01*
X260237Y207809D01*
X260273Y207727D01*
X260293Y207687D01*
X260319Y207648D01*
Y207645D01*
X260325Y207638D01*
X260332Y207628D01*
X260345Y207615D01*
X260375Y207582D01*
X260417Y207543D01*
X260470Y207497D01*
X260535Y207451D01*
X260608Y207409D01*
X260693Y207376D01*
X260696D01*
X260703Y207373D01*
X260716Y207369D01*
X260732Y207363D01*
X260755Y207356D01*
X260781Y207350D01*
X260811Y207343D01*
X260840Y207336D01*
X260916Y207323D01*
X260998Y207310D01*
X261086Y207300D01*
X261178Y207297D01*
X261181D01*
X261191D01*
X261208D01*
X261231D01*
X261260Y207300D01*
X261293Y207304D01*
X261329D01*
X261368Y207310D01*
X261457Y207320D01*
X261549Y207336D01*
X261647Y207359D01*
X261739Y207389D01*
X261742D01*
X261749Y207392D01*
X261762Y207399D01*
X261778Y207409D01*
X261798Y207418D01*
X261821Y207428D01*
X261874Y207461D01*
X261933Y207504D01*
X261992Y207553D01*
X262047Y207612D01*
X262097Y207681D01*
Y207684D01*
X262103Y207691D01*
X262106Y207701D01*
X262116Y207717D01*
X262123Y207733D01*
X262133Y207756D01*
X262156Y207809D01*
X262179Y207874D01*
X262195Y207946D01*
X262208Y208025D01*
X262215Y208111D01*
Y208137D01*
X262211Y208156D01*
X262208Y208183D01*
X262205Y208209D01*
X262201Y208242D01*
X262195Y208275D01*
X262175Y208350D01*
X262146Y208429D01*
X262129Y208471D01*
X262106Y208511D01*
X262084Y208550D01*
X262054Y208586D01*
X262051Y208589D01*
X262047Y208596D01*
X262038Y208606D01*
X262024Y208619D01*
X262008Y208632D01*
X261985Y208652D01*
X261962Y208671D01*
X261933Y208691D01*
X261903Y208714D01*
X261867Y208737D01*
X261828Y208757D01*
X261785Y208780D01*
X261736Y208799D01*
X261687Y208819D01*
X261634Y208835D01*
X261575Y208852D01*
X261660Y209186D01*
X261664D01*
X261677Y209180D01*
D02*
G37*
G36*
X144500Y133478D02*
X143326D01*
X143296Y133481D01*
X143267D01*
X143231Y133484D01*
X143191Y133488D01*
X143109Y133494D01*
X143024Y133507D01*
X142942Y133524D01*
X142903Y133534D01*
X142870Y133547D01*
X142867D01*
X142863Y133550D01*
X142853Y133553D01*
X142840Y133560D01*
X142807Y133576D01*
X142768Y133602D01*
X142722Y133635D01*
X142676Y133678D01*
X142630Y133730D01*
X142588Y133789D01*
Y133793D01*
X142585Y133796D01*
X142578Y133806D01*
X142571Y133819D01*
X142555Y133855D01*
X142535Y133901D01*
X142516Y133957D01*
X142499Y134022D01*
X142486Y134094D01*
X142483Y134170D01*
Y134173D01*
Y134183D01*
Y134196D01*
X142486Y134216D01*
X142489Y134239D01*
X142493Y134265D01*
X142506Y134327D01*
X142525Y134399D01*
X142555Y134475D01*
X142575Y134511D01*
X142598Y134550D01*
X142627Y134586D01*
X142657Y134622D01*
X142660Y134626D01*
X142663Y134629D01*
X142676Y134639D01*
X142690Y134652D01*
X142709Y134665D01*
X142732Y134681D01*
X142758Y134701D01*
X142788Y134721D01*
X142824Y134740D01*
X142863Y134760D01*
X142909Y134780D01*
X142958Y134800D01*
X143011Y134816D01*
X143067Y134832D01*
X143129Y134845D01*
X143195Y134855D01*
X143188Y134859D01*
X143172Y134865D01*
X143149Y134878D01*
X143119Y134895D01*
X143053Y134937D01*
X143024Y134960D01*
X142994Y134983D01*
X142991D01*
X142988Y134990D01*
X142968Y135006D01*
X142942Y135036D01*
X142903Y135075D01*
X142860Y135121D01*
X142814Y135180D01*
X142765Y135246D01*
X142716Y135318D01*
X142280Y136000D01*
X142699D01*
X143031Y135478D01*
Y135475D01*
X143037Y135469D01*
X143044Y135456D01*
X143053Y135442D01*
X143067Y135423D01*
X143083Y135400D01*
X143116Y135351D01*
X143155Y135295D01*
X143195Y135239D01*
X143234Y135183D01*
X143273Y135134D01*
X143277Y135127D01*
X143290Y135114D01*
X143306Y135091D01*
X143329Y135069D01*
X143355Y135039D01*
X143385Y135010D01*
X143414Y134986D01*
X143444Y134964D01*
X143447Y134960D01*
X143457Y134957D01*
X143470Y134947D01*
X143490Y134937D01*
X143513Y134924D01*
X143539Y134914D01*
X143595Y134895D01*
X143598D01*
X143605Y134891D01*
X143618D01*
X143637Y134888D01*
X143664Y134885D01*
X143696D01*
X143733Y134881D01*
X144166D01*
Y136000D01*
X144500D01*
Y133478D01*
D02*
G37*
G36*
X142129Y135994D02*
Y135980D01*
Y135961D01*
X142125Y135931D01*
X142122Y135898D01*
X142115Y135862D01*
X142106Y135826D01*
X142093Y135787D01*
Y135784D01*
X142089Y135780D01*
X142086Y135770D01*
X142079Y135757D01*
X142066Y135724D01*
X142043Y135682D01*
X142014Y135629D01*
X141981Y135574D01*
X141938Y135515D01*
X141889Y135452D01*
X141886Y135449D01*
X141883Y135446D01*
X141873Y135436D01*
X141863Y135423D01*
X141830Y135387D01*
X141784Y135341D01*
X141728Y135285D01*
X141659Y135219D01*
X141577Y135147D01*
X141482Y135069D01*
X141479Y135065D01*
X141466Y135052D01*
X141443Y135036D01*
X141417Y135013D01*
X141384Y134983D01*
X141345Y134950D01*
X141302Y134914D01*
X141259Y134875D01*
X141168Y134790D01*
X141076Y134701D01*
X141033Y134655D01*
X140994Y134613D01*
X140958Y134573D01*
X140928Y134534D01*
X140925Y134531D01*
X140922Y134524D01*
X140915Y134514D01*
X140905Y134501D01*
X140895Y134481D01*
X140882Y134462D01*
X140853Y134413D01*
X140826Y134357D01*
X140804Y134294D01*
X140787Y134225D01*
X140780Y134193D01*
Y134160D01*
Y134157D01*
Y134150D01*
Y134144D01*
X140784Y134130D01*
X140787Y134094D01*
X140797Y134052D01*
X140813Y134002D01*
X140836Y133953D01*
X140869Y133901D01*
X140915Y133852D01*
X140922Y133845D01*
X140938Y133832D01*
X140968Y133812D01*
X141007Y133786D01*
X141056Y133763D01*
X141115Y133743D01*
X141184Y133730D01*
X141259Y133724D01*
X141282D01*
X141296Y133727D01*
X141315D01*
X141338Y133730D01*
X141387Y133740D01*
X141443Y133756D01*
X141505Y133780D01*
X141564Y133812D01*
X141617Y133858D01*
X141623Y133865D01*
X141637Y133881D01*
X141659Y133914D01*
X141683Y133953D01*
X141709Y134009D01*
X141732Y134071D01*
X141745Y134144D01*
X141751Y134229D01*
X142070Y134196D01*
Y134193D01*
X142066Y134180D01*
Y134163D01*
X142063Y134137D01*
X142056Y134107D01*
X142050Y134075D01*
X142040Y134035D01*
X142027Y133996D01*
X141997Y133907D01*
X141978Y133861D01*
X141955Y133819D01*
X141929Y133773D01*
X141899Y133730D01*
X141866Y133691D01*
X141827Y133655D01*
X141824Y133651D01*
X141817Y133648D01*
X141804Y133638D01*
X141788Y133625D01*
X141764Y133612D01*
X141738Y133596D01*
X141709Y133579D01*
X141673Y133560D01*
X141633Y133543D01*
X141591Y133527D01*
X141545Y133510D01*
X141492Y133497D01*
X141440Y133484D01*
X141381Y133474D01*
X141318Y133471D01*
X141253Y133468D01*
X141217D01*
X141194Y133471D01*
X141161Y133474D01*
X141125Y133478D01*
X141086Y133484D01*
X141043Y133494D01*
X140951Y133517D01*
X140905Y133534D01*
X140856Y133553D01*
X140807Y133576D01*
X140761Y133606D01*
X140718Y133635D01*
X140675Y133671D01*
X140672Y133675D01*
X140666Y133681D01*
X140656Y133691D01*
X140643Y133707D01*
X140626Y133727D01*
X140607Y133750D01*
X140590Y133776D01*
X140567Y133809D01*
X140548Y133842D01*
X140531Y133881D01*
X140495Y133966D01*
X140482Y134012D01*
X140472Y134062D01*
X140466Y134114D01*
X140462Y134170D01*
Y134176D01*
Y134196D01*
X140466Y134225D01*
X140469Y134265D01*
X140479Y134308D01*
X140489Y134360D01*
X140505Y134413D01*
X140525Y134468D01*
X140528Y134475D01*
X140538Y134494D01*
X140551Y134524D01*
X140574Y134560D01*
X140603Y134606D01*
X140639Y134659D01*
X140682Y134718D01*
X140731Y134777D01*
Y134780D01*
X140738Y134783D01*
X140748Y134793D01*
X140758Y134806D01*
X140774Y134822D01*
X140794Y134842D01*
X140817Y134865D01*
X140846Y134891D01*
X140876Y134921D01*
X140912Y134954D01*
X140951Y134993D01*
X140994Y135032D01*
X141043Y135075D01*
X141092Y135118D01*
X141151Y135167D01*
X141210Y135219D01*
X141214Y135223D01*
X141223Y135229D01*
X141236Y135242D01*
X141256Y135256D01*
X141276Y135275D01*
X141302Y135298D01*
X141358Y135347D01*
X141420Y135400D01*
X141479Y135452D01*
X141505Y135475D01*
X141528Y135498D01*
X141551Y135521D01*
X141568Y135538D01*
X141571Y135541D01*
X141581Y135551D01*
X141594Y135567D01*
X141614Y135590D01*
X141633Y135613D01*
X141656Y135643D01*
X141699Y135702D01*
X140459D01*
Y136000D01*
X142129D01*
Y135994D01*
D02*
G37*
G36*
X144500Y163978D02*
X143326D01*
X143296Y163981D01*
X143267D01*
X143231Y163984D01*
X143191Y163988D01*
X143109Y163994D01*
X143024Y164007D01*
X142942Y164024D01*
X142903Y164033D01*
X142870Y164047D01*
X142867D01*
X142863Y164050D01*
X142853Y164053D01*
X142840Y164060D01*
X142807Y164076D01*
X142768Y164102D01*
X142722Y164135D01*
X142676Y164178D01*
X142630Y164230D01*
X142588Y164289D01*
Y164293D01*
X142585Y164296D01*
X142578Y164306D01*
X142571Y164319D01*
X142555Y164355D01*
X142535Y164401D01*
X142516Y164457D01*
X142499Y164522D01*
X142486Y164594D01*
X142483Y164670D01*
Y164673D01*
Y164683D01*
Y164696D01*
X142486Y164716D01*
X142489Y164739D01*
X142493Y164765D01*
X142506Y164827D01*
X142525Y164899D01*
X142555Y164975D01*
X142575Y165011D01*
X142598Y165050D01*
X142627Y165086D01*
X142657Y165122D01*
X142660Y165126D01*
X142663Y165129D01*
X142676Y165139D01*
X142690Y165152D01*
X142709Y165165D01*
X142732Y165182D01*
X142758Y165201D01*
X142788Y165221D01*
X142824Y165241D01*
X142863Y165260D01*
X142909Y165280D01*
X142958Y165299D01*
X143011Y165316D01*
X143067Y165332D01*
X143129Y165346D01*
X143195Y165355D01*
X143188Y165359D01*
X143172Y165365D01*
X143149Y165378D01*
X143119Y165395D01*
X143053Y165437D01*
X143024Y165460D01*
X142994Y165483D01*
X142991D01*
X142988Y165490D01*
X142968Y165506D01*
X142942Y165536D01*
X142903Y165575D01*
X142860Y165621D01*
X142814Y165680D01*
X142765Y165746D01*
X142716Y165818D01*
X142280Y166500D01*
X142699D01*
X143031Y165979D01*
Y165975D01*
X143037Y165969D01*
X143044Y165955D01*
X143053Y165942D01*
X143067Y165923D01*
X143083Y165900D01*
X143116Y165851D01*
X143155Y165795D01*
X143195Y165739D01*
X143234Y165683D01*
X143273Y165634D01*
X143277Y165628D01*
X143290Y165614D01*
X143306Y165592D01*
X143329Y165568D01*
X143355Y165539D01*
X143385Y165509D01*
X143414Y165487D01*
X143444Y165464D01*
X143447Y165460D01*
X143457Y165457D01*
X143470Y165447D01*
X143490Y165437D01*
X143513Y165424D01*
X143539Y165414D01*
X143595Y165395D01*
X143598D01*
X143605Y165391D01*
X143618D01*
X143637Y165388D01*
X143664Y165385D01*
X143696D01*
X143733Y165382D01*
X144166D01*
Y166500D01*
X144500D01*
Y163978D01*
D02*
G37*
G36*
X141227Y164529D02*
X141233Y164532D01*
X141246Y164545D01*
X141272Y164568D01*
X141305Y164594D01*
X141348Y164627D01*
X141400Y164663D01*
X141456Y164703D01*
X141522Y164742D01*
X141525D01*
X141528Y164745D01*
X141538Y164752D01*
X141551Y164758D01*
X141587Y164778D01*
X141630Y164801D01*
X141679Y164827D01*
X141735Y164854D01*
X141791Y164880D01*
X141847Y164903D01*
Y164601D01*
X141843D01*
X141833Y164594D01*
X141820Y164588D01*
X141804Y164578D01*
X141781Y164568D01*
X141755Y164552D01*
X141692Y164519D01*
X141623Y164476D01*
X141545Y164424D01*
X141469Y164368D01*
X141394Y164306D01*
X141391Y164302D01*
X141384Y164299D01*
X141374Y164289D01*
X141361Y164276D01*
X141328Y164243D01*
X141286Y164198D01*
X141243Y164148D01*
X141197Y164089D01*
X141154Y164030D01*
X141118Y163968D01*
X140918D01*
Y166500D01*
X141227D01*
Y164529D01*
D02*
G37*
G36*
X145043Y221997D02*
X145080D01*
X145119Y221993D01*
X145161Y221987D01*
X145211Y221980D01*
X145263Y221974D01*
X145319Y221964D01*
X145434Y221938D01*
X145548Y221902D01*
X145607Y221879D01*
X145663Y221852D01*
X145667Y221849D01*
X145676Y221846D01*
X145693Y221836D01*
X145712Y221823D01*
X145736Y221810D01*
X145765Y221790D01*
X145794Y221767D01*
X145831Y221741D01*
X145903Y221682D01*
X145975Y221606D01*
X146047Y221521D01*
X146080Y221472D01*
X146109Y221423D01*
X146113Y221420D01*
X146116Y221410D01*
X146123Y221393D01*
X146132Y221374D01*
X146145Y221347D01*
X146159Y221318D01*
X146172Y221282D01*
X146188Y221242D01*
X146201Y221196D01*
X146214Y221150D01*
X146241Y221046D01*
X146257Y220931D01*
X146264Y220872D01*
Y220773D01*
X146260Y220747D01*
X146257Y220714D01*
X146254Y220675D01*
X146247Y220632D01*
X146241Y220586D01*
X146218Y220488D01*
X146201Y220436D01*
X146181Y220380D01*
X146159Y220327D01*
X146136Y220275D01*
X146103Y220222D01*
X146070Y220173D01*
X146067Y220170D01*
X146060Y220163D01*
X146050Y220147D01*
X146034Y220130D01*
X146014Y220111D01*
X145991Y220085D01*
X145962Y220058D01*
X145929Y220029D01*
X145893Y219999D01*
X145853Y219970D01*
X145808Y219940D01*
X145762Y219911D01*
X145709Y219881D01*
X145653Y219855D01*
X145591Y219829D01*
X145529Y219809D01*
X145450Y220137D01*
X145453D01*
X145463Y220140D01*
X145476Y220147D01*
X145496Y220153D01*
X145519Y220163D01*
X145545Y220173D01*
X145604Y220203D01*
X145670Y220239D01*
X145736Y220281D01*
X145798Y220334D01*
X145824Y220363D01*
X145850Y220393D01*
Y220396D01*
X145857Y220399D01*
X145863Y220409D01*
X145870Y220422D01*
X145880Y220439D01*
X145890Y220458D01*
X145916Y220508D01*
X145939Y220570D01*
X145958Y220642D01*
X145972Y220724D01*
X145978Y220816D01*
Y220846D01*
X145975Y220865D01*
Y220888D01*
X145972Y220918D01*
X145965Y220950D01*
X145962Y220987D01*
X145945Y221062D01*
X145919Y221144D01*
X145883Y221226D01*
X145863Y221265D01*
X145837Y221305D01*
Y221308D01*
X145831Y221315D01*
X145824Y221324D01*
X145811Y221338D01*
X145781Y221370D01*
X145739Y221410D01*
X145686Y221456D01*
X145621Y221501D01*
X145548Y221544D01*
X145463Y221577D01*
X145460D01*
X145453Y221580D01*
X145440Y221584D01*
X145424Y221590D01*
X145401Y221597D01*
X145375Y221603D01*
X145345Y221610D01*
X145316Y221616D01*
X145240Y221629D01*
X145158Y221642D01*
X145070Y221652D01*
X144978Y221656D01*
X144975D01*
X144965D01*
X144948D01*
X144925D01*
X144896Y221652D01*
X144863Y221649D01*
X144827D01*
X144788Y221642D01*
X144699Y221633D01*
X144607Y221616D01*
X144509Y221593D01*
X144417Y221564D01*
X144414D01*
X144407Y221561D01*
X144394Y221554D01*
X144378Y221544D01*
X144358Y221534D01*
X144335Y221524D01*
X144282Y221492D01*
X144223Y221449D01*
X144164Y221400D01*
X144109Y221341D01*
X144059Y221272D01*
Y221269D01*
X144053Y221262D01*
X144050Y221252D01*
X144040Y221236D01*
X144033Y221219D01*
X144023Y221196D01*
X144000Y221144D01*
X143977Y221078D01*
X143961Y221006D01*
X143948Y220928D01*
X143941Y220842D01*
Y220816D01*
X143945Y220796D01*
X143948Y220770D01*
X143951Y220744D01*
X143954Y220711D01*
X143961Y220678D01*
X143981Y220603D01*
X144010Y220524D01*
X144027Y220481D01*
X144050Y220442D01*
X144072Y220403D01*
X144102Y220367D01*
X144105Y220363D01*
X144109Y220357D01*
X144118Y220347D01*
X144132Y220334D01*
X144148Y220321D01*
X144171Y220301D01*
X144194Y220281D01*
X144223Y220262D01*
X144253Y220239D01*
X144289Y220216D01*
X144328Y220196D01*
X144371Y220173D01*
X144420Y220153D01*
X144469Y220134D01*
X144522Y220117D01*
X144581Y220101D01*
X144496Y219766D01*
X144492D01*
X144479Y219773D01*
X144456Y219779D01*
X144427Y219786D01*
X144394Y219799D01*
X144355Y219815D01*
X144312Y219832D01*
X144263Y219855D01*
X144214Y219878D01*
X144161Y219907D01*
X144112Y219937D01*
X144059Y219973D01*
X144007Y220009D01*
X143958Y220052D01*
X143912Y220098D01*
X143869Y220147D01*
X143866Y220150D01*
X143859Y220160D01*
X143850Y220173D01*
X143836Y220196D01*
X143820Y220222D01*
X143800Y220255D01*
X143784Y220291D01*
X143764Y220331D01*
X143741Y220380D01*
X143725Y220429D01*
X143705Y220485D01*
X143689Y220544D01*
X143676Y220606D01*
X143666Y220672D01*
X143659Y220741D01*
X143656Y220813D01*
Y220852D01*
X143659Y220882D01*
X143663Y220914D01*
X143666Y220957D01*
X143669Y221000D01*
X143676Y221049D01*
X143695Y221154D01*
X143725Y221265D01*
X143745Y221321D01*
X143767Y221377D01*
X143790Y221429D01*
X143820Y221479D01*
X143823Y221482D01*
X143826Y221488D01*
X143836Y221501D01*
X143853Y221521D01*
X143869Y221541D01*
X143889Y221567D01*
X143915Y221593D01*
X143945Y221623D01*
X143974Y221656D01*
X144010Y221685D01*
X144050Y221718D01*
X144096Y221751D01*
X144141Y221784D01*
X144191Y221813D01*
X144246Y221843D01*
X144302Y221869D01*
X144305D01*
X144315Y221875D01*
X144335Y221882D01*
X144358Y221888D01*
X144387Y221898D01*
X144420Y221912D01*
X144459Y221921D01*
X144506Y221934D01*
X144555Y221948D01*
X144607Y221957D01*
X144663Y221971D01*
X144719Y221980D01*
X144847Y221993D01*
X144978Y222000D01*
X144981D01*
X144994D01*
X145017D01*
X145043Y221997D01*
D02*
G37*
G36*
X145526Y219114D02*
X145286D01*
X145293Y219110D01*
X145309Y219097D01*
X145332Y219074D01*
X145365Y219048D01*
X145398Y219015D01*
X145430Y218979D01*
X145463Y218936D01*
X145493Y218891D01*
X145496Y218884D01*
X145503Y218868D01*
X145516Y218841D01*
X145529Y218805D01*
X145542Y218759D01*
X145555Y218707D01*
X145562Y218648D01*
X145565Y218586D01*
Y218563D01*
X145562Y218546D01*
Y218527D01*
X145558Y218500D01*
X145548Y218444D01*
X145535Y218382D01*
X145512Y218310D01*
X145483Y218241D01*
X145444Y218172D01*
Y218169D01*
X145437Y218166D01*
X145430Y218156D01*
X145421Y218143D01*
X145394Y218110D01*
X145355Y218071D01*
X145306Y218028D01*
X145250Y217982D01*
X145181Y217939D01*
X145102Y217900D01*
X145099D01*
X145093Y217897D01*
X145080Y217890D01*
X145063Y217887D01*
X145043Y217877D01*
X145020Y217870D01*
X144991Y217864D01*
X144961Y217854D01*
X144889Y217838D01*
X144810Y217821D01*
X144719Y217811D01*
X144624Y217808D01*
X144620D01*
X144610D01*
X144597D01*
X144578D01*
X144551Y217811D01*
X144522Y217815D01*
X144492Y217818D01*
X144456Y217821D01*
X144378Y217834D01*
X144292Y217851D01*
X144204Y217877D01*
X144118Y217910D01*
X144115D01*
X144109Y217913D01*
X144099Y217920D01*
X144082Y217930D01*
X144063Y217939D01*
X144043Y217952D01*
X143994Y217985D01*
X143938Y218028D01*
X143879Y218077D01*
X143826Y218136D01*
X143777Y218205D01*
Y218208D01*
X143771Y218215D01*
X143767Y218225D01*
X143758Y218238D01*
X143751Y218254D01*
X143741Y218277D01*
X143718Y218326D01*
X143695Y218386D01*
X143679Y218454D01*
X143666Y218530D01*
X143659Y218608D01*
Y218635D01*
X143663Y218664D01*
X143669Y218700D01*
X143676Y218743D01*
X143685Y218792D01*
X143702Y218838D01*
X143725Y218887D01*
X143728Y218894D01*
X143738Y218907D01*
X143751Y218930D01*
X143771Y218956D01*
X143794Y218989D01*
X143823Y219022D01*
X143853Y219055D01*
X143889Y219087D01*
X143000D01*
Y219396D01*
X145526D01*
Y219114D01*
D02*
G37*
G36*
X143767Y217565D02*
X143800Y217562D01*
X143836Y217556D01*
X143872Y217546D01*
X143912Y217533D01*
X143915D01*
X143918Y217529D01*
X143928Y217526D01*
X143941Y217519D01*
X143974Y217506D01*
X144017Y217483D01*
X144069Y217454D01*
X144125Y217421D01*
X144184Y217378D01*
X144246Y217329D01*
X144250Y217326D01*
X144253Y217323D01*
X144263Y217313D01*
X144276Y217303D01*
X144312Y217270D01*
X144358Y217224D01*
X144414Y217169D01*
X144479Y217100D01*
X144551Y217018D01*
X144630Y216923D01*
X144633Y216919D01*
X144647Y216906D01*
X144663Y216883D01*
X144686Y216857D01*
X144715Y216824D01*
X144748Y216785D01*
X144784Y216742D01*
X144824Y216700D01*
X144909Y216608D01*
X144998Y216516D01*
X145043Y216473D01*
X145086Y216434D01*
X145125Y216398D01*
X145165Y216368D01*
X145168Y216365D01*
X145175Y216362D01*
X145184Y216355D01*
X145198Y216345D01*
X145217Y216336D01*
X145237Y216322D01*
X145286Y216293D01*
X145342Y216267D01*
X145404Y216244D01*
X145473Y216227D01*
X145506Y216221D01*
X145539D01*
X145542D01*
X145548D01*
X145555D01*
X145568Y216224D01*
X145604Y216227D01*
X145647Y216237D01*
X145696Y216253D01*
X145745Y216276D01*
X145798Y216309D01*
X145847Y216355D01*
X145853Y216362D01*
X145867Y216378D01*
X145886Y216408D01*
X145913Y216447D01*
X145935Y216496D01*
X145955Y216555D01*
X145968Y216624D01*
X145975Y216700D01*
Y216722D01*
X145972Y216736D01*
Y216755D01*
X145968Y216778D01*
X145958Y216828D01*
X145942Y216883D01*
X145919Y216946D01*
X145886Y217005D01*
X145840Y217057D01*
X145834Y217064D01*
X145817Y217077D01*
X145785Y217100D01*
X145745Y217123D01*
X145690Y217149D01*
X145627Y217172D01*
X145555Y217185D01*
X145470Y217192D01*
X145503Y217510D01*
X145506D01*
X145519Y217506D01*
X145535D01*
X145562Y217503D01*
X145591Y217497D01*
X145624Y217490D01*
X145663Y217480D01*
X145703Y217467D01*
X145791Y217438D01*
X145837Y217418D01*
X145880Y217395D01*
X145926Y217369D01*
X145968Y217339D01*
X146008Y217306D01*
X146044Y217267D01*
X146047Y217264D01*
X146050Y217257D01*
X146060Y217244D01*
X146073Y217228D01*
X146086Y217205D01*
X146103Y217178D01*
X146119Y217149D01*
X146139Y217113D01*
X146155Y217073D01*
X146172Y217031D01*
X146188Y216985D01*
X146201Y216932D01*
X146214Y216880D01*
X146224Y216821D01*
X146228Y216759D01*
X146231Y216693D01*
Y216657D01*
X146228Y216634D01*
X146224Y216601D01*
X146221Y216565D01*
X146214Y216526D01*
X146204Y216483D01*
X146181Y216391D01*
X146165Y216345D01*
X146145Y216296D01*
X146123Y216247D01*
X146093Y216201D01*
X146063Y216158D01*
X146027Y216116D01*
X146024Y216112D01*
X146018Y216106D01*
X146008Y216096D01*
X145991Y216083D01*
X145972Y216067D01*
X145949Y216047D01*
X145922Y216030D01*
X145890Y216007D01*
X145857Y215988D01*
X145817Y215971D01*
X145732Y215935D01*
X145686Y215922D01*
X145637Y215912D01*
X145585Y215906D01*
X145529Y215902D01*
X145522D01*
X145503D01*
X145473Y215906D01*
X145434Y215909D01*
X145391Y215919D01*
X145339Y215929D01*
X145286Y215945D01*
X145230Y215965D01*
X145224Y215968D01*
X145204Y215978D01*
X145175Y215991D01*
X145139Y216014D01*
X145093Y216044D01*
X145040Y216080D01*
X144981Y216122D01*
X144922Y216172D01*
X144919D01*
X144915Y216178D01*
X144906Y216188D01*
X144893Y216198D01*
X144876Y216214D01*
X144856Y216234D01*
X144834Y216257D01*
X144807Y216286D01*
X144778Y216316D01*
X144745Y216352D01*
X144705Y216391D01*
X144666Y216434D01*
X144624Y216483D01*
X144581Y216532D01*
X144532Y216591D01*
X144479Y216650D01*
X144476Y216654D01*
X144469Y216664D01*
X144456Y216677D01*
X144443Y216696D01*
X144423Y216716D01*
X144401Y216742D01*
X144351Y216798D01*
X144299Y216860D01*
X144246Y216919D01*
X144223Y216946D01*
X144200Y216968D01*
X144177Y216991D01*
X144161Y217008D01*
X144158Y217011D01*
X144148Y217021D01*
X144132Y217034D01*
X144109Y217054D01*
X144086Y217073D01*
X144056Y217096D01*
X143997Y217139D01*
Y215899D01*
X143699D01*
Y217569D01*
X143705D01*
X143718D01*
X143738D01*
X143767Y217565D01*
D02*
G37*
G36*
X144768Y214650D02*
X144456D01*
Y215601D01*
X144768D01*
Y214650D01*
D02*
G37*
G36*
X263887Y100497D02*
X263924D01*
X263963Y100494D01*
X264005Y100487D01*
X264055Y100480D01*
X264107Y100474D01*
X264163Y100464D01*
X264278Y100438D01*
X264392Y100402D01*
X264452Y100379D01*
X264507Y100352D01*
X264511Y100349D01*
X264520Y100346D01*
X264537Y100336D01*
X264557Y100323D01*
X264580Y100310D01*
X264609Y100290D01*
X264638Y100267D01*
X264675Y100241D01*
X264747Y100182D01*
X264819Y100106D01*
X264891Y100021D01*
X264924Y99972D01*
X264953Y99923D01*
X264957Y99919D01*
X264960Y99910D01*
X264967Y99893D01*
X264976Y99874D01*
X264989Y99847D01*
X265003Y99818D01*
X265016Y99782D01*
X265032Y99742D01*
X265045Y99696D01*
X265058Y99651D01*
X265085Y99546D01*
X265101Y99431D01*
X265107Y99372D01*
Y99273D01*
X265104Y99247D01*
X265101Y99214D01*
X265098Y99175D01*
X265091Y99132D01*
X265085Y99086D01*
X265062Y98988D01*
X265045Y98936D01*
X265026Y98880D01*
X265003Y98827D01*
X264980Y98775D01*
X264947Y98722D01*
X264914Y98673D01*
X264911Y98670D01*
X264904Y98663D01*
X264894Y98647D01*
X264878Y98630D01*
X264858Y98611D01*
X264835Y98585D01*
X264806Y98558D01*
X264773Y98529D01*
X264737Y98499D01*
X264698Y98470D01*
X264652Y98440D01*
X264606Y98411D01*
X264553Y98381D01*
X264497Y98355D01*
X264435Y98329D01*
X264373Y98309D01*
X264294Y98637D01*
X264297D01*
X264307Y98640D01*
X264320Y98647D01*
X264340Y98653D01*
X264363Y98663D01*
X264389Y98673D01*
X264448Y98703D01*
X264514Y98739D01*
X264580Y98781D01*
X264642Y98834D01*
X264668Y98863D01*
X264694Y98893D01*
Y98896D01*
X264701Y98899D01*
X264707Y98909D01*
X264714Y98922D01*
X264724Y98939D01*
X264734Y98958D01*
X264760Y99008D01*
X264783Y99070D01*
X264803Y99142D01*
X264816Y99224D01*
X264822Y99316D01*
Y99345D01*
X264819Y99365D01*
Y99388D01*
X264816Y99418D01*
X264809Y99450D01*
X264806Y99487D01*
X264789Y99562D01*
X264763Y99644D01*
X264727Y99726D01*
X264707Y99765D01*
X264681Y99805D01*
Y99808D01*
X264675Y99814D01*
X264668Y99824D01*
X264655Y99837D01*
X264625Y99870D01*
X264583Y99910D01*
X264530Y99956D01*
X264465Y100002D01*
X264392Y100044D01*
X264307Y100077D01*
X264304D01*
X264297Y100080D01*
X264284Y100083D01*
X264268Y100090D01*
X264245Y100097D01*
X264219Y100103D01*
X264189Y100110D01*
X264160Y100116D01*
X264084Y100129D01*
X264002Y100143D01*
X263914Y100152D01*
X263822Y100156D01*
X263819D01*
X263809D01*
X263792D01*
X263769D01*
X263740Y100152D01*
X263707Y100149D01*
X263671D01*
X263632Y100143D01*
X263543Y100133D01*
X263451Y100116D01*
X263353Y100093D01*
X263261Y100064D01*
X263258D01*
X263251Y100060D01*
X263238Y100054D01*
X263222Y100044D01*
X263202Y100034D01*
X263179Y100024D01*
X263126Y99992D01*
X263067Y99949D01*
X263008Y99900D01*
X262953Y99841D01*
X262903Y99772D01*
Y99769D01*
X262897Y99762D01*
X262894Y99752D01*
X262884Y99736D01*
X262877Y99719D01*
X262867Y99696D01*
X262844Y99644D01*
X262821Y99578D01*
X262805Y99506D01*
X262792Y99427D01*
X262785Y99342D01*
Y99316D01*
X262789Y99296D01*
X262792Y99270D01*
X262795Y99244D01*
X262798Y99211D01*
X262805Y99178D01*
X262825Y99103D01*
X262854Y99024D01*
X262871Y98981D01*
X262894Y98942D01*
X262916Y98903D01*
X262946Y98867D01*
X262949Y98863D01*
X262953Y98857D01*
X262962Y98847D01*
X262976Y98834D01*
X262992Y98821D01*
X263015Y98801D01*
X263038Y98781D01*
X263067Y98762D01*
X263097Y98739D01*
X263133Y98716D01*
X263172Y98696D01*
X263215Y98673D01*
X263264Y98653D01*
X263313Y98634D01*
X263366Y98617D01*
X263425Y98601D01*
X263340Y98266D01*
X263336D01*
X263323Y98273D01*
X263300Y98280D01*
X263271Y98286D01*
X263238Y98299D01*
X263199Y98316D01*
X263156Y98332D01*
X263107Y98355D01*
X263057Y98378D01*
X263005Y98407D01*
X262956Y98437D01*
X262903Y98473D01*
X262851Y98509D01*
X262802Y98552D01*
X262756Y98598D01*
X262713Y98647D01*
X262710Y98650D01*
X262703Y98660D01*
X262694Y98673D01*
X262680Y98696D01*
X262664Y98722D01*
X262644Y98755D01*
X262628Y98791D01*
X262608Y98830D01*
X262585Y98880D01*
X262569Y98929D01*
X262549Y98985D01*
X262533Y99044D01*
X262520Y99106D01*
X262510Y99172D01*
X262503Y99240D01*
X262500Y99313D01*
Y99352D01*
X262503Y99382D01*
X262507Y99414D01*
X262510Y99457D01*
X262513Y99500D01*
X262520Y99549D01*
X262539Y99654D01*
X262569Y99765D01*
X262589Y99821D01*
X262612Y99877D01*
X262634Y99929D01*
X262664Y99979D01*
X262667Y99982D01*
X262670Y99988D01*
X262680Y100002D01*
X262697Y100021D01*
X262713Y100041D01*
X262733Y100067D01*
X262759Y100093D01*
X262789Y100123D01*
X262818Y100156D01*
X262854Y100185D01*
X262894Y100218D01*
X262940Y100251D01*
X262985Y100284D01*
X263035Y100313D01*
X263090Y100343D01*
X263146Y100369D01*
X263149D01*
X263159Y100375D01*
X263179Y100382D01*
X263202Y100389D01*
X263231Y100398D01*
X263264Y100411D01*
X263303Y100421D01*
X263350Y100434D01*
X263399Y100448D01*
X263451Y100457D01*
X263507Y100470D01*
X263563Y100480D01*
X263691Y100494D01*
X263822Y100500D01*
X263825D01*
X263838D01*
X263861D01*
X263887Y100497D01*
D02*
G37*
G36*
X265065Y96935D02*
Y96682D01*
X263432D01*
Y96341D01*
X263146D01*
Y96682D01*
X262543D01*
Y96990D01*
X263146D01*
Y98086D01*
X263432D01*
X265065Y96935D01*
D02*
G37*
G36*
Y94918D02*
X265062Y94894D01*
Y94865D01*
X265055Y94799D01*
X265045Y94727D01*
X265032Y94648D01*
X265012Y94573D01*
X264986Y94504D01*
Y94501D01*
X264983Y94498D01*
X264980Y94488D01*
X264973Y94475D01*
X264953Y94445D01*
X264927Y94406D01*
X264894Y94360D01*
X264855Y94317D01*
X264806Y94271D01*
X264750Y94232D01*
X264747D01*
X264743Y94229D01*
X264724Y94216D01*
X264691Y94199D01*
X264648Y94179D01*
X264599Y94163D01*
X264543Y94147D01*
X264484Y94134D01*
X264419Y94130D01*
X264416D01*
X264412D01*
X264402D01*
X264392D01*
X264360Y94134D01*
X264320Y94140D01*
X264271Y94153D01*
X264219Y94166D01*
X264166Y94189D01*
X264110Y94219D01*
X264104Y94222D01*
X264088Y94235D01*
X264061Y94255D01*
X264028Y94284D01*
X263992Y94324D01*
X263956Y94370D01*
X263917Y94422D01*
X263884Y94485D01*
Y94481D01*
X263881Y94475D01*
X263878Y94462D01*
X263871Y94445D01*
X263864Y94429D01*
X263855Y94406D01*
X263828Y94353D01*
X263796Y94298D01*
X263756Y94239D01*
X263707Y94183D01*
X263651Y94134D01*
X263648D01*
X263645Y94127D01*
X263635Y94120D01*
X263622Y94114D01*
X263589Y94094D01*
X263543Y94071D01*
X263487Y94048D01*
X263422Y94029D01*
X263350Y94016D01*
X263271Y94009D01*
X263267D01*
X263264D01*
X263254D01*
X263241D01*
X263208Y94012D01*
X263162Y94019D01*
X263113Y94029D01*
X263057Y94042D01*
X263002Y94058D01*
X262943Y94084D01*
X262936Y94088D01*
X262916Y94098D01*
X262890Y94114D01*
X262858Y94137D01*
X262818Y94163D01*
X262779Y94196D01*
X262743Y94232D01*
X262707Y94271D01*
X262703Y94275D01*
X262694Y94291D01*
X262677Y94314D01*
X262661Y94347D01*
X262641Y94386D01*
X262618Y94432D01*
X262598Y94488D01*
X262582Y94547D01*
Y94553D01*
X262579Y94563D01*
X262575Y94576D01*
X262572Y94593D01*
X262569Y94612D01*
X262562Y94658D01*
X262556Y94717D01*
X262549Y94786D01*
X262546Y94865D01*
X262543Y94954D01*
Y95911D01*
X265065D01*
Y94918D01*
D02*
G37*
G36*
X233887Y170997D02*
X233924D01*
X233963Y170993D01*
X234005Y170987D01*
X234055Y170980D01*
X234107Y170974D01*
X234163Y170964D01*
X234278Y170938D01*
X234392Y170902D01*
X234452Y170879D01*
X234507Y170852D01*
X234511Y170849D01*
X234520Y170846D01*
X234537Y170836D01*
X234557Y170823D01*
X234579Y170810D01*
X234609Y170790D01*
X234639Y170767D01*
X234675Y170741D01*
X234747Y170682D01*
X234819Y170606D01*
X234891Y170521D01*
X234924Y170472D01*
X234953Y170423D01*
X234957Y170420D01*
X234960Y170410D01*
X234966Y170393D01*
X234976Y170374D01*
X234990Y170347D01*
X235003Y170318D01*
X235016Y170282D01*
X235032Y170242D01*
X235045Y170196D01*
X235058Y170150D01*
X235085Y170046D01*
X235101Y169931D01*
X235107Y169872D01*
Y169773D01*
X235104Y169747D01*
X235101Y169714D01*
X235098Y169675D01*
X235091Y169632D01*
X235085Y169586D01*
X235062Y169488D01*
X235045Y169436D01*
X235026Y169380D01*
X235003Y169327D01*
X234980Y169275D01*
X234947Y169222D01*
X234914Y169173D01*
X234911Y169170D01*
X234904Y169163D01*
X234894Y169147D01*
X234878Y169130D01*
X234858Y169111D01*
X234835Y169085D01*
X234806Y169058D01*
X234773Y169029D01*
X234737Y168999D01*
X234698Y168970D01*
X234652Y168940D01*
X234606Y168911D01*
X234553Y168881D01*
X234497Y168855D01*
X234435Y168829D01*
X234373Y168809D01*
X234294Y169137D01*
X234297D01*
X234307Y169140D01*
X234320Y169147D01*
X234340Y169153D01*
X234363Y169163D01*
X234389Y169173D01*
X234448Y169203D01*
X234514Y169239D01*
X234579Y169281D01*
X234642Y169334D01*
X234668Y169363D01*
X234694Y169393D01*
Y169396D01*
X234701Y169399D01*
X234707Y169409D01*
X234714Y169422D01*
X234724Y169439D01*
X234734Y169458D01*
X234760Y169508D01*
X234783Y169570D01*
X234803Y169642D01*
X234816Y169724D01*
X234822Y169816D01*
Y169845D01*
X234819Y169865D01*
Y169888D01*
X234816Y169918D01*
X234809Y169950D01*
X234806Y169986D01*
X234789Y170062D01*
X234763Y170144D01*
X234727Y170226D01*
X234707Y170265D01*
X234681Y170305D01*
Y170308D01*
X234675Y170315D01*
X234668Y170324D01*
X234655Y170337D01*
X234625Y170370D01*
X234583Y170410D01*
X234530Y170456D01*
X234465Y170501D01*
X234392Y170544D01*
X234307Y170577D01*
X234304D01*
X234297Y170580D01*
X234284Y170583D01*
X234268Y170590D01*
X234245Y170597D01*
X234219Y170603D01*
X234189Y170610D01*
X234160Y170616D01*
X234084Y170629D01*
X234002Y170642D01*
X233914Y170652D01*
X233822Y170656D01*
X233819D01*
X233809D01*
X233792D01*
X233769D01*
X233740Y170652D01*
X233707Y170649D01*
X233671D01*
X233632Y170642D01*
X233543Y170633D01*
X233451Y170616D01*
X233353Y170593D01*
X233261Y170564D01*
X233258D01*
X233251Y170561D01*
X233238Y170554D01*
X233222Y170544D01*
X233202Y170534D01*
X233179Y170524D01*
X233126Y170492D01*
X233067Y170449D01*
X233008Y170400D01*
X232953Y170341D01*
X232903Y170272D01*
Y170269D01*
X232897Y170262D01*
X232894Y170252D01*
X232884Y170236D01*
X232877Y170219D01*
X232867Y170196D01*
X232844Y170144D01*
X232821Y170078D01*
X232805Y170006D01*
X232792Y169928D01*
X232785Y169842D01*
Y169816D01*
X232789Y169796D01*
X232792Y169770D01*
X232795Y169744D01*
X232798Y169711D01*
X232805Y169678D01*
X232825Y169603D01*
X232854Y169524D01*
X232871Y169481D01*
X232894Y169442D01*
X232916Y169403D01*
X232946Y169367D01*
X232949Y169363D01*
X232953Y169357D01*
X232962Y169347D01*
X232976Y169334D01*
X232992Y169321D01*
X233015Y169301D01*
X233038Y169281D01*
X233067Y169262D01*
X233097Y169239D01*
X233133Y169216D01*
X233172Y169196D01*
X233215Y169173D01*
X233264Y169153D01*
X233313Y169134D01*
X233366Y169117D01*
X233425Y169101D01*
X233340Y168766D01*
X233336D01*
X233323Y168773D01*
X233300Y168780D01*
X233271Y168786D01*
X233238Y168799D01*
X233199Y168816D01*
X233156Y168832D01*
X233107Y168855D01*
X233057Y168878D01*
X233005Y168907D01*
X232956Y168937D01*
X232903Y168973D01*
X232851Y169009D01*
X232802Y169052D01*
X232756Y169098D01*
X232713Y169147D01*
X232710Y169150D01*
X232703Y169160D01*
X232694Y169173D01*
X232680Y169196D01*
X232664Y169222D01*
X232644Y169255D01*
X232628Y169291D01*
X232608Y169331D01*
X232585Y169380D01*
X232569Y169429D01*
X232549Y169485D01*
X232533Y169544D01*
X232520Y169606D01*
X232510Y169672D01*
X232503Y169740D01*
X232500Y169813D01*
Y169852D01*
X232503Y169881D01*
X232506Y169914D01*
X232510Y169957D01*
X232513Y170000D01*
X232520Y170049D01*
X232539Y170154D01*
X232569Y170265D01*
X232589Y170321D01*
X232611Y170377D01*
X232634Y170429D01*
X232664Y170478D01*
X232667Y170482D01*
X232670Y170488D01*
X232680Y170501D01*
X232697Y170521D01*
X232713Y170541D01*
X232733Y170567D01*
X232759Y170593D01*
X232789Y170623D01*
X232818Y170656D01*
X232854Y170685D01*
X232894Y170718D01*
X232940Y170751D01*
X232985Y170783D01*
X233035Y170813D01*
X233090Y170843D01*
X233146Y170869D01*
X233149D01*
X233159Y170875D01*
X233179Y170882D01*
X233202Y170888D01*
X233231Y170898D01*
X233264Y170912D01*
X233303Y170921D01*
X233349Y170934D01*
X233399Y170948D01*
X233451Y170957D01*
X233507Y170970D01*
X233563Y170980D01*
X233691Y170993D01*
X233822Y171000D01*
X233825D01*
X233838D01*
X233861D01*
X233887Y170997D01*
D02*
G37*
G36*
X234442Y168242D02*
X234448Y168232D01*
X234455Y168219D01*
X234465Y168202D01*
X234474Y168179D01*
X234491Y168153D01*
X234524Y168091D01*
X234566Y168022D01*
X234619Y167943D01*
X234675Y167868D01*
X234737Y167792D01*
X234740Y167789D01*
X234743Y167782D01*
X234753Y167772D01*
X234766Y167759D01*
X234799Y167727D01*
X234845Y167684D01*
X234894Y167641D01*
X234953Y167595D01*
X235012Y167553D01*
X235075Y167517D01*
Y167317D01*
X232543D01*
Y167625D01*
X234514D01*
X234511Y167631D01*
X234497Y167645D01*
X234474Y167671D01*
X234448Y167704D01*
X234416Y167746D01*
X234379Y167799D01*
X234340Y167854D01*
X234301Y167920D01*
Y167923D01*
X234297Y167927D01*
X234291Y167937D01*
X234284Y167950D01*
X234265Y167986D01*
X234242Y168028D01*
X234215Y168078D01*
X234189Y168133D01*
X234163Y168189D01*
X234140Y168245D01*
X234442D01*
Y168242D01*
D02*
G37*
G36*
X235065Y165713D02*
Y165349D01*
X232543Y164322D01*
Y164699D01*
X233307Y164991D01*
Y166047D01*
X232543Y166323D01*
Y166674D01*
X235065Y165713D01*
D02*
G37*
G36*
X232887Y101422D02*
X232924D01*
X232963Y101419D01*
X233005Y101412D01*
X233055Y101406D01*
X233107Y101399D01*
X233163Y101389D01*
X233278Y101363D01*
X233393Y101327D01*
X233452Y101304D01*
X233507Y101278D01*
X233511Y101274D01*
X233520Y101271D01*
X233537Y101261D01*
X233557Y101248D01*
X233579Y101235D01*
X233609Y101215D01*
X233639Y101192D01*
X233675Y101166D01*
X233747Y101107D01*
X233819Y101032D01*
X233891Y100946D01*
X233924Y100897D01*
X233953Y100848D01*
X233957Y100845D01*
X233960Y100835D01*
X233966Y100818D01*
X233976Y100799D01*
X233990Y100773D01*
X234003Y100743D01*
X234016Y100707D01*
X234032Y100668D01*
X234045Y100622D01*
X234058Y100576D01*
X234085Y100471D01*
X234101Y100356D01*
X234107Y100297D01*
Y100198D01*
X234104Y100172D01*
X234101Y100139D01*
X234098Y100100D01*
X234091Y100057D01*
X234085Y100012D01*
X234062Y99913D01*
X234045Y99861D01*
X234026Y99805D01*
X234003Y99752D01*
X233980Y99700D01*
X233947Y99647D01*
X233914Y99598D01*
X233911Y99595D01*
X233904Y99588D01*
X233894Y99572D01*
X233878Y99556D01*
X233858Y99536D01*
X233835Y99510D01*
X233806Y99484D01*
X233773Y99454D01*
X233737Y99424D01*
X233698Y99395D01*
X233652Y99365D01*
X233606Y99336D01*
X233553Y99306D01*
X233498Y99280D01*
X233435Y99254D01*
X233373Y99234D01*
X233294Y99562D01*
X233297D01*
X233307Y99566D01*
X233320Y99572D01*
X233340Y99579D01*
X233363Y99588D01*
X233389Y99598D01*
X233448Y99628D01*
X233514Y99664D01*
X233579Y99707D01*
X233642Y99759D01*
X233668Y99788D01*
X233694Y99818D01*
Y99821D01*
X233701Y99825D01*
X233707Y99834D01*
X233714Y99848D01*
X233724Y99864D01*
X233734Y99884D01*
X233760Y99933D01*
X233783Y99995D01*
X233803Y100067D01*
X233816Y100149D01*
X233822Y100241D01*
Y100271D01*
X233819Y100290D01*
Y100313D01*
X233816Y100343D01*
X233809Y100376D01*
X233806Y100412D01*
X233789Y100487D01*
X233763Y100569D01*
X233727Y100651D01*
X233707Y100690D01*
X233681Y100730D01*
Y100733D01*
X233675Y100740D01*
X233668Y100750D01*
X233655Y100763D01*
X233625Y100795D01*
X233583Y100835D01*
X233530Y100881D01*
X233465Y100927D01*
X233393Y100969D01*
X233307Y101002D01*
X233304D01*
X233297Y101005D01*
X233284Y101009D01*
X233268Y101015D01*
X233245Y101022D01*
X233219Y101028D01*
X233189Y101035D01*
X233160Y101041D01*
X233084Y101055D01*
X233002Y101068D01*
X232914Y101077D01*
X232822Y101081D01*
X232819D01*
X232809D01*
X232792D01*
X232769D01*
X232740Y101077D01*
X232707Y101074D01*
X232671D01*
X232632Y101068D01*
X232543Y101058D01*
X232451Y101041D01*
X232353Y101019D01*
X232261Y100989D01*
X232258D01*
X232251Y100986D01*
X232238Y100979D01*
X232222Y100969D01*
X232202Y100960D01*
X232179Y100950D01*
X232126Y100917D01*
X232067Y100874D01*
X232008Y100825D01*
X231953Y100766D01*
X231903Y100697D01*
Y100694D01*
X231897Y100687D01*
X231894Y100677D01*
X231884Y100661D01*
X231877Y100645D01*
X231867Y100622D01*
X231844Y100569D01*
X231821Y100504D01*
X231805Y100431D01*
X231792Y100353D01*
X231785Y100267D01*
Y100241D01*
X231789Y100222D01*
X231792Y100195D01*
X231795Y100169D01*
X231798Y100136D01*
X231805Y100103D01*
X231825Y100028D01*
X231854Y99949D01*
X231871Y99907D01*
X231894Y99867D01*
X231916Y99828D01*
X231946Y99792D01*
X231949Y99788D01*
X231953Y99782D01*
X231962Y99772D01*
X231976Y99759D01*
X231992Y99746D01*
X232015Y99726D01*
X232038Y99707D01*
X232067Y99687D01*
X232097Y99664D01*
X232133Y99641D01*
X232172Y99621D01*
X232215Y99598D01*
X232264Y99579D01*
X232313Y99559D01*
X232366Y99542D01*
X232425Y99526D01*
X232340Y99191D01*
X232336D01*
X232323Y99198D01*
X232300Y99205D01*
X232271Y99211D01*
X232238Y99224D01*
X232199Y99241D01*
X232156Y99257D01*
X232107Y99280D01*
X232057Y99303D01*
X232005Y99333D01*
X231956Y99362D01*
X231903Y99398D01*
X231851Y99434D01*
X231802Y99477D01*
X231756Y99523D01*
X231713Y99572D01*
X231710Y99575D01*
X231703Y99585D01*
X231694Y99598D01*
X231680Y99621D01*
X231664Y99647D01*
X231644Y99680D01*
X231628Y99716D01*
X231608Y99756D01*
X231585Y99805D01*
X231569Y99854D01*
X231549Y99910D01*
X231533Y99969D01*
X231520Y100031D01*
X231510Y100097D01*
X231503Y100166D01*
X231500Y100238D01*
Y100277D01*
X231503Y100307D01*
X231506Y100339D01*
X231510Y100382D01*
X231513Y100425D01*
X231520Y100474D01*
X231539Y100579D01*
X231569Y100690D01*
X231589Y100746D01*
X231611Y100802D01*
X231634Y100855D01*
X231664Y100904D01*
X231667Y100907D01*
X231670Y100914D01*
X231680Y100927D01*
X231697Y100946D01*
X231713Y100966D01*
X231733Y100992D01*
X231759Y101019D01*
X231789Y101048D01*
X231818Y101081D01*
X231854Y101110D01*
X231894Y101143D01*
X231940Y101176D01*
X231985Y101209D01*
X232035Y101238D01*
X232090Y101268D01*
X232146Y101294D01*
X232149D01*
X232159Y101301D01*
X232179Y101307D01*
X232202Y101314D01*
X232231Y101324D01*
X232264Y101337D01*
X232304Y101347D01*
X232349Y101360D01*
X232399Y101373D01*
X232451Y101383D01*
X232507Y101396D01*
X232563Y101406D01*
X232691Y101419D01*
X232822Y101425D01*
X232825D01*
X232838D01*
X232861D01*
X232887Y101422D01*
D02*
G37*
G36*
X233442Y98667D02*
X233448Y98657D01*
X233455Y98644D01*
X233465Y98627D01*
X233474Y98604D01*
X233491Y98578D01*
X233524Y98516D01*
X233566Y98447D01*
X233619Y98368D01*
X233675Y98293D01*
X233737Y98217D01*
X233740Y98214D01*
X233744Y98208D01*
X233753Y98198D01*
X233766Y98185D01*
X233799Y98152D01*
X233845Y98109D01*
X233894Y98067D01*
X233953Y98021D01*
X234012Y97978D01*
X234075Y97942D01*
Y97742D01*
X231543D01*
Y98050D01*
X233514D01*
X233511Y98057D01*
X233498Y98070D01*
X233474Y98096D01*
X233448Y98129D01*
X233416Y98172D01*
X233379Y98224D01*
X233340Y98280D01*
X233301Y98345D01*
Y98349D01*
X233297Y98352D01*
X233291Y98362D01*
X233284Y98375D01*
X233265Y98411D01*
X233242Y98453D01*
X233215Y98503D01*
X233189Y98558D01*
X233163Y98614D01*
X233140Y98670D01*
X233442D01*
Y98667D01*
D02*
G37*
G36*
X234065Y95843D02*
X234062Y95820D01*
Y95790D01*
X234055Y95725D01*
X234045Y95652D01*
X234032Y95574D01*
X234012Y95498D01*
X233986Y95429D01*
Y95426D01*
X233983Y95423D01*
X233980Y95413D01*
X233973Y95400D01*
X233953Y95370D01*
X233927Y95331D01*
X233894Y95285D01*
X233855Y95242D01*
X233806Y95196D01*
X233750Y95157D01*
X233747D01*
X233744Y95154D01*
X233724Y95141D01*
X233691Y95124D01*
X233648Y95105D01*
X233599Y95088D01*
X233543Y95072D01*
X233484Y95059D01*
X233419Y95056D01*
X233416D01*
X233412D01*
X233402D01*
X233393D01*
X233360Y95059D01*
X233320Y95065D01*
X233271Y95078D01*
X233219Y95091D01*
X233166Y95114D01*
X233110Y95144D01*
X233104Y95147D01*
X233087Y95160D01*
X233061Y95180D01*
X233028Y95210D01*
X232992Y95249D01*
X232956Y95295D01*
X232917Y95347D01*
X232884Y95410D01*
Y95406D01*
X232881Y95400D01*
X232878Y95387D01*
X232871Y95370D01*
X232864Y95354D01*
X232855Y95331D01*
X232828Y95279D01*
X232796Y95223D01*
X232756Y95164D01*
X232707Y95108D01*
X232651Y95059D01*
X232648D01*
X232645Y95052D01*
X232635Y95046D01*
X232622Y95039D01*
X232589Y95019D01*
X232543Y94996D01*
X232487Y94973D01*
X232422Y94954D01*
X232349Y94941D01*
X232271Y94934D01*
X232267D01*
X232264D01*
X232254D01*
X232241D01*
X232208Y94937D01*
X232162Y94944D01*
X232113Y94954D01*
X232057Y94967D01*
X232002Y94983D01*
X231943Y95010D01*
X231936Y95013D01*
X231916Y95023D01*
X231890Y95039D01*
X231857Y95062D01*
X231818Y95088D01*
X231779Y95121D01*
X231743Y95157D01*
X231707Y95196D01*
X231703Y95200D01*
X231694Y95216D01*
X231677Y95239D01*
X231661Y95272D01*
X231641Y95311D01*
X231618Y95357D01*
X231598Y95413D01*
X231582Y95472D01*
Y95479D01*
X231579Y95488D01*
X231575Y95502D01*
X231572Y95518D01*
X231569Y95538D01*
X231562Y95584D01*
X231556Y95643D01*
X231549Y95711D01*
X231546Y95790D01*
X231543Y95879D01*
Y96837D01*
X234065D01*
Y95843D01*
D02*
G37*
%LPC*%
G36*
X138628Y153085D02*
X138609D01*
X138592Y153082D01*
X138576Y153078D01*
X138556Y153075D01*
X138507Y153062D01*
X138451Y153042D01*
X138392Y153013D01*
X138363Y152993D01*
X138333Y152967D01*
X138303Y152941D01*
X138274Y152911D01*
X138271Y152908D01*
X138267Y152901D01*
X138261Y152891D01*
X138251Y152878D01*
X138241Y152859D01*
X138228Y152836D01*
X138215Y152809D01*
X138198Y152780D01*
X138185Y152744D01*
X138172Y152704D01*
X138159Y152658D01*
X138149Y152609D01*
X138139Y152557D01*
X138133Y152501D01*
X138126Y152439D01*
Y152373D01*
Y152370D01*
Y152357D01*
Y152340D01*
X138130Y152317D01*
Y152288D01*
X138133Y152255D01*
X138139Y152216D01*
X138143Y152176D01*
X138162Y152094D01*
X138189Y152006D01*
X138222Y151924D01*
X138244Y151884D01*
X138271Y151852D01*
Y151848D01*
X138277Y151845D01*
X138297Y151825D01*
X138326Y151796D01*
X138369Y151763D01*
X138418Y151734D01*
X138477Y151704D01*
X138543Y151684D01*
X138579Y151681D01*
X138615Y151678D01*
X138635D01*
X138648Y151681D01*
X138687Y151688D01*
X138733Y151701D01*
X138789Y151724D01*
X138818Y151737D01*
X138848Y151757D01*
X138877Y151779D01*
X138907Y151802D01*
X138936Y151832D01*
X138966Y151865D01*
Y151868D01*
X138973Y151875D01*
X138979Y151884D01*
X138989Y151898D01*
X139002Y151917D01*
X139015Y151940D01*
X139028Y151970D01*
X139041Y151999D01*
X139055Y152035D01*
X139068Y152075D01*
X139081Y152121D01*
X139094Y152166D01*
X139104Y152219D01*
X139110Y152275D01*
X139114Y152337D01*
X139117Y152399D01*
Y152403D01*
Y152416D01*
Y152432D01*
X139114Y152455D01*
Y152485D01*
X139110Y152521D01*
X139104Y152557D01*
X139101Y152596D01*
X139081Y152682D01*
X139058Y152767D01*
X139022Y152849D01*
X139002Y152885D01*
X138976Y152918D01*
X138973Y152921D01*
X138969Y152924D01*
X138950Y152944D01*
X138920Y152970D01*
X138877Y153000D01*
X138828Y153032D01*
X138769Y153059D01*
X138700Y153078D01*
X138664Y153082D01*
X138628Y153085D01*
D02*
G37*
G36*
Y147085D02*
X138609D01*
X138592Y147082D01*
X138576Y147078D01*
X138556Y147075D01*
X138507Y147062D01*
X138451Y147042D01*
X138392Y147013D01*
X138363Y146993D01*
X138333Y146967D01*
X138303Y146941D01*
X138274Y146911D01*
X138271Y146908D01*
X138267Y146901D01*
X138261Y146891D01*
X138251Y146878D01*
X138241Y146859D01*
X138228Y146836D01*
X138215Y146809D01*
X138198Y146780D01*
X138185Y146744D01*
X138172Y146704D01*
X138159Y146659D01*
X138149Y146609D01*
X138139Y146557D01*
X138133Y146501D01*
X138126Y146439D01*
Y146373D01*
Y146370D01*
Y146357D01*
Y146340D01*
X138130Y146317D01*
Y146288D01*
X138133Y146255D01*
X138139Y146216D01*
X138143Y146176D01*
X138162Y146094D01*
X138189Y146006D01*
X138222Y145924D01*
X138244Y145884D01*
X138271Y145852D01*
Y145848D01*
X138277Y145845D01*
X138297Y145825D01*
X138326Y145796D01*
X138369Y145763D01*
X138418Y145733D01*
X138477Y145704D01*
X138543Y145684D01*
X138579Y145681D01*
X138615Y145678D01*
X138635D01*
X138648Y145681D01*
X138687Y145688D01*
X138733Y145701D01*
X138789Y145724D01*
X138818Y145737D01*
X138848Y145756D01*
X138877Y145780D01*
X138907Y145802D01*
X138936Y145832D01*
X138966Y145865D01*
Y145868D01*
X138973Y145875D01*
X138979Y145884D01*
X138989Y145898D01*
X139002Y145917D01*
X139015Y145940D01*
X139028Y145970D01*
X139041Y145999D01*
X139055Y146035D01*
X139068Y146075D01*
X139081Y146121D01*
X139094Y146167D01*
X139104Y146219D01*
X139110Y146275D01*
X139114Y146337D01*
X139117Y146399D01*
Y146403D01*
Y146416D01*
Y146432D01*
X139114Y146455D01*
Y146485D01*
X139110Y146521D01*
X139104Y146557D01*
X139101Y146596D01*
X139081Y146681D01*
X139058Y146767D01*
X139022Y146849D01*
X139002Y146885D01*
X138976Y146918D01*
X138973Y146921D01*
X138969Y146924D01*
X138950Y146944D01*
X138920Y146970D01*
X138877Y147000D01*
X138828Y147032D01*
X138769Y147059D01*
X138700Y147078D01*
X138664Y147082D01*
X138628Y147085D01*
D02*
G37*
G36*
X130601Y219117D02*
X130597D01*
X130584D01*
X130568D01*
X130545Y219114D01*
X130515D01*
X130479Y219110D01*
X130443Y219104D01*
X130404Y219100D01*
X130318Y219081D01*
X130233Y219058D01*
X130151Y219022D01*
X130115Y219002D01*
X130082Y218976D01*
X130079Y218973D01*
X130076Y218969D01*
X130056Y218950D01*
X130030Y218920D01*
X130000Y218878D01*
X129968Y218828D01*
X129941Y218769D01*
X129922Y218700D01*
X129918Y218664D01*
X129915Y218628D01*
Y218608D01*
X129918Y218592D01*
X129922Y218576D01*
X129925Y218556D01*
X129938Y218507D01*
X129958Y218451D01*
X129987Y218392D01*
X130007Y218362D01*
X130033Y218333D01*
X130059Y218303D01*
X130089Y218274D01*
X130092Y218271D01*
X130099Y218267D01*
X130109Y218261D01*
X130122Y218251D01*
X130141Y218241D01*
X130164Y218228D01*
X130191Y218215D01*
X130220Y218198D01*
X130256Y218185D01*
X130296Y218172D01*
X130341Y218159D01*
X130391Y218149D01*
X130443Y218140D01*
X130499Y218133D01*
X130561Y218126D01*
X130627D01*
X130630D01*
X130643D01*
X130660D01*
X130683Y218130D01*
X130712D01*
X130745Y218133D01*
X130784Y218140D01*
X130824Y218143D01*
X130906Y218162D01*
X130994Y218189D01*
X131076Y218221D01*
X131116Y218244D01*
X131148Y218271D01*
X131152D01*
X131155Y218277D01*
X131175Y218297D01*
X131204Y218326D01*
X131237Y218369D01*
X131266Y218418D01*
X131296Y218477D01*
X131316Y218543D01*
X131319Y218579D01*
X131322Y218615D01*
Y218635D01*
X131319Y218648D01*
X131312Y218687D01*
X131299Y218733D01*
X131276Y218789D01*
X131263Y218818D01*
X131244Y218848D01*
X131220Y218878D01*
X131198Y218907D01*
X131168Y218936D01*
X131135Y218966D01*
X131132D01*
X131125Y218973D01*
X131116Y218979D01*
X131102Y218989D01*
X131083Y219002D01*
X131060Y219015D01*
X131030Y219028D01*
X131001Y219041D01*
X130965Y219055D01*
X130925Y219068D01*
X130879Y219081D01*
X130833Y219094D01*
X130781Y219104D01*
X130725Y219110D01*
X130663Y219114D01*
X130601Y219117D01*
D02*
G37*
G36*
X158101D02*
X158097D01*
X158084D01*
X158068D01*
X158045Y219114D01*
X158015D01*
X157979Y219110D01*
X157943Y219104D01*
X157904Y219100D01*
X157818Y219081D01*
X157733Y219058D01*
X157651Y219022D01*
X157615Y219002D01*
X157582Y218976D01*
X157579Y218973D01*
X157576Y218969D01*
X157556Y218950D01*
X157530Y218920D01*
X157500Y218878D01*
X157468Y218828D01*
X157441Y218769D01*
X157422Y218700D01*
X157418Y218664D01*
X157415Y218628D01*
Y218608D01*
X157418Y218592D01*
X157422Y218576D01*
X157425Y218556D01*
X157438Y218507D01*
X157458Y218451D01*
X157487Y218392D01*
X157507Y218362D01*
X157533Y218333D01*
X157559Y218303D01*
X157589Y218274D01*
X157592Y218271D01*
X157599Y218267D01*
X157609Y218261D01*
X157622Y218251D01*
X157641Y218241D01*
X157664Y218228D01*
X157691Y218215D01*
X157720Y218198D01*
X157756Y218185D01*
X157796Y218172D01*
X157842Y218159D01*
X157891Y218149D01*
X157943Y218140D01*
X157999Y218133D01*
X158061Y218126D01*
X158127D01*
X158130D01*
X158143D01*
X158160D01*
X158183Y218130D01*
X158212D01*
X158245Y218133D01*
X158284Y218140D01*
X158324Y218143D01*
X158406Y218162D01*
X158494Y218189D01*
X158576Y218221D01*
X158616Y218244D01*
X158648Y218271D01*
X158652D01*
X158655Y218277D01*
X158675Y218297D01*
X158704Y218326D01*
X158737Y218369D01*
X158766Y218418D01*
X158796Y218477D01*
X158816Y218543D01*
X158819Y218579D01*
X158822Y218615D01*
Y218635D01*
X158819Y218648D01*
X158812Y218687D01*
X158799Y218733D01*
X158776Y218789D01*
X158763Y218818D01*
X158744Y218848D01*
X158721Y218878D01*
X158698Y218907D01*
X158668Y218936D01*
X158635Y218966D01*
X158632D01*
X158625Y218973D01*
X158616Y218979D01*
X158602Y218989D01*
X158583Y219002D01*
X158560Y219015D01*
X158530Y219028D01*
X158501Y219041D01*
X158465Y219055D01*
X158425Y219068D01*
X158379Y219081D01*
X158334Y219094D01*
X158281Y219104D01*
X158225Y219110D01*
X158163Y219114D01*
X158101Y219117D01*
D02*
G37*
G36*
X261421Y194904D02*
X260726Y194642D01*
X260722D01*
X260712Y194635D01*
X260696Y194628D01*
X260673Y194622D01*
X260647Y194612D01*
X260614Y194599D01*
X260578Y194586D01*
X260539Y194573D01*
X260457Y194543D01*
X260368Y194514D01*
X260279Y194487D01*
X260197Y194461D01*
X260201D01*
X260207Y194458D01*
X260220Y194455D01*
X260240Y194451D01*
X260263Y194448D01*
X260289Y194441D01*
X260319Y194435D01*
X260352Y194425D01*
X260424Y194405D01*
X260506Y194382D01*
X260594Y194356D01*
X260683Y194323D01*
X261421Y194048D01*
Y194904D01*
D02*
G37*
G36*
X261726Y144647D02*
X261719D01*
X261703D01*
X261677Y144643D01*
X261644Y144637D01*
X261605Y144627D01*
X261565Y144614D01*
X261523Y144597D01*
X261483Y144571D01*
X261480Y144568D01*
X261467Y144558D01*
X261447Y144542D01*
X261424Y144519D01*
X261401Y144489D01*
X261375Y144456D01*
X261355Y144417D01*
X261336Y144371D01*
X261332Y144365D01*
X261329Y144348D01*
X261322Y144319D01*
X261313Y144276D01*
X261306Y144227D01*
X261299Y144161D01*
X261296Y144089D01*
X261293Y144004D01*
Y143423D01*
X262159D01*
Y144138D01*
X262156Y144214D01*
X262152Y144246D01*
X262149Y144276D01*
Y144283D01*
X262146Y144296D01*
X262139Y144315D01*
X262133Y144342D01*
X262123Y144374D01*
X262113Y144404D01*
X262097Y144437D01*
X262080Y144466D01*
X262077Y144470D01*
X262070Y144479D01*
X262060Y144492D01*
X262044Y144512D01*
X262024Y144532D01*
X261998Y144555D01*
X261972Y144574D01*
X261939Y144594D01*
X261936Y144597D01*
X261923Y144604D01*
X261903Y144611D01*
X261877Y144620D01*
X261847Y144630D01*
X261811Y144640D01*
X261769Y144643D01*
X261726Y144647D01*
D02*
G37*
G36*
X260621Y144542D02*
X260614D01*
X260601D01*
X260575Y144538D01*
X260545Y144535D01*
X260512Y144525D01*
X260476Y144516D01*
X260437Y144499D01*
X260401Y144479D01*
X260398Y144476D01*
X260384Y144470D01*
X260368Y144456D01*
X260348Y144437D01*
X260325Y144411D01*
X260306Y144384D01*
X260286Y144348D01*
X260270Y144309D01*
X260266Y144302D01*
X260263Y144286D01*
X260257Y144260D01*
X260250Y144220D01*
X260247Y144194D01*
X260243Y144168D01*
Y144135D01*
X260240Y144099D01*
X260237Y144063D01*
X260234Y144020D01*
Y143423D01*
X260995D01*
Y144043D01*
X260991Y144089D01*
X260988Y144142D01*
X260985Y144194D01*
X260978Y144243D01*
X260968Y144283D01*
X260965Y144289D01*
X260962Y144302D01*
X260952Y144325D01*
X260939Y144355D01*
X260919Y144388D01*
X260899Y144417D01*
X260873Y144450D01*
X260844Y144476D01*
X260840Y144479D01*
X260827Y144486D01*
X260807Y144496D01*
X260781Y144509D01*
X260752Y144522D01*
X260712Y144532D01*
X260670Y144538D01*
X260621Y144542D01*
D02*
G37*
G36*
X263432Y167831D02*
Y167038D01*
X264570D01*
X263432Y167831D01*
D02*
G37*
G36*
X263579Y165499D02*
Y164643D01*
X264274Y164906D01*
X264278D01*
X264288Y164912D01*
X264304Y164919D01*
X264327Y164925D01*
X264353Y164935D01*
X264386Y164948D01*
X264422Y164961D01*
X264461Y164974D01*
X264543Y165004D01*
X264632Y165034D01*
X264721Y165060D01*
X264803Y165086D01*
X264799D01*
X264793Y165089D01*
X264780Y165093D01*
X264760Y165096D01*
X264737Y165099D01*
X264711Y165106D01*
X264681Y165112D01*
X264648Y165122D01*
X264576Y165142D01*
X264494Y165165D01*
X264406Y165191D01*
X264317Y165224D01*
X263579Y165499D01*
D02*
G37*
G36*
X264766Y114577D02*
X264005D01*
Y113957D01*
X264009Y113911D01*
X264012Y113858D01*
X264015Y113806D01*
X264022Y113757D01*
X264032Y113717D01*
X264035Y113711D01*
X264038Y113698D01*
X264048Y113675D01*
X264061Y113645D01*
X264081Y113612D01*
X264101Y113583D01*
X264127Y113550D01*
X264156Y113524D01*
X264160Y113521D01*
X264173Y113514D01*
X264192Y113504D01*
X264219Y113491D01*
X264248Y113478D01*
X264288Y113468D01*
X264330Y113462D01*
X264379Y113458D01*
X264386D01*
X264399D01*
X264425Y113462D01*
X264455Y113465D01*
X264488Y113475D01*
X264524Y113485D01*
X264563Y113501D01*
X264599Y113521D01*
X264602Y113524D01*
X264616Y113530D01*
X264632Y113544D01*
X264652Y113563D01*
X264675Y113590D01*
X264694Y113616D01*
X264714Y113652D01*
X264730Y113691D01*
X264734Y113698D01*
X264737Y113714D01*
X264743Y113740D01*
X264750Y113780D01*
X264753Y113806D01*
X264757Y113832D01*
Y113865D01*
X264760Y113901D01*
X264763Y113937D01*
X264766Y113980D01*
Y114577D01*
D02*
G37*
G36*
X263707D02*
X262841D01*
Y113862D01*
X262844Y113786D01*
X262848Y113753D01*
X262851Y113724D01*
Y113717D01*
X262854Y113704D01*
X262861Y113685D01*
X262867Y113658D01*
X262877Y113626D01*
X262887Y113596D01*
X262903Y113563D01*
X262920Y113534D01*
X262923Y113530D01*
X262930Y113521D01*
X262940Y113507D01*
X262956Y113488D01*
X262976Y113468D01*
X263002Y113445D01*
X263028Y113426D01*
X263061Y113406D01*
X263064Y113402D01*
X263077Y113396D01*
X263097Y113389D01*
X263123Y113380D01*
X263153Y113370D01*
X263189Y113360D01*
X263231Y113357D01*
X263274Y113353D01*
X263281D01*
X263297D01*
X263323Y113357D01*
X263356Y113363D01*
X263395Y113373D01*
X263435Y113386D01*
X263477Y113402D01*
X263517Y113429D01*
X263520Y113432D01*
X263533Y113442D01*
X263553Y113458D01*
X263576Y113481D01*
X263599Y113511D01*
X263625Y113544D01*
X263645Y113583D01*
X263664Y113629D01*
X263668Y113635D01*
X263671Y113652D01*
X263678Y113681D01*
X263687Y113724D01*
X263694Y113773D01*
X263700Y113839D01*
X263704Y113911D01*
X263707Y113996D01*
Y114577D01*
D02*
G37*
G36*
X261421Y212857D02*
X260726Y212594D01*
X260722D01*
X260712Y212588D01*
X260696Y212581D01*
X260673Y212575D01*
X260647Y212565D01*
X260614Y212552D01*
X260578Y212539D01*
X260539Y212525D01*
X260457Y212496D01*
X260368Y212466D01*
X260279Y212440D01*
X260197Y212414D01*
X260201D01*
X260207Y212411D01*
X260220Y212407D01*
X260240Y212404D01*
X260263Y212401D01*
X260289Y212394D01*
X260319Y212388D01*
X260352Y212378D01*
X260424Y212358D01*
X260506Y212335D01*
X260594Y212309D01*
X260683Y212276D01*
X261421Y212001D01*
Y212857D01*
D02*
G37*
G36*
X144166Y134593D02*
X143395D01*
X143372Y134590D01*
X143319Y134586D01*
X143263Y134583D01*
X143201Y134573D01*
X143145Y134563D01*
X143093Y134547D01*
X143086Y134544D01*
X143070Y134537D01*
X143047Y134527D01*
X143017Y134511D01*
X142988Y134491D01*
X142955Y134465D01*
X142922Y134432D01*
X142896Y134396D01*
X142893Y134393D01*
X142886Y134376D01*
X142873Y134357D01*
X142860Y134327D01*
X142850Y134294D01*
X142837Y134255D01*
X142831Y134216D01*
X142827Y134170D01*
Y134167D01*
Y134163D01*
Y134153D01*
X142831Y134140D01*
X142834Y134107D01*
X142844Y134065D01*
X142860Y134019D01*
X142883Y133970D01*
X142916Y133921D01*
X142958Y133875D01*
X142965Y133868D01*
X142985Y133855D01*
X143014Y133838D01*
X143060Y133816D01*
X143086Y133806D01*
X143116Y133793D01*
X143149Y133783D01*
X143188Y133776D01*
X143227Y133766D01*
X143270Y133763D01*
X143319Y133756D01*
X144166D01*
Y134593D01*
D02*
G37*
G36*
Y165093D02*
X143395D01*
X143372Y165090D01*
X143319Y165086D01*
X143263Y165083D01*
X143201Y165073D01*
X143145Y165063D01*
X143093Y165047D01*
X143086Y165044D01*
X143070Y165037D01*
X143047Y165027D01*
X143017Y165011D01*
X142988Y164991D01*
X142955Y164965D01*
X142922Y164932D01*
X142896Y164896D01*
X142893Y164893D01*
X142886Y164876D01*
X142873Y164857D01*
X142860Y164827D01*
X142850Y164794D01*
X142837Y164755D01*
X142831Y164716D01*
X142827Y164670D01*
Y164666D01*
Y164663D01*
Y164653D01*
X142831Y164640D01*
X142834Y164608D01*
X142844Y164565D01*
X142860Y164519D01*
X142883Y164470D01*
X142916Y164420D01*
X142958Y164375D01*
X142965Y164368D01*
X142985Y164355D01*
X143014Y164339D01*
X143060Y164316D01*
X143086Y164306D01*
X143116Y164293D01*
X143149Y164283D01*
X143188Y164276D01*
X143227Y164266D01*
X143270Y164263D01*
X143319Y164257D01*
X144166D01*
Y165093D01*
D02*
G37*
G36*
X144601Y219117D02*
X144597D01*
X144584D01*
X144568D01*
X144545Y219114D01*
X144515D01*
X144479Y219110D01*
X144443Y219104D01*
X144404Y219100D01*
X144318Y219081D01*
X144233Y219058D01*
X144151Y219022D01*
X144115Y219002D01*
X144082Y218976D01*
X144079Y218973D01*
X144076Y218969D01*
X144056Y218950D01*
X144030Y218920D01*
X144000Y218878D01*
X143968Y218828D01*
X143941Y218769D01*
X143922Y218700D01*
X143918Y218664D01*
X143915Y218628D01*
Y218608D01*
X143918Y218592D01*
X143922Y218576D01*
X143925Y218556D01*
X143938Y218507D01*
X143958Y218451D01*
X143987Y218392D01*
X144007Y218362D01*
X144033Y218333D01*
X144059Y218303D01*
X144089Y218274D01*
X144092Y218271D01*
X144099Y218267D01*
X144109Y218261D01*
X144122Y218251D01*
X144141Y218241D01*
X144164Y218228D01*
X144191Y218215D01*
X144220Y218198D01*
X144256Y218185D01*
X144296Y218172D01*
X144342Y218159D01*
X144391Y218149D01*
X144443Y218140D01*
X144499Y218133D01*
X144561Y218126D01*
X144627D01*
X144630D01*
X144643D01*
X144660D01*
X144683Y218130D01*
X144712D01*
X144745Y218133D01*
X144784Y218140D01*
X144824Y218143D01*
X144906Y218162D01*
X144994Y218189D01*
X145076Y218221D01*
X145116Y218244D01*
X145148Y218271D01*
X145152D01*
X145155Y218277D01*
X145175Y218297D01*
X145204Y218326D01*
X145237Y218369D01*
X145266Y218418D01*
X145296Y218477D01*
X145316Y218543D01*
X145319Y218579D01*
X145322Y218615D01*
Y218635D01*
X145319Y218648D01*
X145312Y218687D01*
X145299Y218733D01*
X145276Y218789D01*
X145263Y218818D01*
X145244Y218848D01*
X145220Y218878D01*
X145198Y218907D01*
X145168Y218936D01*
X145135Y218966D01*
X145132D01*
X145125Y218973D01*
X145116Y218979D01*
X145102Y218989D01*
X145083Y219002D01*
X145060Y219015D01*
X145030Y219028D01*
X145001Y219041D01*
X144965Y219055D01*
X144925Y219068D01*
X144879Y219081D01*
X144834Y219094D01*
X144781Y219104D01*
X144725Y219110D01*
X144663Y219114D01*
X144601Y219117D01*
D02*
G37*
G36*
X263432Y97784D02*
Y96990D01*
X264570D01*
X263432Y97784D01*
D02*
G37*
G36*
X264766Y95577D02*
X264005D01*
Y94957D01*
X264009Y94911D01*
X264012Y94858D01*
X264015Y94806D01*
X264022Y94757D01*
X264032Y94717D01*
X264035Y94711D01*
X264038Y94698D01*
X264048Y94675D01*
X264061Y94645D01*
X264081Y94612D01*
X264101Y94583D01*
X264127Y94550D01*
X264156Y94524D01*
X264160Y94521D01*
X264173Y94514D01*
X264192Y94504D01*
X264219Y94491D01*
X264248Y94478D01*
X264288Y94468D01*
X264330Y94462D01*
X264379Y94458D01*
X264386D01*
X264399D01*
X264425Y94462D01*
X264455Y94465D01*
X264488Y94475D01*
X264524Y94485D01*
X264563Y94501D01*
X264599Y94521D01*
X264602Y94524D01*
X264616Y94530D01*
X264632Y94544D01*
X264652Y94563D01*
X264675Y94590D01*
X264694Y94616D01*
X264714Y94652D01*
X264730Y94691D01*
X264734Y94698D01*
X264737Y94714D01*
X264743Y94740D01*
X264750Y94780D01*
X264753Y94806D01*
X264757Y94832D01*
Y94865D01*
X264760Y94901D01*
X264763Y94937D01*
X264766Y94980D01*
Y95577D01*
D02*
G37*
G36*
X263707D02*
X262841D01*
Y94862D01*
X262844Y94786D01*
X262848Y94753D01*
X262851Y94724D01*
Y94717D01*
X262854Y94704D01*
X262861Y94685D01*
X262867Y94658D01*
X262877Y94626D01*
X262887Y94596D01*
X262903Y94563D01*
X262920Y94534D01*
X262923Y94530D01*
X262930Y94521D01*
X262940Y94507D01*
X262956Y94488D01*
X262976Y94468D01*
X263002Y94445D01*
X263028Y94425D01*
X263061Y94406D01*
X263064Y94402D01*
X263077Y94396D01*
X263097Y94389D01*
X263123Y94380D01*
X263153Y94370D01*
X263189Y94360D01*
X263231Y94357D01*
X263274Y94353D01*
X263281D01*
X263297D01*
X263323Y94357D01*
X263356Y94363D01*
X263395Y94373D01*
X263435Y94386D01*
X263477Y94402D01*
X263517Y94429D01*
X263520Y94432D01*
X263533Y94442D01*
X263553Y94458D01*
X263576Y94481D01*
X263599Y94511D01*
X263625Y94544D01*
X263645Y94583D01*
X263664Y94629D01*
X263668Y94635D01*
X263671Y94652D01*
X263678Y94681D01*
X263687Y94724D01*
X263694Y94773D01*
X263700Y94839D01*
X263704Y94911D01*
X263707Y94996D01*
Y95577D01*
D02*
G37*
G36*
X233579Y165952D02*
Y165096D01*
X234274Y165358D01*
X234278D01*
X234288Y165365D01*
X234304Y165372D01*
X234327Y165378D01*
X234353Y165388D01*
X234386Y165401D01*
X234422Y165414D01*
X234461Y165427D01*
X234543Y165457D01*
X234632Y165486D01*
X234720Y165513D01*
X234803Y165539D01*
X234799D01*
X234793Y165542D01*
X234780Y165545D01*
X234760Y165549D01*
X234737Y165552D01*
X234711Y165559D01*
X234681Y165565D01*
X234648Y165575D01*
X234576Y165595D01*
X234494Y165618D01*
X234406Y165644D01*
X234317Y165677D01*
X233579Y165952D01*
D02*
G37*
G36*
X233766Y96502D02*
X233005D01*
Y95882D01*
X233009Y95836D01*
X233012Y95784D01*
X233015Y95731D01*
X233022Y95682D01*
X233032Y95643D01*
X233035Y95636D01*
X233038Y95623D01*
X233048Y95600D01*
X233061Y95570D01*
X233081Y95538D01*
X233101Y95508D01*
X233127Y95475D01*
X233156Y95449D01*
X233160Y95446D01*
X233173Y95439D01*
X233192Y95429D01*
X233219Y95416D01*
X233248Y95403D01*
X233288Y95393D01*
X233330Y95387D01*
X233379Y95384D01*
X233386D01*
X233399D01*
X233425Y95387D01*
X233455Y95390D01*
X233488Y95400D01*
X233524Y95410D01*
X233563Y95426D01*
X233599Y95446D01*
X233602Y95449D01*
X233615Y95456D01*
X233632Y95469D01*
X233652Y95488D01*
X233675Y95515D01*
X233694Y95541D01*
X233714Y95577D01*
X233730Y95616D01*
X233734Y95623D01*
X233737Y95639D01*
X233744Y95666D01*
X233750Y95705D01*
X233753Y95731D01*
X233757Y95757D01*
Y95790D01*
X233760Y95826D01*
X233763Y95862D01*
X233766Y95905D01*
Y96502D01*
D02*
G37*
G36*
X232707D02*
X231841D01*
Y95787D01*
X231844Y95711D01*
X231848Y95679D01*
X231851Y95649D01*
Y95643D01*
X231854Y95630D01*
X231861Y95610D01*
X231867Y95584D01*
X231877Y95551D01*
X231887Y95521D01*
X231903Y95488D01*
X231920Y95459D01*
X231923Y95456D01*
X231930Y95446D01*
X231940Y95433D01*
X231956Y95413D01*
X231976Y95393D01*
X232002Y95370D01*
X232028Y95351D01*
X232061Y95331D01*
X232064Y95328D01*
X232077Y95321D01*
X232097Y95315D01*
X232123Y95305D01*
X232153Y95295D01*
X232189Y95285D01*
X232231Y95282D01*
X232274Y95279D01*
X232281D01*
X232297D01*
X232323Y95282D01*
X232356Y95288D01*
X232395Y95298D01*
X232435Y95311D01*
X232477Y95328D01*
X232517Y95354D01*
X232520Y95357D01*
X232533Y95367D01*
X232553Y95384D01*
X232576Y95406D01*
X232599Y95436D01*
X232625Y95469D01*
X232645Y95508D01*
X232664Y95554D01*
X232668Y95561D01*
X232671Y95577D01*
X232678Y95606D01*
X232687Y95649D01*
X232694Y95698D01*
X232700Y95764D01*
X232704Y95836D01*
X232707Y95921D01*
Y96502D01*
D02*
G37*
%LPD*%
D36*
X144756Y152524D02*
Y155476D01*
X139244D02*
X144756D01*
X139244Y152524D02*
Y155476D01*
Y152524D02*
X144756D01*
X246287Y232988D02*
Y244012D01*
X134236Y243744D02*
X234323D01*
X122272Y232988D02*
Y244012D01*
Y232988D02*
X246287D01*
X133256Y121374D02*
Y132626D01*
Y121374D02*
X154745D01*
Y132626D01*
X133256D02*
X154745D01*
X144756Y146524D02*
Y149476D01*
X139244D02*
X144756D01*
X139244Y146524D02*
Y149476D01*
Y146524D02*
X144756D01*
X134032Y213523D02*
Y230477D01*
X123968Y213523D02*
X134032D01*
X123968D02*
Y230477D01*
X134032D01*
X134256Y170374D02*
Y181626D01*
Y170374D02*
X155745D01*
Y181626D01*
X134256D02*
X155745D01*
X118032Y32902D02*
X221969D01*
Y3098D02*
Y32902D01*
X118032Y3098D02*
X221969D01*
X118032D02*
Y32902D01*
X161532Y213523D02*
Y230477D01*
X151468Y213523D02*
X161532D01*
X151468D02*
Y230477D01*
X161532D01*
X307988Y92154D02*
X319012D01*
X318744Y104118D02*
Y204205D01*
X307988Y216169D02*
X319012D01*
X307988Y92154D02*
Y216169D01*
X118032Y43098D02*
Y72902D01*
Y43098D02*
X221969D01*
Y72902D01*
X118032D02*
X221969D01*
X51988Y89213D02*
X63012D01*
X62744Y101177D02*
Y201264D01*
X51988Y213228D02*
X63012D01*
X51988Y89213D02*
Y213228D01*
X259252Y183390D02*
X265748D01*
Y194610D01*
X259252D02*
X265748D01*
X259252Y183390D02*
Y194610D01*
Y132890D02*
Y144110D01*
X265748D01*
Y132890D02*
Y144110D01*
X259252Y132890D02*
X265748D01*
X259252Y176157D02*
X265748D01*
X259252Y164937D02*
Y176157D01*
Y164937D02*
X265748D01*
Y176157D01*
Y113890D02*
Y125110D01*
X259252Y113890D02*
X265748D01*
X259252D02*
Y125110D01*
X265748D01*
X259252Y201343D02*
X265748D01*
Y212563D01*
X259252D02*
X265748D01*
X259252Y201343D02*
Y212563D01*
X141601Y134524D02*
X147399D01*
X141601D02*
Y137476D01*
X147399D01*
Y134524D02*
Y137476D01*
X141601Y165024D02*
X147399D01*
X141601D02*
Y167976D01*
X147399D01*
Y165024D02*
Y167976D01*
X148032Y213523D02*
Y230477D01*
X137968Y213523D02*
X148032D01*
X137968D02*
Y230477D01*
X148032D01*
X265748Y94890D02*
Y106110D01*
X259252Y94890D02*
X265748D01*
X259252D02*
Y106110D01*
X265748D01*
X230925Y174150D02*
X234075D01*
X230925Y167850D02*
Y174150D01*
Y167850D02*
X234075D01*
Y174150D01*
X233075Y98276D02*
Y104575D01*
X229925Y98276D02*
X233075D01*
X229925D02*
Y104575D01*
X233075D01*
%TF.MD5,9ef978983b14acb6e8edcb7116801987*%
M02*
