%TF.GenerationSoftware,Altium Limited,Altium Designer,22.9.1 (49)*%
G04 Layer_Physical_Order=1*
G04 Layer_Color=255*
%FSLAX25Y25*%
%MOIN*%
%TF.SameCoordinates,E4663CD6-9850-4590-99AB-2D6E941D03D6*%
%TF.FilePolarity,Positive*%
%TF.FileFunction,Copper,L1,Top,Signal*%
%TF.Part,Single*%
G01*
G75*
%TA.AperFunction,SMDPad,CuDef*%
G04:AMPARAMS|DCode=10|XSize=94.49mil|YSize=242.91mil|CornerRadius=1.89mil|HoleSize=0mil|Usage=FLASHONLY|Rotation=0.000|XOffset=0mil|YOffset=0mil|HoleType=Round|Shape=RoundedRectangle|*
%AMROUNDEDRECTD10*
21,1,0.09449,0.23913,0,0,0.0*
21,1,0.09071,0.24291,0,0,0.0*
1,1,0.00378,0.04535,-0.11957*
1,1,0.00378,-0.04535,-0.11957*
1,1,0.00378,-0.04535,0.11957*
1,1,0.00378,0.04535,0.11957*
%
%ADD10ROUNDEDRECTD10*%
G04:AMPARAMS|DCode=11|XSize=17.72mil|YSize=62.99mil|CornerRadius=1.95mil|HoleSize=0mil|Usage=FLASHONLY|Rotation=90.000|XOffset=0mil|YOffset=0mil|HoleType=Round|Shape=RoundedRectangle|*
%AMROUNDEDRECTD11*
21,1,0.01772,0.05909,0,0,90.0*
21,1,0.01382,0.06299,0,0,90.0*
1,1,0.00390,0.02955,0.00691*
1,1,0.00390,0.02955,-0.00691*
1,1,0.00390,-0.02955,-0.00691*
1,1,0.00390,-0.02955,0.00691*
%
%ADD11ROUNDEDRECTD11*%
%ADD12R,0.01575X0.01968*%
%ADD13R,0.05928X0.07316*%
%ADD14R,0.06127X0.06213*%
%TA.AperFunction,ConnectorPad*%
%ADD15R,0.03937X0.06142*%
%TA.AperFunction,SMDPad,CuDef*%
%ADD16R,0.04724X0.05709*%
G04:AMPARAMS|DCode=17|XSize=17.72mil|YSize=51.18mil|CornerRadius=4.43mil|HoleSize=0mil|Usage=FLASHONLY|Rotation=180.000|XOffset=0mil|YOffset=0mil|HoleType=Round|Shape=RoundedRectangle|*
%AMROUNDEDRECTD17*
21,1,0.01772,0.04232,0,0,180.0*
21,1,0.00886,0.05118,0,0,180.0*
1,1,0.00886,-0.00443,0.02116*
1,1,0.00886,0.00443,0.02116*
1,1,0.00886,0.00443,-0.02116*
1,1,0.00886,-0.00443,-0.02116*
%
%ADD17ROUNDEDRECTD17*%
G04:AMPARAMS|DCode=18|XSize=17.72mil|YSize=51.18mil|CornerRadius=4.43mil|HoleSize=0mil|Usage=FLASHONLY|Rotation=180.000|XOffset=0mil|YOffset=0mil|HoleType=Round|Shape=RoundedRectangle|*
%AMROUNDEDRECTD18*
21,1,0.01772,0.04232,0,0,180.0*
21,1,0.00886,0.05118,0,0,180.0*
1,1,0.00886,-0.00443,0.02116*
1,1,0.00886,0.00443,0.02116*
1,1,0.00886,0.00443,-0.02116*
1,1,0.00886,-0.00443,-0.02116*
%
%ADD18ROUNDEDRECTD18*%
%ADD19R,0.03937X0.06142*%
%ADD20R,0.03740X0.05315*%
%ADD21R,0.03543X0.03150*%
%ADD22R,0.02756X0.02559*%
%ADD23R,0.02029X0.01860*%
%ADD24R,0.02047X0.02047*%
%TA.AperFunction,Conductor*%
%ADD25C,0.01200*%
%ADD26C,0.01000*%
%TA.AperFunction,ComponentPad*%
%ADD27C,0.02000*%
%ADD28C,0.06165*%
%ADD29R,0.06165X0.06165*%
%ADD30C,0.04016*%
%ADD31R,0.06165X0.06165*%
%TA.AperFunction,ViaPad*%
%ADD32C,0.05000*%
D10*
X166492Y151366D02*
D03*
D11*
X154484Y168000D02*
D03*
Y165441D02*
D03*
Y162882D02*
D03*
Y160323D02*
D03*
Y157764D02*
D03*
Y155205D02*
D03*
Y152646D02*
D03*
Y150087D02*
D03*
Y147528D02*
D03*
Y144968D02*
D03*
Y142409D02*
D03*
Y139850D02*
D03*
Y137291D02*
D03*
Y134732D02*
D03*
X178500Y168000D02*
D03*
Y165441D02*
D03*
Y162882D02*
D03*
Y160323D02*
D03*
Y157764D02*
D03*
Y155205D02*
D03*
Y152646D02*
D03*
Y150087D02*
D03*
Y147528D02*
D03*
Y144968D02*
D03*
Y142409D02*
D03*
Y139850D02*
D03*
Y137291D02*
D03*
Y134732D02*
D03*
D12*
X140425Y154000D02*
D03*
X143575D02*
D03*
X140425Y148000D02*
D03*
X143575D02*
D03*
D13*
X149812Y127000D02*
D03*
X138188D02*
D03*
X150812Y176000D02*
D03*
X139188D02*
D03*
D14*
X129000Y225402D02*
D03*
Y218598D02*
D03*
X156500Y225402D02*
D03*
Y218598D02*
D03*
X143000Y225402D02*
D03*
Y218598D02*
D03*
D15*
X125000Y6563D02*
D03*
Y29437D02*
D03*
X135000Y6563D02*
D03*
Y29437D02*
D03*
X145000Y6563D02*
D03*
Y29437D02*
D03*
X155000Y6563D02*
D03*
Y29437D02*
D03*
X165000Y6563D02*
D03*
Y29437D02*
D03*
X175000Y6563D02*
D03*
Y29437D02*
D03*
X185000Y6563D02*
D03*
Y29437D02*
D03*
X195000Y6563D02*
D03*
Y29437D02*
D03*
X205000Y6563D02*
D03*
Y29437D02*
D03*
X215000Y6563D02*
D03*
Y29437D02*
D03*
D16*
X238937Y91000D02*
D03*
X231063D02*
D03*
X239437Y160500D02*
D03*
X231563D02*
D03*
Y143000D02*
D03*
X239437D02*
D03*
X232063Y212500D02*
D03*
X239937D02*
D03*
D17*
X237059Y181000D02*
D03*
X234500Y197535D02*
D03*
X237059D02*
D03*
X231941Y181000D02*
D03*
X234500D02*
D03*
X239618D02*
D03*
X231941Y197535D02*
D03*
X231441Y128035D02*
D03*
X239118Y111500D02*
D03*
X234000D02*
D03*
X231441D02*
D03*
X236559Y128035D02*
D03*
X234000D02*
D03*
X236559Y111500D02*
D03*
D18*
X239618Y197535D02*
D03*
X239118Y128035D02*
D03*
D19*
X125000Y46563D02*
D03*
X145000D02*
D03*
X155000D02*
D03*
X165000D02*
D03*
X175000D02*
D03*
X185000D02*
D03*
X195000D02*
D03*
X205000D02*
D03*
X215000D02*
D03*
Y69437D02*
D03*
X205000D02*
D03*
X195000D02*
D03*
X185000D02*
D03*
X175000D02*
D03*
X165000D02*
D03*
X155000D02*
D03*
X145000D02*
D03*
X135000D02*
D03*
Y46563D02*
D03*
X125000Y69437D02*
D03*
D20*
X223051Y181000D02*
D03*
X216949D02*
D03*
X223000Y197500D02*
D03*
X216898D02*
D03*
X223209Y128000D02*
D03*
X217106D02*
D03*
X223051Y111500D02*
D03*
X216949D02*
D03*
D21*
X262500Y186047D02*
D03*
Y191953D02*
D03*
Y141453D02*
D03*
Y135547D02*
D03*
Y167595D02*
D03*
Y173500D02*
D03*
Y116547D02*
D03*
Y122453D02*
D03*
Y209906D02*
D03*
Y204000D02*
D03*
Y97547D02*
D03*
Y103453D02*
D03*
D22*
X252370Y128000D02*
D03*
X248630D02*
D03*
X252370Y111500D02*
D03*
X248630D02*
D03*
X252000Y197500D02*
D03*
X248260D02*
D03*
X252240Y181000D02*
D03*
X248500D02*
D03*
D23*
X145990Y136000D02*
D03*
X143010D02*
D03*
X145990Y166500D02*
D03*
X143010D02*
D03*
D24*
X232500Y172575D02*
D03*
Y169425D02*
D03*
X231500Y103000D02*
D03*
Y99850D02*
D03*
D25*
X185000Y69437D02*
Y76000D01*
X192000Y83000D02*
Y101500D01*
X185000Y76000D02*
X192000Y83000D01*
X185000Y68335D02*
Y69437D01*
X192000Y101500D02*
Y102528D01*
X182768Y134732D02*
X197500Y120000D01*
X192000Y102528D02*
X197500Y108028D01*
Y120000D01*
X178500Y134732D02*
X182768D01*
X233714Y128321D02*
Y130503D01*
X233227Y130990D02*
Y133732D01*
X233714Y128321D02*
X234000Y128035D01*
X233227Y130990D02*
X233714Y130503D01*
X232500Y134459D02*
X233227Y133732D01*
X125000Y6563D02*
Y7665D01*
X128108Y10773D01*
Y25227D01*
X125000Y28335D02*
Y29437D01*
Y28335D02*
X128108Y25227D01*
X181892Y50773D02*
X185000Y47665D01*
X181892Y50773D02*
Y65227D01*
X185000Y68335D01*
Y46563D02*
Y47665D01*
Y6563D02*
Y7665D01*
X181892Y10773D02*
X185000Y7665D01*
X181892Y10773D02*
Y25227D01*
X185000Y28335D01*
Y29437D01*
X178500Y162882D02*
X187882D01*
X183727Y165727D02*
X193500Y175500D01*
X178500Y165441D02*
X178786Y165727D01*
X183727D01*
X125000Y46563D02*
Y47665D01*
X128108Y50773D01*
Y65227D01*
X125000Y68335D02*
X128108Y65227D01*
X125000Y68335D02*
Y69437D01*
X178500Y160323D02*
X192323D01*
X207500Y175500D01*
X187882Y162882D02*
X200500Y175500D01*
X180764Y168000D02*
X185773Y173009D01*
X178500Y168000D02*
X180764D01*
X185773Y173009D02*
Y174773D01*
X186500Y175500D01*
X152340Y173778D02*
X154484Y171634D01*
X151159Y175653D02*
X151812Y175000D01*
X151465Y174653D02*
X152340Y173778D01*
X139535Y175653D02*
X141552Y173636D01*
X141205Y173289D02*
X143010Y171485D01*
X150812Y175306D02*
Y176000D01*
X154484Y168000D02*
Y171634D01*
X150812Y175306D02*
X154484Y171634D01*
Y165441D02*
Y168000D01*
X149288Y164901D02*
X151022Y163168D01*
X154198D01*
X154484Y162882D01*
X150806Y152931D02*
X154198D01*
X150512Y153225D02*
X150806Y152931D01*
X154198D02*
X154484Y152646D01*
X151134Y149801D02*
X154198D01*
X154484Y150087D01*
X150940Y149607D02*
X151134Y149801D01*
X150838Y147242D02*
X154198D01*
X145596Y142000D02*
X150838Y147242D01*
X154198D02*
X154484Y147528D01*
X146000Y140000D02*
X150683Y144683D01*
X154198D02*
X154484Y144968D01*
X150683Y144683D02*
X154198D01*
X145990Y136000D02*
X146075D01*
X146405Y136330D01*
Y137248D01*
X151281Y142124D01*
X154198D01*
X154484Y142409D01*
X149144Y135654D02*
Y137499D01*
X151210Y139565D01*
X143010Y136000D02*
X143094D01*
X151210Y139565D02*
X154198D01*
X154484Y139850D01*
X156500Y206500D02*
Y218598D01*
X131463Y211037D02*
Y216135D01*
Y211037D02*
X136000Y206500D01*
X140537Y211037D02*
Y216135D01*
X136000Y206500D02*
X140537Y211037D01*
X158963Y222895D02*
X159928D01*
X180500Y202324D01*
Y189000D02*
Y202324D01*
X156500Y225359D02*
Y225402D01*
Y225359D02*
X158963Y222895D01*
X156720Y225622D02*
Y238500D01*
X156500Y225402D02*
X156720Y225622D01*
X142500Y225402D02*
X142750Y225652D01*
X148000Y194000D02*
Y224699D01*
X147297Y225402D02*
X148000Y224699D01*
X143000Y225402D02*
X147297D01*
X127500Y173500D02*
X148000Y194000D01*
X129161Y226740D02*
X130500Y225402D01*
X121000Y173500D02*
Y223469D01*
X122933Y225402D02*
X129000D01*
X121000Y223469D02*
X122933Y225402D01*
X146000Y162500D02*
X150544Y157956D01*
X121500Y162500D02*
X146000D01*
X77661Y206339D02*
X121500Y162500D01*
X145400Y160600D02*
X150603Y155397D01*
X88596Y192500D02*
X120496Y160600D01*
X145400D01*
X128902Y225500D02*
X129000Y225402D01*
Y218598D02*
X131463Y216135D01*
X140537D02*
X143000Y218598D01*
X142941Y225843D02*
Y238500D01*
X129161Y226740D02*
Y238500D01*
X138349Y150273D02*
X140425Y148197D01*
X135227Y150273D02*
X138349D01*
X140425Y148000D02*
Y148197D01*
X134500Y151000D02*
X135227Y150273D01*
X138349Y151727D02*
X140425Y153803D01*
X134500Y151000D02*
X135227Y151727D01*
X140425Y153803D02*
Y154000D01*
X135227Y151727D02*
X138349D01*
X88382Y109882D02*
X120500Y142000D01*
X145596D01*
X57500Y109882D02*
X88382D01*
X121500Y140000D02*
X146000D01*
X77602Y96102D02*
X121500Y140000D01*
X57500Y96102D02*
X77602D01*
X151812Y175000D02*
X152687Y174125D01*
X151812Y175000D02*
X166500D01*
X150812Y176000D02*
X151812Y175000D01*
X143010Y171485D02*
X144506D01*
X149288Y166702D01*
Y164901D02*
Y166702D01*
X139188Y175306D02*
X141205Y173289D01*
X143010Y166500D02*
Y171485D01*
X139188Y175306D02*
Y176000D01*
X151116Y160515D02*
X154034D01*
X146075Y166500D02*
X146405Y166170D01*
X145990Y166500D02*
X146075D01*
X154034Y160515D02*
X154319Y160229D01*
X146405Y165226D02*
X151116Y160515D01*
X146405Y165226D02*
Y166170D01*
X143010Y134258D02*
Y136000D01*
Y132515D02*
Y134258D01*
X143297Y133970D02*
X147460D01*
X143010Y134258D02*
X143297Y133970D01*
X149812Y127000D02*
X150812Y128000D01*
X166000D01*
X152425Y130058D02*
X154319Y131953D01*
X152176Y130058D02*
X152425D01*
X149812Y127000D02*
Y127694D01*
X154319Y131953D02*
Y134638D01*
X149812Y127694D02*
X152176Y130058D01*
X138188Y127000D02*
Y127694D01*
X143010Y132515D01*
X147460Y133970D02*
X149144Y135654D01*
X57500Y206339D02*
X77661D01*
X57559Y192500D02*
X88596D01*
X146940Y148000D02*
X148066Y146874D01*
X143575Y148000D02*
X146940D01*
X146512Y154000D02*
X148054Y155542D01*
X143575Y154000D02*
X146512D01*
X150544Y157956D02*
X154034D01*
X150603Y155397D02*
X154034D01*
X154319Y155111D01*
X154034Y157956D02*
X154319Y157670D01*
X139188Y176000D02*
X141552Y173636D01*
X215000Y6563D02*
Y7665D01*
X211892Y10773D02*
X215000Y7665D01*
X211892Y10773D02*
Y25227D01*
X215000Y28335D01*
Y29437D01*
X205000Y6563D02*
Y7665D01*
X201892Y10773D02*
X205000Y7665D01*
X201892Y10773D02*
Y25227D01*
X205000Y28335D01*
Y29437D01*
X195000Y6563D02*
Y7665D01*
X191892Y10773D02*
X195000Y7665D01*
X191892Y10773D02*
Y25227D01*
X195000Y28335D01*
Y29437D01*
X155000Y6563D02*
Y7665D01*
X158108Y10773D01*
Y25227D01*
X155000Y28335D02*
X158108Y25227D01*
X155000Y28335D02*
Y29437D01*
X145000Y28335D02*
X148108Y25227D01*
X145000Y7665D02*
X148108Y10773D01*
X145000Y6563D02*
Y7665D01*
Y28335D02*
Y29437D01*
X148108Y10773D02*
Y25227D01*
X135000Y6563D02*
Y7665D01*
X138108Y10773D01*
Y25227D01*
X135000Y28335D02*
X138108Y25227D01*
X135000Y28335D02*
Y29437D01*
X195000Y68335D02*
Y69437D01*
X205000Y68335D02*
Y69437D01*
X215000Y68335D02*
Y69437D01*
X135000Y68335D02*
Y69437D01*
X145000Y68335D02*
Y69437D01*
X155000Y68335D02*
Y69437D01*
X57500Y192559D02*
X57559Y192500D01*
X215000Y46563D02*
Y47665D01*
X211892Y50773D02*
X215000Y47665D01*
X211892Y50773D02*
Y65227D01*
X215000Y68335D01*
X205000Y46563D02*
Y47665D01*
X201892Y50773D02*
Y65227D01*
X205000Y68335D01*
X201892Y50773D02*
X205000Y47665D01*
X195000Y46563D02*
Y47665D01*
X191892Y50773D02*
Y65227D01*
X195000Y68335D01*
X191892Y50773D02*
X195000Y47665D01*
X155000Y46563D02*
Y47665D01*
X158108Y50773D01*
Y65227D01*
X155000Y68335D02*
X158108Y65227D01*
X145000Y46563D02*
Y47665D01*
X148108Y50773D01*
Y65227D01*
X145000Y68335D02*
X148108Y65227D01*
X135000Y46563D02*
Y47665D01*
X138108Y50773D01*
Y65227D01*
X135000Y68335D02*
X138108Y65227D01*
D26*
X155000Y83793D02*
X189707Y118500D01*
X183000D02*
X183500D01*
X155000Y69437D02*
Y83793D01*
X145000Y80500D02*
X183000Y118500D01*
X189707D02*
X190500D01*
X199500Y80500D02*
Y120828D01*
X195000Y76000D02*
X199500Y80500D01*
X182953Y137376D02*
X199500Y120828D01*
X201500Y80000D02*
Y121657D01*
Y80000D02*
X205000Y76500D01*
X183173Y139984D02*
X201500Y121657D01*
X183442Y142543D02*
X203500Y122485D01*
X178353Y137376D02*
X182953D01*
X203500Y88500D02*
Y122485D01*
Y88500D02*
X215000Y77000D01*
X178303Y139984D02*
X183173D01*
X178303Y152779D02*
X183138D01*
X178303Y150221D02*
X178689Y149835D01*
X145237Y158500D02*
X150512Y153225D01*
X127500Y146000D02*
X128086D01*
X130086Y144000D01*
X145333D01*
X130086Y158500D02*
X145237D01*
X127500Y156500D02*
X128086D01*
X130086Y158500D01*
X189379Y145121D02*
X190000Y144500D01*
X184621Y146500D02*
X186000Y145121D01*
X189379D01*
X215342Y113657D02*
X215579D01*
X178405Y145000D02*
X184000D01*
X215342Y113657D01*
X178303Y145102D02*
X178405Y145000D01*
X215579Y113657D02*
X216949Y112287D01*
X135000Y77500D02*
X176000Y118500D01*
X145000Y69437D02*
Y80500D01*
X135000Y69437D02*
Y77500D01*
X125000Y74700D02*
X168700Y118400D01*
X125000Y69437D02*
Y74700D01*
X145333Y144000D02*
X150940Y149607D01*
X143575Y154000D02*
Y154197D01*
X154287Y134866D02*
Y137039D01*
X154075Y137252D02*
X154287Y137039D01*
X154075Y137252D02*
X154114D01*
X154287Y137425D01*
X154244Y160457D02*
X154266Y160478D01*
X186500Y175500D02*
X215000Y204000D01*
X225500D01*
X195000Y69437D02*
Y76000D01*
X205000Y69437D02*
Y76500D01*
X178303Y137425D02*
X178353Y137376D01*
X216949Y111500D02*
Y112287D01*
X215000Y69437D02*
Y77000D01*
X188500Y148000D02*
X191500Y151000D01*
X181665Y149835D02*
X183500Y148000D01*
X188500D01*
X227500Y95500D02*
X229201Y93799D01*
X227500Y95500D02*
Y105886D01*
X229201Y92862D02*
Y93799D01*
X227500Y105886D02*
X231441Y109827D01*
X213000Y189500D02*
X216898Y193398D01*
X178303Y157898D02*
X215398D01*
X216949Y159449D01*
Y181000D01*
X262500Y90500D02*
Y97547D01*
Y209906D02*
Y217500D01*
X216898Y193398D02*
Y197500D01*
X217106Y135174D02*
X236594Y154661D01*
Y155339D01*
X262161D01*
X262500Y155000D01*
X178303Y155339D02*
X236594D01*
X217106Y128000D02*
Y135174D01*
X262500Y141453D02*
Y155000D01*
Y167595D01*
X191500Y151000D02*
Y151500D01*
X182879Y146500D02*
X184621D01*
X182103Y147276D02*
X182879Y146500D01*
X178689Y147276D02*
X182103D01*
X178303Y147661D02*
X178689Y147276D01*
X239118Y129709D02*
X241500Y132091D01*
X239118Y142681D02*
X239437Y143000D01*
Y138013D02*
Y143000D01*
X238000Y133507D02*
Y134500D01*
X239437Y138013D02*
X241500Y135950D01*
Y132091D02*
Y135950D01*
X236559Y132067D02*
X238000Y133507D01*
X229000Y133009D02*
Y135908D01*
X231055Y128421D02*
Y130954D01*
X223244Y128035D02*
X231441D01*
X229000Y135908D02*
X231441Y138349D01*
X229000Y133009D02*
X231055Y130954D01*
X231441Y138349D02*
Y142878D01*
X231055Y128421D02*
X231441Y128035D01*
Y142878D02*
X231563Y143000D01*
X239618Y179327D02*
X242500Y176445D01*
X239437Y160992D02*
X242500Y164055D01*
X237059Y176941D02*
X239000Y175000D01*
Y174750D02*
Y175000D01*
X242500Y164055D02*
Y176445D01*
X237893Y168000D02*
X238975D01*
X236467Y169425D02*
X237893Y168000D01*
X140437Y221205D02*
X143000Y218641D01*
Y218598D02*
Y218641D01*
X128925Y238264D02*
X129161Y238500D01*
X262500Y116547D02*
X295996D01*
X313500Y99043D01*
X262500Y122453D02*
X303870D01*
X313500Y112823D01*
X262500Y191953D02*
X296173D01*
X313500Y209279D01*
X262500Y186047D02*
X304047D01*
X313500Y195500D01*
X183138Y152779D02*
X184418Y151500D01*
X185500D01*
X178689Y149835D02*
X181665D01*
X236042Y99850D02*
X237392Y98500D01*
X231500Y99850D02*
X236042D01*
X237392Y98500D02*
X238475D01*
X236559Y107441D02*
X238500Y105500D01*
Y104500D02*
Y105500D01*
X236559Y107441D02*
Y111500D01*
X231500Y103000D02*
X234000Y105500D01*
Y111500D01*
X228500Y176000D02*
X231441Y178941D01*
X228500Y164532D02*
Y176000D01*
Y164532D02*
X229701Y163331D01*
X231441Y178941D02*
X231555D01*
X231941Y179327D01*
Y181000D01*
X229201Y92862D02*
X231063Y91000D01*
X231441Y109827D02*
Y111500D01*
X238937Y91000D02*
Y91492D01*
X242000Y94555D01*
Y106945D01*
X239118Y109827D02*
X242000Y106945D01*
X239118Y109827D02*
Y111500D01*
X236559Y128035D02*
Y132067D01*
X239118Y128035D02*
Y129709D01*
X239937Y207563D02*
X242000Y205500D01*
X239937Y207563D02*
Y212500D01*
X242000Y201591D02*
Y205500D01*
X239653Y199244D02*
X242000Y201591D01*
X237059Y197535D02*
X237177Y197653D01*
Y201594D02*
X238500Y202918D01*
X237177Y197653D02*
Y201594D01*
X238500Y202918D02*
Y204000D01*
X232063Y208013D02*
Y212500D01*
X233000Y202918D02*
Y204000D01*
X229500Y205450D02*
X232063Y208013D01*
X233000Y202918D02*
X234323Y201594D01*
X231941Y212378D02*
X232063Y212500D01*
X229500Y201650D02*
X231941Y199209D01*
X229500Y201650D02*
Y205450D01*
X234323Y199594D02*
X234500Y199418D01*
X234323Y199594D02*
Y201594D01*
X237059Y176941D02*
Y181000D01*
X232500Y169425D02*
X236467D01*
X234500Y174575D02*
Y181000D01*
X232500Y172575D02*
X234500Y174575D01*
X229701Y162362D02*
Y163331D01*
Y162362D02*
X231563Y160500D01*
Y160992D01*
X239618Y179327D02*
Y181000D01*
X239437Y160500D02*
Y160992D01*
X239653Y197500D02*
Y199244D01*
X231941Y197535D02*
Y199209D01*
X234500Y197535D02*
Y199418D01*
X178303Y142543D02*
X183442D01*
X252240Y181000D02*
X260256D01*
X262500Y191953D02*
Y194756D01*
X259756Y197500D02*
X262500Y194756D01*
Y183244D02*
Y186047D01*
X260256Y181000D02*
X262500Y183244D01*
Y173500D02*
Y178756D01*
X260256Y181000D02*
X262500Y178756D01*
X252370Y128000D02*
X260000D01*
X262500Y125500D01*
X260000Y128000D02*
X262500Y130500D01*
Y135547D01*
X252370Y111500D02*
X260000D01*
X262500Y109000D01*
X260000Y111500D02*
X262500Y114000D01*
Y122453D02*
Y125500D01*
Y114000D02*
Y116547D01*
X259756Y197500D02*
X262500Y200244D01*
X252000Y197500D02*
X259756D01*
X262500Y200244D02*
Y204000D01*
X223051Y181000D02*
X231941D01*
X262500Y103453D02*
Y109000D01*
X223209Y128000D02*
X223244Y128035D01*
X223051Y111500D02*
X231441D01*
X239618Y181000D02*
X248500D01*
X223035Y197535D02*
X231941D01*
X239653Y197500D02*
X248260D01*
X223000D02*
X223035Y197535D01*
X239118Y128035D02*
X239154Y128000D01*
X248630D01*
X239118Y111500D02*
X248630D01*
D27*
X162992Y161366D02*
D03*
X166492D02*
D03*
X169992D02*
D03*
Y157366D02*
D03*
X166492D02*
D03*
X162992D02*
D03*
X166492Y153866D02*
D03*
X162992D02*
D03*
X169992D02*
D03*
X162992Y148866D02*
D03*
X166492D02*
D03*
Y144866D02*
D03*
X162992D02*
D03*
X166492Y140866D02*
D03*
X162992D02*
D03*
X169917Y148889D02*
D03*
Y144889D02*
D03*
Y140889D02*
D03*
D28*
X198059Y238500D02*
D03*
X184280D02*
D03*
X170500D02*
D03*
X156720D02*
D03*
X142941D02*
D03*
X239398D02*
D03*
X225618D02*
D03*
X211839D02*
D03*
X57500Y96102D02*
D03*
X313500Y140382D02*
D03*
Y154161D02*
D03*
Y167941D02*
D03*
Y181720D02*
D03*
Y195500D02*
D03*
Y99043D02*
D03*
Y112823D02*
D03*
Y126602D02*
D03*
X57500Y137441D02*
D03*
Y151221D02*
D03*
Y165000D02*
D03*
Y178779D02*
D03*
Y192559D02*
D03*
Y109882D02*
D03*
Y123661D02*
D03*
D29*
X129161Y238500D02*
D03*
D30*
X125000Y63000D02*
D03*
X135000D02*
D03*
X145000D02*
D03*
X155000D02*
D03*
X185000D02*
D03*
X195000D02*
D03*
X205000D02*
D03*
X215000D02*
D03*
X125000Y23000D02*
D03*
X135000D02*
D03*
X145000D02*
D03*
X155000D02*
D03*
X165000D02*
D03*
X175000D02*
D03*
X185000D02*
D03*
X195000D02*
D03*
X205000D02*
D03*
X215000D02*
D03*
X125000Y13000D02*
D03*
X135000D02*
D03*
X145000D02*
D03*
X155000D02*
D03*
X165000D02*
D03*
X175000D02*
D03*
X185000D02*
D03*
X195000D02*
D03*
X205000D02*
D03*
X215000D02*
D03*
Y53000D02*
D03*
X205000D02*
D03*
X195000D02*
D03*
X185000D02*
D03*
X175000D02*
D03*
X165000D02*
D03*
X155000D02*
D03*
X145000D02*
D03*
X135000D02*
D03*
X125000D02*
D03*
X175000Y63000D02*
D03*
X165000D02*
D03*
D31*
X313500Y209279D02*
D03*
X57500Y206339D02*
D03*
D32*
X232500Y134459D02*
D03*
X183500Y118500D02*
D03*
X190500D02*
D03*
X136000Y206500D02*
D03*
X156500D02*
D03*
X180500Y189000D02*
D03*
X121000Y173500D02*
D03*
X127500D02*
D03*
Y156500D02*
D03*
Y146000D02*
D03*
X190000Y144500D02*
D03*
X176000Y118500D02*
D03*
X168700Y118400D02*
D03*
X134500Y151000D02*
D03*
X166500Y175000D02*
D03*
X166000Y128000D02*
D03*
X192000Y101500D02*
D03*
X200500Y175500D02*
D03*
X213000Y189500D02*
D03*
X262500Y217500D02*
D03*
Y90500D02*
D03*
Y155000D02*
D03*
X191500Y151500D02*
D03*
X238000Y134500D02*
D03*
X225500Y204000D02*
D03*
X239000Y174750D02*
D03*
X238975Y168000D02*
D03*
X185500Y151500D02*
D03*
X193500Y175500D02*
D03*
X238500Y104500D02*
D03*
X238475Y98500D02*
D03*
X238500Y204000D02*
D03*
X233000D02*
D03*
X207500Y175500D02*
D03*
X186500D02*
D03*
%TF.MD5,f225f2e424f15528c49e4890fe15ab17*%
M02*
