%TF.GenerationSoftware,Altium Limited,Altium Designer,22.9.1 (49)*%
G04 Layer_Color=16711935*
%FSLAX25Y25*%
%MOIN*%
%TF.SameCoordinates,E4663CD6-9850-4590-99AB-2D6E941D03D6*%
%TF.FilePolarity,Positive*%
%TF.FileFunction,Other,Mechanical_13*%
%TF.Part,Single*%
G01*
G75*
%TA.AperFunction,NonConductor*%
%ADD39C,0.00394*%
D39*
X163146Y167114D02*
G03*
X163146Y167114I-1969J0D01*
G01*
X235189Y186709D02*
G03*
X235189Y186709I-1969J0D01*
G01*
X234689Y117209D02*
G03*
X234689Y117209I-1969J0D01*
G01*
X157634Y132075D02*
Y170658D01*
X175350Y132075D02*
Y170658D01*
X157634D02*
X175350D01*
X157634Y132075D02*
X175350D01*
X230866Y88342D02*
X239134D01*
X230866Y93657D02*
X239134D01*
Y88342D02*
Y93657D01*
X230866Y88342D02*
Y93657D01*
X229677Y183165D02*
X241882D01*
X229677Y195370D02*
X241882D01*
X229677Y183165D02*
Y195370D01*
X241882Y183165D02*
Y195370D01*
X231366Y157843D02*
X239634D01*
X231366Y163157D02*
X239634D01*
Y157843D02*
Y163157D01*
X231366Y157843D02*
Y163157D01*
X215669Y178146D02*
X224331D01*
X215669Y183854D02*
X224331D01*
Y178146D02*
Y183854D01*
X215669Y178146D02*
Y183854D01*
X215618Y194646D02*
X224279D01*
X215618Y200354D02*
X224279D01*
Y194646D02*
Y200354D01*
X215618Y194646D02*
Y200354D01*
X248433Y126917D02*
X252567D01*
X248433Y129083D02*
X252567D01*
Y126917D02*
Y129083D01*
X248433Y126917D02*
Y129083D01*
Y110417D02*
X252567D01*
X248433Y112583D02*
X252567D01*
Y110417D02*
Y112583D01*
X248433Y110417D02*
Y112583D01*
X215827Y125146D02*
X224488D01*
X215827Y130854D02*
X224488D01*
Y125146D02*
Y130854D01*
X215827Y125146D02*
Y130854D01*
X231366Y140342D02*
Y145658D01*
X239634Y140342D02*
Y145658D01*
X231366D02*
X239634D01*
X231366Y140342D02*
X239634D01*
X241382Y113665D02*
Y125870D01*
X229177Y113665D02*
Y125870D01*
X241382D01*
X229177Y113665D02*
X241382D01*
X231866Y209842D02*
Y215158D01*
X240134Y209842D02*
Y215158D01*
X231866D02*
X240134D01*
X231866Y209842D02*
X240134D01*
X248063Y196417D02*
X252197D01*
X248063Y198583D02*
X252197D01*
Y196417D02*
Y198583D01*
X248063Y196417D02*
Y198583D01*
X248303Y179917D02*
X252437D01*
X248303Y182083D02*
X252437D01*
Y179917D02*
Y182083D01*
X248303Y179917D02*
Y182083D01*
X215669Y108646D02*
X224331D01*
X215669Y114354D02*
X224331D01*
Y108646D02*
Y114354D01*
X215669Y108646D02*
Y114354D01*
%TF.MD5,59d03411888a0083cc77627f8a518779*%
M02*
