%TF.GenerationSoftware,Altium Limited,Altium Designer,22.9.1 (49)*%
G04 Layer_Color=0*
%FSLAX25Y25*%
%MOIN*%
%TF.SameCoordinates,E4663CD6-9850-4590-99AB-2D6E941D03D6*%
%TF.FilePolarity,Positive*%
%TF.FileFunction,Plated,1,2,PTH,Drill*%
%TF.Part,Single*%
G01*
G75*
%TA.AperFunction,ComponentDrill*%
%ADD52C,0.01000*%
%ADD53C,0.04724*%
%ADD54C,0.04724*%
%TA.AperFunction,ViaDrill,NotFilled*%
%ADD55C,0.02800*%
D52*
X162992Y161366D02*
D03*
X166492D02*
D03*
X169992D02*
D03*
Y157366D02*
D03*
X166492D02*
D03*
X162992D02*
D03*
X166492Y153866D02*
D03*
X162992D02*
D03*
X169992D02*
D03*
X162992Y148866D02*
D03*
X166492D02*
D03*
Y144866D02*
D03*
X162992D02*
D03*
X166492Y140866D02*
D03*
X162992D02*
D03*
X169917Y148889D02*
D03*
Y144889D02*
D03*
Y140889D02*
D03*
D53*
X198059Y238500D02*
D03*
X184280D02*
D03*
X170500D02*
D03*
X156720D02*
D03*
X142941D02*
D03*
X129161D02*
D03*
X239398D02*
D03*
X225618D02*
D03*
X211839D02*
D03*
D54*
X57500Y96102D02*
D03*
X313500Y140382D02*
D03*
Y154161D02*
D03*
Y167941D02*
D03*
Y181720D02*
D03*
Y195500D02*
D03*
Y209279D02*
D03*
Y99043D02*
D03*
Y112823D02*
D03*
Y126602D02*
D03*
X57500Y137441D02*
D03*
Y151221D02*
D03*
Y165000D02*
D03*
Y178779D02*
D03*
Y192559D02*
D03*
Y206339D02*
D03*
Y109882D02*
D03*
Y123661D02*
D03*
D55*
X232500Y134459D02*
D03*
X183500Y118500D02*
D03*
X190500D02*
D03*
X136000Y206500D02*
D03*
X156500D02*
D03*
X180500Y189000D02*
D03*
X121000Y173500D02*
D03*
X127500D02*
D03*
Y156500D02*
D03*
Y146000D02*
D03*
X190000Y144500D02*
D03*
X176000Y118500D02*
D03*
X168700Y118400D02*
D03*
X134500Y151000D02*
D03*
X166500Y175000D02*
D03*
X166000Y128000D02*
D03*
X192000Y101500D02*
D03*
X200500Y175500D02*
D03*
X213000Y189500D02*
D03*
X262500Y217500D02*
D03*
Y90500D02*
D03*
Y155000D02*
D03*
X191500Y151500D02*
D03*
X238000Y134500D02*
D03*
X225500Y204000D02*
D03*
X239000Y174750D02*
D03*
X238975Y168000D02*
D03*
X185500Y151500D02*
D03*
X193500Y175500D02*
D03*
X238500Y104500D02*
D03*
X238475Y98500D02*
D03*
X238500Y204000D02*
D03*
X233000D02*
D03*
X207500Y175500D02*
D03*
X186500D02*
D03*
%TF.MD5,7383c476e3534c73f29e146262e369d6*%
M02*
