%TF.GenerationSoftware,Altium Limited,Altium Designer,22.9.1 (49)*%
G04 Layer_Color=32768*
%FSLAX25Y25*%
%MOIN*%
%TF.SameCoordinates,E4663CD6-9850-4590-99AB-2D6E941D03D6*%
%TF.FilePolarity,Positive*%
%TF.FileFunction,Other,Top_Courtyard*%
%TF.Part,Single*%
G01*
G75*
%TA.AperFunction,NonConductor*%
%ADD36C,0.00787*%
D36*
X144756Y152524D02*
Y155476D01*
X139244D02*
X144756D01*
X139244Y152524D02*
Y155476D01*
Y152524D02*
X144756D01*
X246287Y232988D02*
Y244012D01*
X122272Y243744D02*
X246287D01*
X122272Y232988D02*
Y244012D01*
Y232988D02*
X246287D01*
X133256Y121374D02*
Y132626D01*
Y121374D02*
X154745D01*
Y132626D01*
X133256D02*
X154745D01*
X144756Y146524D02*
Y149476D01*
X139244D02*
X144756D01*
X139244Y146524D02*
Y149476D01*
Y146524D02*
X144756D01*
X134032Y213523D02*
Y230477D01*
X123968Y213523D02*
X134032D01*
X123968D02*
Y230477D01*
X134032D01*
X134256Y170374D02*
Y181626D01*
Y170374D02*
X155745D01*
Y181626D01*
X134256D02*
X155745D01*
X118032Y32902D02*
X221969D01*
Y3098D02*
Y32902D01*
X118032Y3098D02*
X221969D01*
X118032D02*
Y32902D01*
X161532Y213523D02*
Y230477D01*
X151468Y213523D02*
X161532D01*
X151468D02*
Y230477D01*
X161532D01*
X307988Y92154D02*
X319012D01*
X318744D02*
Y216169D01*
X307988D02*
X319012D01*
X307988Y92154D02*
Y216169D01*
X118032Y43098D02*
Y72902D01*
Y43098D02*
X221969D01*
Y72902D01*
X118032D02*
X221969D01*
X51988Y89213D02*
X63012D01*
X62744D02*
Y213228D01*
X51988D02*
X63012D01*
X51988Y89213D02*
Y213228D01*
X259252Y183390D02*
X265748D01*
Y194610D01*
X259252D02*
X265748D01*
X259252Y183390D02*
Y194610D01*
Y132890D02*
Y144110D01*
X265748D01*
Y132890D02*
Y144110D01*
X259252Y132890D02*
X265748D01*
X259252Y176157D02*
X265748D01*
X259252Y164937D02*
Y176157D01*
Y164937D02*
X265748D01*
Y176157D01*
Y113890D02*
Y125110D01*
X259252Y113890D02*
X265748D01*
X259252D02*
Y125110D01*
X265748D01*
X259252Y201343D02*
X265748D01*
Y212563D01*
X259252D02*
X265748D01*
X259252Y201343D02*
Y212563D01*
X141601Y134524D02*
X147399D01*
X141601D02*
Y137476D01*
X147399D01*
Y134524D02*
Y137476D01*
X141601Y165024D02*
X147399D01*
X141601D02*
Y167976D01*
X147399D01*
Y165024D02*
Y167976D01*
X148032Y213523D02*
Y230477D01*
X137968Y213523D02*
X148032D01*
X137968D02*
Y230477D01*
X148032D01*
X265748Y94890D02*
Y106110D01*
X259252Y94890D02*
X265748D01*
X259252D02*
Y106110D01*
X265748D01*
X230925Y174150D02*
X234075D01*
X230925Y167850D02*
Y174150D01*
Y167850D02*
X234075D01*
Y174150D01*
X233075Y98276D02*
Y104575D01*
X229925Y98276D02*
X233075D01*
X229925D02*
Y104575D01*
X233075D01*
%TF.MD5,313909522178f4fb4f484c56b8ee7902*%
M02*
