%TF.GenerationSoftware,Altium Limited,Altium Designer,22.9.1 (49)*%
G04 Layer_Color=255*
%FSLAX25Y25*%
%MOIN*%
%TF.SameCoordinates,E4663CD6-9850-4590-99AB-2D6E941D03D6*%
%TF.FilePolarity,Positive*%
%TF.FileFunction,Pads,Bot*%
%TF.Part,Single*%
G01*
G75*
%TA.AperFunction,ComponentPad*%
%ADD27C,0.02000*%
%ADD28C,0.06165*%
%ADD29R,0.06165X0.06165*%
%ADD30C,0.04016*%
%ADD31R,0.06165X0.06165*%
D27*
X162992Y161366D02*
D03*
X166492D02*
D03*
X169992D02*
D03*
Y157366D02*
D03*
X166492D02*
D03*
X162992D02*
D03*
X166492Y153866D02*
D03*
X162992D02*
D03*
X169992D02*
D03*
X162992Y148866D02*
D03*
X166492D02*
D03*
Y144866D02*
D03*
X162992D02*
D03*
X166492Y140866D02*
D03*
X162992D02*
D03*
X169917Y148889D02*
D03*
Y144889D02*
D03*
Y140889D02*
D03*
D28*
X198059Y238500D02*
D03*
X184280D02*
D03*
X170500D02*
D03*
X156720D02*
D03*
X142941D02*
D03*
X239398D02*
D03*
X225618D02*
D03*
X211839D02*
D03*
X57500Y96102D02*
D03*
X313500Y140382D02*
D03*
Y154161D02*
D03*
Y167941D02*
D03*
Y181720D02*
D03*
Y195500D02*
D03*
Y99043D02*
D03*
Y112823D02*
D03*
Y126602D02*
D03*
X57500Y137441D02*
D03*
Y151221D02*
D03*
Y165000D02*
D03*
Y178779D02*
D03*
Y192559D02*
D03*
Y109882D02*
D03*
Y123661D02*
D03*
D29*
X129161Y238500D02*
D03*
D30*
X125000Y63000D02*
D03*
X135000D02*
D03*
X145000D02*
D03*
X155000D02*
D03*
X185000D02*
D03*
X195000D02*
D03*
X205000D02*
D03*
X215000D02*
D03*
X125000Y23000D02*
D03*
X135000D02*
D03*
X145000D02*
D03*
X155000D02*
D03*
X165000D02*
D03*
X175000D02*
D03*
X185000D02*
D03*
X195000D02*
D03*
X205000D02*
D03*
X215000D02*
D03*
X125000Y13000D02*
D03*
X135000D02*
D03*
X145000D02*
D03*
X155000D02*
D03*
X165000D02*
D03*
X175000D02*
D03*
X185000D02*
D03*
X195000D02*
D03*
X205000D02*
D03*
X215000D02*
D03*
Y53000D02*
D03*
X205000D02*
D03*
X195000D02*
D03*
X185000D02*
D03*
X175000D02*
D03*
X165000D02*
D03*
X155000D02*
D03*
X145000D02*
D03*
X135000D02*
D03*
X125000D02*
D03*
X175000Y63000D02*
D03*
X165000D02*
D03*
D31*
X313500Y209279D02*
D03*
X57500Y206339D02*
D03*
%TF.MD5,1fe470de7685583bb11a0aa8bf16a7cc*%
M02*
