%TF.GenerationSoftware,Altium Limited,Altium Designer,22.9.1 (49)*%
G04 Layer_Color=32768*
%FSLAX25Y25*%
%MOIN*%
%TF.SameCoordinates,E4663CD6-9850-4590-99AB-2D6E941D03D6*%
%TF.FilePolarity,Positive*%
%TF.FileFunction,Other,Mechanical_15*%
%TF.Part,Single*%
G01*
G75*
%TA.AperFunction,NonConductor*%
%ADD39C,0.00394*%
%ADD49C,0.00197*%
D39*
X164524Y151366D02*
X168461D01*
X166492Y149398D02*
Y153335D01*
X235000Y89031D02*
Y92968D01*
X233032Y91000D02*
X236968D01*
X235780Y187299D02*
Y191236D01*
X233811Y189268D02*
X237748D01*
X235500Y158531D02*
Y162469D01*
X233531Y160500D02*
X237469D01*
X220000Y179032D02*
Y182968D01*
X218032Y181000D02*
X221969D01*
X219949Y195531D02*
Y199469D01*
X217980Y197500D02*
X221917D01*
X250500Y126917D02*
Y129083D01*
X249417Y128000D02*
X251583D01*
X250500Y110417D02*
Y112583D01*
X249417Y111500D02*
X251583D01*
X220158Y126031D02*
Y129969D01*
X218189Y128000D02*
X222126D01*
X233531Y143000D02*
X237469D01*
X235500Y141032D02*
Y144968D01*
X233311Y119768D02*
X237248D01*
X235279Y117799D02*
Y121736D01*
X234032Y212500D02*
X237968D01*
X236000Y210531D02*
Y214469D01*
X250130Y196417D02*
Y198583D01*
X249047Y197500D02*
X251213D01*
X250370Y179917D02*
Y182083D01*
X249287Y181000D02*
X251453D01*
X220000Y109531D02*
Y113469D01*
X218032Y111500D02*
X221969D01*
D49*
X149366Y130106D02*
Y172626D01*
X183618Y130106D02*
Y172626D01*
X149366D02*
X183618D01*
X149366Y130106D02*
X183618D01*
X226732Y86079D02*
X243268D01*
X226732Y95921D02*
X243268D01*
Y86079D02*
Y95921D01*
X226732Y86079D02*
Y95921D01*
X229087Y178146D02*
X242472D01*
X229087Y200390D02*
X242472D01*
X229087Y178146D02*
Y200390D01*
X242472Y178146D02*
Y200390D01*
X227232Y155579D02*
X243768D01*
X227232Y165421D02*
X243768D01*
Y155579D02*
Y165421D01*
X227232Y155579D02*
Y165421D01*
X214685Y177654D02*
X225315D01*
X214685Y184346D02*
X225315D01*
Y177654D02*
Y184346D01*
X214685Y177654D02*
Y184346D01*
X214634Y194153D02*
X225264D01*
X214634Y200847D02*
X225264D01*
Y194153D02*
Y200847D01*
X214634Y194153D02*
Y200847D01*
X246366Y125835D02*
X254634D01*
X246366Y130165D02*
X254634D01*
Y125835D02*
Y130165D01*
X246366Y125835D02*
Y130165D01*
Y109335D02*
X254634D01*
X246366Y113665D02*
X254634D01*
Y109335D02*
Y113665D01*
X246366Y109335D02*
Y113665D01*
X214843Y124653D02*
X225472D01*
X214843Y131346D02*
X225472D01*
Y124653D02*
Y131346D01*
X214843Y124653D02*
Y131346D01*
X227232Y138079D02*
Y147921D01*
X243768Y138079D02*
Y147921D01*
X227232D02*
X243768D01*
X227232Y138079D02*
X243768D01*
X241972Y108646D02*
Y130890D01*
X228587Y108646D02*
Y130890D01*
X241972D01*
X228587Y108646D02*
X241972D01*
X227732Y207579D02*
Y217421D01*
X244268Y207579D02*
Y217421D01*
X227732D02*
X244268D01*
X227732Y207579D02*
X244268D01*
X245996Y195335D02*
X254264D01*
X245996Y199665D02*
X254264D01*
Y195335D02*
Y199665D01*
X245996Y195335D02*
Y199665D01*
X246236Y178835D02*
X254504D01*
X246236Y183165D02*
X254504D01*
Y178835D02*
Y183165D01*
X246236Y178835D02*
Y183165D01*
X214685Y108153D02*
X225315D01*
X214685Y114847D02*
X225315D01*
Y108153D02*
Y114847D01*
X214685Y108153D02*
Y114847D01*
%TF.MD5,dd2a8505773ed97aba9501ab899cc60a*%
M02*
