%TF.GenerationSoftware,Altium Limited,Altium Designer,22.9.1 (49)*%
G04 Layer_Color=128*
%FSLAX25Y25*%
%MOIN*%
%TF.SameCoordinates,3D4AB22D-4464-4A1E-8ED4-CD8DD9DE0D00*%
%TF.FilePolarity,Positive*%
%TF.FileFunction,Drillmap*%
%TF.Part,Single*%
G01*
G75*
%TA.AperFunction,NonConductor*%
%ADD56C,0.00500*%
D56*
X203992Y60500D02*
X208008D01*
X206000Y58492D02*
Y62508D01*
X193992Y60500D02*
X198008D01*
X196000Y58492D02*
Y62508D01*
X183992Y60500D02*
X188008D01*
X186000Y58492D02*
Y62508D01*
X173992Y60500D02*
X178008D01*
X176000Y58492D02*
Y62508D01*
X163992Y60500D02*
X168008D01*
X166000Y58492D02*
Y62508D01*
X153992Y60500D02*
X158008D01*
X156000Y58492D02*
Y62508D01*
X143992Y60500D02*
X148008D01*
X146000Y58492D02*
Y62508D01*
X133992Y60500D02*
X138008D01*
X136000Y58492D02*
Y62508D01*
X123992Y60500D02*
X128008D01*
X126000Y58492D02*
Y62508D01*
X113992Y60500D02*
X118008D01*
X116000Y58492D02*
Y62508D01*
X203992Y70500D02*
X208008D01*
X206000Y68492D02*
Y72508D01*
X193992Y70500D02*
X198008D01*
X196000Y68492D02*
Y72508D01*
X183992Y70500D02*
X188008D01*
X186000Y68492D02*
Y72508D01*
X173992Y70500D02*
X178008D01*
X176000Y68492D02*
Y72508D01*
X163992Y70500D02*
X168008D01*
X166000Y68492D02*
Y72508D01*
X153992Y70500D02*
X158008D01*
X156000Y68492D02*
Y72508D01*
X143992Y70500D02*
X148008D01*
X146000Y68492D02*
Y72508D01*
X133992Y70500D02*
X138008D01*
X136000Y68492D02*
Y72508D01*
X123992Y70500D02*
X128008D01*
X126000Y68492D02*
Y72508D01*
X113992Y70500D02*
X118008D01*
X116000Y68492D02*
Y72508D01*
X204409Y254000D02*
X208425D01*
X206417Y251992D02*
Y256008D01*
X194409Y254000D02*
X198425D01*
X196417Y251992D02*
Y256008D01*
X184409Y254000D02*
X188425D01*
X186417Y251992D02*
Y256008D01*
X174409Y254000D02*
X178425D01*
X176417Y251992D02*
Y256008D01*
X164409Y254000D02*
X168425D01*
X166417Y251992D02*
Y256008D01*
X154409Y254000D02*
X158425D01*
X156417Y251992D02*
Y256008D01*
X144409Y254000D02*
X148425D01*
X146417Y251992D02*
Y256008D01*
X134409Y254000D02*
X138425D01*
X136417Y251992D02*
Y256008D01*
X124409Y254000D02*
X128425D01*
X126417Y251992D02*
Y256008D01*
X114409Y254000D02*
X118425D01*
X116417Y251992D02*
Y256008D01*
X204409Y264000D02*
X208425D01*
X206417Y261992D02*
Y266008D01*
X194409Y264000D02*
X198425D01*
X196417Y261992D02*
Y266008D01*
X184409Y264000D02*
X188425D01*
X186417Y261992D02*
Y266008D01*
X174409Y264000D02*
X178425D01*
X176417Y261992D02*
Y266008D01*
X164409Y264000D02*
X168425D01*
X166417Y261992D02*
Y266008D01*
X154409Y264000D02*
X158425D01*
X156417Y261992D02*
Y266008D01*
X144409Y264000D02*
X148425D01*
X146417Y261992D02*
Y266008D01*
X134409Y264000D02*
X138425D01*
X136417Y261992D02*
Y266008D01*
X124409Y264000D02*
X128425D01*
X126417Y261992D02*
Y266008D01*
X114409Y264000D02*
X118425D01*
X116417Y261992D02*
Y266008D01*
X66138Y125382D02*
X70862D01*
X68500Y123020D02*
Y127744D01*
X66138Y139161D02*
X70862D01*
X68500Y136799D02*
Y141524D01*
X66138Y152941D02*
X70862D01*
X68500Y150579D02*
Y155303D01*
X66138Y166720D02*
X70862D01*
X68500Y164358D02*
Y169083D01*
X66138Y180500D02*
X70862D01*
X68500Y178138D02*
Y182862D01*
X66138Y194280D02*
X70862D01*
X68500Y191917D02*
Y196642D01*
X66138Y84043D02*
X70862D01*
X68500Y81681D02*
Y86405D01*
X66138Y97823D02*
X70862D01*
X68500Y95461D02*
Y100185D01*
X66138Y111602D02*
X70862D01*
X68500Y109240D02*
Y113965D01*
X156902Y161469D02*
X157689D01*
X157295Y161075D02*
Y161862D01*
X160839Y161469D02*
X161626D01*
X161232Y161075D02*
Y161862D01*
X156902Y157531D02*
X157689D01*
X157295Y157138D02*
Y157925D01*
X160839Y157531D02*
X161626D01*
X161232Y157138D02*
Y157925D01*
X156902Y153595D02*
X157689D01*
X157295Y153201D02*
Y153988D01*
X160839Y153595D02*
X161626D01*
X161232Y153201D02*
Y153988D01*
X160839Y165405D02*
X161626D01*
X161232Y165012D02*
Y165799D01*
X156902Y165405D02*
X157689D01*
X157295Y165012D02*
Y165799D01*
X160839Y149657D02*
X161626D01*
X161232Y149264D02*
Y150051D01*
X156902Y149657D02*
X157689D01*
X157295Y149264D02*
Y150051D01*
X152965Y149657D02*
X153752D01*
X153358Y149264D02*
Y150051D01*
X152965Y165405D02*
X153752D01*
X153358Y165012D02*
Y165799D01*
X152965Y153595D02*
X153752D01*
X153358Y153201D02*
Y153988D01*
X152965Y157531D02*
X153752D01*
X153358Y157138D02*
Y157925D01*
X152965Y161469D02*
X153752D01*
X153358Y161075D02*
Y161862D01*
X152965Y169343D02*
X153752D01*
X153358Y168949D02*
Y169736D01*
X156902Y169343D02*
X157689D01*
X157295Y168949D02*
Y169736D01*
X160839Y169343D02*
X161626D01*
X161232Y168949D02*
Y169736D01*
X101600Y247000D02*
X104400D01*
X103000Y245600D02*
Y248400D01*
%TF.MD5,323751105bc90cb0b59e7f83cc582786*%
M02*
