%TF.GenerationSoftware,Altium Limited,Altium Designer,22.9.1 (49)*%
G04 Layer_Color=8388736*
%FSLAX25Y25*%
%MOIN*%
%TF.SameCoordinates,3D4AB22D-4464-4A1E-8ED4-CD8DD9DE0D00*%
%TF.FilePolarity,Negative*%
%TF.FileFunction,Soldermask,Top*%
%TF.Part,Single*%
G01*
G75*
%TA.AperFunction,ConnectorPad*%
%ADD10R,0.03937X0.06142*%
%TA.AperFunction,SMDPad,CuDef*%
%ADD11R,0.03937X0.06142*%
%ADD14R,0.06127X0.06213*%
%ADD16R,0.07316X0.05928*%
%ADD17R,0.03543X0.03150*%
%ADD19R,0.02029X0.01860*%
%ADD20R,0.01968X0.01575*%
%ADD25R,0.02047X0.02047*%
%TA.AperFunction,ComponentPad*%
%ADD28C,0.04016*%
%ADD29C,0.06165*%
%ADD30R,0.06165X0.06165*%
%TA.AperFunction,ViaPad*%
%ADD33C,0.02375*%
%ADD34C,0.05800*%
%TA.AperFunction,SMDPad,CuDef*%
G04:AMPARAMS|DCode=39|XSize=102.49mil|YSize=250.91mil|CornerRadius=5.89mil|HoleSize=0mil|Usage=FLASHONLY|Rotation=0.000|XOffset=0mil|YOffset=0mil|HoleType=Round|Shape=RoundedRectangle|*
%AMROUNDEDRECTD39*
21,1,0.10249,0.23913,0,0,0.0*
21,1,0.09071,0.25091,0,0,0.0*
1,1,0.01178,0.04535,-0.11957*
1,1,0.01178,-0.04535,-0.11957*
1,1,0.01178,-0.04535,0.11957*
1,1,0.01178,0.04535,0.11957*
%
%ADD39ROUNDEDRECTD39*%
G04:AMPARAMS|DCode=40|XSize=25.72mil|YSize=70.99mil|CornerRadius=5.95mil|HoleSize=0mil|Usage=FLASHONLY|Rotation=90.000|XOffset=0mil|YOffset=0mil|HoleType=Round|Shape=RoundedRectangle|*
%AMROUNDEDRECTD40*
21,1,0.02572,0.05909,0,0,90.0*
21,1,0.01382,0.07099,0,0,90.0*
1,1,0.01190,0.02955,0.00691*
1,1,0.01190,0.02955,-0.00691*
1,1,0.01190,-0.02955,-0.00691*
1,1,0.01190,-0.02955,0.00691*
%
%ADD40ROUNDEDRECTD40*%
%ADD41R,0.04540X0.06115*%
%ADD42R,0.03556X0.03359*%
%ADD43R,0.05524X0.06509*%
%ADD44R,0.06509X0.05524*%
G04:AMPARAMS|DCode=45|XSize=25.72mil|YSize=59.18mil|CornerRadius=8.43mil|HoleSize=0mil|Usage=FLASHONLY|Rotation=180.000|XOffset=0mil|YOffset=0mil|HoleType=Round|Shape=RoundedRectangle|*
%AMROUNDEDRECTD45*
21,1,0.02572,0.04232,0,0,180.0*
21,1,0.00886,0.05918,0,0,180.0*
1,1,0.01686,-0.00443,0.02116*
1,1,0.01686,0.00443,0.02116*
1,1,0.01686,0.00443,-0.02116*
1,1,0.01686,-0.00443,-0.02116*
%
%ADD45ROUNDEDRECTD45*%
G04:AMPARAMS|DCode=46|XSize=25.72mil|YSize=59.18mil|CornerRadius=8.43mil|HoleSize=0mil|Usage=FLASHONLY|Rotation=180.000|XOffset=0mil|YOffset=0mil|HoleType=Round|Shape=RoundedRectangle|*
%AMROUNDEDRECTD46*
21,1,0.02572,0.04232,0,0,180.0*
21,1,0.00886,0.05918,0,0,180.0*
1,1,0.01686,-0.00443,0.02116*
1,1,0.01686,0.00443,0.02116*
1,1,0.01686,0.00443,-0.02116*
1,1,0.01686,-0.00443,-0.02116*
%
%ADD46ROUNDEDRECTD46*%
D10*
X126417Y247563D02*
D03*
X206417Y270437D02*
D03*
Y247563D02*
D03*
X196417Y270437D02*
D03*
Y247563D02*
D03*
X186417Y270437D02*
D03*
Y247563D02*
D03*
X176417Y270437D02*
D03*
Y247563D02*
D03*
X166417Y270437D02*
D03*
Y247563D02*
D03*
X156417Y270437D02*
D03*
Y247563D02*
D03*
X146417Y270437D02*
D03*
Y247563D02*
D03*
X136417Y270437D02*
D03*
Y247563D02*
D03*
X126417Y270437D02*
D03*
X116417D02*
D03*
Y247563D02*
D03*
D11*
X116000Y54063D02*
D03*
X136000D02*
D03*
X146000D02*
D03*
X156000D02*
D03*
X166000D02*
D03*
X176000D02*
D03*
X186000D02*
D03*
X196000D02*
D03*
X206000D02*
D03*
Y76937D02*
D03*
X196000D02*
D03*
X186000D02*
D03*
X176000D02*
D03*
X166000D02*
D03*
X156000D02*
D03*
X146000D02*
D03*
X136000D02*
D03*
X126000D02*
D03*
Y54063D02*
D03*
X116000Y76937D02*
D03*
D14*
X152500Y228145D02*
D03*
Y234949D02*
D03*
X162500Y228098D02*
D03*
Y234902D02*
D03*
X121500Y228145D02*
D03*
Y234949D02*
D03*
X132500Y228098D02*
D03*
Y234902D02*
D03*
D16*
X130500Y180500D02*
D03*
Y192124D02*
D03*
X131000Y138500D02*
D03*
Y126876D02*
D03*
D17*
X253500Y194047D02*
D03*
Y199953D02*
D03*
Y149453D02*
D03*
Y143547D02*
D03*
Y175594D02*
D03*
Y181500D02*
D03*
Y124547D02*
D03*
Y130453D02*
D03*
Y217905D02*
D03*
Y212000D02*
D03*
Y105547D02*
D03*
Y111453D02*
D03*
D19*
X133990Y148000D02*
D03*
X131010D02*
D03*
X133490Y171000D02*
D03*
X130510D02*
D03*
D20*
X110000Y222350D02*
D03*
Y225500D02*
D03*
Y234500D02*
D03*
Y237650D02*
D03*
X142500Y234425D02*
D03*
Y237575D02*
D03*
Y222425D02*
D03*
Y225575D02*
D03*
D25*
X225500Y183575D02*
D03*
Y180425D02*
D03*
X225000Y113000D02*
D03*
Y109850D02*
D03*
D28*
X206000Y60500D02*
D03*
X196000D02*
D03*
X186000D02*
D03*
X176000D02*
D03*
X166000D02*
D03*
X156000D02*
D03*
X146000D02*
D03*
X136000D02*
D03*
X126000D02*
D03*
X116000D02*
D03*
X206000Y70500D02*
D03*
X196000D02*
D03*
X186000D02*
D03*
X176000D02*
D03*
X166000D02*
D03*
X156000D02*
D03*
X146000D02*
D03*
X136000D02*
D03*
X126000D02*
D03*
X116000D02*
D03*
X206417Y254000D02*
D03*
X196417D02*
D03*
X186417D02*
D03*
X176417D02*
D03*
X166417D02*
D03*
X156417D02*
D03*
X146417D02*
D03*
X136417D02*
D03*
X126417D02*
D03*
X116417D02*
D03*
X206417Y264000D02*
D03*
X196417D02*
D03*
X186417D02*
D03*
X176417D02*
D03*
X166417D02*
D03*
X156417D02*
D03*
X146417D02*
D03*
X136417D02*
D03*
X126417D02*
D03*
X116417D02*
D03*
D29*
X68500Y125382D02*
D03*
Y139161D02*
D03*
Y152941D02*
D03*
Y166720D02*
D03*
Y180500D02*
D03*
Y84043D02*
D03*
Y97823D02*
D03*
Y111602D02*
D03*
D30*
Y194280D02*
D03*
D33*
X157295Y161469D02*
D03*
X161232D02*
D03*
X157295Y157531D02*
D03*
X161232D02*
D03*
X157295Y153595D02*
D03*
X161232D02*
D03*
Y165405D02*
D03*
X157295D02*
D03*
X161232Y149657D02*
D03*
X157295D02*
D03*
X153358D02*
D03*
Y165405D02*
D03*
Y153595D02*
D03*
Y157531D02*
D03*
Y161469D02*
D03*
X153358Y169343D02*
D03*
X157295D02*
D03*
X161232D02*
D03*
D34*
X103000Y247000D02*
D03*
D39*
X157295Y159500D02*
D03*
D40*
X169303Y160780D02*
D03*
X145287D02*
D03*
X169303Y158221D02*
D03*
X145287D02*
D03*
Y153102D02*
D03*
Y155661D02*
D03*
Y165898D02*
D03*
Y163339D02*
D03*
X169303Y153102D02*
D03*
Y165898D02*
D03*
X145287Y150543D02*
D03*
Y168457D02*
D03*
Y147984D02*
D03*
Y171016D02*
D03*
X169303Y163339D02*
D03*
X145287Y142866D02*
D03*
Y145425D02*
D03*
Y173575D02*
D03*
Y176134D02*
D03*
X169303Y150543D02*
D03*
Y147984D02*
D03*
Y145425D02*
D03*
Y142866D02*
D03*
Y168457D02*
D03*
Y171016D02*
D03*
Y173575D02*
D03*
Y176134D02*
D03*
Y155661D02*
D03*
D41*
X214051Y189000D02*
D03*
X207949D02*
D03*
X214000Y205500D02*
D03*
X207898D02*
D03*
X214209Y136000D02*
D03*
X208106D02*
D03*
X214051Y119500D02*
D03*
X207949D02*
D03*
D42*
X243370Y136000D02*
D03*
X239630D02*
D03*
X243370Y119500D02*
D03*
X239630D02*
D03*
X243000Y205500D02*
D03*
X239260D02*
D03*
X243240Y189000D02*
D03*
X239500D02*
D03*
D43*
X222563Y150000D02*
D03*
X230437D02*
D03*
X223063Y217000D02*
D03*
X230937D02*
D03*
D44*
X232000Y104126D02*
D03*
Y112000D02*
D03*
X232500Y174126D02*
D03*
Y182000D02*
D03*
D45*
X222441Y136035D02*
D03*
X230118Y119500D02*
D03*
X225000D02*
D03*
X222441D02*
D03*
X227559Y136035D02*
D03*
X225000D02*
D03*
X227559Y119500D02*
D03*
X222941Y205535D02*
D03*
X230618Y189000D02*
D03*
X225500D02*
D03*
X222941D02*
D03*
X228059Y205535D02*
D03*
X225500D02*
D03*
X228059Y189000D02*
D03*
D46*
X230118Y136035D02*
D03*
X230618Y205535D02*
D03*
%TF.MD5,745044e8ee1854e6eb4137891cc9df63*%
M02*
