%TF.GenerationSoftware,Altium Limited,Altium Designer,22.9.1 (49)*%
G04 Layer_Color=255*
%FSLAX25Y25*%
%MOIN*%
%TF.SameCoordinates,3D4AB22D-4464-4A1E-8ED4-CD8DD9DE0D00*%
%TF.FilePolarity,Positive*%
%TF.FileFunction,Pads,Bot*%
%TF.Part,Single*%
G01*
G75*
%TA.AperFunction,ComponentPad*%
%ADD28C,0.04016*%
%ADD29C,0.06165*%
%ADD30R,0.06165X0.06165*%
D28*
X206000Y60500D02*
D03*
X196000D02*
D03*
X186000D02*
D03*
X176000D02*
D03*
X166000D02*
D03*
X156000D02*
D03*
X146000D02*
D03*
X136000D02*
D03*
X126000D02*
D03*
X116000D02*
D03*
X206000Y70500D02*
D03*
X196000D02*
D03*
X186000D02*
D03*
X176000D02*
D03*
X166000D02*
D03*
X156000D02*
D03*
X146000D02*
D03*
X136000D02*
D03*
X126000D02*
D03*
X116000D02*
D03*
X206417Y254000D02*
D03*
X196417D02*
D03*
X186417D02*
D03*
X176417D02*
D03*
X166417D02*
D03*
X156417D02*
D03*
X146417D02*
D03*
X136417D02*
D03*
X126417D02*
D03*
X116417D02*
D03*
X206417Y264000D02*
D03*
X196417D02*
D03*
X186417D02*
D03*
X176417D02*
D03*
X166417D02*
D03*
X156417D02*
D03*
X146417D02*
D03*
X136417D02*
D03*
X126417D02*
D03*
X116417D02*
D03*
D29*
X68500Y125382D02*
D03*
Y139161D02*
D03*
Y152941D02*
D03*
Y166720D02*
D03*
Y180500D02*
D03*
Y84043D02*
D03*
Y97823D02*
D03*
Y111602D02*
D03*
D30*
Y194280D02*
D03*
%TF.MD5,6438e90c64efcd1c160fdad90849e887*%
M02*
