%TF.GenerationSoftware,Altium Limited,Altium Designer,22.9.1 (49)*%
G04 Layer_Color=8388736*
%FSLAX25Y25*%
%MOIN*%
%TF.SameCoordinates,3D4AB22D-4464-4A1E-8ED4-CD8DD9DE0D00*%
%TF.FilePolarity,Positive*%
%TF.FileFunction,Other,Top_3D_Body*%
%TF.Part,Single*%
G01*
G75*
%TA.AperFunction,NonConductor*%
%ADD37C,0.00787*%
D37*
X109425Y55362D02*
Y75638D01*
Y55362D02*
X212575D01*
Y75638D01*
X109425D02*
X212575D01*
X109843Y248862D02*
Y269138D01*
Y248862D02*
X212992D01*
Y269138D01*
X109843D02*
X212992D01*
X62988Y77153D02*
X74012D01*
X63650Y201169D02*
X73350D01*
X62988Y77153D02*
Y201169D01*
X150039Y227610D02*
Y235484D01*
X154961D01*
Y227610D02*
Y235484D01*
X150039Y227610D02*
X154961D01*
X160039Y227563D02*
Y235437D01*
X164961D01*
Y227563D02*
Y235437D01*
X160039Y227563D02*
X164961D01*
X127350Y180013D02*
Y192611D01*
X133650D01*
Y180013D02*
Y192611D01*
X127350Y180013D02*
X133650D01*
X251728Y193654D02*
X255272D01*
Y200346D01*
X251728D02*
X255272D01*
X251728Y193654D02*
Y200346D01*
Y143154D02*
Y149846D01*
X255272D01*
Y143154D02*
Y149846D01*
X251728Y143154D02*
X255272D01*
X251728Y181894D02*
X255272D01*
X251728Y175201D02*
Y181894D01*
Y175201D02*
X255272D01*
Y181894D01*
Y124153D02*
Y130847D01*
X251728Y124153D02*
X255272D01*
X251728D02*
Y130847D01*
X255272D01*
X251728Y211606D02*
X255272D01*
Y218299D01*
X251728D02*
X255272D01*
X251728Y211606D02*
Y218299D01*
X134150Y126389D02*
Y138987D01*
X127850Y126389D02*
X134150D01*
X127850D02*
Y138987D01*
X134150D01*
X130532Y147016D02*
X134468D01*
X130532D02*
Y148984D01*
X134468D01*
Y147016D02*
Y148984D01*
X130032Y170016D02*
X133968D01*
X130032D02*
Y171984D01*
X133968D01*
Y170016D02*
Y171984D01*
X108917Y221858D02*
Y225992D01*
X111083D01*
Y221858D02*
Y225992D01*
X108917Y221858D02*
X111083D01*
X108917Y234008D02*
Y238142D01*
X111083D01*
Y234008D02*
Y238142D01*
X108917Y234008D02*
X111083D01*
X119039Y227610D02*
Y235484D01*
X123961D01*
Y227610D02*
Y235484D01*
X119039Y227610D02*
X123961D01*
X141417Y233933D02*
Y238067D01*
X143583D01*
Y233933D02*
Y238067D01*
X141417Y233933D02*
X143583D01*
X130039Y227563D02*
Y235437D01*
X134961D01*
Y227563D02*
Y235437D01*
X130039Y227563D02*
X134961D01*
X141417Y221933D02*
Y226067D01*
X143583D01*
Y221933D02*
Y226067D01*
X141417Y221933D02*
X143583D01*
X255272Y105154D02*
Y111846D01*
X251728Y105154D02*
X255272D01*
X251728D02*
Y111846D01*
X255272D01*
X224417Y184067D02*
X226583D01*
X224417Y179933D02*
Y184067D01*
Y179933D02*
X226583D01*
Y184067D01*
X226083Y109358D02*
Y113492D01*
X223917Y109358D02*
X226083D01*
X223917D02*
Y113492D01*
X226083D01*
%TF.MD5,bc2af9bc53d31a391163b78110e80a7d*%
M02*
