%TF.GenerationSoftware,Altium Limited,Altium Designer,22.9.1 (49)*%
G04 Layer_Color=65535*
%FSLAX25Y25*%
%MOIN*%
%TF.SameCoordinates,3D4AB22D-4464-4A1E-8ED4-CD8DD9DE0D00*%
%TF.FilePolarity,Positive*%
%TF.FileFunction,Legend,Top*%
%TF.Part,Single*%
G01*
G75*
%TA.AperFunction,NonConductor*%
%ADD27C,0.01000*%
%ADD35C,0.00984*%
%ADD36C,0.01575*%
%ADD37C,0.00787*%
%ADD38C,0.00591*%
D27*
X208000Y186000D02*
X214000D01*
X208000Y192000D02*
X214000D01*
X207791Y208500D02*
X213791D01*
X207791Y202500D02*
X213791D01*
X208500Y122500D02*
X213500D01*
X208500Y139000D02*
X213500D01*
X208500Y116500D02*
X213500D01*
X208500Y133000D02*
X213500D01*
X219500Y67999D02*
X217501D01*
X218501D01*
Y63001D01*
X217501Y62001D01*
X216501D01*
X215502Y63001D01*
X225498Y62001D02*
X221500D01*
X225498Y66000D01*
Y66999D01*
X224499Y67999D01*
X222499D01*
X221500Y66999D01*
X161417Y282936D02*
X159418D01*
X160418D01*
Y277938D01*
X159418Y276938D01*
X158418D01*
X157419Y277938D01*
X163417Y276938D02*
X165416D01*
X164416D01*
Y282936D01*
X163417Y281936D01*
X84398Y174671D02*
X78400D01*
Y171672D01*
X79400Y170672D01*
X80400D01*
X81399Y171672D01*
Y174671D01*
Y171672D01*
X82399Y170672D01*
X83399D01*
X84398Y171672D01*
Y174671D01*
X78400Y168673D02*
Y166674D01*
Y167673D01*
X84398D01*
X83399Y168673D01*
D35*
X116512Y48787D02*
G03*
X116512Y48787I-492J0D01*
G01*
X116929Y242287D02*
G03*
X116929Y242287I-492J0D01*
G01*
X145780Y179185D02*
G03*
X145780Y179185I-492J0D01*
G01*
X68992Y204661D02*
G03*
X68992Y204661I-492J0D01*
G01*
X219882Y119500D02*
G03*
X219882Y119500I-492J0D01*
G01*
X220382Y189000D02*
G03*
X220382Y189000I-492J0D01*
G01*
D36*
X224114Y126784D02*
G03*
X224114Y126784I-787J0D01*
G01*
X224614Y196283D02*
G03*
X224614Y196283I-787J0D01*
G01*
D37*
X109425Y55362D02*
Y75638D01*
X209445Y55362D02*
X212575D01*
X109425D02*
X112555D01*
X212575D02*
Y75638D01*
X209445D02*
X212575D01*
X109425D02*
X112555D01*
X109843Y248862D02*
Y269138D01*
X209862Y248862D02*
X212992D01*
X109843D02*
X112972D01*
X212992D02*
Y269138D01*
X209862D02*
X212992D01*
X109843D02*
X112972D01*
X150012Y140209D02*
X164579D01*
X150012Y178791D02*
X164579D01*
Y140209D02*
Y178791D01*
X150012Y140209D02*
Y178791D01*
X63185Y200972D02*
X73815D01*
X63185Y77350D02*
Y200972D01*
Y77350D02*
X73815D01*
Y200972D01*
X157138Y225039D02*
Y238055D01*
X147862Y225039D02*
Y238055D01*
X167138Y224992D02*
Y238008D01*
X157862Y224992D02*
Y238008D01*
X134158Y184645D02*
Y187979D01*
X126842Y184645D02*
Y187979D01*
X256846Y193654D02*
Y200346D01*
X250153Y193654D02*
Y200346D01*
Y143154D02*
Y149846D01*
X256846Y143154D02*
Y149846D01*
X250153Y175201D02*
Y181894D01*
X256846Y175201D02*
Y181894D01*
Y124153D02*
Y130847D01*
X250153Y124153D02*
Y130847D01*
X256846Y211606D02*
Y218299D01*
X250153Y211606D02*
Y218299D01*
X127342Y131021D02*
Y134355D01*
X134658Y131021D02*
Y134355D01*
X129995Y150657D02*
X135005D01*
X129995Y145343D02*
X135005D01*
X129495Y173658D02*
X134505D01*
X129495Y168342D02*
X134505D01*
X107539Y221858D02*
Y225992D01*
X112461Y221858D02*
Y225992D01*
X107539Y234008D02*
Y238142D01*
X112461Y234008D02*
Y238142D01*
X126138Y225039D02*
Y238055D01*
X116862Y225039D02*
Y238055D01*
X140039Y233933D02*
Y238067D01*
X144961Y233933D02*
Y238067D01*
X137138Y224992D02*
Y238008D01*
X127862Y224992D02*
Y238008D01*
X140039Y221933D02*
Y226067D01*
X144961Y221933D02*
Y226067D01*
X226106Y152461D02*
X226894D01*
X226106Y147539D02*
X226894D01*
X256846Y105154D02*
Y111846D01*
X250153Y105154D02*
Y111846D01*
X229539Y107669D02*
Y108457D01*
X234461Y107669D02*
Y108457D01*
X232382Y123634D02*
Y131902D01*
X220177Y123634D02*
Y131902D01*
X232382D01*
X220177Y123634D02*
X232382D01*
X222833Y179938D02*
Y184072D01*
X228157Y179933D02*
Y184067D01*
X230039Y177669D02*
Y178457D01*
X234961Y177669D02*
Y178457D01*
X232882Y193134D02*
Y201402D01*
X220677Y193134D02*
Y201402D01*
X232882D01*
X220677Y193134D02*
X232882D01*
X226606Y219461D02*
X227394D01*
X226606Y214539D02*
X227394D01*
X227658Y109358D02*
Y113492D01*
X222333Y109363D02*
Y113497D01*
X150940Y182032D02*
Y185968D01*
X152908D01*
X153564Y185312D01*
Y184000D01*
X152908Y183344D01*
X150940D01*
X157500Y185312D02*
X156844Y185968D01*
X155532D01*
X154876Y185312D01*
Y182688D01*
X155532Y182032D01*
X156844D01*
X157500Y182688D01*
Y184000D01*
X156188D01*
X158812Y182032D02*
Y184656D01*
X160124Y185968D01*
X161436Y184656D01*
Y182032D01*
Y184000D01*
X158812D01*
X162748Y182032D02*
X164060D01*
X163404D01*
Y185968D01*
X162748Y185312D01*
X207556Y193122D02*
Y195878D01*
X208934D01*
X209393Y195418D01*
Y194500D01*
X208934Y194041D01*
X207556D01*
X208475D02*
X209393Y193122D01*
X210311D02*
X211230D01*
X210770D01*
Y195878D01*
X210311Y195418D01*
X212607Y193122D02*
Y194959D01*
X213525Y195878D01*
X214444Y194959D01*
Y193122D01*
Y194500D01*
X212607D01*
X207118Y210582D02*
Y213337D01*
X208495D01*
X208955Y212877D01*
Y211959D01*
X208495Y211500D01*
X207118D01*
X208036D02*
X208955Y210582D01*
X210791Y209663D02*
X211250D01*
X211710Y210122D01*
Y212418D01*
X210332D01*
X209873Y211959D01*
Y211041D01*
X210332Y210582D01*
X211710D01*
X212628D02*
Y212418D01*
X213546Y213337D01*
X214465Y212418D01*
Y210582D01*
Y211959D01*
X212628D01*
X121582Y186000D02*
X121123Y185541D01*
Y184623D01*
X121582Y184163D01*
X123418D01*
X123878Y184623D01*
Y185541D01*
X123418Y186000D01*
X123878Y186918D02*
Y187837D01*
Y187378D01*
X121123D01*
X121582Y186918D01*
X260418Y198837D02*
X260877Y199296D01*
Y200214D01*
X260418Y200673D01*
X258582D01*
X258122Y200214D01*
Y199296D01*
X258582Y198837D01*
X260418Y197918D02*
X260877Y197459D01*
Y196541D01*
X260418Y196082D01*
X259959D01*
X259500Y196541D01*
Y197000D01*
Y196541D01*
X259041Y196082D01*
X258582D01*
X258122Y196541D01*
Y197459D01*
X258582Y197918D01*
X258122Y195163D02*
X259959D01*
X260877Y194245D01*
X259959Y193327D01*
X258122D01*
X259500D01*
Y195163D01*
X260918Y147884D02*
X261378Y148343D01*
Y149261D01*
X260918Y149721D01*
X259082D01*
X258623Y149261D01*
Y148343D01*
X259082Y147884D01*
X258623Y145129D02*
Y146966D01*
X260459Y145129D01*
X260918D01*
X261378Y145588D01*
Y146506D01*
X260918Y146966D01*
X261378Y144211D02*
X258623D01*
Y142833D01*
X259082Y142374D01*
X259541D01*
X260000Y142833D01*
Y144211D01*
Y142833D01*
X260459Y142374D01*
X260918D01*
X261378Y142833D01*
Y144211D01*
X236449Y141122D02*
Y143877D01*
X237827D01*
X238286Y143418D01*
Y142500D01*
X237827Y142041D01*
X236449D01*
X237368D02*
X238286Y141122D01*
X239663D02*
X240582D01*
X241041Y141582D01*
Y142500D01*
X240582Y142959D01*
X239663D01*
X239204Y142500D01*
Y141582D01*
X239663Y141122D01*
X241959Y143877D02*
Y141122D01*
X243337D01*
X243796Y141582D01*
Y142041D01*
X243337Y142500D01*
X241959D01*
X243337D01*
X243796Y142959D01*
Y143418D01*
X243337Y143877D01*
X241959D01*
X244714Y142500D02*
X246551D01*
X245633Y143418D02*
Y141582D01*
X236633Y124622D02*
Y127377D01*
X238010D01*
X238469Y126918D01*
Y126000D01*
X238010Y125541D01*
X236633D01*
X237551D02*
X238469Y124622D01*
X239847D02*
X240765D01*
X241224Y125082D01*
Y126000D01*
X240765Y126459D01*
X239847D01*
X239388Y126000D01*
Y125082D01*
X239847Y124622D01*
X242143Y127377D02*
Y124622D01*
X243520D01*
X243979Y125082D01*
Y125541D01*
X243520Y126000D01*
X242143D01*
X243520D01*
X243979Y126459D01*
Y126918D01*
X243520Y127377D01*
X242143D01*
X244898Y126000D02*
X246734D01*
X260418Y180431D02*
X260877Y180890D01*
Y181809D01*
X260418Y182268D01*
X258582D01*
X258122Y181809D01*
Y180890D01*
X258582Y180431D01*
X258122Y178135D02*
X260877D01*
X259500Y179513D01*
Y177676D01*
X258122Y176758D02*
X259959D01*
X260877Y175839D01*
X259959Y174921D01*
X258122D01*
X259500D01*
Y176758D01*
X260918Y129104D02*
X261378Y129564D01*
Y130482D01*
X260918Y130941D01*
X259082D01*
X258623Y130482D01*
Y129564D01*
X259082Y129104D01*
X260918Y128186D02*
X261378Y127727D01*
Y126809D01*
X260918Y126349D01*
X260459D01*
X260000Y126809D01*
Y127268D01*
Y126809D01*
X259541Y126349D01*
X259082D01*
X258623Y126809D01*
Y127727D01*
X259082Y128186D01*
X261378Y125431D02*
X258623D01*
Y124054D01*
X259082Y123594D01*
X259541D01*
X260000Y124054D01*
Y125431D01*
Y124054D01*
X260459Y123594D01*
X260918D01*
X261378Y124054D01*
Y125431D01*
X246082Y213116D02*
X245622Y212657D01*
Y211739D01*
X246082Y211279D01*
X247918D01*
X248377Y211739D01*
Y212657D01*
X247918Y213116D01*
X248377Y215871D02*
Y214034D01*
X246541Y215871D01*
X246082D01*
X245622Y215412D01*
Y214494D01*
X246082Y214034D01*
X248377Y216789D02*
X246541D01*
X245622Y217708D01*
X246541Y218626D01*
X248377D01*
X247000D01*
Y216789D01*
X207327Y141082D02*
Y143837D01*
X208704D01*
X209163Y143377D01*
Y142459D01*
X208704Y142000D01*
X207327D01*
X208245D02*
X209163Y141082D01*
X211000Y140163D02*
X211459D01*
X211918Y140622D01*
Y142918D01*
X210541D01*
X210082Y142459D01*
Y141541D01*
X210541Y141082D01*
X211918D01*
X212837Y143837D02*
Y141082D01*
X214214D01*
X214673Y141541D01*
Y142000D01*
X214214Y142459D01*
X212837D01*
X214214D01*
X214673Y142918D01*
Y143377D01*
X214214Y143837D01*
X212837D01*
X130082Y117729D02*
X129622Y117270D01*
Y116351D01*
X130082Y115892D01*
X131918D01*
X132378Y116351D01*
Y117270D01*
X131918Y117729D01*
X132378Y120484D02*
Y118647D01*
X130541Y120484D01*
X130082D01*
X129622Y120025D01*
Y119106D01*
X130082Y118647D01*
X123204Y147123D02*
Y149878D01*
X124582D01*
X125041Y149418D01*
Y148500D01*
X124582Y148041D01*
X123204D01*
X124123D02*
X125041Y147123D01*
X127796D02*
X125959D01*
X127796Y148959D01*
Y149418D01*
X127337Y149878D01*
X126418D01*
X125959Y149418D01*
X124163Y169623D02*
Y172378D01*
X125541D01*
X126000Y171918D01*
Y171000D01*
X125541Y170541D01*
X124163D01*
X125082D02*
X126000Y169623D01*
X126918D02*
X127837D01*
X127377D01*
Y172378D01*
X126918Y171918D01*
X223056Y156123D02*
Y158878D01*
X224434D01*
X224893Y158418D01*
Y157500D01*
X224434Y157041D01*
X223056D01*
X223975D02*
X224893Y156123D01*
X226270D02*
Y158418D01*
Y157500D01*
X225811D01*
X226730D01*
X226270D01*
Y158418D01*
X226730Y158878D01*
X228107D02*
Y156123D01*
X229485D01*
X229944Y156582D01*
Y157041D01*
X229485Y157500D01*
X228107D01*
X229485D01*
X229944Y157959D01*
Y158418D01*
X229485Y158878D01*
X228107D01*
X260918Y110337D02*
X261378Y110796D01*
Y111714D01*
X260918Y112173D01*
X259082D01*
X258623Y111714D01*
Y110796D01*
X259082Y110337D01*
X258623Y108041D02*
X261378D01*
X260000Y109418D01*
Y107582D01*
X261378Y106663D02*
X258623D01*
Y105286D01*
X259082Y104827D01*
X259541D01*
X260000Y105286D01*
Y106663D01*
Y105286D01*
X260459Y104827D01*
X260918D01*
X261378Y105286D01*
Y106663D01*
X237123Y112173D02*
X239878D01*
Y110796D01*
X239418Y110337D01*
X238500D01*
X238041Y110796D01*
Y112173D01*
Y111255D02*
X237123Y110337D01*
Y107582D02*
Y109418D01*
X238959Y107582D01*
X239418D01*
X239878Y108041D01*
Y108959D01*
X239418Y109418D01*
X239878Y106663D02*
X237123D01*
Y105286D01*
X237582Y104827D01*
X238041D01*
X238500Y105286D01*
Y106663D01*
Y105286D01*
X238959Y104827D01*
X239418D01*
X239878Y105286D01*
Y106663D01*
X220949Y141082D02*
Y142918D01*
X221867Y143837D01*
X222786Y142918D01*
Y141082D01*
Y142459D01*
X220949D01*
X223704Y141082D02*
Y142918D01*
X224163D01*
X224623Y142459D01*
Y141082D01*
Y142459D01*
X225082Y142918D01*
X225541Y142459D01*
Y141082D01*
X226459Y140163D02*
Y142918D01*
X227837D01*
X228296Y142459D01*
Y141541D01*
X227837Y141082D01*
X226459D01*
X229214Y143837D02*
Y141082D01*
X230592D01*
X231051Y141541D01*
Y142000D01*
X230592Y142459D01*
X229214D01*
X230592D01*
X231051Y142918D01*
Y143377D01*
X230592Y143837D01*
X229214D01*
X218582Y180393D02*
X218123Y179934D01*
Y179015D01*
X218582Y178556D01*
X220418D01*
X220878Y179015D01*
Y179934D01*
X220418Y180393D01*
X220878Y181311D02*
Y182230D01*
Y181770D01*
X218123D01*
X218582Y181311D01*
X220878Y183607D02*
X219041D01*
X218123Y184525D01*
X219041Y185444D01*
X220878D01*
X219500D01*
Y183607D01*
X228378Y174390D02*
X225623D01*
Y175767D01*
X226082Y176226D01*
X227000D01*
X227459Y175767D01*
Y174390D01*
Y175308D02*
X228378Y176226D01*
Y178981D02*
Y177145D01*
X226541Y178981D01*
X226082D01*
X225623Y178522D01*
Y177604D01*
X226082Y177145D01*
X228378Y179900D02*
X226541D01*
X225623Y180818D01*
X226541Y181736D01*
X228378D01*
X227000D01*
Y179900D01*
X221949Y210082D02*
Y211918D01*
X222867Y212837D01*
X223786Y211918D01*
Y210082D01*
Y211459D01*
X221949D01*
X224704Y210082D02*
Y211918D01*
X225163D01*
X225623Y211459D01*
Y210082D01*
Y211459D01*
X226082Y211918D01*
X226541Y211459D01*
Y210082D01*
X227459Y209163D02*
Y211918D01*
X228837D01*
X229296Y211459D01*
Y210541D01*
X228837Y210082D01*
X227459D01*
X230214D02*
Y211918D01*
X231133Y212837D01*
X232051Y211918D01*
Y210082D01*
Y211459D01*
X230214D01*
X223556Y222123D02*
Y224878D01*
X224934D01*
X225393Y224418D01*
Y223500D01*
X224934Y223041D01*
X223556D01*
X224475D02*
X225393Y222123D01*
X226770D02*
Y224418D01*
Y223500D01*
X226311D01*
X227230D01*
X226770D01*
Y224418D01*
X227230Y224878D01*
X228607Y222123D02*
Y223959D01*
X229525Y224878D01*
X230444Y223959D01*
Y222123D01*
Y223500D01*
X228607D01*
X235949Y208623D02*
Y211378D01*
X237327D01*
X237786Y210918D01*
Y210000D01*
X237327Y209541D01*
X235949D01*
X236867D02*
X237786Y208623D01*
X239163D02*
X240082D01*
X240541Y209082D01*
Y210000D01*
X240082Y210459D01*
X239163D01*
X238704Y210000D01*
Y209082D01*
X239163Y208623D01*
X241459D02*
Y210459D01*
X242377Y211378D01*
X243296Y210459D01*
Y208623D01*
Y210000D01*
X241459D01*
X244214D02*
X246051D01*
X245132Y210918D02*
Y209082D01*
X236449Y192122D02*
Y194878D01*
X237827D01*
X238286Y194418D01*
Y193500D01*
X237827Y193041D01*
X236449D01*
X237368D02*
X238286Y192122D01*
X239663D02*
X240582D01*
X241041Y192582D01*
Y193500D01*
X240582Y193959D01*
X239663D01*
X239204Y193500D01*
Y192582D01*
X239663Y192122D01*
X241959D02*
Y193959D01*
X242878Y194878D01*
X243796Y193959D01*
Y192122D01*
Y193500D01*
X241959D01*
X244714D02*
X246551D01*
X207556Y124123D02*
Y126877D01*
X208934D01*
X209393Y126418D01*
Y125500D01*
X208934Y125041D01*
X207556D01*
X208475D02*
X209393Y124123D01*
X210311D02*
X211230D01*
X210770D01*
Y126877D01*
X210311Y126418D01*
X212607Y126877D02*
Y124123D01*
X213985D01*
X214444Y124582D01*
Y125041D01*
X213985Y125500D01*
X212607D01*
X213985D01*
X214444Y125959D01*
Y126418D01*
X213985Y126877D01*
X212607D01*
X218082Y109893D02*
X217622Y109434D01*
Y108515D01*
X218082Y108056D01*
X219918D01*
X220377Y108515D01*
Y109434D01*
X219918Y109893D01*
X220377Y110811D02*
Y111730D01*
Y111270D01*
X217622D01*
X218082Y110811D01*
X217622Y113107D02*
X220377D01*
Y114485D01*
X219918Y114944D01*
X219459D01*
X219000Y114485D01*
Y113107D01*
Y114485D01*
X218541Y114944D01*
X218082D01*
X217622Y114485D01*
Y113107D01*
D38*
X150204Y221484D02*
X149876Y221812D01*
X149220D01*
X148892Y221484D01*
Y220172D01*
X149220Y219844D01*
X149876D01*
X150204Y220172D01*
X150860Y219188D02*
Y221156D01*
X151844D01*
X152172Y220828D01*
Y220172D01*
X151844Y219844D01*
X150860D01*
X153812D02*
Y221812D01*
X152828Y220828D01*
X154140D01*
X154796D02*
X156108D01*
X155452Y221484D02*
Y220172D01*
X160204Y221484D02*
X159876Y221812D01*
X159220D01*
X158892Y221484D01*
Y220172D01*
X159220Y219844D01*
X159876D01*
X160204Y220172D01*
X160860Y219188D02*
Y221156D01*
X161844D01*
X162172Y220828D01*
Y220172D01*
X161844Y219844D01*
X160860D01*
X163812D02*
Y221812D01*
X162828Y220828D01*
X164140D01*
X164796D02*
X166108D01*
X107868Y219984D02*
X107540Y220312D01*
X106884D01*
X106556Y219984D01*
Y218672D01*
X106884Y218344D01*
X107540D01*
X107868Y218672D01*
X108524Y217688D02*
Y219656D01*
X109508D01*
X109836Y219328D01*
Y218672D01*
X109508Y218344D01*
X108524D01*
X110492D02*
X111148D01*
X110820D01*
Y220312D01*
X110492Y219984D01*
X112132Y219328D02*
X113444D01*
X107868Y231984D02*
X107540Y232312D01*
X106884D01*
X106556Y231984D01*
Y230672D01*
X106884Y230344D01*
X107540D01*
X107868Y230672D01*
X108524Y229688D02*
Y231656D01*
X109508D01*
X109836Y231328D01*
Y230672D01*
X109508Y230344D01*
X108524D01*
X110492D02*
X111148D01*
X110820D01*
Y232312D01*
X110492Y231984D01*
X112132Y231328D02*
X113444D01*
X112788Y231984D02*
Y230672D01*
X119204Y221484D02*
X118876Y221812D01*
X118220D01*
X117892Y221484D01*
Y220172D01*
X118220Y219844D01*
X118876D01*
X119204Y220172D01*
X119860Y219188D02*
Y221156D01*
X120844D01*
X121172Y220828D01*
Y220172D01*
X120844Y219844D01*
X119860D01*
X123140D02*
X121828D01*
X123140Y221156D01*
Y221484D01*
X122812Y221812D01*
X122156D01*
X121828Y221484D01*
X123796Y220828D02*
X125108D01*
X124452Y221484D02*
Y220172D01*
X140204Y231984D02*
X139876Y232312D01*
X139220D01*
X138892Y231984D01*
Y230672D01*
X139220Y230344D01*
X139876D01*
X140204Y230672D01*
X140860Y229688D02*
Y231656D01*
X141844D01*
X142172Y231328D01*
Y230672D01*
X141844Y230344D01*
X140860D01*
X142828Y231984D02*
X143156Y232312D01*
X143812D01*
X144140Y231984D01*
Y231656D01*
X143812Y231328D01*
X143484D01*
X143812D01*
X144140Y231000D01*
Y230672D01*
X143812Y230344D01*
X143156D01*
X142828Y230672D01*
X144796Y231328D02*
X146108D01*
X145452Y231984D02*
Y230672D01*
X130204Y221484D02*
X129876Y221812D01*
X129220D01*
X128892Y221484D01*
Y220172D01*
X129220Y219844D01*
X129876D01*
X130204Y220172D01*
X130860Y219188D02*
Y221156D01*
X131844D01*
X132172Y220828D01*
Y220172D01*
X131844Y219844D01*
X130860D01*
X134140D02*
X132828D01*
X134140Y221156D01*
Y221484D01*
X133812Y221812D01*
X133156D01*
X132828Y221484D01*
X134796Y220828D02*
X136108D01*
X140204Y219984D02*
X139876Y220312D01*
X139220D01*
X138892Y219984D01*
Y218672D01*
X139220Y218344D01*
X139876D01*
X140204Y218672D01*
X140860Y217688D02*
Y219656D01*
X141844D01*
X142172Y219328D01*
Y218672D01*
X141844Y218344D01*
X140860D01*
X142828Y219984D02*
X143156Y220312D01*
X143812D01*
X144140Y219984D01*
Y219656D01*
X143812Y219328D01*
X143484D01*
X143812D01*
X144140Y219000D01*
Y218672D01*
X143812Y218344D01*
X143156D01*
X142828Y218672D01*
X144796Y219328D02*
X146108D01*
%TF.MD5,07cdc2ce40beec825fae6b20c44e2fde*%
M02*
