%TF.GenerationSoftware,Altium Limited,Altium Designer,22.9.1 (49)*%
G04 Layer_Color=32768*
%FSLAX25Y25*%
%MOIN*%
%TF.SameCoordinates,3D4AB22D-4464-4A1E-8ED4-CD8DD9DE0D00*%
%TF.FilePolarity,Positive*%
%TF.FileFunction,Other,Mechanical_15*%
%TF.Part,Single*%
G01*
G75*
%TA.AperFunction,NonConductor*%
%ADD47C,0.00394*%
%ADD49C,0.00197*%
D47*
X157295Y157531D02*
Y161469D01*
X155327Y159500D02*
X159264D01*
X211000Y187031D02*
Y190969D01*
X209032Y189000D02*
X212968D01*
X210949Y203532D02*
Y207469D01*
X208980Y205500D02*
X212917D01*
X241500Y134917D02*
Y137083D01*
X240417Y136000D02*
X242583D01*
X241500Y118417D02*
Y120583D01*
X240417Y119500D02*
X242583D01*
X211157Y134031D02*
Y137969D01*
X209189Y136000D02*
X213126D01*
X224532Y150000D02*
X228468D01*
X226500Y148031D02*
Y151969D01*
X232000Y106095D02*
Y110031D01*
X230031Y108063D02*
X233968D01*
X224311Y127768D02*
X228248D01*
X226279Y125799D02*
Y129736D01*
X232500Y176094D02*
Y180032D01*
X230532Y178063D02*
X234469D01*
X224811Y197268D02*
X228748D01*
X226780Y195299D02*
Y199236D01*
X225031Y217000D02*
X228969D01*
X227000Y215032D02*
Y218969D01*
X241130Y204417D02*
Y206583D01*
X240047Y205500D02*
X242213D01*
X241370Y187917D02*
Y190083D01*
X240287Y189000D02*
X242453D01*
X211000Y117532D02*
Y121468D01*
X209032Y119500D02*
X212968D01*
D49*
X140169Y138240D02*
X174421D01*
X140169Y180760D02*
X174421D01*
Y138240D02*
Y180760D01*
X140169Y138240D02*
Y180760D01*
X205685Y185653D02*
X216315D01*
X205685Y192347D02*
X216315D01*
Y185653D02*
Y192347D01*
X205685Y185653D02*
Y192347D01*
X205634Y202153D02*
X216264D01*
X205634Y208846D02*
X216264D01*
Y202153D02*
Y208846D01*
X205634Y202153D02*
Y208846D01*
X237366Y133835D02*
X245634D01*
X237366Y138165D02*
X245634D01*
Y133835D02*
Y138165D01*
X237366Y133835D02*
Y138165D01*
Y117335D02*
X245634D01*
X237366Y121665D02*
X245634D01*
Y117335D02*
Y121665D01*
X237366Y117335D02*
Y121665D01*
X205842Y132653D02*
X216472D01*
X205842Y139347D02*
X216472D01*
Y132653D02*
Y139347D01*
X205842Y132653D02*
Y139347D01*
X218232Y145079D02*
Y154921D01*
X234768Y145079D02*
Y154921D01*
X218232D02*
X234768D01*
X218232Y145079D02*
X234768D01*
X227079Y99795D02*
X236921D01*
X227079Y116331D02*
X236921D01*
X227079Y99795D02*
Y116331D01*
X236921Y99795D02*
Y116331D01*
X232972Y116646D02*
Y138890D01*
X219587Y116646D02*
Y138890D01*
X232972D01*
X219587Y116646D02*
X232972D01*
X227579Y169795D02*
X237421D01*
X227579Y186331D02*
X237421D01*
X227579Y169795D02*
Y186331D01*
X237421Y169795D02*
Y186331D01*
X233472Y186146D02*
Y208390D01*
X220087Y186146D02*
Y208390D01*
X233472D01*
X220087Y186146D02*
X233472D01*
X218732Y212079D02*
Y221921D01*
X235268Y212079D02*
Y221921D01*
X218732D02*
X235268D01*
X218732Y212079D02*
X235268D01*
X236996Y203335D02*
X245264D01*
X236996Y207665D02*
X245264D01*
Y203335D02*
Y207665D01*
X236996Y203335D02*
Y207665D01*
X237236Y186835D02*
X245504D01*
X237236Y191165D02*
X245504D01*
Y186835D02*
Y191165D01*
X237236Y186835D02*
Y191165D01*
X205685Y116154D02*
X216315D01*
X205685Y122846D02*
X216315D01*
Y116154D02*
Y122846D01*
X205685Y116154D02*
Y122846D01*
%TF.MD5,8de1fddb7dfa2d2300c73f4b04274237*%
M02*
