%TF.GenerationSoftware,Altium Limited,Altium Designer,22.9.1 (49)*%
G04 Layer_Color=2752767*
%FSLAX25Y25*%
%MOIN*%
%TF.SameCoordinates,3D4AB22D-4464-4A1E-8ED4-CD8DD9DE0D00*%
%TF.FilePolarity,Positive*%
%TF.FileFunction,Drawing*%
%TF.Part,Single*%
G01*
G75*
%TA.AperFunction,NonConductor*%
%ADD56C,0.00500*%
%ADD57C,0.00667*%
D56*
X206000Y58500D02*
X207000Y59500D01*
X208000D01*
X207000Y60500D01*
X208000Y61500D01*
X207000D01*
X206000Y62500D01*
X205000Y61500D01*
X204000D01*
X205000Y60500D01*
X204000Y59500D01*
X205000D01*
X206000Y58500D01*
X196000D02*
X197000Y59500D01*
X198000D01*
X197000Y60500D01*
X198000Y61500D01*
X197000D01*
X196000Y62500D01*
X195000Y61500D01*
X194000D01*
X195000Y60500D01*
X194000Y59500D01*
X195000D01*
X196000Y58500D01*
X186000D02*
X187000Y59500D01*
X188000D01*
X187000Y60500D01*
X188000Y61500D01*
X187000D01*
X186000Y62500D01*
X185000Y61500D01*
X184000D01*
X185000Y60500D01*
X184000Y59500D01*
X185000D01*
X186000Y58500D01*
X176000D02*
X177000Y59500D01*
X178000D01*
X177000Y60500D01*
X178000Y61500D01*
X177000D01*
X176000Y62500D01*
X175000Y61500D01*
X174000D01*
X175000Y60500D01*
X174000Y59500D01*
X175000D01*
X176000Y58500D01*
X166000D02*
X167000Y59500D01*
X168000D01*
X167000Y60500D01*
X168000Y61500D01*
X167000D01*
X166000Y62500D01*
X165000Y61500D01*
X164000D01*
X165000Y60500D01*
X164000Y59500D01*
X165000D01*
X166000Y58500D01*
X156000D02*
X157000Y59500D01*
X158000D01*
X157000Y60500D01*
X158000Y61500D01*
X157000D01*
X156000Y62500D01*
X155000Y61500D01*
X154000D01*
X155000Y60500D01*
X154000Y59500D01*
X155000D01*
X156000Y58500D01*
X146000D02*
X147000Y59500D01*
X148000D01*
X147000Y60500D01*
X148000Y61500D01*
X147000D01*
X146000Y62500D01*
X145000Y61500D01*
X144000D01*
X145000Y60500D01*
X144000Y59500D01*
X145000D01*
X146000Y58500D01*
X136000D02*
X137000Y59500D01*
X138000D01*
X137000Y60500D01*
X138000Y61500D01*
X137000D01*
X136000Y62500D01*
X135000Y61500D01*
X134000D01*
X135000Y60500D01*
X134000Y59500D01*
X135000D01*
X136000Y58500D01*
X126000D02*
X127000Y59500D01*
X128000D01*
X127000Y60500D01*
X128000Y61500D01*
X127000D01*
X126000Y62500D01*
X125000Y61500D01*
X124000D01*
X125000Y60500D01*
X124000Y59500D01*
X125000D01*
X126000Y58500D01*
X116000D02*
X117000Y59500D01*
X118000D01*
X117000Y60500D01*
X118000Y61500D01*
X117000D01*
X116000Y62500D01*
X115000Y61500D01*
X114000D01*
X115000Y60500D01*
X114000Y59500D01*
X115000D01*
X116000Y58500D01*
X206000Y68500D02*
X207000Y69500D01*
X208000D01*
X207000Y70500D01*
X208000Y71500D01*
X207000D01*
X206000Y72500D01*
X205000Y71500D01*
X204000D01*
X205000Y70500D01*
X204000Y69500D01*
X205000D01*
X206000Y68500D01*
X196000D02*
X197000Y69500D01*
X198000D01*
X197000Y70500D01*
X198000Y71500D01*
X197000D01*
X196000Y72500D01*
X195000Y71500D01*
X194000D01*
X195000Y70500D01*
X194000Y69500D01*
X195000D01*
X196000Y68500D01*
X186000D02*
X187000Y69500D01*
X188000D01*
X187000Y70500D01*
X188000Y71500D01*
X187000D01*
X186000Y72500D01*
X185000Y71500D01*
X184000D01*
X185000Y70500D01*
X184000Y69500D01*
X185000D01*
X186000Y68500D01*
X176000D02*
X177000Y69500D01*
X178000D01*
X177000Y70500D01*
X178000Y71500D01*
X177000D01*
X176000Y72500D01*
X175000Y71500D01*
X174000D01*
X175000Y70500D01*
X174000Y69500D01*
X175000D01*
X176000Y68500D01*
X166000D02*
X167000Y69500D01*
X168000D01*
X167000Y70500D01*
X168000Y71500D01*
X167000D01*
X166000Y72500D01*
X165000Y71500D01*
X164000D01*
X165000Y70500D01*
X164000Y69500D01*
X165000D01*
X166000Y68500D01*
X156000D02*
X157000Y69500D01*
X158000D01*
X157000Y70500D01*
X158000Y71500D01*
X157000D01*
X156000Y72500D01*
X155000Y71500D01*
X154000D01*
X155000Y70500D01*
X154000Y69500D01*
X155000D01*
X156000Y68500D01*
X146000D02*
X147000Y69500D01*
X148000D01*
X147000Y70500D01*
X148000Y71500D01*
X147000D01*
X146000Y72500D01*
X145000Y71500D01*
X144000D01*
X145000Y70500D01*
X144000Y69500D01*
X145000D01*
X146000Y68500D01*
X136000D02*
X137000Y69500D01*
X138000D01*
X137000Y70500D01*
X138000Y71500D01*
X137000D01*
X136000Y72500D01*
X135000Y71500D01*
X134000D01*
X135000Y70500D01*
X134000Y69500D01*
X135000D01*
X136000Y68500D01*
X126000D02*
X127000Y69500D01*
X128000D01*
X127000Y70500D01*
X128000Y71500D01*
X127000D01*
X126000Y72500D01*
X125000Y71500D01*
X124000D01*
X125000Y70500D01*
X124000Y69500D01*
X125000D01*
X126000Y68500D01*
X116000D02*
X117000Y69500D01*
X118000D01*
X117000Y70500D01*
X118000Y71500D01*
X117000D01*
X116000Y72500D01*
X115000Y71500D01*
X114000D01*
X115000Y70500D01*
X114000Y69500D01*
X115000D01*
X116000Y68500D01*
X206417Y252000D02*
X207417Y253000D01*
X208417D01*
X207417Y254000D01*
X208417Y255000D01*
X207417D01*
X206417Y256000D01*
X205417Y255000D01*
X204417D01*
X205417Y254000D01*
X204417Y253000D01*
X205417D01*
X206417Y252000D01*
X196417D02*
X197417Y253000D01*
X198417D01*
X197417Y254000D01*
X198417Y255000D01*
X197417D01*
X196417Y256000D01*
X195417Y255000D01*
X194417D01*
X195417Y254000D01*
X194417Y253000D01*
X195417D01*
X196417Y252000D01*
X186417D02*
X187417Y253000D01*
X188417D01*
X187417Y254000D01*
X188417Y255000D01*
X187417D01*
X186417Y256000D01*
X185417Y255000D01*
X184417D01*
X185417Y254000D01*
X184417Y253000D01*
X185417D01*
X186417Y252000D01*
X176417D02*
X177417Y253000D01*
X178417D01*
X177417Y254000D01*
X178417Y255000D01*
X177417D01*
X176417Y256000D01*
X175417Y255000D01*
X174417D01*
X175417Y254000D01*
X174417Y253000D01*
X175417D01*
X176417Y252000D01*
X166417D02*
X167417Y253000D01*
X168417D01*
X167417Y254000D01*
X168417Y255000D01*
X167417D01*
X166417Y256000D01*
X165417Y255000D01*
X164417D01*
X165417Y254000D01*
X164417Y253000D01*
X165417D01*
X166417Y252000D01*
X156417D02*
X157417Y253000D01*
X158417D01*
X157417Y254000D01*
X158417Y255000D01*
X157417D01*
X156417Y256000D01*
X155417Y255000D01*
X154417D01*
X155417Y254000D01*
X154417Y253000D01*
X155417D01*
X156417Y252000D01*
X146417D02*
X147417Y253000D01*
X148417D01*
X147417Y254000D01*
X148417Y255000D01*
X147417D01*
X146417Y256000D01*
X145417Y255000D01*
X144417D01*
X145417Y254000D01*
X144417Y253000D01*
X145417D01*
X146417Y252000D01*
X136417D02*
X137417Y253000D01*
X138417D01*
X137417Y254000D01*
X138417Y255000D01*
X137417D01*
X136417Y256000D01*
X135417Y255000D01*
X134417D01*
X135417Y254000D01*
X134417Y253000D01*
X135417D01*
X136417Y252000D01*
X126417D02*
X127417Y253000D01*
X128417D01*
X127417Y254000D01*
X128417Y255000D01*
X127417D01*
X126417Y256000D01*
X125417Y255000D01*
X124417D01*
X125417Y254000D01*
X124417Y253000D01*
X125417D01*
X126417Y252000D01*
X116417D02*
X117417Y253000D01*
X118417D01*
X117417Y254000D01*
X118417Y255000D01*
X117417D01*
X116417Y256000D01*
X115417Y255000D01*
X114417D01*
X115417Y254000D01*
X114417Y253000D01*
X115417D01*
X116417Y252000D01*
X206417Y262000D02*
X207417Y263000D01*
X208417D01*
X207417Y264000D01*
X208417Y265000D01*
X207417D01*
X206417Y266000D01*
X205417Y265000D01*
X204417D01*
X205417Y264000D01*
X204417Y263000D01*
X205417D01*
X206417Y262000D01*
X196417D02*
X197417Y263000D01*
X198417D01*
X197417Y264000D01*
X198417Y265000D01*
X197417D01*
X196417Y266000D01*
X195417Y265000D01*
X194417D01*
X195417Y264000D01*
X194417Y263000D01*
X195417D01*
X196417Y262000D01*
X186417D02*
X187417Y263000D01*
X188417D01*
X187417Y264000D01*
X188417Y265000D01*
X187417D01*
X186417Y266000D01*
X185417Y265000D01*
X184417D01*
X185417Y264000D01*
X184417Y263000D01*
X185417D01*
X186417Y262000D01*
X176417D02*
X177417Y263000D01*
X178417D01*
X177417Y264000D01*
X178417Y265000D01*
X177417D01*
X176417Y266000D01*
X175417Y265000D01*
X174417D01*
X175417Y264000D01*
X174417Y263000D01*
X175417D01*
X176417Y262000D01*
X166417D02*
X167417Y263000D01*
X168417D01*
X167417Y264000D01*
X168417Y265000D01*
X167417D01*
X166417Y266000D01*
X165417Y265000D01*
X164417D01*
X165417Y264000D01*
X164417Y263000D01*
X165417D01*
X166417Y262000D01*
X156417D02*
X157417Y263000D01*
X158417D01*
X157417Y264000D01*
X158417Y265000D01*
X157417D01*
X156417Y266000D01*
X155417Y265000D01*
X154417D01*
X155417Y264000D01*
X154417Y263000D01*
X155417D01*
X156417Y262000D01*
X146417D02*
X147417Y263000D01*
X148417D01*
X147417Y264000D01*
X148417Y265000D01*
X147417D01*
X146417Y266000D01*
X145417Y265000D01*
X144417D01*
X145417Y264000D01*
X144417Y263000D01*
X145417D01*
X146417Y262000D01*
X136417D02*
X137417Y263000D01*
X138417D01*
X137417Y264000D01*
X138417Y265000D01*
X137417D01*
X136417Y266000D01*
X135417Y265000D01*
X134417D01*
X135417Y264000D01*
X134417Y263000D01*
X135417D01*
X136417Y262000D01*
X126417D02*
X127417Y263000D01*
X128417D01*
X127417Y264000D01*
X128417Y265000D01*
X127417D01*
X126417Y266000D01*
X125417Y265000D01*
X124417D01*
X125417Y264000D01*
X124417Y263000D01*
X125417D01*
X126417Y262000D01*
X116417D02*
X117417Y263000D01*
X118417D01*
X117417Y264000D01*
X118417Y265000D01*
X117417D01*
X116417Y266000D01*
X115417Y265000D01*
X114417D01*
X115417Y264000D01*
X114417Y263000D01*
X115417D01*
X116417Y262000D01*
X68500Y123382D02*
X66500Y127382D01*
X70500D01*
X68500Y123382D01*
Y137161D02*
X66500Y141161D01*
X70500D01*
X68500Y137161D01*
Y150941D02*
X66500Y154941D01*
X70500D01*
X68500Y150941D01*
Y164720D02*
X66500Y168720D01*
X70500D01*
X68500Y164720D01*
Y178500D02*
X66500Y182500D01*
X70500D01*
X68500Y178500D01*
Y192280D02*
X66500Y196280D01*
X70500D01*
X68500Y192280D01*
Y82043D02*
X66500Y86043D01*
X70500D01*
X68500Y82043D01*
Y95823D02*
X66500Y99823D01*
X70500D01*
X68500Y95823D01*
Y109602D02*
X66500Y113602D01*
X70500D01*
X68500Y109602D01*
X155295Y159468D02*
Y163469D01*
X159295D01*
Y159468D01*
X155295D01*
X159232D02*
Y163469D01*
X163232D01*
Y159468D01*
X159232D01*
X155295Y155532D02*
Y159531D01*
X159295D01*
Y155532D01*
X155295D01*
X159232D02*
Y159531D01*
X163232D01*
Y155532D01*
X159232D01*
X155295Y151594D02*
Y155595D01*
X159295D01*
Y151594D01*
X155295D01*
X159232D02*
Y155595D01*
X163232D01*
Y151594D01*
X159232D01*
Y163406D02*
Y167405D01*
X163232D01*
Y163406D01*
X159232D01*
X155295D02*
Y167405D01*
X159295D01*
Y163406D01*
X155295D01*
X159232Y147658D02*
Y151657D01*
X163232D01*
Y147658D01*
X159232D01*
X155295D02*
Y151657D01*
X159295D01*
Y147658D01*
X155295D01*
X151358D02*
Y151657D01*
X155358D01*
Y147658D01*
X151358D01*
Y163406D02*
Y167405D01*
X155358D01*
Y163406D01*
X151358D01*
Y151594D02*
Y155595D01*
X155358D01*
Y151594D01*
X151358D01*
Y155532D02*
Y159531D01*
X155358D01*
Y155532D01*
X151358D01*
Y159468D02*
Y163469D01*
X155358D01*
Y159468D01*
X151358D01*
X151358Y167342D02*
Y171343D01*
X155358D01*
Y167342D01*
X151358D01*
X155295D02*
Y171343D01*
X159295D01*
Y167342D01*
X155295D01*
X159232D02*
Y171343D01*
X163232D01*
Y167342D01*
X159232D01*
D57*
X105000Y247000D02*
G03*
X105000Y247000I-2000J0D01*
G01*
%TF.MD5,27f19ad3ab3fad93e9553f1e488923e4*%
M02*
