%TF.GenerationSoftware,Altium Limited,Altium Designer,22.9.1 (49)*%
G04 Layer_Color=16711935*
%FSLAX25Y25*%
%MOIN*%
%TF.SameCoordinates,3D4AB22D-4464-4A1E-8ED4-CD8DD9DE0D00*%
%TF.FilePolarity,Positive*%
%TF.FileFunction,Other,Mechanical_13*%
%TF.Part,Single*%
G01*
G75*
%TA.AperFunction,NonConductor*%
%ADD47C,0.00394*%
D47*
X153949Y175248D02*
G03*
X153949Y175248I-1969J0D01*
G01*
X225689Y125209D02*
G03*
X225689Y125209I-1969J0D01*
G01*
X226189Y194709D02*
G03*
X226189Y194709I-1969J0D01*
G01*
X148437Y140209D02*
X166154D01*
X148437Y178791D02*
X166154D01*
Y140209D02*
Y178791D01*
X148437Y140209D02*
Y178791D01*
X206669Y186146D02*
X215331D01*
X206669Y191854D02*
X215331D01*
Y186146D02*
Y191854D01*
X206669Y186146D02*
Y191854D01*
X206618Y202646D02*
X215280D01*
X206618Y208354D02*
X215280D01*
Y202646D02*
Y208354D01*
X206618Y202646D02*
Y208354D01*
X239433Y134917D02*
X243567D01*
X239433Y137083D02*
X243567D01*
Y134917D02*
Y137083D01*
X239433Y134917D02*
Y137083D01*
Y118417D02*
X243567D01*
X239433Y120583D02*
X243567D01*
Y118417D02*
Y120583D01*
X239433Y118417D02*
Y120583D01*
X206827Y133146D02*
X215488D01*
X206827Y138854D02*
X215488D01*
Y133146D02*
Y138854D01*
X206827Y133146D02*
Y138854D01*
X222366Y147343D02*
Y152657D01*
X230634Y147343D02*
Y152657D01*
X222366D02*
X230634D01*
X222366Y147343D02*
X230634D01*
X229343Y103929D02*
X234658D01*
X229343Y112197D02*
X234658D01*
X229343Y103929D02*
Y112197D01*
X234658Y103929D02*
Y112197D01*
X232382Y121665D02*
Y133870D01*
X220177Y121665D02*
Y133870D01*
X232382D01*
X220177Y121665D02*
X232382D01*
X229842Y173929D02*
X235157D01*
X229842Y182197D02*
X235157D01*
X229842Y173929D02*
Y182197D01*
X235157Y173929D02*
Y182197D01*
X232882Y191165D02*
Y203370D01*
X220677Y191165D02*
Y203370D01*
X232882D01*
X220677Y191165D02*
X232882D01*
X222866Y214342D02*
Y219657D01*
X231134Y214342D02*
Y219657D01*
X222866D02*
X231134D01*
X222866Y214342D02*
X231134D01*
X239063Y204417D02*
X243197D01*
X239063Y206583D02*
X243197D01*
Y204417D02*
Y206583D01*
X239063Y204417D02*
Y206583D01*
X239303Y187917D02*
X243437D01*
X239303Y190083D02*
X243437D01*
Y187917D02*
Y190083D01*
X239303Y187917D02*
Y190083D01*
X206669Y116646D02*
X215331D01*
X206669Y122354D02*
X215331D01*
Y116646D02*
Y122354D01*
X206669Y116646D02*
Y122354D01*
%TF.MD5,c961d428d605514c358e0af052d311ef*%
M02*
