%TF.GenerationSoftware,Altium Limited,Altium Designer,22.9.1 (49)*%
G04 Layer_Physical_Order=1*
G04 Layer_Color=255*
%FSLAX25Y25*%
%MOIN*%
%TF.SameCoordinates,3D4AB22D-4464-4A1E-8ED4-CD8DD9DE0D00*%
%TF.FilePolarity,Positive*%
%TF.FileFunction,Copper,L1,Top,Signal*%
%TF.Part,Single*%
G01*
G75*
%TA.AperFunction,ConnectorPad*%
%ADD10R,0.03937X0.06142*%
%TA.AperFunction,SMDPad,CuDef*%
%ADD11R,0.03937X0.06142*%
G04:AMPARAMS|DCode=12|XSize=94.49mil|YSize=242.91mil|CornerRadius=1.89mil|HoleSize=0mil|Usage=FLASHONLY|Rotation=0.000|XOffset=0mil|YOffset=0mil|HoleType=Round|Shape=RoundedRectangle|*
%AMROUNDEDRECTD12*
21,1,0.09449,0.23913,0,0,0.0*
21,1,0.09071,0.24291,0,0,0.0*
1,1,0.00378,0.04535,-0.11957*
1,1,0.00378,-0.04535,-0.11957*
1,1,0.00378,-0.04535,0.11957*
1,1,0.00378,0.04535,0.11957*
%
%ADD12ROUNDEDRECTD12*%
G04:AMPARAMS|DCode=13|XSize=17.72mil|YSize=62.99mil|CornerRadius=1.95mil|HoleSize=0mil|Usage=FLASHONLY|Rotation=90.000|XOffset=0mil|YOffset=0mil|HoleType=Round|Shape=RoundedRectangle|*
%AMROUNDEDRECTD13*
21,1,0.01772,0.05909,0,0,90.0*
21,1,0.01382,0.06299,0,0,90.0*
1,1,0.00390,0.02955,0.00691*
1,1,0.00390,0.02955,-0.00691*
1,1,0.00390,-0.02955,-0.00691*
1,1,0.00390,-0.02955,0.00691*
%
%ADD13ROUNDEDRECTD13*%
%ADD14R,0.06127X0.06213*%
%ADD15R,0.03740X0.05315*%
%ADD16R,0.07316X0.05928*%
%ADD17R,0.03543X0.03150*%
%ADD18R,0.02756X0.02559*%
%ADD19R,0.02029X0.01860*%
%ADD20R,0.01968X0.01575*%
%ADD21R,0.04724X0.05709*%
%ADD22R,0.05709X0.04724*%
G04:AMPARAMS|DCode=23|XSize=17.72mil|YSize=51.18mil|CornerRadius=4.43mil|HoleSize=0mil|Usage=FLASHONLY|Rotation=180.000|XOffset=0mil|YOffset=0mil|HoleType=Round|Shape=RoundedRectangle|*
%AMROUNDEDRECTD23*
21,1,0.01772,0.04232,0,0,180.0*
21,1,0.00886,0.05118,0,0,180.0*
1,1,0.00886,-0.00443,0.02116*
1,1,0.00886,0.00443,0.02116*
1,1,0.00886,0.00443,-0.02116*
1,1,0.00886,-0.00443,-0.02116*
%
%ADD23ROUNDEDRECTD23*%
G04:AMPARAMS|DCode=24|XSize=17.72mil|YSize=51.18mil|CornerRadius=4.43mil|HoleSize=0mil|Usage=FLASHONLY|Rotation=180.000|XOffset=0mil|YOffset=0mil|HoleType=Round|Shape=RoundedRectangle|*
%AMROUNDEDRECTD24*
21,1,0.01772,0.04232,0,0,180.0*
21,1,0.00886,0.05118,0,0,180.0*
1,1,0.00886,-0.00443,0.02116*
1,1,0.00886,0.00443,0.02116*
1,1,0.00886,0.00443,-0.02116*
1,1,0.00886,-0.00443,-0.02116*
%
%ADD24ROUNDEDRECTD24*%
%ADD25R,0.02047X0.02047*%
%TA.AperFunction,Conductor*%
%ADD26C,0.01000*%
%TA.AperFunction,NonConductor*%
%ADD27C,0.01000*%
%TA.AperFunction,ComponentPad*%
%ADD28C,0.04016*%
%ADD29C,0.06165*%
%ADD30R,0.06165X0.06165*%
%TA.AperFunction,ViaPad*%
%ADD31C,0.01575*%
%ADD32C,0.05000*%
D10*
X126417Y247563D02*
D03*
X206417Y270437D02*
D03*
Y247563D02*
D03*
X196417Y270437D02*
D03*
Y247563D02*
D03*
X186417Y270437D02*
D03*
Y247563D02*
D03*
X176417Y270437D02*
D03*
Y247563D02*
D03*
X166417Y270437D02*
D03*
Y247563D02*
D03*
X156417Y270437D02*
D03*
Y247563D02*
D03*
X146417Y270437D02*
D03*
Y247563D02*
D03*
X136417Y270437D02*
D03*
Y247563D02*
D03*
X126417Y270437D02*
D03*
X116417D02*
D03*
Y247563D02*
D03*
D11*
X116000Y54063D02*
D03*
X136000D02*
D03*
X146000D02*
D03*
X156000D02*
D03*
X166000D02*
D03*
X176000D02*
D03*
X186000D02*
D03*
X196000D02*
D03*
X206000D02*
D03*
Y76937D02*
D03*
X196000D02*
D03*
X186000D02*
D03*
X176000D02*
D03*
X166000D02*
D03*
X156000D02*
D03*
X146000D02*
D03*
X136000D02*
D03*
X126000D02*
D03*
Y54063D02*
D03*
X116000Y76937D02*
D03*
D12*
X157295Y159500D02*
D03*
D13*
X169303Y160780D02*
D03*
X145287D02*
D03*
X169303Y158221D02*
D03*
X145287D02*
D03*
Y153102D02*
D03*
Y155661D02*
D03*
Y165898D02*
D03*
Y163339D02*
D03*
X169303Y153102D02*
D03*
Y165898D02*
D03*
X145287Y150543D02*
D03*
Y168457D02*
D03*
Y147984D02*
D03*
Y171016D02*
D03*
X169303Y163339D02*
D03*
X145287Y142866D02*
D03*
Y145425D02*
D03*
Y173575D02*
D03*
Y176134D02*
D03*
X169303Y150543D02*
D03*
Y147984D02*
D03*
Y145425D02*
D03*
Y142866D02*
D03*
Y168457D02*
D03*
Y171016D02*
D03*
Y173575D02*
D03*
Y176134D02*
D03*
Y155661D02*
D03*
D14*
X152500Y228145D02*
D03*
Y234949D02*
D03*
X162500Y228098D02*
D03*
Y234902D02*
D03*
X121500Y228145D02*
D03*
Y234949D02*
D03*
X132500Y228098D02*
D03*
Y234902D02*
D03*
D15*
X214051Y189000D02*
D03*
X207949D02*
D03*
X214000Y205500D02*
D03*
X207898D02*
D03*
X214209Y136000D02*
D03*
X208106D02*
D03*
X214051Y119500D02*
D03*
X207949D02*
D03*
D16*
X130500Y180500D02*
D03*
Y192124D02*
D03*
X131000Y138500D02*
D03*
Y126876D02*
D03*
D17*
X253500Y194047D02*
D03*
Y199953D02*
D03*
Y149453D02*
D03*
Y143547D02*
D03*
Y175594D02*
D03*
Y181500D02*
D03*
Y124547D02*
D03*
Y130453D02*
D03*
Y217905D02*
D03*
Y212000D02*
D03*
Y105547D02*
D03*
Y111453D02*
D03*
D18*
X243370Y136000D02*
D03*
X239630D02*
D03*
X243370Y119500D02*
D03*
X239630D02*
D03*
X243000Y205500D02*
D03*
X239260D02*
D03*
X243240Y189000D02*
D03*
X239500D02*
D03*
D19*
X133990Y148000D02*
D03*
X131010D02*
D03*
X133490Y171000D02*
D03*
X130510D02*
D03*
D20*
X110000Y222350D02*
D03*
Y225500D02*
D03*
Y234500D02*
D03*
Y237650D02*
D03*
X142500Y234425D02*
D03*
Y237575D02*
D03*
Y222425D02*
D03*
Y225575D02*
D03*
D21*
X222563Y150000D02*
D03*
X230437D02*
D03*
X223063Y217000D02*
D03*
X230937D02*
D03*
D22*
X232000Y104126D02*
D03*
Y112000D02*
D03*
X232500Y174126D02*
D03*
Y182000D02*
D03*
D23*
X222441Y136035D02*
D03*
X230118Y119500D02*
D03*
X225000D02*
D03*
X222441D02*
D03*
X227559Y136035D02*
D03*
X225000D02*
D03*
X227559Y119500D02*
D03*
X222941Y205535D02*
D03*
X230618Y189000D02*
D03*
X225500D02*
D03*
X222941D02*
D03*
X228059Y205535D02*
D03*
X225500D02*
D03*
X228059Y189000D02*
D03*
D24*
X230118Y136035D02*
D03*
X230618Y205535D02*
D03*
D25*
X225500Y183575D02*
D03*
Y180425D02*
D03*
X225000Y113000D02*
D03*
Y109850D02*
D03*
D26*
X174173Y147984D02*
X180000Y142157D01*
X169303Y165898D02*
X177398D01*
X173304Y142825D02*
X176000Y140129D01*
X169353Y145376D02*
X173953D01*
X169345Y142825D02*
X173304D01*
X169303Y142866D02*
X169345Y142825D01*
X173953Y145376D02*
X178000Y141328D01*
X169303Y150543D02*
X174442D01*
X182000Y142985D01*
X174898Y153102D02*
X184000Y144000D01*
X169303Y153102D02*
X174898D01*
X177398Y165898D02*
X200500Y189000D01*
X207949D01*
X130500Y192124D02*
X137376D01*
X130510Y171000D02*
Y180490D01*
X130500Y180500D02*
X130510Y180490D01*
X137376Y192124D02*
X140000Y189500D01*
Y177522D02*
Y189500D01*
X113000Y178000D02*
X125102Y165898D01*
X140043Y168457D02*
X145287D01*
X145266Y168478D02*
X145287Y168457D01*
X145216Y176206D02*
X145287Y176134D01*
X141316Y176206D02*
X145216D01*
X140000Y177522D02*
X141316Y176206D01*
X145287Y173575D02*
Y176134D01*
X145083Y147811D02*
X145272Y148000D01*
X140000Y142000D02*
X140866Y142866D01*
X145075Y145252D02*
X145114D01*
X141005Y147811D02*
X145083D01*
X140866Y142866D02*
X145287D01*
X243240Y189000D02*
X251256D01*
X253303Y199953D02*
X253500D01*
X253303Y194047D02*
X253500D01*
Y199953D02*
Y202756D01*
X250756Y205500D02*
X253500Y202756D01*
Y191244D02*
Y194047D01*
X251256Y189000D02*
X253500Y191244D01*
Y181500D02*
Y186756D01*
X251256Y189000D02*
X253500Y186756D01*
X243370Y136000D02*
X251000D01*
X253500Y133500D01*
X251000Y136000D02*
X253500Y138500D01*
Y143547D01*
X243370Y119500D02*
X251000D01*
X253500Y117000D01*
X251000Y119500D02*
X253500Y122000D01*
Y130453D02*
Y133500D01*
Y122000D02*
Y124547D01*
X250756Y205500D02*
X253500Y208244D01*
X243000Y205500D02*
X250756D01*
X253500Y208244D02*
Y212000D01*
X182000Y109000D02*
X206000Y85000D01*
X176000Y76937D02*
Y140129D01*
X180000Y101500D02*
Y142157D01*
X206000Y76937D02*
Y85000D01*
X196000Y76937D02*
Y85500D01*
X180000Y101500D02*
X196000Y85500D01*
X186000Y76937D02*
Y85500D01*
X178000Y93500D02*
X186000Y85500D01*
X178000Y93500D02*
Y141328D01*
X131000Y138500D02*
X131010Y138510D01*
X133990Y148000D02*
X138000D01*
X131010Y138510D02*
Y148000D01*
X131000Y138500D02*
X131694D01*
X141005Y147811D01*
X131000Y126876D02*
X137376D01*
X140000Y129500D01*
Y142000D01*
X124941Y152941D02*
X127500Y155500D01*
X145272Y148000D02*
X145287Y147984D01*
X145075Y145252D02*
X145287Y145039D01*
X145114Y145252D02*
X145287Y145425D01*
Y142866D02*
Y145039D01*
X141165Y155835D02*
X145114D01*
X140398Y153102D02*
X145287D01*
X140543Y150543D02*
X145287D01*
X145114Y155835D02*
X145287Y155661D01*
X68500Y152941D02*
X124941D01*
X68500Y194280D02*
X77220D01*
X110000Y165000D02*
X116000Y159000D01*
X113000Y173500D02*
X123161Y163339D01*
X68500Y180500D02*
X81500D01*
X68500Y166720D02*
X84280D01*
X81500Y180500D02*
X88500Y173500D01*
X84280Y166720D02*
X86000Y165000D01*
X77220Y194280D02*
X93500Y178000D01*
X86000Y165000D02*
X110000D01*
X88500Y173500D02*
X113000D01*
X93500Y178000D02*
X113000D01*
X116000Y159000D02*
X138000D01*
X141165Y155835D01*
X127500Y155500D02*
X138000D01*
X123161Y163339D02*
X145287D01*
X134490Y168500D02*
X134512Y168478D01*
X125102Y165898D02*
X145287D01*
X133490Y171000D02*
X137500D01*
X140043Y168457D01*
X138000Y155500D02*
X140398Y153102D01*
X138000Y148000D02*
X140543Y150543D01*
X169303Y147984D02*
X174173D01*
X169303Y145425D02*
X169353Y145376D01*
X182000Y109000D02*
Y142985D01*
X184000Y134500D02*
Y144000D01*
X214051Y189000D02*
X222941D01*
X222441Y149878D02*
X222563Y150000D01*
X230118Y149681D02*
X230437Y150000D01*
X221500Y177500D02*
X224874Y174126D01*
X221500Y177500D02*
Y185886D01*
X222941Y187327D01*
X221000Y106500D02*
X223374Y104126D01*
X221000Y106500D02*
Y116386D01*
X232000Y112000D02*
Y115945D01*
X223374Y104126D02*
X232000D01*
X253500Y111453D02*
Y117000D01*
X184000Y134500D02*
X199000Y119500D01*
X214244Y136035D02*
X222441D01*
X214209Y136000D02*
X214244Y136035D01*
X214051Y119500D02*
X222441D01*
X224874Y174126D02*
X232500D01*
X225500Y183500D02*
Y189000D01*
X231059Y186941D02*
X232500Y185500D01*
Y182000D02*
Y185500D01*
X230618Y189000D02*
X239500D01*
X230618Y216681D02*
X230937Y217000D01*
X222941Y205535D02*
Y216878D01*
X223063Y217000D01*
X230618Y205535D02*
Y216681D01*
X214035Y205535D02*
X222941D01*
X230654Y205500D02*
X239260D01*
X214000D02*
X214035Y205535D01*
X230618Y187327D02*
Y189000D01*
X231004Y186941D02*
X231059D01*
X230618Y187327D02*
X231004Y186941D01*
X222941Y187327D02*
Y189000D01*
X230618Y205535D02*
X230654Y205500D01*
X230118Y136035D02*
Y149681D01*
X222441Y136035D02*
Y149878D01*
X230118Y117827D02*
X232000Y115945D01*
X230118Y117827D02*
Y119500D01*
Y136035D02*
X230153Y136000D01*
X239630D01*
X230118Y119500D02*
X239630D01*
X199000D02*
X207949D01*
X222441Y117827D02*
Y119500D01*
X225000Y113000D02*
Y119500D01*
X221000Y116386D02*
X222441Y117827D01*
D27*
X145287Y178520D02*
Y178713D01*
D28*
X206000Y60500D02*
D03*
X196000D02*
D03*
X186000D02*
D03*
X176000D02*
D03*
X166000D02*
D03*
X156000D02*
D03*
X146000D02*
D03*
X136000D02*
D03*
X126000D02*
D03*
X116000D02*
D03*
X206000Y70500D02*
D03*
X196000D02*
D03*
X186000D02*
D03*
X176000D02*
D03*
X166000D02*
D03*
X156000D02*
D03*
X146000D02*
D03*
X136000D02*
D03*
X126000D02*
D03*
X116000D02*
D03*
X206417Y254000D02*
D03*
X196417D02*
D03*
X186417D02*
D03*
X176417D02*
D03*
X166417D02*
D03*
X156417D02*
D03*
X146417D02*
D03*
X136417D02*
D03*
X126417D02*
D03*
X116417D02*
D03*
X206417Y264000D02*
D03*
X196417D02*
D03*
X186417D02*
D03*
X176417D02*
D03*
X166417D02*
D03*
X156417D02*
D03*
X146417D02*
D03*
X136417D02*
D03*
X126417D02*
D03*
X116417D02*
D03*
D29*
X68500Y125382D02*
D03*
Y139161D02*
D03*
Y152941D02*
D03*
Y166720D02*
D03*
Y180500D02*
D03*
Y84043D02*
D03*
Y97823D02*
D03*
Y111602D02*
D03*
D30*
Y194280D02*
D03*
D31*
X157295Y161469D02*
D03*
X161232D02*
D03*
X157295Y157531D02*
D03*
X161232D02*
D03*
X157295Y153595D02*
D03*
X161232D02*
D03*
Y165405D02*
D03*
X157295D02*
D03*
X161232Y149657D02*
D03*
X157295D02*
D03*
X153358D02*
D03*
Y165405D02*
D03*
Y153595D02*
D03*
Y157531D02*
D03*
Y161469D02*
D03*
X153358Y169343D02*
D03*
X157295D02*
D03*
X161232D02*
D03*
D32*
X103000Y247000D02*
D03*
%TF.MD5,6cf920f7f3a976c02366ff580556fb7a*%
M02*
