%TF.GenerationSoftware,Altium Limited,Altium Designer,22.10.1 (41)*%
G04 Layer_Color=65535*
%FSLAX45Y45*%
%MOMM*%
%TF.SameCoordinates,19E9B31E-7746-43A9-897C-89C24B045B63*%
%TF.FilePolarity,Positive*%
%TF.FileFunction,Legend,Top*%
%TF.Part,Single*%
G01*
G75*
%TA.AperFunction,NonConductor*%
%ADD22C,0.15240*%
%ADD23C,0.20000*%
%ADD24C,0.25400*%
D22*
X1578895Y895350D02*
Y938530D01*
Y1385570D02*
Y1428750D01*
X2069115D02*
X2112295D01*
Y895350D02*
Y938530D01*
X1578895Y895350D02*
X1622075D01*
X2069115D02*
X2112295D01*
Y1385570D02*
Y1428750D01*
X1578895D02*
X1622075D01*
D23*
X2918709Y2190648D02*
X3159704D01*
X2918709Y82652D02*
X3159704D01*
Y2190648D01*
X2918709Y82652D02*
Y2190648D01*
X543809Y2184273D02*
X784804D01*
X543809Y76276D02*
X784804D01*
Y2184273D01*
X543809Y76276D02*
Y2184273D01*
X2492197Y858957D02*
X2773411D01*
X2492197Y677743D02*
X2773411D01*
X1998215Y1538881D02*
Y1708883D01*
X1848213Y1538881D02*
Y1708883D01*
X2056923Y1714231D02*
X2161926D01*
X2056923Y1839229D02*
X2161926D01*
X2036105Y655051D02*
X2141108D01*
X2036105Y780049D02*
X2141108D01*
X1744609Y358551D02*
X1994606D01*
X1744609Y568549D02*
X1994606D01*
D24*
X3213100Y465353D02*
X3289275D01*
X3251188Y503440D02*
Y427265D01*
X3327363Y503440D02*
X3346407Y522484D01*
X3384495D01*
X3403539Y503440D01*
Y484397D01*
X3384495Y465353D01*
X3365451D01*
X3384495D01*
X3403539Y446309D01*
Y427265D01*
X3384495Y408221D01*
X3346407D01*
X3327363Y427265D01*
X3441626Y408221D02*
Y427265D01*
X3460670D01*
Y408221D01*
X3441626D01*
X3536846Y503440D02*
X3555890Y522484D01*
X3593977D01*
X3613021Y503440D01*
Y484397D01*
X3593977Y465353D01*
X3574933D01*
X3593977D01*
X3613021Y446309D01*
Y427265D01*
X3593977Y408221D01*
X3555890D01*
X3536846Y427265D01*
X3651109Y522484D02*
Y446309D01*
X3689197Y408221D01*
X3727284Y446309D01*
Y522484D01*
X3314667Y1801549D02*
X3289275Y1826940D01*
X3238492D01*
X3213100Y1801549D01*
Y1776157D01*
X3238492Y1750765D01*
X3289275D01*
X3314667Y1725373D01*
Y1699982D01*
X3289275Y1674590D01*
X3238492D01*
X3213100Y1699982D01*
X3365451Y1826940D02*
Y1674590D01*
X3441626D01*
X3467018Y1699982D01*
Y1801549D01*
X3441626Y1826940D01*
X3365451D01*
X3593977D02*
X3543193D01*
X3517801Y1801549D01*
Y1699982D01*
X3543193Y1674590D01*
X3593977D01*
X3619369Y1699982D01*
Y1801549D01*
X3593977Y1826940D01*
X3314667Y1533040D02*
X3289275Y1558432D01*
X3238492D01*
X3213100Y1533040D01*
Y1507648D01*
X3238492Y1482256D01*
X3289275D01*
X3314667Y1456864D01*
Y1431473D01*
X3289275Y1406081D01*
X3238492D01*
X3213100Y1431473D01*
X3467018Y1533040D02*
X3441626Y1558432D01*
X3390843D01*
X3365451Y1533040D01*
Y1431473D01*
X3390843Y1406081D01*
X3441626D01*
X3467018Y1431473D01*
X3517801Y1558432D02*
Y1406081D01*
Y1456864D01*
X3619369Y1558432D01*
X3543193Y1482256D01*
X3619369Y1406081D01*
X3314667Y2070057D02*
X3289275Y2095449D01*
X3238492D01*
X3213100Y2070057D01*
Y1968490D01*
X3238492Y1943098D01*
X3289275D01*
X3314667Y1968490D01*
X3365451Y1943098D02*
Y2095449D01*
X3467018Y1943098D01*
Y2095449D01*
X3517801D02*
Y1993882D01*
X3568585Y1943098D01*
X3619369Y1993882D01*
Y2095449D01*
X3213100Y1021414D02*
Y907151D01*
X3270231D01*
X3289275Y926195D01*
Y945239D01*
X3270231Y964283D01*
X3213100D01*
X3270231D01*
X3289275Y983326D01*
Y1002370D01*
X3270231Y1021414D01*
X3213100D01*
X3327363D02*
Y926195D01*
X3346407Y907151D01*
X3384495D01*
X3403539Y926195D01*
Y1021414D01*
X3517802Y1002370D02*
X3498758Y1021414D01*
X3460670D01*
X3441626Y1002370D01*
Y983326D01*
X3460670Y964283D01*
X3498758D01*
X3517802Y945239D01*
Y926195D01*
X3498758Y907151D01*
X3460670D01*
X3441626Y926195D01*
X3555890Y1021414D02*
Y1002370D01*
X3593977Y964283D01*
X3632065Y1002370D01*
Y1021414D01*
X3593977Y964283D02*
Y907151D01*
X3213100Y714818D02*
X3314667D01*
X3263883Y765601D02*
Y664034D01*
X3467018Y790993D02*
X3365451D01*
Y714818D01*
X3416234Y740210D01*
X3441626D01*
X3467018Y714818D01*
Y664034D01*
X3441626Y638642D01*
X3390843D01*
X3365451Y664034D01*
X3517801Y790993D02*
Y689426D01*
X3568585Y638642D01*
X3619369Y689426D01*
Y790993D01*
X3314667Y1264531D02*
X3289275Y1289923D01*
X3238492D01*
X3213100Y1264531D01*
Y1239140D01*
X3238492Y1213748D01*
X3289275D01*
X3314667Y1188356D01*
Y1162964D01*
X3289275Y1137572D01*
X3238492D01*
X3213100Y1162964D01*
X3365451Y1289923D02*
Y1137572D01*
X3441626D01*
X3467018Y1162964D01*
Y1264531D01*
X3441626Y1289923D01*
X3365451D01*
X3517801D02*
X3568585D01*
X3543193D01*
Y1137572D01*
X3517801D01*
X3568585D01*
X3289275Y273019D02*
X3270231Y292063D01*
X3232144D01*
X3213100Y273019D01*
Y196844D01*
X3232144Y177800D01*
X3270231D01*
X3289275Y196844D01*
Y234931D01*
X3251188D01*
X3327363Y177800D02*
Y292063D01*
X3403539Y177800D01*
Y292063D01*
X3441626D02*
Y177800D01*
X3498758D01*
X3517802Y196844D01*
Y273019D01*
X3498758Y292063D01*
X3441626D01*
X152367Y228559D02*
X126975Y253951D01*
X76192D01*
X50800Y228559D01*
Y126992D01*
X76192Y101600D01*
X126975D01*
X152367Y126992D01*
X203151Y253951D02*
Y101600D01*
Y177775D01*
X304718D01*
Y253951D01*
Y101600D01*
X355501Y253951D02*
X457069D01*
Y228559D01*
X355501Y126992D01*
Y101600D01*
X152367Y489816D02*
X126975Y515208D01*
X76192D01*
X50800Y489816D01*
Y388249D01*
X76192Y362857D01*
X126975D01*
X152367Y388249D01*
X203151Y515208D02*
Y362857D01*
Y439032D01*
X304718D01*
Y515208D01*
Y362857D01*
X457069Y515208D02*
X406285Y489816D01*
X355501Y439032D01*
Y388249D01*
X380893Y362857D01*
X431677D01*
X457069Y388249D01*
Y413641D01*
X431677Y439032D01*
X355501D01*
X152367Y751073D02*
X126975Y776465D01*
X76192D01*
X50800Y751073D01*
Y649506D01*
X76192Y624114D01*
X126975D01*
X152367Y649506D01*
X203151Y776465D02*
Y624114D01*
Y700289D01*
X304718D01*
Y776465D01*
Y624114D01*
X457069Y776465D02*
X355501D01*
Y700289D01*
X406285Y725681D01*
X431677D01*
X457069Y700289D01*
Y649506D01*
X431677Y624114D01*
X380893D01*
X355501Y649506D01*
X152367Y1012330D02*
X126975Y1037722D01*
X76192D01*
X50800Y1012330D01*
Y910763D01*
X76192Y885371D01*
X126975D01*
X152367Y910763D01*
X203151Y1037722D02*
Y885371D01*
Y961546D01*
X304718D01*
Y1037722D01*
Y885371D01*
X431677D02*
Y1037722D01*
X355501Y961546D01*
X457069D01*
X152367Y1273587D02*
X126975Y1298979D01*
X76192D01*
X50800Y1273587D01*
Y1172020D01*
X76192Y1146628D01*
X126975D01*
X152367Y1172020D01*
X203151Y1298979D02*
Y1146628D01*
Y1222803D01*
X304718D01*
Y1298979D01*
Y1146628D01*
X355501Y1273587D02*
X380893Y1298979D01*
X431677D01*
X457069Y1273587D01*
Y1248195D01*
X431677Y1222803D01*
X406285D01*
X431677D01*
X457069Y1197412D01*
Y1172020D01*
X431677Y1146628D01*
X380893D01*
X355501Y1172020D01*
X152367Y1534844D02*
X126975Y1560236D01*
X76192D01*
X50800Y1534844D01*
Y1433277D01*
X76192Y1407885D01*
X126975D01*
X152367Y1433277D01*
X203151Y1560236D02*
Y1407885D01*
Y1484061D01*
X304718D01*
Y1560236D01*
Y1407885D01*
X457069D02*
X355501D01*
X457069Y1509452D01*
Y1534844D01*
X431677Y1560236D01*
X380893D01*
X355501Y1534844D01*
X203151Y1796101D02*
X177759Y1821493D01*
X126976D01*
X101584Y1796101D01*
Y1694534D01*
X126976Y1669142D01*
X177759D01*
X203151Y1694534D01*
X253934Y1821493D02*
Y1669142D01*
Y1745318D01*
X355502D01*
Y1821493D01*
Y1669142D01*
X406285D02*
X457069D01*
X431677D01*
Y1821493D01*
X406285Y1796101D01*
X152367Y2057358D02*
X126975Y2082750D01*
X76192D01*
X50800Y2057358D01*
Y1955791D01*
X76192Y1930399D01*
X126975D01*
X152367Y1955791D01*
X203151Y2082750D02*
Y1930399D01*
Y2006575D01*
X304718D01*
Y2082750D01*
Y1930399D01*
X355501Y2057358D02*
X380893Y2082750D01*
X431677D01*
X457069Y2057358D01*
Y1955791D01*
X431677Y1930399D01*
X380893D01*
X355501Y1955791D01*
Y2057358D01*
X1326347Y1585760D02*
Y1458801D01*
X1351739Y1433409D01*
X1402522D01*
X1427914Y1458801D01*
Y1585760D01*
X1478698Y1433409D02*
X1529481D01*
X1504089D01*
Y1585760D01*
X1478698Y1560368D01*
X3020027Y2443431D02*
X2969243D01*
X2994635D01*
Y2316472D01*
X2969243Y2291080D01*
X2943852D01*
X2918460Y2316472D01*
X3172378Y2291080D02*
X3070811D01*
X3172378Y2392647D01*
Y2418039D01*
X3146986Y2443431D01*
X3096203D01*
X3070811Y2418039D01*
X645127Y2438351D02*
X594343D01*
X619735D01*
Y2311392D01*
X594343Y2286000D01*
X568952D01*
X543560Y2311392D01*
X695911Y2286000D02*
X746694D01*
X721303D01*
Y2438351D01*
X695911Y2412959D01*
X2609022Y595168D02*
X2583630Y620560D01*
X2532847D01*
X2507455Y595168D01*
Y493601D01*
X2532847Y468209D01*
X2583630D01*
X2609022Y493601D01*
X2761373Y620560D02*
X2659806D01*
Y544385D01*
X2710589Y569777D01*
X2735981D01*
X2761373Y544385D01*
Y493601D01*
X2735981Y468209D01*
X2685198D01*
X2659806Y493601D01*
X1847259Y1903386D02*
X1821985Y1928896D01*
X1771202Y1929132D01*
X1745693Y1903859D01*
X1745220Y1802293D01*
X1770494Y1776783D01*
X1821277Y1776546D01*
X1846786Y1801820D01*
X1973625Y1775837D02*
X1974334Y1928187D01*
X1897805Y1852367D01*
X1999372Y1851894D01*
X2215322Y2030268D02*
X2189930Y2055660D01*
X2139147D01*
X2113755Y2030268D01*
Y1928701D01*
X2139147Y1903309D01*
X2189930D01*
X2215322Y1928701D01*
X2266106Y2030268D02*
X2291498Y2055660D01*
X2342281D01*
X2367673Y2030268D01*
Y2004877D01*
X2342281Y1979485D01*
X2316889D01*
X2342281D01*
X2367673Y1954093D01*
Y1928701D01*
X2342281Y1903309D01*
X2291498D01*
X2266106Y1928701D01*
X2202622Y569768D02*
X2177230Y595160D01*
X2126447D01*
X2101055Y569768D01*
Y468201D01*
X2126447Y442809D01*
X2177230D01*
X2202622Y468201D01*
X2354973Y442809D02*
X2253406D01*
X2354973Y544377D01*
Y569768D01*
X2329581Y595160D01*
X2278798D01*
X2253406Y569768D01*
X1563610Y514333D02*
X1538218Y539725D01*
X1487435D01*
X1462043Y514333D01*
Y412767D01*
X1487435Y387375D01*
X1538218D01*
X1563610Y412767D01*
X1614394Y387375D02*
X1665177D01*
X1639786D01*
Y539725D01*
X1614394Y514333D01*
%TF.MD5,c1e4a56f17df9ac9965c8f2809c8966d*%
M02*
