%TF.GenerationSoftware,Altium Limited,Altium Designer,22.10.1 (41)*%
G04 Layer_Color=128*
%FSLAX45Y45*%
%MOMM*%
%TF.SameCoordinates,19E9B31E-7746-43A9-897C-89C24B045B63*%
%TF.FilePolarity,Positive*%
%TF.FileFunction,Drillmap*%
%TF.Part,Single*%
G01*
G75*
%TA.AperFunction,NonConductor*%
%ADD31C,0.12700*%
D31*
X2988207Y2025650D02*
X3090207D01*
X3039207Y1974650D02*
Y2076650D01*
X2988207Y1771650D02*
X3090207D01*
X3039207Y1720650D02*
Y1822650D01*
X2988207Y1517650D02*
X3090207D01*
X3039207Y1466650D02*
Y1568650D01*
X2988207Y1263650D02*
X3090207D01*
X3039207Y1212650D02*
Y1314650D01*
X2988207Y1009650D02*
X3090207D01*
X3039207Y958650D02*
Y1060650D01*
X2988207Y755650D02*
X3090207D01*
X3039207Y704650D02*
Y806650D01*
X2988207Y501650D02*
X3090207D01*
X3039207Y450650D02*
Y552650D01*
X2988207Y247650D02*
X3090207D01*
X3039207Y196650D02*
Y298650D01*
X613307Y2019275D02*
X715307D01*
X664307Y1968275D02*
Y2070274D01*
X613307Y1765275D02*
X715307D01*
X664307Y1714275D02*
Y1816274D01*
X613307Y1511275D02*
X715307D01*
X664307Y1460275D02*
Y1562274D01*
X613307Y1257275D02*
X715307D01*
X664307Y1206275D02*
Y1308274D01*
X613307Y1003275D02*
X715307D01*
X664307Y952275D02*
Y1054274D01*
X613307Y749275D02*
X715307D01*
X664307Y698275D02*
Y800274D01*
X613307Y495275D02*
X715307D01*
X664307Y444275D02*
Y546274D01*
X613307Y241275D02*
X715307D01*
X664307Y190275D02*
Y292274D01*
X1659054Y1725485D02*
X1730174D01*
X1694614Y1689925D02*
Y1761045D01*
X2292447Y1682750D02*
X2363567D01*
X2328007Y1647190D02*
Y1718310D01*
%TF.MD5,e475805d1c4da7c4d49a9fc86be6f2e8*%
M02*
