%TF.GenerationSoftware,Altium Limited,Altium Designer,22.10.1 (41)*%
G04 Layer_Color=16711935*
%FSLAX45Y45*%
%MOMM*%
%TF.SameCoordinates,19E9B31E-7746-43A9-897C-89C24B045B63*%
%TF.FilePolarity,Positive*%
%TF.FileFunction,Other,Top_Assembly*%
%TF.Part,Single*%
G01*
G75*
%TA.AperFunction,NonConductor*%
%ADD23C,0.20000*%
G36*
X2664518Y834455D02*
X2665350Y834362D01*
X2666367Y834270D01*
X2667384Y834177D01*
X2668586Y833900D01*
X2671082Y833345D01*
X2673856Y832513D01*
X2675243Y831958D01*
X2676537Y831311D01*
X2677832Y830479D01*
X2679126Y829647D01*
X2679218Y829555D01*
X2679403Y829462D01*
X2679773Y829185D01*
X2680235Y828722D01*
X2680698Y828260D01*
X2681345Y827613D01*
X2681992Y826873D01*
X2682732Y826134D01*
X2683471Y825209D01*
X2684211Y824100D01*
X2685043Y822990D01*
X2685783Y821788D01*
X2686430Y820401D01*
X2687170Y819015D01*
X2687724Y817535D01*
X2688279Y815871D01*
X2679958Y813930D01*
Y814022D01*
X2679866Y814207D01*
X2679681Y814577D01*
X2679496Y815039D01*
X2679311Y815594D01*
X2679034Y816333D01*
X2678294Y817813D01*
X2677369Y819477D01*
X2676260Y821141D01*
X2674873Y822713D01*
X2673394Y824100D01*
X2673209Y824285D01*
X2672654Y824654D01*
X2671729Y825117D01*
X2670528Y825764D01*
X2668956Y826319D01*
X2667199Y826873D01*
X2665073Y827243D01*
X2662761Y827336D01*
X2662022D01*
X2661559Y827243D01*
X2660912D01*
X2660172Y827151D01*
X2658416Y826873D01*
X2656474Y826504D01*
X2654440Y825856D01*
X2652314Y824932D01*
X2650372Y823730D01*
X2650280D01*
X2650187Y823545D01*
X2649540Y823083D01*
X2648708Y822343D01*
X2647691Y821234D01*
X2646489Y819847D01*
X2645380Y818275D01*
X2644363Y816333D01*
X2643438Y814207D01*
Y814114D01*
X2643345Y813930D01*
X2643253Y813652D01*
X2643161Y813190D01*
X2642976Y812635D01*
X2642791Y811988D01*
X2642513Y810416D01*
X2642144Y808567D01*
X2641774Y806533D01*
X2641589Y804314D01*
X2641496Y801910D01*
Y801818D01*
Y801540D01*
Y801078D01*
Y800523D01*
X2641589Y799876D01*
Y799044D01*
X2641681Y798120D01*
X2641774Y797103D01*
X2642051Y794884D01*
X2642513Y792480D01*
X2643068Y790076D01*
X2643808Y787672D01*
Y787580D01*
X2643900Y787395D01*
X2644085Y787117D01*
X2644270Y786655D01*
X2644825Y785546D01*
X2645657Y784251D01*
X2646674Y782772D01*
X2647968Y781200D01*
X2649448Y779813D01*
X2651204Y778519D01*
X2651297D01*
X2651482Y778426D01*
X2651759Y778242D01*
X2652129Y778057D01*
X2652591Y777872D01*
X2653146Y777594D01*
X2654440Y777040D01*
X2656104Y776485D01*
X2657954Y776023D01*
X2659988Y775653D01*
X2662114Y775560D01*
X2662761D01*
X2663316Y775653D01*
X2663963D01*
X2664610Y775745D01*
X2666275Y776115D01*
X2668216Y776577D01*
X2670158Y777317D01*
X2672192Y778334D01*
X2673209Y778889D01*
X2674133Y779628D01*
X2674226Y779721D01*
X2674318Y779813D01*
X2674596Y780091D01*
X2674965Y780368D01*
X2675335Y780830D01*
X2675798Y781385D01*
X2676352Y781940D01*
X2676815Y782679D01*
X2677369Y783512D01*
X2678016Y784436D01*
X2678571Y785361D01*
X2679126Y786470D01*
X2679588Y787672D01*
X2680051Y788966D01*
X2680513Y790353D01*
X2680883Y791833D01*
X2689389Y789706D01*
Y789614D01*
X2689296Y789244D01*
X2689111Y788689D01*
X2688834Y787949D01*
X2688556Y787117D01*
X2688187Y786100D01*
X2687724Y784991D01*
X2687170Y783789D01*
X2685875Y781200D01*
X2684211Y778611D01*
X2683194Y777317D01*
X2682177Y776023D01*
X2681068Y774913D01*
X2679773Y773804D01*
X2679681Y773711D01*
X2679496Y773526D01*
X2679034Y773341D01*
X2678571Y772972D01*
X2677832Y772509D01*
X2677092Y772047D01*
X2676075Y771585D01*
X2675058Y771122D01*
X2673856Y770568D01*
X2672562Y770105D01*
X2671175Y769643D01*
X2669695Y769181D01*
X2668124Y768811D01*
X2666459Y768626D01*
X2664703Y768441D01*
X2662854Y768349D01*
X2661837D01*
X2661097Y768441D01*
X2660265D01*
X2659248Y768534D01*
X2658138Y768719D01*
X2656844Y768903D01*
X2654163Y769366D01*
X2651389Y770105D01*
X2648615Y771122D01*
X2647321Y771770D01*
X2646027Y772509D01*
X2645934Y772602D01*
X2645749Y772694D01*
X2645380Y772972D01*
X2645010Y773341D01*
X2644455Y773711D01*
X2643808Y774266D01*
X2643068Y774913D01*
X2642328Y775653D01*
X2641589Y776485D01*
X2640757Y777317D01*
X2639093Y779443D01*
X2637521Y781940D01*
X2636134Y784713D01*
Y784806D01*
X2635949Y785083D01*
X2635857Y785546D01*
X2635579Y786100D01*
X2635394Y786840D01*
X2635117Y787764D01*
X2634747Y788782D01*
X2634470Y789891D01*
X2634192Y791093D01*
X2633823Y792480D01*
X2633360Y795346D01*
X2632990Y798582D01*
X2632806Y801910D01*
Y802003D01*
Y802373D01*
Y802927D01*
X2632898Y803574D01*
Y804499D01*
X2632990Y805424D01*
X2633083Y806626D01*
X2633268Y807827D01*
X2633730Y810509D01*
X2634377Y813467D01*
X2635302Y816426D01*
X2636596Y819292D01*
X2636689Y819384D01*
X2636781Y819662D01*
X2636966Y820032D01*
X2637336Y820494D01*
X2637706Y821141D01*
X2638168Y821881D01*
X2639370Y823545D01*
X2640942Y825394D01*
X2642791Y827243D01*
X2644917Y829092D01*
X2647414Y830664D01*
X2647506Y830757D01*
X2647783Y830849D01*
X2648153Y831034D01*
X2648615Y831311D01*
X2649355Y831589D01*
X2650095Y831866D01*
X2651019Y832236D01*
X2652036Y832606D01*
X2653146Y832975D01*
X2654348Y833345D01*
X2656937Y833900D01*
X2659895Y834362D01*
X2662946Y834547D01*
X2663871D01*
X2664518Y834455D01*
D02*
G37*
G36*
X2735986Y825117D02*
X2710376D01*
X2706955Y807827D01*
X2707048Y807920D01*
X2707233Y808012D01*
X2707510Y808197D01*
X2707972Y808475D01*
X2708527Y808752D01*
X2709174Y809122D01*
X2710653Y809861D01*
X2712503Y810601D01*
X2714537Y811248D01*
X2716756Y811711D01*
X2717865Y811896D01*
X2719899D01*
X2720454Y811803D01*
X2721193Y811711D01*
X2722026Y811618D01*
X2722950Y811433D01*
X2723967Y811156D01*
X2726186Y810509D01*
X2727388Y810046D01*
X2728590Y809399D01*
X2729792Y808752D01*
X2730994Y808012D01*
X2732103Y807088D01*
X2733213Y806071D01*
X2733305Y805978D01*
X2733490Y805793D01*
X2733767Y805516D01*
X2734137Y805054D01*
X2734600Y804407D01*
X2735062Y803759D01*
X2735617Y802927D01*
X2736171Y802003D01*
X2736634Y800986D01*
X2737188Y799876D01*
X2737651Y798582D01*
X2738113Y797287D01*
X2738483Y795901D01*
X2738760Y794329D01*
X2738945Y792757D01*
X2739037Y791093D01*
Y791000D01*
Y790723D01*
Y790261D01*
X2738945Y789614D01*
X2738853Y788874D01*
X2738760Y788042D01*
X2738575Y787025D01*
X2738390Y786008D01*
X2737836Y783604D01*
X2736911Y781108D01*
X2736356Y779813D01*
X2735617Y778611D01*
X2734877Y777317D01*
X2733952Y776115D01*
X2733860Y776023D01*
X2733675Y775745D01*
X2733305Y775375D01*
X2732843Y774913D01*
X2732196Y774358D01*
X2731456Y773619D01*
X2730531Y772972D01*
X2729514Y772232D01*
X2728405Y771492D01*
X2727111Y770845D01*
X2725724Y770198D01*
X2724244Y769551D01*
X2722673Y769088D01*
X2720916Y768719D01*
X2719067Y768441D01*
X2717125Y768349D01*
X2716293D01*
X2715646Y768441D01*
X2714906Y768534D01*
X2714074Y768626D01*
X2713057Y768719D01*
X2712040Y768996D01*
X2709729Y769551D01*
X2707417Y770383D01*
X2706216Y770937D01*
X2705014Y771585D01*
X2703904Y772324D01*
X2702795Y773156D01*
X2702702Y773249D01*
X2702517Y773341D01*
X2702332Y773711D01*
X2701963Y774081D01*
X2701500Y774543D01*
X2701038Y775098D01*
X2700483Y775838D01*
X2700021Y776670D01*
X2699466Y777502D01*
X2698912Y778519D01*
X2697895Y780738D01*
X2697062Y783327D01*
X2696785Y784713D01*
X2696600Y786193D01*
X2704829Y786840D01*
Y786747D01*
Y786563D01*
X2704921Y786285D01*
X2705014Y785823D01*
X2705291Y784806D01*
X2705661Y783419D01*
X2706216Y782032D01*
X2706955Y780460D01*
X2707880Y779074D01*
X2708989Y777779D01*
X2709174Y777687D01*
X2709544Y777317D01*
X2710284Y776855D01*
X2711301Y776300D01*
X2712410Y775745D01*
X2713797Y775283D01*
X2715369Y774913D01*
X2717125Y774821D01*
X2717680D01*
X2718050Y774913D01*
X2719159Y775006D01*
X2720454Y775375D01*
X2722026Y775838D01*
X2723597Y776577D01*
X2725262Y777687D01*
X2726001Y778334D01*
X2726741Y779074D01*
X2726833Y779166D01*
X2726926Y779259D01*
X2727111Y779536D01*
X2727388Y779813D01*
X2728035Y780830D01*
X2728775Y782125D01*
X2729422Y783696D01*
X2730069Y785638D01*
X2730531Y787949D01*
X2730716Y789151D01*
Y790446D01*
Y790538D01*
Y790723D01*
Y791093D01*
X2730624Y791555D01*
Y792110D01*
X2730531Y792757D01*
X2730254Y794236D01*
X2729792Y795993D01*
X2729145Y797750D01*
X2728220Y799414D01*
X2726926Y800986D01*
Y801078D01*
X2726741Y801171D01*
X2726279Y801633D01*
X2725446Y802280D01*
X2724337Y803020D01*
X2722858Y803667D01*
X2721193Y804314D01*
X2719252Y804776D01*
X2718142Y804961D01*
X2716386D01*
X2715646Y804869D01*
X2714722Y804776D01*
X2713612Y804499D01*
X2712503Y804222D01*
X2711301Y803759D01*
X2710099Y803205D01*
X2710006Y803112D01*
X2709636Y802927D01*
X2709082Y802465D01*
X2708342Y802003D01*
X2707602Y801356D01*
X2706863Y800523D01*
X2706031Y799691D01*
X2705383Y798674D01*
X2697987Y799691D01*
X2704182Y832606D01*
X2735986D01*
Y825117D01*
D02*
G37*
G36*
X1958439Y1623793D02*
X1959363D01*
X1960288Y1623701D01*
X1961490Y1623608D01*
X1962692Y1623423D01*
X1965373Y1622961D01*
X1968331Y1622314D01*
X1971290Y1621389D01*
X1974156Y1620095D01*
X1974249Y1620003D01*
X1974526Y1619910D01*
X1974896Y1619725D01*
X1975358Y1619355D01*
X1976005Y1618986D01*
X1976745Y1618523D01*
X1978409Y1617321D01*
X1980258Y1615750D01*
X1982107Y1613901D01*
X1983956Y1611774D01*
X1985528Y1609278D01*
X1985621Y1609185D01*
X1985713Y1608908D01*
X1985898Y1608538D01*
X1986175Y1608076D01*
X1986453Y1607336D01*
X1986730Y1606596D01*
X1987100Y1605672D01*
X1987470Y1604655D01*
X1987840Y1603545D01*
X1988209Y1602344D01*
X1988764Y1599755D01*
X1989226Y1596796D01*
X1989411Y1593745D01*
Y1592821D01*
X1989319Y1592173D01*
X1989226Y1591341D01*
X1989134Y1590324D01*
X1989041Y1589307D01*
X1988764Y1588105D01*
X1988209Y1585609D01*
X1987377Y1582835D01*
X1986823Y1581448D01*
X1986175Y1580154D01*
X1985343Y1578860D01*
X1984511Y1577565D01*
X1984419Y1577473D01*
X1984326Y1577288D01*
X1984049Y1576918D01*
X1983587Y1576456D01*
X1983124Y1575994D01*
X1982477Y1575346D01*
X1981737Y1574699D01*
X1980998Y1573960D01*
X1980073Y1573220D01*
X1978964Y1572480D01*
X1977854Y1571648D01*
X1976652Y1570908D01*
X1975266Y1570261D01*
X1973879Y1569522D01*
X1972399Y1568967D01*
X1970735Y1568412D01*
X1968794Y1576733D01*
X1968886D01*
X1969071Y1576826D01*
X1969441Y1577011D01*
X1969903Y1577195D01*
X1970458Y1577380D01*
X1971197Y1577658D01*
X1972677Y1578397D01*
X1974341Y1579322D01*
X1976005Y1580431D01*
X1977577Y1581818D01*
X1978964Y1583298D01*
X1979149Y1583482D01*
X1979519Y1584037D01*
X1979981Y1584962D01*
X1980628Y1586164D01*
X1981183Y1587735D01*
X1981737Y1589492D01*
X1982107Y1591619D01*
X1982200Y1593930D01*
Y1594670D01*
X1982107Y1595132D01*
Y1595779D01*
X1982015Y1596519D01*
X1981737Y1598275D01*
X1981368Y1600217D01*
X1980720Y1602251D01*
X1979796Y1604378D01*
X1978594Y1606319D01*
Y1606412D01*
X1978409Y1606504D01*
X1977947Y1607151D01*
X1977207Y1607983D01*
X1976098Y1609000D01*
X1974711Y1610202D01*
X1973139Y1611312D01*
X1971197Y1612329D01*
X1969071Y1613253D01*
X1968979D01*
X1968794Y1613346D01*
X1968516Y1613438D01*
X1968054Y1613531D01*
X1967499Y1613716D01*
X1966852Y1613901D01*
X1965280Y1614178D01*
X1963431Y1614548D01*
X1961397Y1614918D01*
X1959178Y1615102D01*
X1956774Y1615195D01*
X1956682D01*
X1956405D01*
X1955942D01*
X1955388D01*
X1954740Y1615102D01*
X1953908D01*
X1952984Y1615010D01*
X1951967Y1614918D01*
X1949748Y1614640D01*
X1947344Y1614178D01*
X1944940Y1613623D01*
X1942536Y1612883D01*
X1942444D01*
X1942259Y1612791D01*
X1941981Y1612606D01*
X1941519Y1612421D01*
X1940410Y1611866D01*
X1939115Y1611034D01*
X1937636Y1610017D01*
X1936064Y1608723D01*
X1934677Y1607244D01*
X1933383Y1605487D01*
Y1605395D01*
X1933291Y1605210D01*
X1933106Y1604932D01*
X1932921Y1604562D01*
X1932736Y1604100D01*
X1932458Y1603545D01*
X1931904Y1602251D01*
X1931349Y1600587D01*
X1930887Y1598738D01*
X1930517Y1596704D01*
X1930424Y1594577D01*
Y1593930D01*
X1930517Y1593375D01*
Y1592728D01*
X1930609Y1592081D01*
X1930979Y1590417D01*
X1931441Y1588475D01*
X1932181Y1586534D01*
X1933198Y1584499D01*
X1933753Y1583482D01*
X1934492Y1582558D01*
X1934585Y1582465D01*
X1934677Y1582373D01*
X1934955Y1582096D01*
X1935232Y1581726D01*
X1935694Y1581356D01*
X1936249Y1580894D01*
X1936804Y1580339D01*
X1937543Y1579877D01*
X1938376Y1579322D01*
X1939300Y1578675D01*
X1940225Y1578120D01*
X1941334Y1577565D01*
X1942536Y1577103D01*
X1943831Y1576641D01*
X1945217Y1576178D01*
X1946697Y1575809D01*
X1944570Y1567303D01*
X1944478D01*
X1944108Y1567395D01*
X1943553Y1567580D01*
X1942813Y1567857D01*
X1941981Y1568135D01*
X1940964Y1568505D01*
X1939855Y1568967D01*
X1938653Y1569522D01*
X1936064Y1570816D01*
X1933475Y1572480D01*
X1932181Y1573497D01*
X1930887Y1574514D01*
X1929777Y1575624D01*
X1928668Y1576918D01*
X1928575Y1577011D01*
X1928390Y1577195D01*
X1928205Y1577658D01*
X1927836Y1578120D01*
X1927373Y1578860D01*
X1926911Y1579599D01*
X1926449Y1580616D01*
X1925986Y1581633D01*
X1925432Y1582835D01*
X1924969Y1584130D01*
X1924507Y1585517D01*
X1924045Y1586996D01*
X1923675Y1588568D01*
X1923490Y1590232D01*
X1923305Y1591988D01*
X1923213Y1593838D01*
Y1594855D01*
X1923305Y1595594D01*
Y1596426D01*
X1923398Y1597443D01*
X1923583Y1598553D01*
X1923768Y1599847D01*
X1924230Y1602528D01*
X1924969Y1605302D01*
X1925986Y1608076D01*
X1926634Y1609370D01*
X1927373Y1610665D01*
X1927466Y1610757D01*
X1927558Y1610942D01*
X1927836Y1611312D01*
X1928205Y1611682D01*
X1928575Y1612236D01*
X1929130Y1612883D01*
X1929777Y1613623D01*
X1930517Y1614363D01*
X1931349Y1615102D01*
X1932181Y1615935D01*
X1934308Y1617599D01*
X1936804Y1619170D01*
X1939578Y1620557D01*
X1939670D01*
X1939947Y1620742D01*
X1940410Y1620835D01*
X1940964Y1621112D01*
X1941704Y1621297D01*
X1942629Y1621574D01*
X1943646Y1621944D01*
X1944755Y1622222D01*
X1945957Y1622499D01*
X1947344Y1622869D01*
X1950210Y1623331D01*
X1953446Y1623701D01*
X1956774Y1623886D01*
X1956867D01*
X1957237D01*
X1957791D01*
X1958439Y1623793D01*
D02*
G37*
G36*
X1988302Y1533464D02*
Y1527084D01*
X1946882D01*
Y1518393D01*
X1939670D01*
Y1527084D01*
X1924322D01*
Y1534943D01*
X1939670D01*
Y1562772D01*
X1946882D01*
X1988302Y1533464D01*
D02*
G37*
G36*
X2141136Y1842835D02*
X2141968Y1842742D01*
X2142985Y1842650D01*
X2144002Y1842557D01*
X2145204Y1842280D01*
X2147700Y1841725D01*
X2150474Y1840893D01*
X2151861Y1840338D01*
X2153155Y1839691D01*
X2154449Y1838859D01*
X2155744Y1838027D01*
X2155836Y1837935D01*
X2156021Y1837842D01*
X2156391Y1837565D01*
X2156853Y1837102D01*
X2157315Y1836640D01*
X2157963Y1835993D01*
X2158610Y1835253D01*
X2159350Y1834514D01*
X2160089Y1833589D01*
X2160829Y1832480D01*
X2161661Y1831370D01*
X2162401Y1830168D01*
X2163048Y1828781D01*
X2163787Y1827395D01*
X2164342Y1825915D01*
X2164897Y1824251D01*
X2156576Y1822310D01*
Y1822402D01*
X2156483Y1822587D01*
X2156298Y1822957D01*
X2156114Y1823419D01*
X2155929Y1823974D01*
X2155651Y1824713D01*
X2154912Y1826193D01*
X2153987Y1827857D01*
X2152878Y1829521D01*
X2151491Y1831093D01*
X2150011Y1832480D01*
X2149827Y1832665D01*
X2149272Y1833034D01*
X2148347Y1833497D01*
X2147145Y1834144D01*
X2145574Y1834699D01*
X2143817Y1835253D01*
X2141690Y1835623D01*
X2139379Y1835716D01*
X2138639D01*
X2138177Y1835623D01*
X2137530D01*
X2136790Y1835531D01*
X2135034Y1835253D01*
X2133092Y1834884D01*
X2131058Y1834236D01*
X2128931Y1833312D01*
X2126990Y1832110D01*
X2126897D01*
X2126805Y1831925D01*
X2126158Y1831463D01*
X2125326Y1830723D01*
X2124309Y1829614D01*
X2123107Y1828227D01*
X2121997Y1826655D01*
X2120980Y1824713D01*
X2120056Y1822587D01*
Y1822494D01*
X2119963Y1822310D01*
X2119871Y1822032D01*
X2119778Y1821570D01*
X2119593Y1821015D01*
X2119409Y1820368D01*
X2119131Y1818796D01*
X2118761Y1816947D01*
X2118391Y1814913D01*
X2118207Y1812694D01*
X2118114Y1810290D01*
Y1810198D01*
Y1809920D01*
Y1809458D01*
Y1808903D01*
X2118207Y1808256D01*
Y1807424D01*
X2118299Y1806500D01*
X2118391Y1805483D01*
X2118669Y1803264D01*
X2119131Y1800860D01*
X2119686Y1798456D01*
X2120426Y1796052D01*
Y1795960D01*
X2120518Y1795775D01*
X2120703Y1795497D01*
X2120888Y1795035D01*
X2121443Y1793926D01*
X2122275Y1792631D01*
X2123292Y1791152D01*
X2124586Y1789580D01*
X2126065Y1788193D01*
X2127822Y1786899D01*
X2127914D01*
X2128099Y1786806D01*
X2128377Y1786622D01*
X2128747Y1786437D01*
X2129209Y1786252D01*
X2129764Y1785974D01*
X2131058Y1785420D01*
X2132722Y1784865D01*
X2134571Y1784403D01*
X2136605Y1784033D01*
X2138732Y1783940D01*
X2139379D01*
X2139934Y1784033D01*
X2140581D01*
X2141228Y1784125D01*
X2142892Y1784495D01*
X2144834Y1784957D01*
X2146775Y1785697D01*
X2148810Y1786714D01*
X2149827Y1787269D01*
X2150751Y1788008D01*
X2150844Y1788101D01*
X2150936Y1788193D01*
X2151213Y1788471D01*
X2151583Y1788748D01*
X2151953Y1789210D01*
X2152415Y1789765D01*
X2152970Y1790320D01*
X2153432Y1791059D01*
X2153987Y1791892D01*
X2154634Y1792816D01*
X2155189Y1793741D01*
X2155744Y1794850D01*
X2156206Y1796052D01*
X2156668Y1797346D01*
X2157131Y1798733D01*
X2157500Y1800213D01*
X2166006Y1798086D01*
Y1797994D01*
X2165914Y1797624D01*
X2165729Y1797069D01*
X2165452Y1796329D01*
X2165174Y1795497D01*
X2164804Y1794480D01*
X2164342Y1793371D01*
X2163787Y1792169D01*
X2162493Y1789580D01*
X2160829Y1786991D01*
X2159812Y1785697D01*
X2158795Y1784403D01*
X2157685Y1783293D01*
X2156391Y1782184D01*
X2156298Y1782091D01*
X2156114Y1781906D01*
X2155651Y1781721D01*
X2155189Y1781352D01*
X2154449Y1780889D01*
X2153710Y1780427D01*
X2152693Y1779965D01*
X2151676Y1779502D01*
X2150474Y1778948D01*
X2149179Y1778485D01*
X2147793Y1778023D01*
X2146313Y1777561D01*
X2144741Y1777191D01*
X2143077Y1777006D01*
X2141321Y1776821D01*
X2139471Y1776729D01*
X2138454D01*
X2137715Y1776821D01*
X2136883D01*
X2135866Y1776914D01*
X2134756Y1777099D01*
X2133462Y1777283D01*
X2130781Y1777746D01*
X2128007Y1778485D01*
X2125233Y1779502D01*
X2123939Y1780150D01*
X2122644Y1780889D01*
X2122552Y1780982D01*
X2122367Y1781074D01*
X2121997Y1781352D01*
X2121627Y1781721D01*
X2121073Y1782091D01*
X2120426Y1782646D01*
X2119686Y1783293D01*
X2118946Y1784033D01*
X2118207Y1784865D01*
X2117374Y1785697D01*
X2115710Y1787823D01*
X2114139Y1790320D01*
X2112752Y1793093D01*
Y1793186D01*
X2112567Y1793463D01*
X2112474Y1793926D01*
X2112197Y1794480D01*
X2112012Y1795220D01*
X2111735Y1796144D01*
X2111365Y1797162D01*
X2111087Y1798271D01*
X2110810Y1799473D01*
X2110440Y1800860D01*
X2109978Y1803726D01*
X2109608Y1806962D01*
X2109423Y1810290D01*
Y1810383D01*
Y1810753D01*
Y1811307D01*
X2109516Y1811954D01*
Y1812879D01*
X2109608Y1813804D01*
X2109701Y1815006D01*
X2109886Y1816207D01*
X2110348Y1818889D01*
X2110995Y1821847D01*
X2111920Y1824806D01*
X2113214Y1827672D01*
X2113306Y1827764D01*
X2113399Y1828042D01*
X2113584Y1828412D01*
X2113954Y1828874D01*
X2114323Y1829521D01*
X2114786Y1830261D01*
X2115988Y1831925D01*
X2117559Y1833774D01*
X2119409Y1835623D01*
X2121535Y1837472D01*
X2124031Y1839044D01*
X2124124Y1839137D01*
X2124401Y1839229D01*
X2124771Y1839414D01*
X2125233Y1839691D01*
X2125973Y1839969D01*
X2126713Y1840246D01*
X2127637Y1840616D01*
X2128654Y1840986D01*
X2129764Y1841355D01*
X2130966Y1841725D01*
X2133554Y1842280D01*
X2136513Y1842742D01*
X2139564Y1842927D01*
X2140488D01*
X2141136Y1842835D01*
D02*
G37*
G36*
X2195222Y1842003D02*
X2196424Y1841818D01*
X2197904Y1841540D01*
X2199568Y1841078D01*
X2201232Y1840523D01*
X2202896Y1839784D01*
X2202989D01*
X2203081Y1839691D01*
X2203636Y1839414D01*
X2204468Y1838859D01*
X2205393Y1838212D01*
X2206502Y1837287D01*
X2207612Y1836270D01*
X2208721Y1835068D01*
X2209646Y1833682D01*
X2209738Y1833497D01*
X2210015Y1833034D01*
X2210385Y1832202D01*
X2210847Y1831185D01*
X2211310Y1829983D01*
X2211680Y1828597D01*
X2211957Y1827025D01*
X2212049Y1825453D01*
Y1825268D01*
Y1824713D01*
X2211957Y1823974D01*
X2211772Y1822957D01*
X2211495Y1821755D01*
X2211032Y1820460D01*
X2210478Y1819166D01*
X2209738Y1817872D01*
X2209646Y1817687D01*
X2209368Y1817317D01*
X2208813Y1816670D01*
X2208074Y1815930D01*
X2207149Y1815098D01*
X2206040Y1814173D01*
X2204745Y1813341D01*
X2203174Y1812509D01*
X2203266D01*
X2203451Y1812417D01*
X2203728Y1812324D01*
X2204098Y1812232D01*
X2205115Y1811862D01*
X2206410Y1811307D01*
X2207889Y1810568D01*
X2209368Y1809643D01*
X2210755Y1808441D01*
X2212049Y1807054D01*
X2212142Y1806869D01*
X2212512Y1806315D01*
X2213066Y1805390D01*
X2213621Y1804188D01*
X2214176Y1802709D01*
X2214731Y1800952D01*
X2215100Y1798918D01*
X2215193Y1796699D01*
Y1796607D01*
Y1796329D01*
Y1795867D01*
X2215100Y1795312D01*
X2215008Y1794573D01*
X2214823Y1793741D01*
X2214638Y1792816D01*
X2214453Y1791799D01*
X2213714Y1789580D01*
X2213159Y1788378D01*
X2212604Y1787269D01*
X2211865Y1786067D01*
X2211032Y1784865D01*
X2210108Y1783663D01*
X2208998Y1782553D01*
X2208906Y1782461D01*
X2208721Y1782276D01*
X2208351Y1781999D01*
X2207889Y1781629D01*
X2207334Y1781167D01*
X2206595Y1780704D01*
X2205762Y1780150D01*
X2204745Y1779687D01*
X2203728Y1779133D01*
X2202526Y1778578D01*
X2201325Y1778116D01*
X2199938Y1777653D01*
X2198458Y1777283D01*
X2196887Y1777006D01*
X2195315Y1776821D01*
X2193558Y1776729D01*
X2192726D01*
X2192171Y1776821D01*
X2191432Y1776914D01*
X2190600Y1777006D01*
X2189675Y1777191D01*
X2188658Y1777376D01*
X2186439Y1777931D01*
X2184128Y1778855D01*
X2182926Y1779410D01*
X2181816Y1780057D01*
X2180707Y1780889D01*
X2179597Y1781721D01*
X2179505Y1781814D01*
X2179320Y1781999D01*
X2179043Y1782276D01*
X2178765Y1782646D01*
X2178303Y1783108D01*
X2177841Y1783755D01*
X2177286Y1784403D01*
X2176731Y1785235D01*
X2176176Y1786159D01*
X2175622Y1787084D01*
X2174605Y1789303D01*
X2173773Y1791892D01*
X2173495Y1793278D01*
X2173310Y1794758D01*
X2181169Y1795775D01*
Y1795682D01*
X2181262Y1795497D01*
X2181354Y1795127D01*
X2181446Y1794665D01*
X2181539Y1794110D01*
X2181724Y1793463D01*
X2182186Y1792076D01*
X2182833Y1790412D01*
X2183665Y1788840D01*
X2184590Y1787361D01*
X2185699Y1786067D01*
X2185884Y1785974D01*
X2186254Y1785605D01*
X2186994Y1785142D01*
X2187918Y1784680D01*
X2189028Y1784125D01*
X2190415Y1783663D01*
X2191986Y1783293D01*
X2193651Y1783201D01*
X2194205D01*
X2194575Y1783293D01*
X2195592Y1783386D01*
X2196887Y1783663D01*
X2198366Y1784125D01*
X2199938Y1784772D01*
X2201509Y1785697D01*
X2202989Y1786991D01*
X2203174Y1787176D01*
X2203636Y1787731D01*
X2204191Y1788563D01*
X2204930Y1789673D01*
X2205670Y1791059D01*
X2206225Y1792631D01*
X2206687Y1794480D01*
X2206872Y1796514D01*
Y1796607D01*
Y1796792D01*
Y1797069D01*
X2206779Y1797439D01*
X2206687Y1798456D01*
X2206410Y1799658D01*
X2206040Y1801137D01*
X2205393Y1802616D01*
X2204468Y1804096D01*
X2203266Y1805483D01*
X2203081Y1805667D01*
X2202619Y1806037D01*
X2201879Y1806592D01*
X2200862Y1807239D01*
X2199568Y1807886D01*
X2197996Y1808441D01*
X2196239Y1808811D01*
X2194298Y1808996D01*
X2193466D01*
X2192819Y1808903D01*
X2191986Y1808811D01*
X2191062Y1808626D01*
X2189952Y1808441D01*
X2188751Y1808164D01*
X2189675Y1815098D01*
X2190137D01*
X2190507Y1815006D01*
X2191709D01*
X2192726Y1815190D01*
X2193928Y1815375D01*
X2195315Y1815653D01*
X2196887Y1816115D01*
X2198366Y1816762D01*
X2199938Y1817594D01*
X2200030D01*
X2200123Y1817687D01*
X2200585Y1818057D01*
X2201232Y1818704D01*
X2201972Y1819536D01*
X2202711Y1820738D01*
X2203359Y1822125D01*
X2203821Y1823696D01*
X2204006Y1824621D01*
Y1825638D01*
Y1825730D01*
Y1825823D01*
Y1826378D01*
X2203821Y1827117D01*
X2203636Y1828134D01*
X2203266Y1829244D01*
X2202804Y1830446D01*
X2202064Y1831648D01*
X2201047Y1832757D01*
X2200955Y1832850D01*
X2200492Y1833219D01*
X2199845Y1833682D01*
X2199013Y1834236D01*
X2197904Y1834699D01*
X2196609Y1835161D01*
X2195130Y1835531D01*
X2193466Y1835623D01*
X2192726D01*
X2191894Y1835438D01*
X2190785Y1835253D01*
X2189583Y1834884D01*
X2188381Y1834421D01*
X2187086Y1833682D01*
X2185884Y1832757D01*
X2185792Y1832665D01*
X2185422Y1832202D01*
X2184867Y1831555D01*
X2184220Y1830631D01*
X2183573Y1829429D01*
X2182926Y1827949D01*
X2182371Y1826193D01*
X2182001Y1824159D01*
X2174142Y1825545D01*
Y1825638D01*
X2174235Y1825915D01*
X2174327Y1826285D01*
X2174420Y1826840D01*
X2174605Y1827487D01*
X2174882Y1828227D01*
X2175437Y1829983D01*
X2176361Y1832017D01*
X2177471Y1834051D01*
X2178858Y1835993D01*
X2180614Y1837750D01*
X2180707Y1837842D01*
X2180892Y1837935D01*
X2181169Y1838120D01*
X2181539Y1838397D01*
X2182001Y1838767D01*
X2182648Y1839137D01*
X2183296Y1839506D01*
X2184128Y1839969D01*
X2185977Y1840708D01*
X2188103Y1841448D01*
X2190600Y1841910D01*
X2191894Y1842095D01*
X2194205D01*
X2195222Y1842003D01*
D02*
G37*
G36*
X2093019Y758256D02*
X2093851Y758164D01*
X2094868Y758071D01*
X2095885Y757979D01*
X2097087Y757701D01*
X2099584Y757147D01*
X2102357Y756314D01*
X2103744Y755760D01*
X2105038Y755113D01*
X2106333Y754280D01*
X2107627Y753448D01*
X2107720Y753356D01*
X2107905Y753263D01*
X2108274Y752986D01*
X2108737Y752524D01*
X2109199Y752061D01*
X2109846Y751414D01*
X2110493Y750675D01*
X2111233Y749935D01*
X2111973Y749010D01*
X2112712Y747901D01*
X2113544Y746791D01*
X2114284Y745590D01*
X2114931Y744203D01*
X2115671Y742816D01*
X2116226Y741337D01*
X2116780Y739672D01*
X2108459Y737731D01*
Y737823D01*
X2108367Y738008D01*
X2108182Y738378D01*
X2107997Y738840D01*
X2107812Y739395D01*
X2107535Y740135D01*
X2106795Y741614D01*
X2105871Y743278D01*
X2104761Y744942D01*
X2103374Y746514D01*
X2101895Y747901D01*
X2101710Y748086D01*
X2101155Y748456D01*
X2100231Y748918D01*
X2099029Y749565D01*
X2097457Y750120D01*
X2095700Y750675D01*
X2093574Y751044D01*
X2091263Y751137D01*
X2090523D01*
X2090061Y751044D01*
X2089413D01*
X2088674Y750952D01*
X2086917Y750675D01*
X2084976Y750305D01*
X2082941Y749658D01*
X2080815Y748733D01*
X2078873Y747531D01*
X2078781D01*
X2078689Y747346D01*
X2078041Y746884D01*
X2077209Y746144D01*
X2076192Y745035D01*
X2074990Y743648D01*
X2073881Y742076D01*
X2072864Y740135D01*
X2071939Y738008D01*
Y737916D01*
X2071847Y737731D01*
X2071754Y737453D01*
X2071662Y736991D01*
X2071477Y736436D01*
X2071292Y735789D01*
X2071015Y734217D01*
X2070645Y732368D01*
X2070275Y730334D01*
X2070090Y728115D01*
X2069998Y725712D01*
Y725619D01*
Y725342D01*
Y724879D01*
Y724325D01*
X2070090Y723677D01*
Y722845D01*
X2070183Y721921D01*
X2070275Y720904D01*
X2070552Y718685D01*
X2071015Y716281D01*
X2071569Y713877D01*
X2072309Y711473D01*
Y711381D01*
X2072401Y711196D01*
X2072586Y710919D01*
X2072771Y710456D01*
X2073326Y709347D01*
X2074158Y708052D01*
X2075175Y706573D01*
X2076470Y705001D01*
X2077949Y703615D01*
X2079706Y702320D01*
X2079798D01*
X2079983Y702228D01*
X2080260Y702043D01*
X2080630Y701858D01*
X2081092Y701673D01*
X2081647Y701396D01*
X2082941Y700841D01*
X2084606Y700286D01*
X2086455Y699824D01*
X2088489Y699454D01*
X2090615Y699362D01*
X2091263D01*
X2091817Y699454D01*
X2092464D01*
X2093112Y699546D01*
X2094776Y699916D01*
X2096717Y700379D01*
X2098659Y701118D01*
X2100693Y702135D01*
X2101710Y702690D01*
X2102635Y703430D01*
X2102727Y703522D01*
X2102820Y703615D01*
X2103097Y703892D01*
X2103467Y704169D01*
X2103837Y704632D01*
X2104299Y705186D01*
X2104854Y705741D01*
X2105316Y706481D01*
X2105871Y707313D01*
X2106518Y708237D01*
X2107072Y709162D01*
X2107627Y710271D01*
X2108090Y711473D01*
X2108552Y712768D01*
X2109014Y714155D01*
X2109384Y715634D01*
X2117890Y713507D01*
Y713415D01*
X2117797Y713045D01*
X2117612Y712490D01*
X2117335Y711751D01*
X2117058Y710919D01*
X2116688Y709902D01*
X2116226Y708792D01*
X2115671Y707590D01*
X2114377Y705001D01*
X2112712Y702413D01*
X2111695Y701118D01*
X2110678Y699824D01*
X2109569Y698714D01*
X2108274Y697605D01*
X2108182Y697512D01*
X2107997Y697328D01*
X2107535Y697143D01*
X2107072Y696773D01*
X2106333Y696311D01*
X2105593Y695848D01*
X2104576Y695386D01*
X2103559Y694924D01*
X2102357Y694369D01*
X2101063Y693907D01*
X2099676Y693444D01*
X2098197Y692982D01*
X2096625Y692612D01*
X2094961Y692427D01*
X2093204Y692242D01*
X2091355Y692150D01*
X2090338D01*
X2089598Y692242D01*
X2088766D01*
X2087749Y692335D01*
X2086640Y692520D01*
X2085345Y692705D01*
X2082664Y693167D01*
X2079890Y693907D01*
X2077117Y694924D01*
X2075822Y695571D01*
X2074528Y696311D01*
X2074436Y696403D01*
X2074251Y696495D01*
X2073881Y696773D01*
X2073511Y697143D01*
X2072956Y697512D01*
X2072309Y698067D01*
X2071569Y698714D01*
X2070830Y699454D01*
X2070090Y700286D01*
X2069258Y701118D01*
X2067594Y703245D01*
X2066022Y705741D01*
X2064635Y708515D01*
Y708607D01*
X2064450Y708885D01*
X2064358Y709347D01*
X2064080Y709902D01*
X2063896Y710641D01*
X2063618Y711566D01*
X2063248Y712583D01*
X2062971Y713692D01*
X2062694Y714894D01*
X2062324Y716281D01*
X2061862Y719147D01*
X2061492Y722383D01*
X2061307Y725712D01*
Y725804D01*
Y726174D01*
Y726729D01*
X2061399Y727376D01*
Y728300D01*
X2061492Y729225D01*
X2061584Y730427D01*
X2061769Y731629D01*
X2062231Y734310D01*
X2062879Y737269D01*
X2063803Y740227D01*
X2065097Y743093D01*
X2065190Y743186D01*
X2065282Y743463D01*
X2065467Y743833D01*
X2065837Y744295D01*
X2066207Y744942D01*
X2066669Y745682D01*
X2067871Y747346D01*
X2069443Y749195D01*
X2071292Y751044D01*
X2073419Y752894D01*
X2075915Y754465D01*
X2076007Y754558D01*
X2076285Y754650D01*
X2076654Y754835D01*
X2077117Y755113D01*
X2077856Y755390D01*
X2078596Y755667D01*
X2079521Y756037D01*
X2080538Y756407D01*
X2081647Y756777D01*
X2082849Y757147D01*
X2085438Y757701D01*
X2088396Y758164D01*
X2091447Y758348D01*
X2092372D01*
X2093019Y758256D01*
D02*
G37*
G36*
X2147846Y757424D02*
X2148585Y757331D01*
X2149510Y757239D01*
X2150527Y757054D01*
X2151544Y756869D01*
X2153948Y756222D01*
X2156352Y755297D01*
X2157553Y754743D01*
X2158755Y754096D01*
X2159865Y753263D01*
X2160882Y752339D01*
X2160974Y752246D01*
X2161159Y752154D01*
X2161344Y751784D01*
X2161714Y751414D01*
X2162176Y750952D01*
X2162639Y750305D01*
X2163101Y749658D01*
X2163656Y748826D01*
X2164580Y747069D01*
X2165505Y744850D01*
X2165875Y743740D01*
X2166059Y742446D01*
X2166244Y741152D01*
X2166337Y739765D01*
Y739580D01*
Y739118D01*
X2166244Y738378D01*
X2166152Y737361D01*
X2165967Y736252D01*
X2165597Y734957D01*
X2165227Y733570D01*
X2164673Y732183D01*
X2164580Y731999D01*
X2164395Y731536D01*
X2164025Y730797D01*
X2163471Y729780D01*
X2162731Y728670D01*
X2161806Y727283D01*
X2160697Y725896D01*
X2159403Y724325D01*
X2159218Y724140D01*
X2158755Y723585D01*
X2158293Y723123D01*
X2157831Y722660D01*
X2157276Y722106D01*
X2156536Y721366D01*
X2155797Y720626D01*
X2154872Y719794D01*
X2153948Y718870D01*
X2152838Y717853D01*
X2151636Y716836D01*
X2150342Y715634D01*
X2148863Y714432D01*
X2147383Y713138D01*
X2147291Y713045D01*
X2147106Y712860D01*
X2146736Y712583D01*
X2146274Y712213D01*
X2145719Y711658D01*
X2145072Y711103D01*
X2143593Y709902D01*
X2142021Y708515D01*
X2140542Y707128D01*
X2139247Y705926D01*
X2138692Y705464D01*
X2138230Y705001D01*
X2138138Y704909D01*
X2137860Y704632D01*
X2137491Y704262D01*
X2137028Y703707D01*
X2136566Y703060D01*
X2136011Y702413D01*
X2134902Y700841D01*
X2166429D01*
Y693259D01*
X2123992D01*
Y693352D01*
Y693722D01*
Y694276D01*
X2124084Y695016D01*
X2124177Y695848D01*
X2124362Y696773D01*
X2124547Y697697D01*
X2124917Y698714D01*
Y698807D01*
X2125009Y698899D01*
X2125194Y699454D01*
X2125564Y700286D01*
X2126118Y701396D01*
X2126858Y702690D01*
X2127783Y704169D01*
X2128800Y705649D01*
X2130094Y707220D01*
Y707313D01*
X2130279Y707405D01*
X2130741Y707960D01*
X2131573Y708792D01*
X2132775Y709994D01*
X2134162Y711381D01*
X2135919Y713045D01*
X2138045Y714894D01*
X2140357Y716836D01*
X2140449Y716928D01*
X2140819Y717206D01*
X2141374Y717668D01*
X2142021Y718223D01*
X2142853Y718962D01*
X2143870Y719794D01*
X2144887Y720719D01*
X2146089Y721736D01*
X2148400Y723955D01*
X2150712Y726174D01*
X2151821Y727283D01*
X2152838Y728393D01*
X2153763Y729410D01*
X2154502Y730427D01*
Y730519D01*
X2154687Y730612D01*
X2154872Y730889D01*
X2155057Y731259D01*
X2155704Y732276D01*
X2156444Y733478D01*
X2157091Y734957D01*
X2157738Y736529D01*
X2158108Y738286D01*
X2158293Y739950D01*
Y740042D01*
Y740135D01*
X2158201Y740689D01*
X2158108Y741614D01*
X2157831Y742631D01*
X2157461Y743925D01*
X2156814Y745220D01*
X2155982Y746514D01*
X2154872Y747809D01*
X2154687Y747993D01*
X2154225Y748363D01*
X2153578Y748826D01*
X2152561Y749473D01*
X2151266Y750027D01*
X2149787Y750582D01*
X2148031Y750952D01*
X2146089Y751044D01*
X2145534D01*
X2145164Y750952D01*
X2144055Y750860D01*
X2142761Y750582D01*
X2141374Y750212D01*
X2139802Y749565D01*
X2138323Y748733D01*
X2136936Y747624D01*
X2136751Y747439D01*
X2136381Y746976D01*
X2135826Y746237D01*
X2135272Y745127D01*
X2134624Y743833D01*
X2134070Y742169D01*
X2133700Y740320D01*
X2133515Y738193D01*
X2125471Y739025D01*
Y739118D01*
X2125564Y739395D01*
Y739857D01*
X2125656Y740504D01*
X2125841Y741244D01*
X2126026Y742076D01*
X2126303Y743093D01*
X2126581Y744110D01*
X2127320Y746329D01*
X2128430Y748548D01*
X2129077Y749658D01*
X2129909Y750767D01*
X2130741Y751784D01*
X2131666Y752709D01*
X2131758Y752801D01*
X2131943Y752894D01*
X2132221Y753171D01*
X2132683Y753448D01*
X2133238Y753818D01*
X2133885Y754188D01*
X2134624Y754650D01*
X2135549Y755113D01*
X2136566Y755575D01*
X2137675Y756037D01*
X2138877Y756407D01*
X2140172Y756777D01*
X2141559Y757054D01*
X2143038Y757331D01*
X2144610Y757424D01*
X2146274Y757516D01*
X2147198D01*
X2147846Y757424D01*
D02*
G37*
G36*
X1901319Y529655D02*
X1902151Y529562D01*
X1903168Y529470D01*
X1904185Y529377D01*
X1905387Y529100D01*
X1907883Y528545D01*
X1910657Y527713D01*
X1912044Y527158D01*
X1913338Y526511D01*
X1914633Y525679D01*
X1915927Y524847D01*
X1916020Y524755D01*
X1916204Y524662D01*
X1916574Y524385D01*
X1917037Y523922D01*
X1917499Y523460D01*
X1918146Y522813D01*
X1918793Y522073D01*
X1919533Y521334D01*
X1920273Y520409D01*
X1921012Y519300D01*
X1921844Y518190D01*
X1922584Y516988D01*
X1923231Y515601D01*
X1923971Y514215D01*
X1924525Y512735D01*
X1925080Y511071D01*
X1916759Y509130D01*
Y509222D01*
X1916667Y509407D01*
X1916482Y509777D01*
X1916297Y510239D01*
X1916112Y510794D01*
X1915835Y511533D01*
X1915095Y513013D01*
X1914170Y514677D01*
X1913061Y516341D01*
X1911674Y517913D01*
X1910195Y519300D01*
X1910010Y519485D01*
X1909455Y519854D01*
X1908531Y520317D01*
X1907329Y520964D01*
X1905757Y521519D01*
X1904000Y522073D01*
X1901874Y522443D01*
X1899562Y522536D01*
X1898823D01*
X1898360Y522443D01*
X1897713D01*
X1896974Y522351D01*
X1895217Y522073D01*
X1893275Y521704D01*
X1891241Y521056D01*
X1889115Y520132D01*
X1887173Y518930D01*
X1887081D01*
X1886988Y518745D01*
X1886341Y518283D01*
X1885509Y517543D01*
X1884492Y516434D01*
X1883290Y515047D01*
X1882181Y513475D01*
X1881164Y511533D01*
X1880239Y509407D01*
Y509314D01*
X1880147Y509130D01*
X1880054Y508852D01*
X1879962Y508390D01*
X1879777Y507835D01*
X1879592Y507188D01*
X1879315Y505616D01*
X1878945Y503767D01*
X1878575Y501733D01*
X1878390Y499514D01*
X1878297Y497110D01*
Y497018D01*
Y496740D01*
Y496278D01*
Y495723D01*
X1878390Y495076D01*
Y494244D01*
X1878482Y493320D01*
X1878575Y492303D01*
X1878852Y490084D01*
X1879315Y487680D01*
X1879869Y485276D01*
X1880609Y482872D01*
Y482780D01*
X1880701Y482595D01*
X1880886Y482317D01*
X1881071Y481855D01*
X1881626Y480746D01*
X1882458Y479451D01*
X1883475Y477972D01*
X1884769Y476400D01*
X1886249Y475013D01*
X1888005Y473719D01*
X1888098D01*
X1888283Y473626D01*
X1888560Y473442D01*
X1888930Y473257D01*
X1889392Y473072D01*
X1889947Y472794D01*
X1891241Y472240D01*
X1892906Y471685D01*
X1894755Y471223D01*
X1896789Y470853D01*
X1898915Y470760D01*
X1899562D01*
X1900117Y470853D01*
X1900764D01*
X1901411Y470945D01*
X1903076Y471315D01*
X1905017Y471777D01*
X1906959Y472517D01*
X1908993Y473534D01*
X1910010Y474089D01*
X1910934Y474828D01*
X1911027Y474921D01*
X1911119Y475013D01*
X1911397Y475291D01*
X1911767Y475568D01*
X1912136Y476030D01*
X1912599Y476585D01*
X1913153Y477140D01*
X1913616Y477879D01*
X1914170Y478712D01*
X1914818Y479636D01*
X1915372Y480561D01*
X1915927Y481670D01*
X1916389Y482872D01*
X1916852Y484166D01*
X1917314Y485553D01*
X1917684Y487033D01*
X1926190Y484906D01*
Y484814D01*
X1926097Y484444D01*
X1925912Y483889D01*
X1925635Y483149D01*
X1925358Y482317D01*
X1924988Y481300D01*
X1924525Y480191D01*
X1923971Y478989D01*
X1922676Y476400D01*
X1921012Y473811D01*
X1919995Y472517D01*
X1918978Y471223D01*
X1917869Y470113D01*
X1916574Y469004D01*
X1916482Y468911D01*
X1916297Y468726D01*
X1915835Y468541D01*
X1915372Y468172D01*
X1914633Y467709D01*
X1913893Y467247D01*
X1912876Y466785D01*
X1911859Y466322D01*
X1910657Y465768D01*
X1909363Y465305D01*
X1907976Y464843D01*
X1906497Y464381D01*
X1904925Y464011D01*
X1903261Y463826D01*
X1901504Y463641D01*
X1899655Y463549D01*
X1898638D01*
X1897898Y463641D01*
X1897066D01*
X1896049Y463734D01*
X1894940Y463919D01*
X1893645Y464103D01*
X1890964Y464566D01*
X1888190Y465305D01*
X1885417Y466322D01*
X1884122Y466970D01*
X1882828Y467709D01*
X1882735Y467802D01*
X1882550Y467894D01*
X1882181Y468172D01*
X1881811Y468541D01*
X1881256Y468911D01*
X1880609Y469466D01*
X1879869Y470113D01*
X1879130Y470853D01*
X1878390Y471685D01*
X1877558Y472517D01*
X1875894Y474643D01*
X1874322Y477140D01*
X1872935Y479913D01*
Y480006D01*
X1872750Y480283D01*
X1872658Y480746D01*
X1872380Y481300D01*
X1872195Y482040D01*
X1871918Y482964D01*
X1871548Y483982D01*
X1871271Y485091D01*
X1870993Y486293D01*
X1870624Y487680D01*
X1870161Y490546D01*
X1869792Y493782D01*
X1869607Y497110D01*
Y497203D01*
Y497573D01*
Y498127D01*
X1869699Y498774D01*
Y499699D01*
X1869792Y500624D01*
X1869884Y501826D01*
X1870069Y503027D01*
X1870531Y505709D01*
X1871178Y508667D01*
X1872103Y511626D01*
X1873397Y514492D01*
X1873490Y514584D01*
X1873582Y514862D01*
X1873767Y515232D01*
X1874137Y515694D01*
X1874507Y516341D01*
X1874969Y517081D01*
X1876171Y518745D01*
X1877743Y520594D01*
X1879592Y522443D01*
X1881718Y524292D01*
X1884215Y525864D01*
X1884307Y525957D01*
X1884584Y526049D01*
X1884954Y526234D01*
X1885417Y526511D01*
X1886156Y526789D01*
X1886896Y527066D01*
X1887820Y527436D01*
X1888837Y527806D01*
X1889947Y528175D01*
X1891149Y528545D01*
X1893738Y529100D01*
X1896696Y529562D01*
X1899747Y529747D01*
X1900672D01*
X1901319Y529655D01*
D02*
G37*
G36*
X1962987Y464658D02*
X1955128D01*
Y514677D01*
X1955036Y514584D01*
X1954574Y514215D01*
X1954019Y513660D01*
X1953094Y513013D01*
X1952077Y512181D01*
X1950783Y511256D01*
X1949304Y510239D01*
X1947639Y509222D01*
X1947547D01*
X1947455Y509130D01*
X1946900Y508760D01*
X1945975Y508297D01*
X1944866Y507743D01*
X1943571Y507096D01*
X1942185Y506448D01*
X1940798Y505801D01*
X1939411Y505246D01*
Y512828D01*
X1939503D01*
X1939688Y513013D01*
X1940058Y513105D01*
X1940520Y513383D01*
X1941075Y513660D01*
X1941722Y514030D01*
X1943294Y514954D01*
X1945143Y515971D01*
X1946992Y517266D01*
X1948934Y518745D01*
X1950875Y520317D01*
X1950968Y520409D01*
X1951060Y520502D01*
X1951338Y520779D01*
X1951708Y521056D01*
X1952540Y521981D01*
X1953649Y523090D01*
X1954759Y524385D01*
X1955961Y525864D01*
X1956978Y527343D01*
X1957902Y528915D01*
X1962987D01*
Y464658D01*
D02*
G37*
%LPC*%
G36*
X1946882Y1555098D02*
Y1534943D01*
X1975543D01*
X1946882Y1555098D01*
D02*
G37*
%LPD*%
D23*
X2442200Y667746D02*
Y868954D01*
Y667746D02*
X2823413D01*
Y868954D01*
X2442200D02*
X2823413D01*
X1868213Y1733882D02*
X1978215D01*
X1868213Y1513882D02*
Y1733882D01*
Y1513882D02*
X1978215D01*
Y1733882D01*
X2039422Y1739229D02*
Y1814231D01*
Y1739229D02*
X2179427D01*
Y1814231D01*
X2039422D02*
X2179427D01*
X2018604Y680049D02*
Y755051D01*
Y680049D02*
X2158609D01*
Y755051D01*
X2018604D02*
X2158609D01*
X1729608Y378551D02*
Y548549D01*
Y378551D02*
X2009608D01*
Y548549D01*
X1729608D02*
X2009608D01*
%TF.MD5,223db9341020aa3f422f754a7f1a1610*%
M02*
