%TF.GenerationSoftware,Altium Limited,Altium Designer,22.10.1 (41)*%
G04 Layer_Color=2752767*
%FSLAX45Y45*%
%MOMM*%
%TF.SameCoordinates,D7E988CF-99FB-4832-8B9A-B6F58F79CD6C*%
%TF.FilePolarity,Positive*%
%TF.FileFunction,Drawing*%
%TF.Part,Single*%
G01*
G75*
%TA.AperFunction,NonConductor*%
%ADD28C,0.12700*%
%ADD29C,0.16933*%
D28*
X2988407Y196850D02*
Y298450D01*
X3090007D01*
Y196850D01*
X2988407D01*
Y450850D02*
Y552450D01*
X3090007D01*
Y450850D01*
X2988407D01*
Y704850D02*
Y806450D01*
X3090007D01*
Y704850D01*
X2988407D01*
Y958850D02*
Y1060450D01*
X3090007D01*
Y958850D01*
X2988407D01*
Y1212850D02*
Y1314450D01*
X3090007D01*
Y1212850D01*
X2988407D01*
Y1466850D02*
Y1568450D01*
X3090007D01*
Y1466850D01*
X2988407D01*
Y1720850D02*
Y1822450D01*
X3090007D01*
Y1720850D01*
X2988407D01*
Y1974850D02*
Y2076450D01*
X3090007D01*
Y1974850D01*
X2988407D01*
X613507Y190475D02*
Y292075D01*
X715107D01*
Y190475D01*
X613507D01*
Y444475D02*
Y546075D01*
X715107D01*
Y444475D01*
X613507D01*
Y698475D02*
Y800075D01*
X715107D01*
Y698475D01*
X613507D01*
Y952475D02*
Y1054075D01*
X715107D01*
Y952475D01*
X613507D01*
Y1206475D02*
Y1308075D01*
X715107D01*
Y1206475D01*
X613507D01*
Y1460475D02*
Y1562075D01*
X715107D01*
Y1460475D01*
X613507D01*
Y1714475D02*
Y1816075D01*
X715107D01*
Y1714475D01*
X613507D01*
Y1968475D02*
Y2070075D01*
X715107D01*
Y1968475D01*
X613507D01*
D29*
X1745414Y1725485D02*
G03*
X1745414Y1725485I-50800J0D01*
G01*
X2378807Y1682750D02*
G03*
X2378807Y1682750I-50800J0D01*
G01*
%TF.MD5,ed97a0e6df5e573c66cc1ed5d748ebec*%
M02*
